<?xml version="1.0" encoding="utf-8" standalone="no"?>
<!DOCTYPE svg PUBLIC "-//W3C//DTD SVG 1.1//EN"
  "http://www.w3.org/Graphics/SVG/1.1/DTD/svg11.dtd">
<svg xmlns:xlink="http://www.w3.org/1999/xlink" width="3600pt" height="720pt" viewBox="0 0 3600 720" xmlns="http://www.w3.org/2000/svg" version="1.1">
 <metadata>
  <rdf:RDF xmlns:dc="http://purl.org/dc/elements/1.1/" xmlns:cc="http://creativecommons.org/ns#" xmlns:rdf="http://www.w3.org/1999/02/22-rdf-syntax-ns#">
   <cc:Work>
    <dc:type rdf:resource="http://purl.org/dc/dcmitype/StillImage"/>
    <dc:date>2022-01-25T00:18:34.897910</dc:date>
    <dc:format>image/svg+xml</dc:format>
    <dc:creator>
     <cc:Agent>
      <dc:title>Matplotlib v3.5.1, https://matplotlib.org/</dc:title>
     </cc:Agent>
    </dc:creator>
   </cc:Work>
  </rdf:RDF>
 </metadata>
 <defs>
  <style type="text/css">*{stroke-linejoin: round; stroke-linecap: butt}</style>
 </defs>
 <g id="figure_1">
  <g id="patch_1">
   <path d="M 0 720 
L 3600 720 
L 3600 0 
L 0 0 
z
" style="fill: #ffffff"/>
  </g>
  <g id="axes_1">
   <g id="patch_2">
    <path d="M 53.03 678.04 
L 3582.81 678.04 
L 3582.81 25.44 
L 53.03 25.44 
z
" style="fill: #ffffff"/>
   </g>
   <g id="matplotlib.axis_1">
    <g id="xtick_1">
     <g id="line2d_1">
      <path d="M 53.03 678.04 
L 53.03 25.44 
" clip-path="url(#pb1cd25b697)" style="fill: none; stroke: #b0b0b0; stroke-width: 0.8; stroke-linecap: square"/>
     </g>
     <g id="line2d_2">
      <defs>
       <path id="ma710f4bd75" d="M 0 0 
L 0 3.5 
" style="stroke: #000000; stroke-width: 0.8"/>
      </defs>
      <g>
       <use xlink:href="#ma710f4bd75" x="53.03" y="678.04" style="stroke: #000000; stroke-width: 0.8"/>
      </g>
     </g>
     <g id="text_1">
      <!-- 40 -->
      <g transform="translate(46.6675 692.638438)scale(0.1 -0.1)">
       <defs>
        <path id="DejaVuSans-34" d="M 2419 4116 
L 825 1625 
L 2419 1625 
L 2419 4116 
z
M 2253 4666 
L 3047 4666 
L 3047 1625 
L 3713 1625 
L 3713 1100 
L 3047 1100 
L 3047 0 
L 2419 0 
L 2419 1100 
L 313 1100 
L 313 1709 
L 2253 4666 
z
" transform="scale(0.015625)"/>
        <path id="DejaVuSans-30" d="M 2034 4250 
Q 1547 4250 1301 3770 
Q 1056 3291 1056 2328 
Q 1056 1369 1301 889 
Q 1547 409 2034 409 
Q 2525 409 2770 889 
Q 3016 1369 3016 2328 
Q 3016 3291 2770 3770 
Q 2525 4250 2034 4250 
z
M 2034 4750 
Q 2819 4750 3233 4129 
Q 3647 3509 3647 2328 
Q 3647 1150 3233 529 
Q 2819 -91 2034 -91 
Q 1250 -91 836 529 
Q 422 1150 422 2328 
Q 422 3509 836 4129 
Q 1250 4750 2034 4750 
z
" transform="scale(0.015625)"/>
       </defs>
       <use xlink:href="#DejaVuSans-34"/>
       <use xlink:href="#DejaVuSans-30" x="63.623047"/>
      </g>
     </g>
    </g>
    <g id="xtick_2">
     <g id="line2d_3">
      <path d="M 494.2525 678.04 
L 494.2525 25.44 
" clip-path="url(#pb1cd25b697)" style="fill: none; stroke: #b0b0b0; stroke-width: 0.8; stroke-linecap: square"/>
     </g>
     <g id="line2d_4">
      <g>
       <use xlink:href="#ma710f4bd75" x="494.2525" y="678.04" style="stroke: #000000; stroke-width: 0.8"/>
      </g>
     </g>
     <g id="text_2">
      <!-- 45 -->
      <g transform="translate(487.89 692.638438)scale(0.1 -0.1)">
       <defs>
        <path id="DejaVuSans-35" d="M 691 4666 
L 3169 4666 
L 3169 4134 
L 1269 4134 
L 1269 2991 
Q 1406 3038 1543 3061 
Q 1681 3084 1819 3084 
Q 2600 3084 3056 2656 
Q 3513 2228 3513 1497 
Q 3513 744 3044 326 
Q 2575 -91 1722 -91 
Q 1428 -91 1123 -41 
Q 819 9 494 109 
L 494 744 
Q 775 591 1075 516 
Q 1375 441 1709 441 
Q 2250 441 2565 725 
Q 2881 1009 2881 1497 
Q 2881 1984 2565 2268 
Q 2250 2553 1709 2553 
Q 1456 2553 1204 2497 
Q 953 2441 691 2322 
L 691 4666 
z
" transform="scale(0.015625)"/>
       </defs>
       <use xlink:href="#DejaVuSans-34"/>
       <use xlink:href="#DejaVuSans-35" x="63.623047"/>
      </g>
     </g>
    </g>
    <g id="xtick_3">
     <g id="line2d_5">
      <path d="M 935.475 678.04 
L 935.475 25.44 
" clip-path="url(#pb1cd25b697)" style="fill: none; stroke: #b0b0b0; stroke-width: 0.8; stroke-linecap: square"/>
     </g>
     <g id="line2d_6">
      <g>
       <use xlink:href="#ma710f4bd75" x="935.475" y="678.04" style="stroke: #000000; stroke-width: 0.8"/>
      </g>
     </g>
     <g id="text_3">
      <!-- 50 -->
      <g transform="translate(929.1125 692.638438)scale(0.1 -0.1)">
       <use xlink:href="#DejaVuSans-35"/>
       <use xlink:href="#DejaVuSans-30" x="63.623047"/>
      </g>
     </g>
    </g>
    <g id="xtick_4">
     <g id="line2d_7">
      <path d="M 1376.6975 678.04 
L 1376.6975 25.44 
" clip-path="url(#pb1cd25b697)" style="fill: none; stroke: #b0b0b0; stroke-width: 0.8; stroke-linecap: square"/>
     </g>
     <g id="line2d_8">
      <g>
       <use xlink:href="#ma710f4bd75" x="1376.6975" y="678.04" style="stroke: #000000; stroke-width: 0.8"/>
      </g>
     </g>
     <g id="text_4">
      <!-- 55 -->
      <g transform="translate(1370.335 692.638438)scale(0.1 -0.1)">
       <use xlink:href="#DejaVuSans-35"/>
       <use xlink:href="#DejaVuSans-35" x="63.623047"/>
      </g>
     </g>
    </g>
    <g id="xtick_5">
     <g id="line2d_9">
      <path d="M 1817.92 678.04 
L 1817.92 25.44 
" clip-path="url(#pb1cd25b697)" style="fill: none; stroke: #b0b0b0; stroke-width: 0.8; stroke-linecap: square"/>
     </g>
     <g id="line2d_10">
      <g>
       <use xlink:href="#ma710f4bd75" x="1817.92" y="678.04" style="stroke: #000000; stroke-width: 0.8"/>
      </g>
     </g>
     <g id="text_5">
      <!-- 60 -->
      <g transform="translate(1811.5575 692.638438)scale(0.1 -0.1)">
       <defs>
        <path id="DejaVuSans-36" d="M 2113 2584 
Q 1688 2584 1439 2293 
Q 1191 2003 1191 1497 
Q 1191 994 1439 701 
Q 1688 409 2113 409 
Q 2538 409 2786 701 
Q 3034 994 3034 1497 
Q 3034 2003 2786 2293 
Q 2538 2584 2113 2584 
z
M 3366 4563 
L 3366 3988 
Q 3128 4100 2886 4159 
Q 2644 4219 2406 4219 
Q 1781 4219 1451 3797 
Q 1122 3375 1075 2522 
Q 1259 2794 1537 2939 
Q 1816 3084 2150 3084 
Q 2853 3084 3261 2657 
Q 3669 2231 3669 1497 
Q 3669 778 3244 343 
Q 2819 -91 2113 -91 
Q 1303 -91 875 529 
Q 447 1150 447 2328 
Q 447 3434 972 4092 
Q 1497 4750 2381 4750 
Q 2619 4750 2861 4703 
Q 3103 4656 3366 4563 
z
" transform="scale(0.015625)"/>
       </defs>
       <use xlink:href="#DejaVuSans-36"/>
       <use xlink:href="#DejaVuSans-30" x="63.623047"/>
      </g>
     </g>
    </g>
    <g id="xtick_6">
     <g id="line2d_11">
      <path d="M 2259.1425 678.04 
L 2259.1425 25.44 
" clip-path="url(#pb1cd25b697)" style="fill: none; stroke: #b0b0b0; stroke-width: 0.8; stroke-linecap: square"/>
     </g>
     <g id="line2d_12">
      <g>
       <use xlink:href="#ma710f4bd75" x="2259.1425" y="678.04" style="stroke: #000000; stroke-width: 0.8"/>
      </g>
     </g>
     <g id="text_6">
      <!-- 65 -->
      <g transform="translate(2252.78 692.638438)scale(0.1 -0.1)">
       <use xlink:href="#DejaVuSans-36"/>
       <use xlink:href="#DejaVuSans-35" x="63.623047"/>
      </g>
     </g>
    </g>
    <g id="xtick_7">
     <g id="line2d_13">
      <path d="M 2700.365 678.04 
L 2700.365 25.44 
" clip-path="url(#pb1cd25b697)" style="fill: none; stroke: #b0b0b0; stroke-width: 0.8; stroke-linecap: square"/>
     </g>
     <g id="line2d_14">
      <g>
       <use xlink:href="#ma710f4bd75" x="2700.365" y="678.04" style="stroke: #000000; stroke-width: 0.8"/>
      </g>
     </g>
     <g id="text_7">
      <!-- 70 -->
      <g transform="translate(2694.0025 692.638438)scale(0.1 -0.1)">
       <defs>
        <path id="DejaVuSans-37" d="M 525 4666 
L 3525 4666 
L 3525 4397 
L 1831 0 
L 1172 0 
L 2766 4134 
L 525 4134 
L 525 4666 
z
" transform="scale(0.015625)"/>
       </defs>
       <use xlink:href="#DejaVuSans-37"/>
       <use xlink:href="#DejaVuSans-30" x="63.623047"/>
      </g>
     </g>
    </g>
    <g id="xtick_8">
     <g id="line2d_15">
      <path d="M 3141.5875 678.04 
L 3141.5875 25.44 
" clip-path="url(#pb1cd25b697)" style="fill: none; stroke: #b0b0b0; stroke-width: 0.8; stroke-linecap: square"/>
     </g>
     <g id="line2d_16">
      <g>
       <use xlink:href="#ma710f4bd75" x="3141.5875" y="678.04" style="stroke: #000000; stroke-width: 0.8"/>
      </g>
     </g>
     <g id="text_8">
      <!-- 75 -->
      <g transform="translate(3135.225 692.638438)scale(0.1 -0.1)">
       <use xlink:href="#DejaVuSans-37"/>
       <use xlink:href="#DejaVuSans-35" x="63.623047"/>
      </g>
     </g>
    </g>
    <g id="xtick_9">
     <g id="line2d_17">
      <path d="M 3582.81 678.04 
L 3582.81 25.44 
" clip-path="url(#pb1cd25b697)" style="fill: none; stroke: #b0b0b0; stroke-width: 0.8; stroke-linecap: square"/>
     </g>
     <g id="line2d_18">
      <g>
       <use xlink:href="#ma710f4bd75" x="3582.81" y="678.04" style="stroke: #000000; stroke-width: 0.8"/>
      </g>
     </g>
     <g id="text_9">
      <!-- 80 -->
      <g transform="translate(3576.4475 692.638438)scale(0.1 -0.1)">
       <defs>
        <path id="DejaVuSans-38" d="M 2034 2216 
Q 1584 2216 1326 1975 
Q 1069 1734 1069 1313 
Q 1069 891 1326 650 
Q 1584 409 2034 409 
Q 2484 409 2743 651 
Q 3003 894 3003 1313 
Q 3003 1734 2745 1975 
Q 2488 2216 2034 2216 
z
M 1403 2484 
Q 997 2584 770 2862 
Q 544 3141 544 3541 
Q 544 4100 942 4425 
Q 1341 4750 2034 4750 
Q 2731 4750 3128 4425 
Q 3525 4100 3525 3541 
Q 3525 3141 3298 2862 
Q 3072 2584 2669 2484 
Q 3125 2378 3379 2068 
Q 3634 1759 3634 1313 
Q 3634 634 3220 271 
Q 2806 -91 2034 -91 
Q 1263 -91 848 271 
Q 434 634 434 1313 
Q 434 1759 690 2068 
Q 947 2378 1403 2484 
z
M 1172 3481 
Q 1172 3119 1398 2916 
Q 1625 2713 2034 2713 
Q 2441 2713 2670 2916 
Q 2900 3119 2900 3481 
Q 2900 3844 2670 4047 
Q 2441 4250 2034 4250 
Q 1625 4250 1398 4047 
Q 1172 3844 1172 3481 
z
" transform="scale(0.015625)"/>
       </defs>
       <use xlink:href="#DejaVuSans-38"/>
       <use xlink:href="#DejaVuSans-30" x="63.623047"/>
      </g>
     </g>
    </g>
    <g id="text_10">
     <!-- Frequency (Hz) -->
     <g transform="translate(1780.215312 706.316563)scale(0.1 -0.1)">
      <defs>
       <path id="DejaVuSans-46" d="M 628 4666 
L 3309 4666 
L 3309 4134 
L 1259 4134 
L 1259 2759 
L 3109 2759 
L 3109 2228 
L 1259 2228 
L 1259 0 
L 628 0 
L 628 4666 
z
" transform="scale(0.015625)"/>
       <path id="DejaVuSans-72" d="M 2631 2963 
Q 2534 3019 2420 3045 
Q 2306 3072 2169 3072 
Q 1681 3072 1420 2755 
Q 1159 2438 1159 1844 
L 1159 0 
L 581 0 
L 581 3500 
L 1159 3500 
L 1159 2956 
Q 1341 3275 1631 3429 
Q 1922 3584 2338 3584 
Q 2397 3584 2469 3576 
Q 2541 3569 2628 3553 
L 2631 2963 
z
" transform="scale(0.015625)"/>
       <path id="DejaVuSans-65" d="M 3597 1894 
L 3597 1613 
L 953 1613 
Q 991 1019 1311 708 
Q 1631 397 2203 397 
Q 2534 397 2845 478 
Q 3156 559 3463 722 
L 3463 178 
Q 3153 47 2828 -22 
Q 2503 -91 2169 -91 
Q 1331 -91 842 396 
Q 353 884 353 1716 
Q 353 2575 817 3079 
Q 1281 3584 2069 3584 
Q 2775 3584 3186 3129 
Q 3597 2675 3597 1894 
z
M 3022 2063 
Q 3016 2534 2758 2815 
Q 2500 3097 2075 3097 
Q 1594 3097 1305 2825 
Q 1016 2553 972 2059 
L 3022 2063 
z
" transform="scale(0.015625)"/>
       <path id="DejaVuSans-71" d="M 947 1747 
Q 947 1113 1208 752 
Q 1469 391 1925 391 
Q 2381 391 2643 752 
Q 2906 1113 2906 1747 
Q 2906 2381 2643 2742 
Q 2381 3103 1925 3103 
Q 1469 3103 1208 2742 
Q 947 2381 947 1747 
z
M 2906 525 
Q 2725 213 2448 61 
Q 2172 -91 1784 -91 
Q 1150 -91 751 415 
Q 353 922 353 1747 
Q 353 2572 751 3078 
Q 1150 3584 1784 3584 
Q 2172 3584 2448 3432 
Q 2725 3281 2906 2969 
L 2906 3500 
L 3481 3500 
L 3481 -1331 
L 2906 -1331 
L 2906 525 
z
" transform="scale(0.015625)"/>
       <path id="DejaVuSans-75" d="M 544 1381 
L 544 3500 
L 1119 3500 
L 1119 1403 
Q 1119 906 1312 657 
Q 1506 409 1894 409 
Q 2359 409 2629 706 
Q 2900 1003 2900 1516 
L 2900 3500 
L 3475 3500 
L 3475 0 
L 2900 0 
L 2900 538 
Q 2691 219 2414 64 
Q 2138 -91 1772 -91 
Q 1169 -91 856 284 
Q 544 659 544 1381 
z
M 1991 3584 
L 1991 3584 
z
" transform="scale(0.015625)"/>
       <path id="DejaVuSans-6e" d="M 3513 2113 
L 3513 0 
L 2938 0 
L 2938 2094 
Q 2938 2591 2744 2837 
Q 2550 3084 2163 3084 
Q 1697 3084 1428 2787 
Q 1159 2491 1159 1978 
L 1159 0 
L 581 0 
L 581 3500 
L 1159 3500 
L 1159 2956 
Q 1366 3272 1645 3428 
Q 1925 3584 2291 3584 
Q 2894 3584 3203 3211 
Q 3513 2838 3513 2113 
z
" transform="scale(0.015625)"/>
       <path id="DejaVuSans-63" d="M 3122 3366 
L 3122 2828 
Q 2878 2963 2633 3030 
Q 2388 3097 2138 3097 
Q 1578 3097 1268 2742 
Q 959 2388 959 1747 
Q 959 1106 1268 751 
Q 1578 397 2138 397 
Q 2388 397 2633 464 
Q 2878 531 3122 666 
L 3122 134 
Q 2881 22 2623 -34 
Q 2366 -91 2075 -91 
Q 1284 -91 818 406 
Q 353 903 353 1747 
Q 353 2603 823 3093 
Q 1294 3584 2113 3584 
Q 2378 3584 2631 3529 
Q 2884 3475 3122 3366 
z
" transform="scale(0.015625)"/>
       <path id="DejaVuSans-79" d="M 2059 -325 
Q 1816 -950 1584 -1140 
Q 1353 -1331 966 -1331 
L 506 -1331 
L 506 -850 
L 844 -850 
Q 1081 -850 1212 -737 
Q 1344 -625 1503 -206 
L 1606 56 
L 191 3500 
L 800 3500 
L 1894 763 
L 2988 3500 
L 3597 3500 
L 2059 -325 
z
" transform="scale(0.015625)"/>
       <path id="DejaVuSans-20" transform="scale(0.015625)"/>
       <path id="DejaVuSans-28" d="M 1984 4856 
Q 1566 4138 1362 3434 
Q 1159 2731 1159 2009 
Q 1159 1288 1364 580 
Q 1569 -128 1984 -844 
L 1484 -844 
Q 1016 -109 783 600 
Q 550 1309 550 2009 
Q 550 2706 781 3412 
Q 1013 4119 1484 4856 
L 1984 4856 
z
" transform="scale(0.015625)"/>
       <path id="DejaVuSans-48" d="M 628 4666 
L 1259 4666 
L 1259 2753 
L 3553 2753 
L 3553 4666 
L 4184 4666 
L 4184 0 
L 3553 0 
L 3553 2222 
L 1259 2222 
L 1259 0 
L 628 0 
L 628 4666 
z
" transform="scale(0.015625)"/>
       <path id="DejaVuSans-7a" d="M 353 3500 
L 3084 3500 
L 3084 2975 
L 922 459 
L 3084 459 
L 3084 0 
L 275 0 
L 275 525 
L 2438 3041 
L 353 3041 
L 353 3500 
z
" transform="scale(0.015625)"/>
       <path id="DejaVuSans-29" d="M 513 4856 
L 1013 4856 
Q 1481 4119 1714 3412 
Q 1947 2706 1947 2009 
Q 1947 1309 1714 600 
Q 1481 -109 1013 -844 
L 513 -844 
Q 928 -128 1133 580 
Q 1338 1288 1338 2009 
Q 1338 2731 1133 3434 
Q 928 4138 513 4856 
z
" transform="scale(0.015625)"/>
      </defs>
      <use xlink:href="#DejaVuSans-46"/>
      <use xlink:href="#DejaVuSans-72" x="50.269531"/>
      <use xlink:href="#DejaVuSans-65" x="89.132812"/>
      <use xlink:href="#DejaVuSans-71" x="150.65625"/>
      <use xlink:href="#DejaVuSans-75" x="214.132812"/>
      <use xlink:href="#DejaVuSans-65" x="277.511719"/>
      <use xlink:href="#DejaVuSans-6e" x="339.035156"/>
      <use xlink:href="#DejaVuSans-63" x="402.414062"/>
      <use xlink:href="#DejaVuSans-79" x="457.394531"/>
      <use xlink:href="#DejaVuSans-20" x="516.574219"/>
      <use xlink:href="#DejaVuSans-28" x="548.361328"/>
      <use xlink:href="#DejaVuSans-48" x="587.375"/>
      <use xlink:href="#DejaVuSans-7a" x="662.570312"/>
      <use xlink:href="#DejaVuSans-29" x="715.060547"/>
     </g>
    </g>
   </g>
   <g id="matplotlib.axis_2">
    <g id="ytick_1">
     <g id="line2d_19">
      <path d="M 53.03 638.075323 
L 3582.81 638.075323 
" clip-path="url(#pb1cd25b697)" style="fill: none; stroke: #b0b0b0; stroke-width: 0.8; stroke-linecap: square"/>
     </g>
     <g id="line2d_20">
      <defs>
       <path id="md98eb871fc" d="M 0 0 
L -3.5 0 
" style="stroke: #000000; stroke-width: 0.8"/>
      </defs>
      <g>
       <use xlink:href="#md98eb871fc" x="53.03" y="638.075323" style="stroke: #000000; stroke-width: 0.8"/>
      </g>
     </g>
     <g id="text_11">
      <!-- −50 -->
      <g transform="translate(24.925313 641.874542)scale(0.1 -0.1)">
       <defs>
        <path id="DejaVuSans-2212" d="M 678 2272 
L 4684 2272 
L 4684 1741 
L 678 1741 
L 678 2272 
z
" transform="scale(0.015625)"/>
       </defs>
       <use xlink:href="#DejaVuSans-2212"/>
       <use xlink:href="#DejaVuSans-35" x="83.789062"/>
       <use xlink:href="#DejaVuSans-30" x="147.412109"/>
      </g>
     </g>
    </g>
    <g id="ytick_2">
     <g id="line2d_21">
      <path d="M 53.03 523.653471 
L 3582.81 523.653471 
" clip-path="url(#pb1cd25b697)" style="fill: none; stroke: #b0b0b0; stroke-width: 0.8; stroke-linecap: square"/>
     </g>
     <g id="line2d_22">
      <g>
       <use xlink:href="#md98eb871fc" x="53.03" y="523.653471" style="stroke: #000000; stroke-width: 0.8"/>
      </g>
     </g>
     <g id="text_12">
      <!-- −40 -->
      <g transform="translate(24.925313 527.45269)scale(0.1 -0.1)">
       <use xlink:href="#DejaVuSans-2212"/>
       <use xlink:href="#DejaVuSans-34" x="83.789062"/>
       <use xlink:href="#DejaVuSans-30" x="147.412109"/>
      </g>
     </g>
    </g>
    <g id="ytick_3">
     <g id="line2d_23">
      <path d="M 53.03 409.231619 
L 3582.81 409.231619 
" clip-path="url(#pb1cd25b697)" style="fill: none; stroke: #b0b0b0; stroke-width: 0.8; stroke-linecap: square"/>
     </g>
     <g id="line2d_24">
      <g>
       <use xlink:href="#md98eb871fc" x="53.03" y="409.231619" style="stroke: #000000; stroke-width: 0.8"/>
      </g>
     </g>
     <g id="text_13">
      <!-- −30 -->
      <g transform="translate(24.925313 413.030838)scale(0.1 -0.1)">
       <defs>
        <path id="DejaVuSans-33" d="M 2597 2516 
Q 3050 2419 3304 2112 
Q 3559 1806 3559 1356 
Q 3559 666 3084 287 
Q 2609 -91 1734 -91 
Q 1441 -91 1130 -33 
Q 819 25 488 141 
L 488 750 
Q 750 597 1062 519 
Q 1375 441 1716 441 
Q 2309 441 2620 675 
Q 2931 909 2931 1356 
Q 2931 1769 2642 2001 
Q 2353 2234 1838 2234 
L 1294 2234 
L 1294 2753 
L 1863 2753 
Q 2328 2753 2575 2939 
Q 2822 3125 2822 3475 
Q 2822 3834 2567 4026 
Q 2313 4219 1838 4219 
Q 1578 4219 1281 4162 
Q 984 4106 628 3988 
L 628 4550 
Q 988 4650 1302 4700 
Q 1616 4750 1894 4750 
Q 2613 4750 3031 4423 
Q 3450 4097 3450 3541 
Q 3450 3153 3228 2886 
Q 3006 2619 2597 2516 
z
" transform="scale(0.015625)"/>
       </defs>
       <use xlink:href="#DejaVuSans-2212"/>
       <use xlink:href="#DejaVuSans-33" x="83.789062"/>
       <use xlink:href="#DejaVuSans-30" x="147.412109"/>
      </g>
     </g>
    </g>
    <g id="ytick_4">
     <g id="line2d_25">
      <path d="M 53.03 294.809768 
L 3582.81 294.809768 
" clip-path="url(#pb1cd25b697)" style="fill: none; stroke: #b0b0b0; stroke-width: 0.8; stroke-linecap: square"/>
     </g>
     <g id="line2d_26">
      <g>
       <use xlink:href="#md98eb871fc" x="53.03" y="294.809768" style="stroke: #000000; stroke-width: 0.8"/>
      </g>
     </g>
     <g id="text_14">
      <!-- −20 -->
      <g transform="translate(24.925313 298.608986)scale(0.1 -0.1)">
       <defs>
        <path id="DejaVuSans-32" d="M 1228 531 
L 3431 531 
L 3431 0 
L 469 0 
L 469 531 
Q 828 903 1448 1529 
Q 2069 2156 2228 2338 
Q 2531 2678 2651 2914 
Q 2772 3150 2772 3378 
Q 2772 3750 2511 3984 
Q 2250 4219 1831 4219 
Q 1534 4219 1204 4116 
Q 875 4013 500 3803 
L 500 4441 
Q 881 4594 1212 4672 
Q 1544 4750 1819 4750 
Q 2544 4750 2975 4387 
Q 3406 4025 3406 3419 
Q 3406 3131 3298 2873 
Q 3191 2616 2906 2266 
Q 2828 2175 2409 1742 
Q 1991 1309 1228 531 
z
" transform="scale(0.015625)"/>
       </defs>
       <use xlink:href="#DejaVuSans-2212"/>
       <use xlink:href="#DejaVuSans-32" x="83.789062"/>
       <use xlink:href="#DejaVuSans-30" x="147.412109"/>
      </g>
     </g>
    </g>
    <g id="ytick_5">
     <g id="line2d_27">
      <path d="M 53.03 180.387916 
L 3582.81 180.387916 
" clip-path="url(#pb1cd25b697)" style="fill: none; stroke: #b0b0b0; stroke-width: 0.8; stroke-linecap: square"/>
     </g>
     <g id="line2d_28">
      <g>
       <use xlink:href="#md98eb871fc" x="53.03" y="180.387916" style="stroke: #000000; stroke-width: 0.8"/>
      </g>
     </g>
     <g id="text_15">
      <!-- −10 -->
      <g transform="translate(24.925313 184.187134)scale(0.1 -0.1)">
       <defs>
        <path id="DejaVuSans-31" d="M 794 531 
L 1825 531 
L 1825 4091 
L 703 3866 
L 703 4441 
L 1819 4666 
L 2450 4666 
L 2450 531 
L 3481 531 
L 3481 0 
L 794 0 
L 794 531 
z
" transform="scale(0.015625)"/>
       </defs>
       <use xlink:href="#DejaVuSans-2212"/>
       <use xlink:href="#DejaVuSans-31" x="83.789062"/>
       <use xlink:href="#DejaVuSans-30" x="147.412109"/>
      </g>
     </g>
    </g>
    <g id="ytick_6">
     <g id="line2d_29">
      <path d="M 53.03 65.966064 
L 3582.81 65.966064 
" clip-path="url(#pb1cd25b697)" style="fill: none; stroke: #b0b0b0; stroke-width: 0.8; stroke-linecap: square"/>
     </g>
     <g id="line2d_30">
      <g>
       <use xlink:href="#md98eb871fc" x="53.03" y="65.966064" style="stroke: #000000; stroke-width: 0.8"/>
      </g>
     </g>
     <g id="text_16">
      <!-- 0 -->
      <g transform="translate(39.6675 69.765283)scale(0.1 -0.1)">
       <use xlink:href="#DejaVuSans-30"/>
      </g>
     </g>
    </g>
    <g id="text_17">
     <!-- Gain (dB) -->
     <g transform="translate(18.845625 375.331406)rotate(-90)scale(0.1 -0.1)">
      <defs>
       <path id="DejaVuSans-47" d="M 3809 666 
L 3809 1919 
L 2778 1919 
L 2778 2438 
L 4434 2438 
L 4434 434 
Q 4069 175 3628 42 
Q 3188 -91 2688 -91 
Q 1594 -91 976 548 
Q 359 1188 359 2328 
Q 359 3472 976 4111 
Q 1594 4750 2688 4750 
Q 3144 4750 3555 4637 
Q 3966 4525 4313 4306 
L 4313 3634 
Q 3963 3931 3569 4081 
Q 3175 4231 2741 4231 
Q 1884 4231 1454 3753 
Q 1025 3275 1025 2328 
Q 1025 1384 1454 906 
Q 1884 428 2741 428 
Q 3075 428 3337 486 
Q 3600 544 3809 666 
z
" transform="scale(0.015625)"/>
       <path id="DejaVuSans-61" d="M 2194 1759 
Q 1497 1759 1228 1600 
Q 959 1441 959 1056 
Q 959 750 1161 570 
Q 1363 391 1709 391 
Q 2188 391 2477 730 
Q 2766 1069 2766 1631 
L 2766 1759 
L 2194 1759 
z
M 3341 1997 
L 3341 0 
L 2766 0 
L 2766 531 
Q 2569 213 2275 61 
Q 1981 -91 1556 -91 
Q 1019 -91 701 211 
Q 384 513 384 1019 
Q 384 1609 779 1909 
Q 1175 2209 1959 2209 
L 2766 2209 
L 2766 2266 
Q 2766 2663 2505 2880 
Q 2244 3097 1772 3097 
Q 1472 3097 1187 3025 
Q 903 2953 641 2809 
L 641 3341 
Q 956 3463 1253 3523 
Q 1550 3584 1831 3584 
Q 2591 3584 2966 3190 
Q 3341 2797 3341 1997 
z
" transform="scale(0.015625)"/>
       <path id="DejaVuSans-69" d="M 603 3500 
L 1178 3500 
L 1178 0 
L 603 0 
L 603 3500 
z
M 603 4863 
L 1178 4863 
L 1178 4134 
L 603 4134 
L 603 4863 
z
" transform="scale(0.015625)"/>
       <path id="DejaVuSans-64" d="M 2906 2969 
L 2906 4863 
L 3481 4863 
L 3481 0 
L 2906 0 
L 2906 525 
Q 2725 213 2448 61 
Q 2172 -91 1784 -91 
Q 1150 -91 751 415 
Q 353 922 353 1747 
Q 353 2572 751 3078 
Q 1150 3584 1784 3584 
Q 2172 3584 2448 3432 
Q 2725 3281 2906 2969 
z
M 947 1747 
Q 947 1113 1208 752 
Q 1469 391 1925 391 
Q 2381 391 2643 752 
Q 2906 1113 2906 1747 
Q 2906 2381 2643 2742 
Q 2381 3103 1925 3103 
Q 1469 3103 1208 2742 
Q 947 2381 947 1747 
z
" transform="scale(0.015625)"/>
       <path id="DejaVuSans-42" d="M 1259 2228 
L 1259 519 
L 2272 519 
Q 2781 519 3026 730 
Q 3272 941 3272 1375 
Q 3272 1813 3026 2020 
Q 2781 2228 2272 2228 
L 1259 2228 
z
M 1259 4147 
L 1259 2741 
L 2194 2741 
Q 2656 2741 2882 2914 
Q 3109 3088 3109 3444 
Q 3109 3797 2882 3972 
Q 2656 4147 2194 4147 
L 1259 4147 
z
M 628 4666 
L 2241 4666 
Q 2963 4666 3353 4366 
Q 3744 4066 3744 3513 
Q 3744 3084 3544 2831 
Q 3344 2578 2956 2516 
Q 3422 2416 3680 2098 
Q 3938 1781 3938 1306 
Q 3938 681 3513 340 
Q 3088 0 2303 0 
L 628 0 
L 628 4666 
z
" transform="scale(0.015625)"/>
      </defs>
      <use xlink:href="#DejaVuSans-47"/>
      <use xlink:href="#DejaVuSans-61" x="77.490234"/>
      <use xlink:href="#DejaVuSans-69" x="138.769531"/>
      <use xlink:href="#DejaVuSans-6e" x="166.552734"/>
      <use xlink:href="#DejaVuSans-20" x="229.931641"/>
      <use xlink:href="#DejaVuSans-28" x="261.71875"/>
      <use xlink:href="#DejaVuSans-64" x="300.732422"/>
      <use xlink:href="#DejaVuSans-42" x="364.208984"/>
      <use xlink:href="#DejaVuSans-29" x="432.8125"/>
     </g>
    </g>
   </g>
   <g id="line2d_31">
    <path d="M 51.926944 66.055421 
L 96.049194 65.145155 
L 108.182813 65.246806 
L 123.6256 65.614568 
L 148.995894 66.249446 
L 161.129512 66.315951 
L 173.263131 66.167121 
L 189.808975 65.720789 
L 210.767044 65.18556 
L 222.900663 65.102155 
L 235.034281 65.240796 
L 250.477069 65.658309 
L 273.64125 66.283946 
L 285.774869 66.36659 
L 297.908487 66.215592 
L 313.351275 65.775045 
L 335.4124 65.149762 
L 347.546019 65.04855 
L 359.679638 65.188519 
L 374.019369 65.597391 
L 398.286606 66.324569 
L 409.317169 66.427259 
L 420.347731 66.317885 
L 433.584406 65.953336 
L 462.263869 65.066465 
L 473.294431 64.987387 
L 484.324994 65.127171 
L 497.561669 65.526646 
L 524.035019 66.395358 
L 535.065581 66.496383 
L 546.096144 66.364256 
L 559.332819 65.953897 
L 586.909225 65.009088 
L 597.939787 64.910725 
L 608.97035 65.053985 
L 621.103969 65.4435 
L 649.783431 66.481475 
L 659.710938 66.581802 
L 669.638444 66.471435 
L 681.772063 66.089412 
L 713.760694 64.893532 
L 723.6882 64.819707 
L 733.615706 64.964954 
L 745.749325 65.391183 
L 775.531844 66.588511 
L 785.45935 66.686898 
L 795.386856 66.54837 
L 806.417419 66.15522 
L 839.509106 64.773979 
L 849.436613 64.706156 
L 859.364119 64.885496 
L 870.394681 65.326882 
L 900.1772 66.698579 
L 909.00165 66.822495 
L 917.8261 66.73241 
L 927.753606 66.394115 
L 942.093338 65.632183 
L 957.536125 64.850484 
L 967.463631 64.581754 
L 976.288081 64.57153 
L 985.112531 64.784709 
L 995.040037 65.245772 
L 1025.925612 66.877085 
L 1034.750063 67.002734 
L 1043.574513 66.878568 
L 1052.398963 66.523903 
L 1064.532581 65.787177 
L 1082.181481 64.716742 
L 1091.005931 64.411486 
L 1098.727325 64.346699 
L 1106.448719 64.485984 
L 1115.273169 64.873719 
L 1126.303731 65.596859 
L 1145.055688 66.85117 
L 1153.880138 67.183332 
L 1161.601531 67.245419 
L 1169.322925 67.077267 
L 1178.147375 66.631369 
L 1189.177938 65.820902 
L 1205.723781 64.588221 
L 1214.548231 64.176524 
L 1222.269625 64.052819 
L 1229.991019 64.175993 
L 1237.712412 64.53501 
L 1246.536863 65.174275 
L 1273.010213 67.29784 
L 1280.731606 67.579978 
L 1287.349944 67.603037 
L 1293.968281 67.414726 
L 1301.689675 66.951283 
L 1310.514125 66.183131 
L 1332.57525 64.140776 
L 1340.296644 63.731882 
L 1346.914981 63.608258 
L 1353.533319 63.715238 
L 1360.151656 64.048441 
L 1367.87305 64.684012 
L 1377.800556 65.758201 
L 1392.140288 67.329865 
L 1399.861681 67.92564 
L 1406.480019 68.187506 
L 1411.9953 68.198581 
L 1417.510581 68.013782 
L 1424.128919 67.548355 
L 1430.747256 66.861884 
L 1440.674763 65.582073 
L 1452.808381 64.024968 
L 1459.426719 63.373193 
L 1466.045056 62.962039 
L 1471.560338 62.842031 
L 1477.075619 62.94173 
L 1482.5909 63.261546 
L 1488.106181 63.786122 
L 1494.724519 64.641242 
L 1503.548969 66.026064 
L 1515.682588 67.938594 
L 1522.300925 68.744992 
L 1527.816206 69.184648 
L 1533.331488 69.362349 
L 1537.743712 69.297293 
L 1542.155937 69.044471 
L 1547.671219 68.476989 
L 1553.1865 67.665573 
L 1559.804837 66.45308 
L 1579.65985 62.595586 
L 1585.175131 61.841591 
L 1589.587356 61.4331 
L 1593.999581 61.226464 
L 1598.411806 61.239921 
L 1602.824031 61.482925 
L 1607.236256 61.955414 
L 1611.648481 62.647215 
L 1616.060706 63.537629 
L 1621.575988 64.881085 
L 1629.297381 67.034259 
L 1639.224888 69.804214 
L 1644.740169 71.081349 
L 1649.152394 71.850474 
L 1652.461562 72.238705 
L 1655.770731 72.440796 
L 1659.0799 72.440149 
L 1662.389069 72.226245 
L 1665.698238 71.795394 
L 1669.007406 71.151188 
L 1672.316575 70.304595 
L 1676.7288 68.893217 
L 1681.141025 67.215625 
L 1686.656306 64.86391 
L 1698.789925 59.559598 
L 1703.20215 57.903299 
L 1706.511319 56.856555 
L 1709.820488 56.023399 
L 1713.129656 55.443955 
L 1716.438825 55.157157 
L 1718.644938 55.147286 
L 1720.85105 55.295355 
L 1723.057163 55.612278 
L 1725.263275 56.108911 
L 1727.469388 56.796123 
L 1729.6755 57.684863 
L 1731.881612 58.786242 
L 1734.087725 60.111621 
L 1736.293837 61.672714 
L 1738.49995 63.481697 
L 1740.706063 65.551337 
L 1742.912175 67.895133 
L 1745.118287 70.527484 
L 1747.3244 73.463874 
L 1749.530513 76.721097 
L 1751.736625 80.317516 
L 1753.942737 84.273378 
L 1756.14885 88.611186 
L 1758.354962 93.356161 
L 1760.561075 98.536807 
L 1762.767187 104.185621 
L 1764.9733 110.339992 
L 1767.179413 117.043364 
L 1769.385525 124.346741 
L 1771.591637 132.310714 
L 1773.79775 141.008187 
L 1776.003862 150.528174 
L 1778.209975 160.981191 
L 1780.416088 172.507147 
L 1782.6222 185.287286 
L 1784.828313 199.562984 
L 1787.034425 215.666824 
L 1789.240537 234.077081 
L 1791.44665 255.520798 
L 1792.549706 267.723939 
L 1793.652762 281.189323 
L 1794.755819 296.220917 
L 1795.858875 313.256563 
L 1796.961931 332.961345 
L 1798.064988 356.420143 
L 1799.168044 385.590923 
L 1800.2711 424.606162 
L 1801.374156 485.048652 
L 1802.477213 639.948603 
L 1804.683325 465.18246 
L 1805.786381 423.312675 
L 1806.889437 396.035127 
L 1807.992494 376.404911 
L 1809.09555 361.553293 
L 1810.198606 350.021385 
L 1811.301662 340.971656 
L 1812.404719 333.884932 
L 1813.507775 328.423543 
L 1814.610831 324.362419 
L 1815.713888 321.551736 
L 1816.816944 319.895798 
L 1817.92 319.341107 
L 1819.023056 319.870217 
L 1820.126113 321.499803 
L 1821.229169 324.282506 
L 1822.332225 328.312972 
L 1823.435281 333.739624 
L 1824.538338 340.785519 
L 1825.641394 349.785208 
L 1826.74445 361.252662 
L 1827.847506 376.015892 
L 1828.950563 395.514148 
L 1830.053619 422.567879 
L 1831.156675 463.962421 
L 1832.259731 545.098714 
L 1833.362788 648.376364 
L 1834.465844 486.858167 
L 1835.5689 425.634997 
L 1836.671956 386.314626 
L 1837.775013 356.979959 
L 1838.878069 333.418135 
L 1839.981125 313.642111 
L 1841.084181 296.553929 
L 1842.187237 281.481755 
L 1844.39335 255.754071 
L 1846.599462 234.268705 
L 1848.805575 215.827066 
L 1851.011688 199.698419 
L 1853.2178 185.402408 
L 1855.423913 172.605183 
L 1857.630025 161.064553 
L 1859.836138 150.598728 
L 1862.04225 141.067418 
L 1864.248363 132.359832 
L 1866.454475 124.386756 
L 1868.660587 117.075133 
L 1870.8667 110.36426 
L 1873.072813 104.203042 
L 1875.278925 98.547968 
L 1877.485037 93.361593 
L 1879.69115 88.611379 
L 1881.897262 84.268788 
L 1884.103375 80.308571 
L 1886.309488 76.708205 
L 1888.5156 73.447427 
L 1890.721713 70.50786 
L 1892.927825 67.872702 
L 1895.133937 65.52646 
L 1897.34005 63.454731 
L 1899.546162 61.644011 
L 1901.752275 60.081531 
L 1903.958388 58.755113 
L 1906.1645 57.653041 
L 1908.370613 56.763953 
L 1910.576725 56.076735 
L 1912.782838 55.580438 
L 1914.98895 55.26419 
L 1917.195062 55.117129 
L 1919.401175 55.128339 
L 1922.710344 55.417744 
L 1926.019513 56.000484 
L 1929.328681 56.837578 
L 1932.63785 57.888837 
L 1937.050075 59.551907 
L 1942.565356 61.908213 
L 1954.698975 67.237821 
L 1959.1112 68.921647 
L 1963.523425 70.337932 
L 1966.832594 71.187122 
L 1970.141762 71.832869 
L 1973.450931 72.264135 
L 1976.7601 72.477304 
L 1980.069269 72.476087 
L 1983.378438 72.271071 
L 1986.687606 71.878962 
L 1991.099831 71.103434 
L 1995.512056 70.096665 
L 2002.130394 68.305649 
L 2016.470125 64.295803 
L 2021.985406 63.04134 
L 2026.397631 62.243376 
L 2030.809856 61.65726 
L 2035.222081 61.298454 
L 2039.634306 61.172018 
L 2044.046531 61.273119 
L 2048.458756 61.587698 
L 2053.974038 62.246161 
L 2059.489319 63.14258 
L 2067.210713 64.653672 
L 2080.447388 67.3103 
L 2085.962669 68.210577 
L 2091.47795 68.885428 
L 2095.890175 69.231143 
L 2100.3024 69.389699 
L 2104.714625 69.358665 
L 2110.229906 69.06612 
L 2115.745187 68.525962 
L 2122.363525 67.628081 
L 2133.394087 65.83384 
L 2143.321594 64.307094 
L 2149.939931 63.521254 
L 2155.455213 63.073184 
L 2160.970494 62.840554 
L 2166.485775 62.832364 
L 2172.001056 63.041847 
L 2178.619394 63.549188 
L 2186.340788 64.413161 
L 2212.814138 67.677258 
L 2219.432475 68.10315 
L 2224.947756 68.247983 
L 2230.463037 68.194054 
L 2237.081375 67.881847 
L 2243.699712 67.343146 
L 2252.524162 66.393468 
L 2269.070006 64.550994 
L 2276.7914 63.943608 
L 2283.409738 63.645762 
L 2290.028075 63.580439 
L 2296.646413 63.74771 
L 2303.26475 64.123994 
L 2312.0892 64.871361 
L 2336.356438 67.142067 
L 2344.077831 67.537753 
L 2350.696169 67.654052 
L 2357.314506 67.554917 
L 2365.0359 67.190463 
L 2373.86035 66.526882 
L 2399.230644 64.436173 
L 2406.952038 64.107046 
L 2414.673431 64.02292 
L 2422.394825 64.189252 
L 2430.116219 64.576301 
L 2441.146781 65.3874 
L 2458.795681 66.733534 
L 2467.620131 67.15277 
L 2475.341525 67.28568 
L 2483.062919 67.182918 
L 2490.784312 66.865699 
L 2500.711819 66.231291 
L 2522.772944 64.721691 
L 2531.597394 64.3888 
L 2539.318787 64.311791 
L 2547.040181 64.442821 
L 2555.864631 64.816653 
L 2567.99825 65.580422 
L 2584.544094 66.614959 
L 2593.368544 66.945871 
L 2601.089937 67.036772 
L 2609.914387 66.899921 
L 2618.738838 66.539212 
L 2633.078569 65.682263 
L 2647.4183 64.879916 
L 2656.24275 64.588688 
L 2665.0672 64.519679 
L 2673.89165 64.68111 
L 2683.819156 65.093544 
L 2718.0139 66.771343 
L 2726.83835 66.855359 
L 2735.6628 66.718809 
L 2745.590306 66.341807 
L 2780.888106 64.738008 
L 2789.712556 64.669603 
L 2799.640063 64.832967 
L 2810.670625 65.258321 
L 2841.5562 66.614977 
L 2851.483706 66.720468 
L 2861.411213 66.581107 
L 2872.441775 66.188425 
L 2904.430406 64.874965 
L 2914.357912 64.785569 
L 2924.285419 64.922797 
L 2936.419037 65.341429 
L 2966.201556 66.512256 
L 2976.129063 66.614657 
L 2986.056569 66.498107 
L 2998.190188 66.109539 
L 3029.075762 64.966343 
L 3039.003269 64.878056 
L 3048.930775 64.994154 
L 3061.064394 65.365349 
L 3091.949969 66.449863 
L 3102.980531 66.524483 
L 3114.011094 66.358059 
L 3128.350825 65.878073 
L 3150.41195 65.109805 
L 3161.442512 64.956934 
L 3172.473075 65.032577 
L 3184.606694 65.347241 
L 3218.801438 66.413078 
L 3229.832 66.444303 
L 3240.862563 66.259133 
L 3257.408406 65.718564 
L 3276.160362 65.145061 
L 3288.293981 65.016619 
L 3299.324544 65.119952 
L 3312.561219 65.470678 
L 3341.240681 66.321658 
L 3353.3743 66.395144 
L 3365.507919 66.225365 
L 3382.053763 65.731123 
L 3401.908775 65.175464 
L 3414.042394 65.070151 
L 3426.176012 65.198325 
L 3441.6188 65.615007 
L 3464.782981 66.253839 
L 3476.9166 66.349954 
L 3489.050219 66.218686 
L 3504.493006 65.810341 
L 3527.657187 65.202057 
L 3539.790806 65.116661 
L 3551.924425 65.247926 
L 3568.470269 65.676715 
L 3583.913056 66.103484 
L 3583.913056 66.103484 
" clip-path="url(#pb1cd25b697)" style="fill: none; stroke: #1f77b4; stroke-width: 2; stroke-linecap: square"/>
   </g>
   <g id="line2d_32">
    <path d="M 53.03 203.272286 
L 3582.81 203.272286 
" clip-path="url(#pb1cd25b697)" style="fill: none; stroke-dasharray: 3.7,1.6; stroke-dashoffset: 0; stroke: #00bfbf"/>
   </g>
   <g id="line2d_33">
    <path d="M 53.03 43.694355 
L 3582.81 43.694355 
" clip-path="url(#pb1cd25b697)" style="fill: none; stroke-dasharray: 3.7,1.6; stroke-dashoffset: 0; stroke: #ff0000"/>
   </g>
   <g id="line2d_34">
    <path d="M 53.03 94.715144 
L 3582.81 94.715144 
" clip-path="url(#pb1cd25b697)" style="fill: none; stroke-dasharray: 3.7,1.6; stroke-dashoffset: 0; stroke: #ff0000"/>
   </g>
   <g id="patch_3">
    <path d="M 53.03 678.04 
L 53.03 25.44 
" style="fill: none; stroke: #000000; stroke-width: 0.8; stroke-linejoin: miter; stroke-linecap: square"/>
   </g>
   <g id="patch_4">
    <path d="M 3582.81 678.04 
L 3582.81 25.44 
" style="fill: none; stroke: #000000; stroke-width: 0.8; stroke-linejoin: miter; stroke-linecap: square"/>
   </g>
   <g id="patch_5">
    <path d="M 53.03 678.04 
L 3582.81 678.04 
" style="fill: none; stroke: #000000; stroke-width: 0.8; stroke-linejoin: miter; stroke-linecap: square"/>
   </g>
   <g id="patch_6">
    <path d="M 53.03 25.44 
L 3582.81 25.44 
" style="fill: none; stroke: #000000; stroke-width: 0.8; stroke-linejoin: miter; stroke-linecap: square"/>
   </g>
   <g id="text_18">
    <!-- Frequency Response -->
    <g transform="translate(1756.200625 19.44)scale(0.12 -0.12)">
     <defs>
      <path id="DejaVuSans-52" d="M 2841 2188 
Q 3044 2119 3236 1894 
Q 3428 1669 3622 1275 
L 4263 0 
L 3584 0 
L 2988 1197 
Q 2756 1666 2539 1819 
Q 2322 1972 1947 1972 
L 1259 1972 
L 1259 0 
L 628 0 
L 628 4666 
L 2053 4666 
Q 2853 4666 3247 4331 
Q 3641 3997 3641 3322 
Q 3641 2881 3436 2590 
Q 3231 2300 2841 2188 
z
M 1259 4147 
L 1259 2491 
L 2053 2491 
Q 2509 2491 2742 2702 
Q 2975 2913 2975 3322 
Q 2975 3731 2742 3939 
Q 2509 4147 2053 4147 
L 1259 4147 
z
" transform="scale(0.015625)"/>
      <path id="DejaVuSans-73" d="M 2834 3397 
L 2834 2853 
Q 2591 2978 2328 3040 
Q 2066 3103 1784 3103 
Q 1356 3103 1142 2972 
Q 928 2841 928 2578 
Q 928 2378 1081 2264 
Q 1234 2150 1697 2047 
L 1894 2003 
Q 2506 1872 2764 1633 
Q 3022 1394 3022 966 
Q 3022 478 2636 193 
Q 2250 -91 1575 -91 
Q 1294 -91 989 -36 
Q 684 19 347 128 
L 347 722 
Q 666 556 975 473 
Q 1284 391 1588 391 
Q 1994 391 2212 530 
Q 2431 669 2431 922 
Q 2431 1156 2273 1281 
Q 2116 1406 1581 1522 
L 1381 1569 
Q 847 1681 609 1914 
Q 372 2147 372 2553 
Q 372 3047 722 3315 
Q 1072 3584 1716 3584 
Q 2034 3584 2315 3537 
Q 2597 3491 2834 3397 
z
" transform="scale(0.015625)"/>
      <path id="DejaVuSans-70" d="M 1159 525 
L 1159 -1331 
L 581 -1331 
L 581 3500 
L 1159 3500 
L 1159 2969 
Q 1341 3281 1617 3432 
Q 1894 3584 2278 3584 
Q 2916 3584 3314 3078 
Q 3713 2572 3713 1747 
Q 3713 922 3314 415 
Q 2916 -91 2278 -91 
Q 1894 -91 1617 61 
Q 1341 213 1159 525 
z
M 3116 1747 
Q 3116 2381 2855 2742 
Q 2594 3103 2138 3103 
Q 1681 3103 1420 2742 
Q 1159 2381 1159 1747 
Q 1159 1113 1420 752 
Q 1681 391 2138 391 
Q 2594 391 2855 752 
Q 3116 1113 3116 1747 
z
" transform="scale(0.015625)"/>
      <path id="DejaVuSans-6f" d="M 1959 3097 
Q 1497 3097 1228 2736 
Q 959 2375 959 1747 
Q 959 1119 1226 758 
Q 1494 397 1959 397 
Q 2419 397 2687 759 
Q 2956 1122 2956 1747 
Q 2956 2369 2687 2733 
Q 2419 3097 1959 3097 
z
M 1959 3584 
Q 2709 3584 3137 3096 
Q 3566 2609 3566 1747 
Q 3566 888 3137 398 
Q 2709 -91 1959 -91 
Q 1206 -91 779 398 
Q 353 888 353 1747 
Q 353 2609 779 3096 
Q 1206 3584 1959 3584 
z
" transform="scale(0.015625)"/>
     </defs>
     <use xlink:href="#DejaVuSans-46"/>
     <use xlink:href="#DejaVuSans-72" x="50.269531"/>
     <use xlink:href="#DejaVuSans-65" x="89.132812"/>
     <use xlink:href="#DejaVuSans-71" x="150.65625"/>
     <use xlink:href="#DejaVuSans-75" x="214.132812"/>
     <use xlink:href="#DejaVuSans-65" x="277.511719"/>
     <use xlink:href="#DejaVuSans-6e" x="339.035156"/>
     <use xlink:href="#DejaVuSans-63" x="402.414062"/>
     <use xlink:href="#DejaVuSans-79" x="457.394531"/>
     <use xlink:href="#DejaVuSans-20" x="516.574219"/>
     <use xlink:href="#DejaVuSans-52" x="548.361328"/>
     <use xlink:href="#DejaVuSans-65" x="613.34375"/>
     <use xlink:href="#DejaVuSans-73" x="674.867188"/>
     <use xlink:href="#DejaVuSans-70" x="726.966797"/>
     <use xlink:href="#DejaVuSans-6f" x="790.443359"/>
     <use xlink:href="#DejaVuSans-6e" x="851.625"/>
     <use xlink:href="#DejaVuSans-73" x="915.003906"/>
     <use xlink:href="#DejaVuSans-65" x="967.103516"/>
    </g>
   </g>
  </g>
 </g>
 <defs>
  <clipPath id="pb1cd25b697">
   <rect x="53.03" y="25.44" width="3529.78" height="652.6"/>
  </clipPath>
 </defs>
</svg>
