<?xml version="1.0" encoding="utf-8" standalone="no"?>
<!DOCTYPE svg PUBLIC "-//W3C//DTD SVG 1.1//EN"
        "http://www.w3.org/Graphics/SVG/1.1/DTD/svg11.dtd">
<svg xmlns:xlink="http://www.w3.org/1999/xlink" width="460.8pt" height="345.6pt" viewBox="0 0 460.8 345.6"
     xmlns="http://www.w3.org/2000/svg" version="1.1">
    <metadata>
        <rdf:RDF xmlns:dc="http://purl.org/dc/elements/1.1/" xmlns:cc="http://creativecommons.org/ns#"
                 xmlns:rdf="http://www.w3.org/1999/02/22-rdf-syntax-ns#">
            <cc:Work>
                <dc:type rdf:resource="http://purl.org/dc/dcmitype/StillImage"/>
                <dc:date>2022-01-30T13:08:54.175256</dc:date>
                <dc:format>image/svg+xml</dc:format>
                <dc:creator>
                    <cc:Agent>
                        <dc:title>Matplotlib v3.5.1, https://matplotlib.org/</dc:title>
                    </cc:Agent>
                </dc:creator>
            </cc:Work>
        </rdf:RDF>
    </metadata>
    <defs>
        <style type="text/css">*{stroke-linejoin: round; stroke-linecap: butt}</style>
    </defs>
    <g id="figure_1">
        <g id="patch_1">
            <path d="M 0 345.6
L 460.8 345.6 
L 460.8 0 
L 0 0 
z
" style="fill: #ffffff"/>
        </g>
        <g id="axes_1">
            <g id="patch_2">
                <path d="M 62.57 300.328
L 440.988645 300.328 
L 440.988645 25.44 
L 62.57 25.44 
z
" style="fill: #ffffff"/>
            </g>
            <g id="matplotlib.axis_1">
                <g id="xtick_1">
                    <g id="line2d_1">
                        <path d="M 62.57 300.328
L 62.57 25.44 
" clip-path="url(#p90401bcb1d)" style="fill: none; stroke: #b0b0b0; stroke-width: 0.8; stroke-linecap: square"/>
                    </g>
                    <g id="line2d_2">
                        <defs>
                            <path id="mb7a8afffc7" d="M 0 0
L 0 3.5 
" style="stroke: #000000; stroke-width: 0.8"/>
                        </defs>
                        <g>
                            <use xlink:href="#mb7a8afffc7" x="62.57" y="300.328"
                                 style="stroke: #000000; stroke-width: 0.8"/>
                        </g>
                    </g>
                    <g id="text_1">
                        <!-- $\mathdefault{10^{1}}$ -->
                        <g transform="translate(53.77 314.926437)scale(0.1 -0.1)">
                            <defs>
                                <path id="DejaVuSans-31" d="M 794 531
L 1825 531 
L 1825 4091 
L 703 3866 
L 703 4441 
L 1819 4666 
L 2450 4666 
L 2450 531 
L 3481 531 
L 3481 0 
L 794 0 
L 794 531 
z
" transform="scale(0.015625)"/>
                                <path id="DejaVuSans-30" d="M 2034 4250
Q 1547 4250 1301 3770 
Q 1056 3291 1056 2328 
Q 1056 1369 1301 889 
Q 1547 409 2034 409 
Q 2525 409 2770 889 
Q 3016 1369 3016 2328 
Q 3016 3291 2770 3770 
Q 2525 4250 2034 4250 
z
M 2034 4750 
Q 2819 4750 3233 4129 
Q 3647 3509 3647 2328 
Q 3647 1150 3233 529 
Q 2819 -91 2034 -91 
Q 1250 -91 836 529 
Q 422 1150 422 2328 
Q 422 3509 836 4129 
Q 1250 4750 2034 4750 
z
" transform="scale(0.015625)"/>
                            </defs>
                            <use xlink:href="#DejaVuSans-31" transform="translate(0 0.684375)"/>
                            <use xlink:href="#DejaVuSans-30" transform="translate(63.623047 0.684375)"/>
                            <use xlink:href="#DejaVuSans-31" transform="translate(128.203125 38.965625)scale(0.7)"/>
                        </g>
                    </g>
                </g>
                <g id="xtick_2">
                    <g id="line2d_3">
                        <path d="M 440.988645 300.328
L 440.988645 25.44 
" clip-path="url(#p90401bcb1d)" style="fill: none; stroke: #b0b0b0; stroke-width: 0.8; stroke-linecap: square"/>
                    </g>
                    <g id="line2d_4">
                        <g>
                            <use xlink:href="#mb7a8afffc7" x="440.988645" y="300.328"
                                 style="stroke: #000000; stroke-width: 0.8"/>
                        </g>
                    </g>
                    <g id="text_2">
                        <!-- $\mathdefault{10^{2}}$ -->
                        <g transform="translate(432.188645 314.926437)scale(0.1 -0.1)">
                            <defs>
                                <path id="DejaVuSans-32" d="M 1228 531
L 3431 531 
L 3431 0 
L 469 0 
L 469 531 
Q 828 903 1448 1529 
Q 2069 2156 2228 2338 
Q 2531 2678 2651 2914 
Q 2772 3150 2772 3378 
Q 2772 3750 2511 3984 
Q 2250 4219 1831 4219 
Q 1534 4219 1204 4116 
Q 875 4013 500 3803 
L 500 4441 
Q 881 4594 1212 4672 
Q 1544 4750 1819 4750 
Q 2544 4750 2975 4387 
Q 3406 4025 3406 3419 
Q 3406 3131 3298 2873 
Q 3191 2616 2906 2266 
Q 2828 2175 2409 1742 
Q 1991 1309 1228 531 
z
" transform="scale(0.015625)"/>
                            </defs>
                            <use xlink:href="#DejaVuSans-31" transform="translate(0 0.765625)"/>
                            <use xlink:href="#DejaVuSans-30" transform="translate(63.623047 0.765625)"/>
                            <use xlink:href="#DejaVuSans-32" transform="translate(128.203125 39.046875)scale(0.7)"/>
                        </g>
                    </g>
                </g>
                <g id="xtick_3">
                    <g id="line2d_5">
                        <defs>
                            <path id="m6df45cfd23" d="M 0 0
L 0 2 
" style="stroke: #000000; stroke-width: 0.6"/>
                        </defs>
                        <g>
                            <use xlink:href="#m6df45cfd23" x="176.485363" y="300.328"
                                 style="stroke: #000000; stroke-width: 0.6"/>
                        </g>
                    </g>
                    <g id="text_3">
                        <!-- $\mathdefault{2\times10^{1}}$ -->
                        <g transform="translate(158.385363 313.326437)scale(0.1 -0.1)">
                            <defs>
                                <path id="DejaVuSans-d7" d="M 4488 3438
L 3059 2003 
L 4488 575 
L 4116 197 
L 2681 1631 
L 1247 197 
L 878 575 
L 2303 2003 
L 878 3438 
L 1247 3816 
L 2681 2381 
L 4116 3816 
L 4488 3438 
z
" transform="scale(0.015625)"/>
                            </defs>
                            <use xlink:href="#DejaVuSans-32" transform="translate(0 0.684375)"/>
                            <use xlink:href="#DejaVuSans-d7" transform="translate(83.105469 0.684375)"/>
                            <use xlink:href="#DejaVuSans-31" transform="translate(186.376953 0.684375)"/>
                            <use xlink:href="#DejaVuSans-30" transform="translate(250 0.684375)"/>
                            <use xlink:href="#DejaVuSans-31" transform="translate(314.580078 38.965625)scale(0.7)"/>
                        </g>
                    </g>
                </g>
                <g id="xtick_4">
                    <g id="line2d_6">
                        <g>
                            <use xlink:href="#m6df45cfd23" x="243.121579" y="300.328"
                                 style="stroke: #000000; stroke-width: 0.6"/>
                        </g>
                    </g>
                    <g id="text_4">
                        <!-- $\mathdefault{3\times10^{1}}$ -->
                        <g transform="translate(225.021579 313.326437)scale(0.1 -0.1)">
                            <defs>
                                <path id="DejaVuSans-33" d="M 2597 2516
Q 3050 2419 3304 2112 
Q 3559 1806 3559 1356 
Q 3559 666 3084 287 
Q 2609 -91 1734 -91 
Q 1441 -91 1130 -33 
Q 819 25 488 141 
L 488 750 
Q 750 597 1062 519 
Q 1375 441 1716 441 
Q 2309 441 2620 675 
Q 2931 909 2931 1356 
Q 2931 1769 2642 2001 
Q 2353 2234 1838 2234 
L 1294 2234 
L 1294 2753 
L 1863 2753 
Q 2328 2753 2575 2939 
Q 2822 3125 2822 3475 
Q 2822 3834 2567 4026 
Q 2313 4219 1838 4219 
Q 1578 4219 1281 4162 
Q 984 4106 628 3988 
L 628 4550 
Q 988 4650 1302 4700 
Q 1616 4750 1894 4750 
Q 2613 4750 3031 4423 
Q 3450 4097 3450 3541 
Q 3450 3153 3228 2886 
Q 3006 2619 2597 2516 
z
" transform="scale(0.015625)"/>
                            </defs>
                            <use xlink:href="#DejaVuSans-33" transform="translate(0 0.684375)"/>
                            <use xlink:href="#DejaVuSans-d7" transform="translate(83.105469 0.684375)"/>
                            <use xlink:href="#DejaVuSans-31" transform="translate(186.376953 0.684375)"/>
                            <use xlink:href="#DejaVuSans-30" transform="translate(250 0.684375)"/>
                            <use xlink:href="#DejaVuSans-31" transform="translate(314.580078 38.965625)scale(0.7)"/>
                        </g>
                    </g>
                </g>
                <g id="xtick_5">
                    <g id="line2d_7">
                        <g>
                            <use xlink:href="#m6df45cfd23" x="290.400726" y="300.328"
                                 style="stroke: #000000; stroke-width: 0.6"/>
                        </g>
                    </g>
                    <g id="text_5">
                        <!-- $\mathdefault{4\times10^{1}}$ -->
                        <g transform="translate(272.300726 313.326437)scale(0.1 -0.1)">
                            <defs>
                                <path id="DejaVuSans-34" d="M 2419 4116
L 825 1625 
L 2419 1625 
L 2419 4116 
z
M 2253 4666 
L 3047 4666 
L 3047 1625 
L 3713 1625 
L 3713 1100 
L 3047 1100 
L 3047 0 
L 2419 0 
L 2419 1100 
L 313 1100 
L 313 1709 
L 2253 4666 
z
" transform="scale(0.015625)"/>
                            </defs>
                            <use xlink:href="#DejaVuSans-34" transform="translate(0 0.684375)"/>
                            <use xlink:href="#DejaVuSans-d7" transform="translate(83.105469 0.684375)"/>
                            <use xlink:href="#DejaVuSans-31" transform="translate(186.376953 0.684375)"/>
                            <use xlink:href="#DejaVuSans-30" transform="translate(250 0.684375)"/>
                            <use xlink:href="#DejaVuSans-31" transform="translate(314.580078 38.965625)scale(0.7)"/>
                        </g>
                    </g>
                </g>
                <g id="xtick_6">
                    <g id="line2d_8">
                        <g>
                            <use xlink:href="#m6df45cfd23" x="327.073282" y="300.328"
                                 style="stroke: #000000; stroke-width: 0.6"/>
                        </g>
                    </g>
                </g>
                <g id="xtick_7">
                    <g id="line2d_9">
                        <g>
                            <use xlink:href="#m6df45cfd23" x="357.036942" y="300.328"
                                 style="stroke: #000000; stroke-width: 0.6"/>
                        </g>
                    </g>
                    <g id="text_6">
                        <!-- $\mathdefault{6\times10^{1}}$ -->
                        <g transform="translate(338.936942 313.326437)scale(0.1 -0.1)">
                            <defs>
                                <path id="DejaVuSans-36" d="M 2113 2584
Q 1688 2584 1439 2293 
Q 1191 2003 1191 1497 
Q 1191 994 1439 701 
Q 1688 409 2113 409 
Q 2538 409 2786 701 
Q 3034 994 3034 1497 
Q 3034 2003 2786 2293 
Q 2538 2584 2113 2584 
z
M 3366 4563 
L 3366 3988 
Q 3128 4100 2886 4159 
Q 2644 4219 2406 4219 
Q 1781 4219 1451 3797 
Q 1122 3375 1075 2522 
Q 1259 2794 1537 2939 
Q 1816 3084 2150 3084 
Q 2853 3084 3261 2657 
Q 3669 2231 3669 1497 
Q 3669 778 3244 343 
Q 2819 -91 2113 -91 
Q 1303 -91 875 529 
Q 447 1150 447 2328 
Q 447 3434 972 4092 
Q 1497 4750 2381 4750 
Q 2619 4750 2861 4703 
Q 3103 4656 3366 4563 
z
" transform="scale(0.015625)"/>
                            </defs>
                            <use xlink:href="#DejaVuSans-36" transform="translate(0 0.684375)"/>
                            <use xlink:href="#DejaVuSans-d7" transform="translate(83.105469 0.684375)"/>
                            <use xlink:href="#DejaVuSans-31" transform="translate(186.376953 0.684375)"/>
                            <use xlink:href="#DejaVuSans-30" transform="translate(250 0.684375)"/>
                            <use xlink:href="#DejaVuSans-31" transform="translate(314.580078 38.965625)scale(0.7)"/>
                        </g>
                    </g>
                </g>
                <g id="xtick_8">
                    <g id="line2d_10">
                        <g>
                            <use xlink:href="#m6df45cfd23" x="382.370856" y="300.328"
                                 style="stroke: #000000; stroke-width: 0.6"/>
                        </g>
                    </g>
                </g>
                <g id="xtick_9">
                    <g id="line2d_11">
                        <g>
                            <use xlink:href="#m6df45cfd23" x="404.31609" y="300.328"
                                 style="stroke: #000000; stroke-width: 0.6"/>
                        </g>
                    </g>
                </g>
                <g id="xtick_10">
                    <g id="line2d_12">
                        <g>
                            <use xlink:href="#m6df45cfd23" x="423.673158" y="300.328"
                                 style="stroke: #000000; stroke-width: 0.6"/>
                        </g>
                    </g>
                </g>
                <g id="text_7">
                    <!-- Frequency (Hz) -->
                    <g transform="translate(214.074635 328.604562)scale(0.1 -0.1)">
                        <defs>
                            <path id="DejaVuSans-46" d="M 628 4666
L 3309 4666 
L 3309 4134 
L 1259 4134 
L 1259 2759 
L 3109 2759 
L 3109 2228 
L 1259 2228 
L 1259 0 
L 628 0 
L 628 4666 
z
" transform="scale(0.015625)"/>
                            <path id="DejaVuSans-72" d="M 2631 2963
Q 2534 3019 2420 3045 
Q 2306 3072 2169 3072 
Q 1681 3072 1420 2755 
Q 1159 2438 1159 1844 
L 1159 0 
L 581 0 
L 581 3500 
L 1159 3500 
L 1159 2956 
Q 1341 3275 1631 3429 
Q 1922 3584 2338 3584 
Q 2397 3584 2469 3576 
Q 2541 3569 2628 3553 
L 2631 2963 
z
" transform="scale(0.015625)"/>
                            <path id="DejaVuSans-65" d="M 3597 1894
L 3597 1613 
L 953 1613 
Q 991 1019 1311 708 
Q 1631 397 2203 397 
Q 2534 397 2845 478 
Q 3156 559 3463 722 
L 3463 178 
Q 3153 47 2828 -22 
Q 2503 -91 2169 -91 
Q 1331 -91 842 396 
Q 353 884 353 1716 
Q 353 2575 817 3079 
Q 1281 3584 2069 3584 
Q 2775 3584 3186 3129 
Q 3597 2675 3597 1894 
z
M 3022 2063 
Q 3016 2534 2758 2815 
Q 2500 3097 2075 3097 
Q 1594 3097 1305 2825 
Q 1016 2553 972 2059 
L 3022 2063 
z
" transform="scale(0.015625)"/>
                            <path id="DejaVuSans-71" d="M 947 1747
Q 947 1113 1208 752 
Q 1469 391 1925 391 
Q 2381 391 2643 752 
Q 2906 1113 2906 1747 
Q 2906 2381 2643 2742 
Q 2381 3103 1925 3103 
Q 1469 3103 1208 2742 
Q 947 2381 947 1747 
z
M 2906 525 
Q 2725 213 2448 61 
Q 2172 -91 1784 -91 
Q 1150 -91 751 415 
Q 353 922 353 1747 
Q 353 2572 751 3078 
Q 1150 3584 1784 3584 
Q 2172 3584 2448 3432 
Q 2725 3281 2906 2969 
L 2906 3500 
L 3481 3500 
L 3481 -1331 
L 2906 -1331 
L 2906 525 
z
" transform="scale(0.015625)"/>
                            <path id="DejaVuSans-75" d="M 544 1381
L 544 3500 
L 1119 3500 
L 1119 1403 
Q 1119 906 1312 657 
Q 1506 409 1894 409 
Q 2359 409 2629 706 
Q 2900 1003 2900 1516 
L 2900 3500 
L 3475 3500 
L 3475 0 
L 2900 0 
L 2900 538 
Q 2691 219 2414 64 
Q 2138 -91 1772 -91 
Q 1169 -91 856 284 
Q 544 659 544 1381 
z
M 1991 3584 
L 1991 3584 
z
" transform="scale(0.015625)"/>
                            <path id="DejaVuSans-6e" d="M 3513 2113
L 3513 0 
L 2938 0 
L 2938 2094 
Q 2938 2591 2744 2837 
Q 2550 3084 2163 3084 
Q 1697 3084 1428 2787 
Q 1159 2491 1159 1978 
L 1159 0 
L 581 0 
L 581 3500 
L 1159 3500 
L 1159 2956 
Q 1366 3272 1645 3428 
Q 1925 3584 2291 3584 
Q 2894 3584 3203 3211 
Q 3513 2838 3513 2113 
z
" transform="scale(0.015625)"/>
                            <path id="DejaVuSans-63" d="M 3122 3366
L 3122 2828 
Q 2878 2963 2633 3030 
Q 2388 3097 2138 3097 
Q 1578 3097 1268 2742 
Q 959 2388 959 1747 
Q 959 1106 1268 751 
Q 1578 397 2138 397 
Q 2388 397 2633 464 
Q 2878 531 3122 666 
L 3122 134 
Q 2881 22 2623 -34 
Q 2366 -91 2075 -91 
Q 1284 -91 818 406 
Q 353 903 353 1747 
Q 353 2603 823 3093 
Q 1294 3584 2113 3584 
Q 2378 3584 2631 3529 
Q 2884 3475 3122 3366 
z
" transform="scale(0.015625)"/>
                            <path id="DejaVuSans-79" d="M 2059 -325
Q 1816 -950 1584 -1140 
Q 1353 -1331 966 -1331 
L 506 -1331 
L 506 -850 
L 844 -850 
Q 1081 -850 1212 -737 
Q 1344 -625 1503 -206 
L 1606 56 
L 191 3500 
L 800 3500 
L 1894 763 
L 2988 3500 
L 3597 3500 
L 2059 -325 
z
" transform="scale(0.015625)"/>
                            <path id="DejaVuSans-20" transform="scale(0.015625)"/>
                            <path id="DejaVuSans-28" d="M 1984 4856
Q 1566 4138 1362 3434 
Q 1159 2731 1159 2009 
Q 1159 1288 1364 580 
Q 1569 -128 1984 -844 
L 1484 -844 
Q 1016 -109 783 600 
Q 550 1309 550 2009 
Q 550 2706 781 3412 
Q 1013 4119 1484 4856 
L 1984 4856 
z
" transform="scale(0.015625)"/>
                            <path id="DejaVuSans-48" d="M 628 4666
L 1259 4666 
L 1259 2753 
L 3553 2753 
L 3553 4666 
L 4184 4666 
L 4184 0 
L 3553 0 
L 3553 2222 
L 1259 2222 
L 1259 0 
L 628 0 
L 628 4666 
z
" transform="scale(0.015625)"/>
                            <path id="DejaVuSans-7a" d="M 353 3500
L 3084 3500 
L 3084 2975 
L 922 459 
L 3084 459 
L 3084 0 
L 275 0 
L 275 525 
L 2438 3041 
L 353 3041 
L 353 3500 
z
" transform="scale(0.015625)"/>
                            <path id="DejaVuSans-29" d="M 513 4856
L 1013 4856 
Q 1481 4119 1714 3412 
Q 1947 2706 1947 2009 
Q 1947 1309 1714 600 
Q 1481 -109 1013 -844 
L 513 -844 
Q 928 -128 1133 580 
Q 1338 1288 1338 2009 
Q 1338 2731 1133 3434 
Q 928 4138 513 4856 
z
" transform="scale(0.015625)"/>
                        </defs>
                        <use xlink:href="#DejaVuSans-46"/>
                        <use xlink:href="#DejaVuSans-72" x="50.269531"/>
                        <use xlink:href="#DejaVuSans-65" x="89.132812"/>
                        <use xlink:href="#DejaVuSans-71" x="150.65625"/>
                        <use xlink:href="#DejaVuSans-75" x="214.132812"/>
                        <use xlink:href="#DejaVuSans-65" x="277.511719"/>
                        <use xlink:href="#DejaVuSans-6e" x="339.035156"/>
                        <use xlink:href="#DejaVuSans-63" x="402.414062"/>
                        <use xlink:href="#DejaVuSans-79" x="457.394531"/>
                        <use xlink:href="#DejaVuSans-20" x="516.574219"/>
                        <use xlink:href="#DejaVuSans-28" x="548.361328"/>
                        <use xlink:href="#DejaVuSans-48" x="587.375"/>
                        <use xlink:href="#DejaVuSans-7a" x="662.570312"/>
                        <use xlink:href="#DejaVuSans-29" x="715.060547"/>
                    </g>
                </g>
            </g>
            <g id="matplotlib.axis_2">
                <g id="ytick_1">
                    <g id="line2d_13">
                        <path d="M 62.57 300.328
L 440.988645 300.328 
" clip-path="url(#p90401bcb1d)" style="fill: none; stroke: #b0b0b0; stroke-width: 0.8; stroke-linecap: square"/>
                    </g>
                    <g id="line2d_14">
                        <defs>
                            <path id="m855ed82476" d="M 0 0
L -3.5 0 
" style="stroke: #000000; stroke-width: 0.8"/>
                        </defs>
                        <g>
                            <use xlink:href="#m855ed82476" x="62.57" y="300.328"
                                 style="stroke: #000000; stroke-width: 0.8"/>
                        </g>
                    </g>
                    <g id="text_8">
                        <!-- −15.0 -->
                        <g transform="translate(24.924688 304.127219)scale(0.1 -0.1)">
                            <defs>
                                <path id="DejaVuSans-2212" d="M 678 2272
L 4684 2272 
L 4684 1741 
L 678 1741 
L 678 2272 
z
" transform="scale(0.015625)"/>
                                <path id="DejaVuSans-35" d="M 691 4666
L 3169 4666 
L 3169 4134 
L 1269 4134 
L 1269 2991 
Q 1406 3038 1543 3061 
Q 1681 3084 1819 3084 
Q 2600 3084 3056 2656 
Q 3513 2228 3513 1497 
Q 3513 744 3044 326 
Q 2575 -91 1722 -91 
Q 1428 -91 1123 -41 
Q 819 9 494 109 
L 494 744 
Q 775 591 1075 516 
Q 1375 441 1709 441 
Q 2250 441 2565 725 
Q 2881 1009 2881 1497 
Q 2881 1984 2565 2268 
Q 2250 2553 1709 2553 
Q 1456 2553 1204 2497 
Q 953 2441 691 2322 
L 691 4666 
z
" transform="scale(0.015625)"/>
                                <path id="DejaVuSans-2e" d="M 684 794
L 1344 794 
L 1344 0 
L 684 0 
L 684 794 
z
" transform="scale(0.015625)"/>
                            </defs>
                            <use xlink:href="#DejaVuSans-2212"/>
                            <use xlink:href="#DejaVuSans-31" x="83.789062"/>
                            <use xlink:href="#DejaVuSans-35" x="147.412109"/>
                            <use xlink:href="#DejaVuSans-2e" x="211.035156"/>
                            <use xlink:href="#DejaVuSans-30" x="242.822266"/>
                        </g>
                    </g>
                </g>
                <g id="ytick_2">
                    <g id="line2d_15">
                        <path d="M 62.57 265.967
L 440.988645 265.967 
" clip-path="url(#p90401bcb1d)" style="fill: none; stroke: #b0b0b0; stroke-width: 0.8; stroke-linecap: square"/>
                    </g>
                    <g id="line2d_16">
                        <g>
                            <use xlink:href="#m855ed82476" x="62.57" y="265.967"
                                 style="stroke: #000000; stroke-width: 0.8"/>
                        </g>
                    </g>
                    <g id="text_9">
                        <!-- −12.5 -->
                        <g transform="translate(24.924688 269.766219)scale(0.1 -0.1)">
                            <use xlink:href="#DejaVuSans-2212"/>
                            <use xlink:href="#DejaVuSans-31" x="83.789062"/>
                            <use xlink:href="#DejaVuSans-32" x="147.412109"/>
                            <use xlink:href="#DejaVuSans-2e" x="211.035156"/>
                            <use xlink:href="#DejaVuSans-35" x="242.822266"/>
                        </g>
                    </g>
                </g>
                <g id="ytick_3">
                    <g id="line2d_17">
                        <path d="M 62.57 231.606
L 440.988645 231.606 
" clip-path="url(#p90401bcb1d)" style="fill: none; stroke: #b0b0b0; stroke-width: 0.8; stroke-linecap: square"/>
                    </g>
                    <g id="line2d_18">
                        <g>
                            <use xlink:href="#m855ed82476" x="62.57" y="231.606"
                                 style="stroke: #000000; stroke-width: 0.8"/>
                        </g>
                    </g>
                    <g id="text_10">
                        <!-- −10.0 -->
                        <g transform="translate(24.924688 235.405219)scale(0.1 -0.1)">
                            <use xlink:href="#DejaVuSans-2212"/>
                            <use xlink:href="#DejaVuSans-31" x="83.789062"/>
                            <use xlink:href="#DejaVuSans-30" x="147.412109"/>
                            <use xlink:href="#DejaVuSans-2e" x="211.035156"/>
                            <use xlink:href="#DejaVuSans-30" x="242.822266"/>
                        </g>
                    </g>
                </g>
                <g id="ytick_4">
                    <g id="line2d_19">
                        <path d="M 62.57 197.245
L 440.988645 197.245 
" clip-path="url(#p90401bcb1d)" style="fill: none; stroke: #b0b0b0; stroke-width: 0.8; stroke-linecap: square"/>
                    </g>
                    <g id="line2d_20">
                        <g>
                            <use xlink:href="#m855ed82476" x="62.57" y="197.245"
                                 style="stroke: #000000; stroke-width: 0.8"/>
                        </g>
                    </g>
                    <g id="text_11">
                        <!-- −7.5 -->
                        <g transform="translate(31.287188 201.044219)scale(0.1 -0.1)">
                            <defs>
                                <path id="DejaVuSans-37" d="M 525 4666
L 3525 4666 
L 3525 4397 
L 1831 0 
L 1172 0 
L 2766 4134 
L 525 4134 
L 525 4666 
z
" transform="scale(0.015625)"/>
                            </defs>
                            <use xlink:href="#DejaVuSans-2212"/>
                            <use xlink:href="#DejaVuSans-37" x="83.789062"/>
                            <use xlink:href="#DejaVuSans-2e" x="147.412109"/>
                            <use xlink:href="#DejaVuSans-35" x="179.199219"/>
                        </g>
                    </g>
                </g>
                <g id="ytick_5">
                    <g id="line2d_21">
                        <path d="M 62.57 162.884
L 440.988645 162.884 
" clip-path="url(#p90401bcb1d)" style="fill: none; stroke: #b0b0b0; stroke-width: 0.8; stroke-linecap: square"/>
                    </g>
                    <g id="line2d_22">
                        <g>
                            <use xlink:href="#m855ed82476" x="62.57" y="162.884"
                                 style="stroke: #000000; stroke-width: 0.8"/>
                        </g>
                    </g>
                    <g id="text_12">
                        <!-- −5.0 -->
                        <g transform="translate(31.287188 166.683219)scale(0.1 -0.1)">
                            <use xlink:href="#DejaVuSans-2212"/>
                            <use xlink:href="#DejaVuSans-35" x="83.789062"/>
                            <use xlink:href="#DejaVuSans-2e" x="147.412109"/>
                            <use xlink:href="#DejaVuSans-30" x="179.199219"/>
                        </g>
                    </g>
                </g>
                <g id="ytick_6">
                    <g id="line2d_23">
                        <path d="M 62.57 128.523
L 440.988645 128.523 
" clip-path="url(#p90401bcb1d)" style="fill: none; stroke: #b0b0b0; stroke-width: 0.8; stroke-linecap: square"/>
                    </g>
                    <g id="line2d_24">
                        <g>
                            <use xlink:href="#m855ed82476" x="62.57" y="128.523"
                                 style="stroke: #000000; stroke-width: 0.8"/>
                        </g>
                    </g>
                    <g id="text_13">
                        <!-- −2.5 -->
                        <g transform="translate(31.287188 132.322219)scale(0.1 -0.1)">
                            <use xlink:href="#DejaVuSans-2212"/>
                            <use xlink:href="#DejaVuSans-32" x="83.789062"/>
                            <use xlink:href="#DejaVuSans-2e" x="147.412109"/>
                            <use xlink:href="#DejaVuSans-35" x="179.199219"/>
                        </g>
                    </g>
                </g>
                <g id="ytick_7">
                    <g id="line2d_25">
                        <path d="M 62.57 94.162
L 440.988645 94.162 
" clip-path="url(#p90401bcb1d)" style="fill: none; stroke: #b0b0b0; stroke-width: 0.8; stroke-linecap: square"/>
                    </g>
                    <g id="line2d_26">
                        <g>
                            <use xlink:href="#m855ed82476" x="62.57" y="94.162"
                                 style="stroke: #000000; stroke-width: 0.8"/>
                        </g>
                    </g>
                    <g id="text_14">
                        <!-- 0.0 -->
                        <g transform="translate(39.666875 97.961219)scale(0.1 -0.1)">
                            <use xlink:href="#DejaVuSans-30"/>
                            <use xlink:href="#DejaVuSans-2e" x="63.623047"/>
                            <use xlink:href="#DejaVuSans-30" x="95.410156"/>
                        </g>
                    </g>
                </g>
                <g id="ytick_8">
                    <g id="line2d_27">
                        <path d="M 62.57 59.801
L 440.988645 59.801 
" clip-path="url(#p90401bcb1d)" style="fill: none; stroke: #b0b0b0; stroke-width: 0.8; stroke-linecap: square"/>
                    </g>
                    <g id="line2d_28">
                        <g>
                            <use xlink:href="#m855ed82476" x="62.57" y="59.801"
                                 style="stroke: #000000; stroke-width: 0.8"/>
                        </g>
                    </g>
                    <g id="text_15">
                        <!-- 2.5 -->
                        <g transform="translate(39.666875 63.600219)scale(0.1 -0.1)">
                            <use xlink:href="#DejaVuSans-32"/>
                            <use xlink:href="#DejaVuSans-2e" x="63.623047"/>
                            <use xlink:href="#DejaVuSans-35" x="95.410156"/>
                        </g>
                    </g>
                </g>
                <g id="ytick_9">
                    <g id="line2d_29">
                        <path d="M 62.57 25.44
L 440.988645 25.44 
" clip-path="url(#p90401bcb1d)" style="fill: none; stroke: #b0b0b0; stroke-width: 0.8; stroke-linecap: square"/>
                    </g>
                    <g id="line2d_30">
                        <g>
                            <use xlink:href="#m855ed82476" x="62.57" y="25.44"
                                 style="stroke: #000000; stroke-width: 0.8"/>
                        </g>
                    </g>
                    <g id="text_16">
                        <!-- 5.0 -->
                        <g transform="translate(39.666875 29.239219)scale(0.1 -0.1)">
                            <use xlink:href="#DejaVuSans-35"/>
                            <use xlink:href="#DejaVuSans-2e" x="63.623047"/>
                            <use xlink:href="#DejaVuSans-30" x="95.410156"/>
                        </g>
                    </g>
                </g>
                <g id="text_17">
                    <!-- Gain (dB) -->
                    <g transform="translate(18.845 186.475406)rotate(-90)scale(0.1 -0.1)">
                        <defs>
                            <path id="DejaVuSans-47" d="M 3809 666
L 3809 1919 
L 2778 1919 
L 2778 2438 
L 4434 2438 
L 4434 434 
Q 4069 175 3628 42 
Q 3188 -91 2688 -91 
Q 1594 -91 976 548 
Q 359 1188 359 2328 
Q 359 3472 976 4111 
Q 1594 4750 2688 4750 
Q 3144 4750 3555 4637 
Q 3966 4525 4313 4306 
L 4313 3634 
Q 3963 3931 3569 4081 
Q 3175 4231 2741 4231 
Q 1884 4231 1454 3753 
Q 1025 3275 1025 2328 
Q 1025 1384 1454 906 
Q 1884 428 2741 428 
Q 3075 428 3337 486 
Q 3600 544 3809 666 
z
" transform="scale(0.015625)"/>
                            <path id="DejaVuSans-61" d="M 2194 1759
Q 1497 1759 1228 1600 
Q 959 1441 959 1056 
Q 959 750 1161 570 
Q 1363 391 1709 391 
Q 2188 391 2477 730 
Q 2766 1069 2766 1631 
L 2766 1759 
L 2194 1759 
z
M 3341 1997 
L 3341 0 
L 2766 0 
L 2766 531 
Q 2569 213 2275 61 
Q 1981 -91 1556 -91 
Q 1019 -91 701 211 
Q 384 513 384 1019 
Q 384 1609 779 1909 
Q 1175 2209 1959 2209 
L 2766 2209 
L 2766 2266 
Q 2766 2663 2505 2880 
Q 2244 3097 1772 3097 
Q 1472 3097 1187 3025 
Q 903 2953 641 2809 
L 641 3341 
Q 956 3463 1253 3523 
Q 1550 3584 1831 3584 
Q 2591 3584 2966 3190 
Q 3341 2797 3341 1997 
z
" transform="scale(0.015625)"/>
                            <path id="DejaVuSans-69" d="M 603 3500
L 1178 3500 
L 1178 0 
L 603 0 
L 603 3500 
z
M 603 4863 
L 1178 4863 
L 1178 4134 
L 603 4134 
L 603 4863 
z
" transform="scale(0.015625)"/>
                            <path id="DejaVuSans-64" d="M 2906 2969
L 2906 4863 
L 3481 4863 
L 3481 0 
L 2906 0 
L 2906 525 
Q 2725 213 2448 61 
Q 2172 -91 1784 -91 
Q 1150 -91 751 415 
Q 353 922 353 1747 
Q 353 2572 751 3078 
Q 1150 3584 1784 3584 
Q 2172 3584 2448 3432 
Q 2725 3281 2906 2969 
z
M 947 1747 
Q 947 1113 1208 752 
Q 1469 391 1925 391 
Q 2381 391 2643 752 
Q 2906 1113 2906 1747 
Q 2906 2381 2643 2742 
Q 2381 3103 1925 3103 
Q 1469 3103 1208 2742 
Q 947 2381 947 1747 
z
" transform="scale(0.015625)"/>
                            <path id="DejaVuSans-42" d="M 1259 2228
L 1259 519 
L 2272 519 
Q 2781 519 3026 730 
Q 3272 941 3272 1375 
Q 3272 1813 3026 2020 
Q 2781 2228 2272 2228 
L 1259 2228 
z
M 1259 4147 
L 1259 2741 
L 2194 2741 
Q 2656 2741 2882 2914 
Q 3109 3088 3109 3444 
Q 3109 3797 2882 3972 
Q 2656 4147 2194 4147 
L 1259 4147 
z
M 628 4666 
L 2241 4666 
Q 2963 4666 3353 4366 
Q 3744 4066 3744 3513 
Q 3744 3084 3544 2831 
Q 3344 2578 2956 2516 
Q 3422 2416 3680 2098 
Q 3938 1781 3938 1306 
Q 3938 681 3513 340 
Q 3088 0 2303 0 
L 628 0 
L 628 4666 
z
" transform="scale(0.015625)"/>
                        </defs>
                        <use xlink:href="#DejaVuSans-47"/>
                        <use xlink:href="#DejaVuSans-61" x="77.490234"/>
                        <use xlink:href="#DejaVuSans-69" x="138.769531"/>
                        <use xlink:href="#DejaVuSans-6e" x="166.552734"/>
                        <use xlink:href="#DejaVuSans-20" x="229.931641"/>
                        <use xlink:href="#DejaVuSans-28" x="261.71875"/>
                        <use xlink:href="#DejaVuSans-64" x="300.732422"/>
                        <use xlink:href="#DejaVuSans-42" x="364.208984"/>
                        <use xlink:href="#DejaVuSans-29" x="432.8125"/>
                    </g>
                </g>
            </g>
            <g id="line2d_31">
                <path d="M 62.36444 94.172136
L 65.622938 94.021789 
L 73.304936 93.556136 
L 76.355513 93.683647 
L 84.283961 94.175703 
L 87.139106 94.019648 
L 93.727662 93.550908 
L 96.424668 93.670979 
L 103.621027 94.179812 
L 106.161679 94.017569 
L 111.890728 93.545467 
L 114.307612 93.657951 
L 121.064485 94.180269 
L 123.492923 93.982666 
L 128.106913 93.541354 
L 130.16211 93.619294 
L 133.531337 94.03306 
L 135.783583 94.196279 
L 137.745546 94.11497 
L 140.964315 93.695952 
L 143.117616 93.533839 
L 144.994436 93.617848 
L 148.197666 94.057539 
L 150.258827 94.205358 
L 152.056276 94.103498 
L 157.794595 93.546663 
L 159.73953 93.776378 
L 163.005145 94.204108 
L 164.669133 94.154493 
L 166.861896 93.820922 
L 169.133237 93.529738 
L 170.736617 93.566826 
L 172.745363 93.877041 
L 175.041015 94.203845 
L 176.485363 94.188239 
L 178.222319 93.931365 
L 180.943828 93.518707 
L 182.337435 93.551923 
L 184.112025 93.844037 
L 186.448725 94.215639 
L 187.796612 94.194412 
L 189.418609 93.926309 
L 191.868754 93.512174 
L 193.173088 93.536256 
L 194.743129 93.809469 
L 197.115726 94.228529 
L 198.379231 94.201179 
L 199.900542 93.920806 
L 202.112488 93.5052 
L 203.338297 93.519724 
L 204.728116 93.773357 
L 207.132372 94.242622 
L 208.321437 94.208574 
L 209.753832 93.914782 
L 211.837871 93.490357 
L 212.993492 93.511327 
L 214.304327 93.778046 
L 216.492926 94.25188 
L 217.616383 94.227299 
L 218.891001 93.952547 
L 221.019751 93.474112 
L 222.034954 93.492292 
L 223.275885 93.760984 
L 225.425222 94.268997 
L 226.413653 94.247266 
L 227.546811 93.992291 
L 229.715675 93.456306 
L 230.67871 93.48148 
L 231.782937 93.742845 
L 233.896964 94.28778 
L 234.835875 94.258633 
L 235.91261 93.98827 
L 237.903835 93.443555 
L 238.820194 93.45927 
L 239.871222 93.723468 
L 241.884345 94.301702 
L 242.778836 94.282008 
L 243.804928 94.008009 
L 245.770721 93.421789 
L 246.644363 93.445402 
L 247.646674 93.7271 
L 249.501455 94.316862 
L 250.35554 94.307303 
L 251.270386 94.053922 
L 253.278174 93.397751 
L 254.048844 93.41907 
L 254.943415 93.6802 
L 256.907092 94.350233 
L 257.66097 94.324453 
L 258.536146 94.05228 
L 260.395975 93.378582 
L 261.134053 93.390342 
L 261.929915 93.630238 
L 263.99336 94.384398 
L 264.715492 94.330315 
L 265.55399 94.022441 
L 267.218258 93.357424 
L 267.926389 93.358801 
L 268.690104 93.602617 
L 270.72879 94.415614 
L 271.421986 94.349823 
L 272.227038 94.017972 
L 273.768587 93.333907 
L 274.449107 93.323927 
L 275.126819 93.545542 
L 277.254657 94.453812 
L 277.865503 94.371483 
L 278.639674 94.012577 
L 280.067815 93.307564 
L 280.668313 93.276908 
L 281.320909 93.484074 
L 283.5848 94.491926 
L 284.172606 94.355095 
L 284.970787 93.901898 
L 286.081768 93.293114 
L 286.660726 93.228001 
L 287.237653 93.392532 
L 288.073219 93.911436 
L 289.059968 94.466721 
L 289.628547 94.52963 
L 290.195166 94.352916 
L 291.015868 93.810848 
L 291.934285 93.261243 
L 292.493023 93.179697 
L 293.049868 93.345069 
L 293.806175 93.855889 
L 294.8092 94.5024 
L 295.358265 94.582285 
L 295.855829 94.42946 
L 296.549897 93.948211 
L 297.634687 93.204695 
L 298.125416 93.12427 
L 298.614685 93.265447 
L 299.248564 93.709424 
L 300.412417 94.564123 
L 300.894934 94.643113 
L 301.376039 94.488882 
L 301.999376 94.019274 
L 303.096445 93.158967 
L 303.571157 93.059879 
L 304.044502 93.201489 
L 304.610722 93.630746 
L 305.830879 94.63678 
L 306.297769 94.710056 
L 306.763337 94.529625 
L 307.366609 94.008204 
L 308.428542 93.081398 
L 308.888121 92.986409 
L 309.300645 93.1264 
L 309.849072 93.586535 
L 311.076382 94.723544 
L 311.483457 94.7957 
L 311.889526 94.64031 
L 312.429396 94.147385 
L 313.593064 92.988081 
L 313.993961 92.894322 
L 314.393881 93.03678 
L 314.881356 93.48325 
L 316.203528 94.848557 
L 316.598114 94.885436 
L 316.991755 94.671833 
L 317.515148 94.090046 
L 318.556959 92.899243 
L 318.945942 92.781779 
L 319.290933 92.898879 
L 319.721156 93.306915 
L 321.218129 95.010027 
L 321.558388 94.988526 
L 321.94034 94.703174 
L 322.490485 93.948717 
L 323.333282 92.82082 
L 323.711136 92.642556 
L 324.046277 92.732917 
L 324.422497 93.098038 
L 325.089212 94.15299 
L 325.711811 95.006409 
L 326.084241 95.190748 
L 326.373327 95.110051 
L 326.744263 94.733888 
L 327.360635 93.685422 
L 328.056407 92.641689 
L 328.423567 92.458771 
L 328.708571 92.552674 
L 329.074279 92.960135 
L 329.68199 94.089678 
L 330.368023 95.217565 
L 330.689874 95.404608 
L 330.970978 95.323288 
L 331.291651 94.961054 
L 331.811415 93.94712 
L 332.607855 92.444282 
L 332.925354 92.220307 
L 333.202663 92.282799 
L 333.519015 92.644693 
L 333.992405 93.623321 
L 334.856761 95.46261 
L 335.169949 95.700594 
L 335.404449 95.645593 
L 335.677609 95.330253 
L 336.105947 94.402433 
L 337.113964 92.056666 
L 337.422884 91.863803 
L 337.654193 91.972507 
L 337.9621 92.443012 
L 338.422881 93.665184 
L 339.264305 95.889639 
L 339.569213 96.146316 
L 339.797523 96.046419 
L 340.063484 95.61893 
L 340.480556 94.422742 
L 341.424528 91.586139 
L 341.725458 91.329794 
L 341.913259 91.417508 
L 342.175821 91.858544 
L 342.550184 93.024742 
L 343.631038 96.711861 
L 343.853778 96.866626 
L 344.039165 96.738437 
L 344.298355 96.176211 
L 344.70483 94.582961 
L 345.624915 90.759672 
L 345.881618 90.417461 
L 346.064733 90.483799 
L 346.284201 90.913322 
L 346.612855 92.200236 
L 347.920937 98.226036 
L 348.065639 98.204252 
L 348.246337 97.859795 
L 348.535042 96.624529 
L 349.039058 93.127187 
L 349.684816 89.06383 
L 349.93526 88.468773 
L 350.0782 88.484937 
L 350.2567 88.893147 
L 350.506275 90.175385 
L 350.897701 93.570117 
L 351.783851 101.564945 
L 351.995818 101.966958 
L 352.1017 101.796316 
L 352.278017 100.934282 
L 352.559731 98.13516 
L 353.086648 89.874615 
L 353.646836 82.218829 
L 353.891319 81.149476 
L 353.961105 81.230833 
L 354.100587 81.99547 
L 354.309589 84.843306 
L 354.587846 92.38067 
L 354.935005 109.188614 
L 355.316035 140.071489 
L 355.696184 189.889532 
L 356.041012 264.005924 
L 356.269012 346.6 
M 357.802006 346.6 
L 358.12894 237.629428 
L 358.5705 159.851344 
L 359.044703 113.71314 
L 359.483813 91.145377 
L 359.820793 83.108386 
L 360.056269 81.193954 
L 360.123486 81.114007 
L 360.157084 81.14368 
L 360.291407 81.687778 
L 360.52621 84.013134 
L 360.994812 91.667696 
L 361.595343 100.433557 
L 361.861543 101.926986 
L 361.961256 102.010344 
L 361.994481 101.981867 
L 362.127312 101.602389 
L 362.359508 100.053581 
L 362.85597 94.672641 
L 363.416819 89.48948 
L 363.712966 88.444513 
L 363.844416 88.430735 
L 364.00858 88.785494 
L 364.270903 90.094719 
L 364.794295 94.234599 
L 365.316026 97.668753 
L 365.576272 98.274484 
L 365.706241 98.237207 
L 365.868557 97.8858 
L 366.160323 96.546858 
L 367.290069 90.487222 
L 367.482962 90.378311 
L 367.643534 90.579177 
L 367.900123 91.388494 
L 368.38015 93.895408 
L 368.954337 96.512512 
L 369.208889 96.90305 
L 369.367784 96.838271 
L 369.58998 96.372363 
L 369.938538 94.979462 
L 370.759476 91.583544 
L 371.011249 91.29089 
L 371.168412 91.363048 
L 371.388188 91.773572 
L 371.764264 93.106046 
L 372.545002 95.946675 
L 372.794057 96.189618 
L 372.980601 96.070537 
L 373.228997 95.547721 
L 373.693731 93.883546 
L 374.249682 92.12103 
L 374.526954 91.825531 
L 374.711542 91.906584 
L 374.957338 92.336347 
L 375.386598 93.683381 
L 375.997888 95.491339 
L 376.272228 95.747128 
L 376.454868 95.658148 
L 376.698072 95.242646 
L 377.153112 93.891727 
L 377.727693 92.382839 
L 377.999163 92.172587 
L 378.209997 92.295167 
L 378.480673 92.781323 
L 379.678311 95.447162 
L 379.887003 95.352601 
L 380.154933 94.91662 
L 380.778409 93.25996 
L 381.192749 92.50749 
L 381.429047 92.424596 
L 381.635529 92.580088 
L 381.959478 93.182423 
L 382.898261 95.179461 
L 383.132121 95.213464 
L 383.365648 94.987108 
L 383.744425 94.208295 
L 384.470396 92.714127 
L 384.730963 92.604685 
L 384.962231 92.765058 
L 385.279695 93.311857 
L 386.17108 95.016298 
L 386.400332 95.05587 
L 386.629265 94.865417 
L 387.000602 94.186643 
L 387.712362 92.851368 
L 387.967843 92.743985 
L 388.194604 92.877896 
L 388.53416 93.411686 
L 389.379994 94.888034 
L 389.632897 94.923034 
L 389.885412 94.700963 
L 390.30541 93.942206 
L 390.89161 92.961131 
L 391.17002 92.858633 
L 391.420186 93.024119 
L 391.780866 93.595988 
L 392.49986 94.765196 
L 392.77556 94.825395 
L 393.023296 94.632866 
L 393.435361 93.952048 
L 394.03786 93.028499 
L 394.310995 92.953153 
L 394.556428 93.118922 
L 394.937487 93.702004 
L 395.588682 94.680478 
L 395.859254 94.74494 
L 396.129381 94.546492 
L 396.560662 93.864702 
L 397.125007 93.085419 
L 397.393063 93.032667 
L 397.660683 93.227965 
L 398.114638 93.929526 
L 398.647103 94.627126 
L 398.91269 94.670494 
L 399.177848 94.473473 
L 399.654058 93.747673 
L 400.155231 93.134317 
L 400.418394 93.100701 
L 400.707387 93.324975 
L 401.283853 94.196429 
L 401.701835 94.604537 
L 401.962535 94.583857 
L 402.27483 94.282579 
L 403.23402 93.143538 
L 403.492303 93.213777 
L 403.827464 93.583182 
L 404.623948 94.551224 
L 404.880057 94.539635 
L 405.186862 94.265832 
L 406.15465 93.188574 
L 406.408386 93.267154 
L 406.762961 93.659253 
L 407.495011 94.504669 
L 407.771835 94.489655 
L 408.073294 94.221051 
L 408.999325 93.230623 
L 409.273628 93.314535 
L 409.646942 93.727601 
L 410.292018 94.452896 
L 410.564174 94.466955 
L 410.860558 94.238359 
L 411.844664 93.264753 
L 412.114263 93.375433 
L 412.530048 93.854997 
L 413.090912 94.427133 
L 413.382778 94.417192 
L 413.698383 94.145579 
L 414.545089 93.301176 
L 414.810297 93.362962 
L 415.171258 93.721292 
L 415.842936 94.403571 
L 416.12996 94.381126 
L 416.464189 94.085516 
L 417.225599 93.336179 
L 417.51022 93.383551 
L 417.865305 93.718639 
L 418.549635 94.381852 
L 418.831975 94.34814 
L 419.184218 94.029727 
L 419.886449 93.363596 
L 420.166503 93.402218 
L 420.515901 93.716269 
L 421.189305 94.355373 
L 421.46715 94.329645 
L 421.813796 94.031252 
L 422.504904 93.388554 
L 422.780535 93.419246 
L 423.124426 93.714153 
L 423.810055 94.337759 
L 424.083508 94.301858 
L 424.447405 93.981874 
L 425.082294 93.41139 
L 425.376231 93.445851 
L 425.737281 93.762046 
L 426.367215 94.31582 
L 426.658866 94.275976 
L 427.017111 93.960752 
L 427.642168 93.426263 
L 427.931567 93.470706 
L 428.309245 93.806837 
L 428.885195 94.295614 
L 429.172415 94.263339 
L 429.547255 93.941199 
L 430.140837 93.445435 
L 430.425873 93.482363 
L 430.797868 93.801141 
L 431.386959 94.282756 
L 431.669843 94.240865 
L 432.039037 93.923037 
L 432.623703 93.457938 
L 432.904468 93.504058 
L 433.292431 93.841521 
L 433.829753 94.265615 
L 434.129887 94.219639 
L 434.514971 93.883622 
L 435.048317 93.474248 
L 435.346237 93.524594 
L 435.749694 93.879214 
L 436.257913 94.254682 
L 436.55365 94.199518 
L 436.97521 93.825201 
L 437.458671 93.484943 
L 437.752257 93.544099 
L 438.170758 93.914225 
L 438.65072 94.244073 
L 438.942186 94.180382 
L 439.378418 93.792069 
L 439.834184 93.495341 
L 440.123561 93.562684 
L 440.577268 93.966564 
L 441.009187 94.233743 
L 441.009187 94.233743 
" clip-path="url(#p90401bcb1d)" style="fill: none; stroke: #1f77b4; stroke-width: 2; stroke-linecap: square"/>
            </g>
            <g id="line2d_32">
                <path d="M 62.57 259.0948
L 440.988645 259.0948 
" clip-path="url(#p90401bcb1d)" style="fill: none; stroke-dasharray: 3.7,1.6; stroke-dashoffset: 0; stroke: #00bfbf"/>
            </g>
            <g id="line2d_33">
                <path d="M 62.57 67.409132
L 440.988645 67.409132 
" clip-path="url(#p90401bcb1d)" style="fill: none; stroke-dasharray: 3.7,1.6; stroke-dashoffset: 0; stroke: #ff0000"/>
            </g>
            <g id="line2d_34">
                <path d="M 62.57 128.695514
L 440.988645 128.695514 
" clip-path="url(#p90401bcb1d)" style="fill: none; stroke-dasharray: 3.7,1.6; stroke-dashoffset: 0; stroke: #ff0000"/>
            </g>
            <g id="patch_3">
                <path d="M 62.57 300.328
L 62.57 25.44 
" style="fill: none; stroke: #000000; stroke-width: 0.8; stroke-linejoin: miter; stroke-linecap: square"/>
            </g>
            <g id="patch_4">
                <path d="M 440.988645 300.328
L 440.988645 25.44 
" style="fill: none; stroke: #000000; stroke-width: 0.8; stroke-linejoin: miter; stroke-linecap: square"/>
            </g>
            <g id="patch_5">
                <path d="M 62.57 300.328
L 440.988645 300.328 
" style="fill: none; stroke: #000000; stroke-width: 0.8; stroke-linejoin: miter; stroke-linecap: square"/>
            </g>
            <g id="patch_6">
                <path d="M 62.57 25.44
L 440.988645 25.44 
" style="fill: none; stroke: #000000; stroke-width: 0.8; stroke-linejoin: miter; stroke-linecap: square"/>
            </g>
            <g id="text_18">
                <!-- Frequency Response -->
                <g transform="translate(190.059948 19.44)scale(0.12 -0.12)">
                    <defs>
                        <path id="DejaVuSans-52" d="M 2841 2188
Q 3044 2119 3236 1894 
Q 3428 1669 3622 1275 
L 4263 0 
L 3584 0 
L 2988 1197 
Q 2756 1666 2539 1819 
Q 2322 1972 1947 1972 
L 1259 1972 
L 1259 0 
L 628 0 
L 628 4666 
L 2053 4666 
Q 2853 4666 3247 4331 
Q 3641 3997 3641 3322 
Q 3641 2881 3436 2590 
Q 3231 2300 2841 2188 
z
M 1259 4147 
L 1259 2491 
L 2053 2491 
Q 2509 2491 2742 2702 
Q 2975 2913 2975 3322 
Q 2975 3731 2742 3939 
Q 2509 4147 2053 4147 
L 1259 4147 
z
" transform="scale(0.015625)"/>
                        <path id="DejaVuSans-73" d="M 2834 3397
L 2834 2853 
Q 2591 2978 2328 3040 
Q 2066 3103 1784 3103 
Q 1356 3103 1142 2972 
Q 928 2841 928 2578 
Q 928 2378 1081 2264 
Q 1234 2150 1697 2047 
L 1894 2003 
Q 2506 1872 2764 1633 
Q 3022 1394 3022 966 
Q 3022 478 2636 193 
Q 2250 -91 1575 -91 
Q 1294 -91 989 -36 
Q 684 19 347 128 
L 347 722 
Q 666 556 975 473 
Q 1284 391 1588 391 
Q 1994 391 2212 530 
Q 2431 669 2431 922 
Q 2431 1156 2273 1281 
Q 2116 1406 1581 1522 
L 1381 1569 
Q 847 1681 609 1914 
Q 372 2147 372 2553 
Q 372 3047 722 3315 
Q 1072 3584 1716 3584 
Q 2034 3584 2315 3537 
Q 2597 3491 2834 3397 
z
" transform="scale(0.015625)"/>
                        <path id="DejaVuSans-70" d="M 1159 525
L 1159 -1331 
L 581 -1331 
L 581 3500 
L 1159 3500 
L 1159 2969 
Q 1341 3281 1617 3432 
Q 1894 3584 2278 3584 
Q 2916 3584 3314 3078 
Q 3713 2572 3713 1747 
Q 3713 922 3314 415 
Q 2916 -91 2278 -91 
Q 1894 -91 1617 61 
Q 1341 213 1159 525 
z
M 3116 1747 
Q 3116 2381 2855 2742 
Q 2594 3103 2138 3103 
Q 1681 3103 1420 2742 
Q 1159 2381 1159 1747 
Q 1159 1113 1420 752 
Q 1681 391 2138 391 
Q 2594 391 2855 752 
Q 3116 1113 3116 1747 
z
" transform="scale(0.015625)"/>
                        <path id="DejaVuSans-6f" d="M 1959 3097
Q 1497 3097 1228 2736 
Q 959 2375 959 1747 
Q 959 1119 1226 758 
Q 1494 397 1959 397 
Q 2419 397 2687 759 
Q 2956 1122 2956 1747 
Q 2956 2369 2687 2733 
Q 2419 3097 1959 3097 
z
M 1959 3584 
Q 2709 3584 3137 3096 
Q 3566 2609 3566 1747 
Q 3566 888 3137 398 
Q 2709 -91 1959 -91 
Q 1206 -91 779 398 
Q 353 888 353 1747 
Q 353 2609 779 3096 
Q 1206 3584 1959 3584 
z
" transform="scale(0.015625)"/>
                    </defs>
                    <use xlink:href="#DejaVuSans-46"/>
                    <use xlink:href="#DejaVuSans-72" x="50.269531"/>
                    <use xlink:href="#DejaVuSans-65" x="89.132812"/>
                    <use xlink:href="#DejaVuSans-71" x="150.65625"/>
                    <use xlink:href="#DejaVuSans-75" x="214.132812"/>
                    <use xlink:href="#DejaVuSans-65" x="277.511719"/>
                    <use xlink:href="#DejaVuSans-6e" x="339.035156"/>
                    <use xlink:href="#DejaVuSans-63" x="402.414062"/>
                    <use xlink:href="#DejaVuSans-79" x="457.394531"/>
                    <use xlink:href="#DejaVuSans-20" x="516.574219"/>
                    <use xlink:href="#DejaVuSans-52" x="548.361328"/>
                    <use xlink:href="#DejaVuSans-65" x="613.34375"/>
                    <use xlink:href="#DejaVuSans-73" x="674.867188"/>
                    <use xlink:href="#DejaVuSans-70" x="726.966797"/>
                    <use xlink:href="#DejaVuSans-6f" x="790.443359"/>
                    <use xlink:href="#DejaVuSans-6e" x="851.625"/>
                    <use xlink:href="#DejaVuSans-73" x="915.003906"/>
                    <use xlink:href="#DejaVuSans-65" x="967.103516"/>
                </g>
            </g>
        </g>
    </g>
    <defs>
        <clipPath id="p90401bcb1d">
            <rect x="62.57" y="25.44" width="378.418645" height="274.888"/>
        </clipPath>
    </defs>
</svg>
