<?xml version="1.0" encoding="utf-8" standalone="no"?>
<!DOCTYPE svg PUBLIC "-//W3C//DTD SVG 1.1//EN"
        "http://www.w3.org/Graphics/SVG/1.1/DTD/svg11.dtd">
<svg xmlns:xlink="http://www.w3.org/1999/xlink" width="460.8pt" height="345.6pt" viewBox="0 0 460.8 345.6"
     xmlns="http://www.w3.org/2000/svg" version="1.1">
    <metadata>
        <rdf:RDF xmlns:dc="http://purl.org/dc/elements/1.1/" xmlns:cc="http://creativecommons.org/ns#"
                 xmlns:rdf="http://www.w3.org/1999/02/22-rdf-syntax-ns#">
            <cc:Work>
                <dc:type rdf:resource="http://purl.org/dc/dcmitype/StillImage"/>
                <dc:date>2022-01-30T12:59:48.005629</dc:date>
                <dc:format>image/svg+xml</dc:format>
                <dc:creator>
                    <cc:Agent>
                        <dc:title>Matplotlib v3.5.1, https://matplotlib.org/</dc:title>
                    </cc:Agent>
                </dc:creator>
            </cc:Work>
        </rdf:RDF>
    </metadata>
    <defs>
        <style type="text/css">*{stroke-linejoin: round; stroke-linecap: butt}</style>
    </defs>
    <g id="figure_1">
        <g id="patch_1">
            <path d="M 0 345.6
L 460.8 345.6 
L 460.8 0 
L 0 0 
z
" style="fill: #ffffff"/>
        </g>
        <g id="axes_1">
            <g id="patch_2">
                <path d="M 53.03 300.328
L 450 300.328 
L 450 25.44 
L 53.03 25.44 
z
" style="fill: #ffffff"/>
            </g>
            <g id="matplotlib.axis_1">
                <g id="xtick_1">
                    <g id="line2d_1">
                        <path d="M 53.03 300.328
L 53.03 25.44 
" clip-path="url(#pbc38318f18)" style="fill: none; stroke: #b0b0b0; stroke-width: 0.8; stroke-linecap: square"/>
                    </g>
                    <g id="line2d_2">
                        <defs>
                            <path id="mf3529bf12c" d="M 0 0
L 0 3.5 
" style="stroke: #000000; stroke-width: 0.8"/>
                        </defs>
                        <g>
                            <use xlink:href="#mf3529bf12c" x="53.03" y="300.328"
                                 style="stroke: #000000; stroke-width: 0.8"/>
                        </g>
                    </g>
                    <g id="text_1">
                        <!-- $\mathdefault{10^{-1}}$ -->
                        <g transform="translate(41.28 314.926437)scale(0.1 -0.1)">
                            <defs>
                                <path id="DejaVuSans-31" d="M 794 531
L 1825 531 
L 1825 4091 
L 703 3866 
L 703 4441 
L 1819 4666 
L 2450 4666 
L 2450 531 
L 3481 531 
L 3481 0 
L 794 0 
L 794 531 
z
" transform="scale(0.015625)"/>
                                <path id="DejaVuSans-30" d="M 2034 4250
Q 1547 4250 1301 3770 
Q 1056 3291 1056 2328 
Q 1056 1369 1301 889 
Q 1547 409 2034 409 
Q 2525 409 2770 889 
Q 3016 1369 3016 2328 
Q 3016 3291 2770 3770 
Q 2525 4250 2034 4250 
z
M 2034 4750 
Q 2819 4750 3233 4129 
Q 3647 3509 3647 2328 
Q 3647 1150 3233 529 
Q 2819 -91 2034 -91 
Q 1250 -91 836 529 
Q 422 1150 422 2328 
Q 422 3509 836 4129 
Q 1250 4750 2034 4750 
z
" transform="scale(0.015625)"/>
                                <path id="DejaVuSans-2212" d="M 678 2272
L 4684 2272 
L 4684 1741 
L 678 1741 
L 678 2272 
z
" transform="scale(0.015625)"/>
                            </defs>
                            <use xlink:href="#DejaVuSans-31" transform="translate(0 0.684375)"/>
                            <use xlink:href="#DejaVuSans-30" transform="translate(63.623047 0.684375)"/>
                            <use xlink:href="#DejaVuSans-2212" transform="translate(128.203125 38.965625)scale(0.7)"/>
                            <use xlink:href="#DejaVuSans-31" transform="translate(186.855469 38.965625)scale(0.7)"/>
                        </g>
                    </g>
                </g>
                <g id="xtick_2">
                    <g id="line2d_3">
                        <path d="M 200.112035 300.328
L 200.112035 25.44 
" clip-path="url(#pbc38318f18)" style="fill: none; stroke: #b0b0b0; stroke-width: 0.8; stroke-linecap: square"/>
                    </g>
                    <g id="line2d_4">
                        <g>
                            <use xlink:href="#mf3529bf12c" x="200.112035" y="300.328"
                                 style="stroke: #000000; stroke-width: 0.8"/>
                        </g>
                    </g>
                    <g id="text_2">
                        <!-- $\mathdefault{10^{0}}$ -->
                        <g transform="translate(191.312035 314.926437)scale(0.1 -0.1)">
                            <use xlink:href="#DejaVuSans-31" transform="translate(0 0.765625)"/>
                            <use xlink:href="#DejaVuSans-30" transform="translate(63.623047 0.765625)"/>
                            <use xlink:href="#DejaVuSans-30" transform="translate(128.203125 39.046875)scale(0.7)"/>
                        </g>
                    </g>
                </g>
                <g id="xtick_3">
                    <g id="line2d_5">
                        <path d="M 347.19407 300.328
L 347.19407 25.44 
" clip-path="url(#pbc38318f18)" style="fill: none; stroke: #b0b0b0; stroke-width: 0.8; stroke-linecap: square"/>
                    </g>
                    <g id="line2d_6">
                        <g>
                            <use xlink:href="#mf3529bf12c" x="347.19407" y="300.328"
                                 style="stroke: #000000; stroke-width: 0.8"/>
                        </g>
                    </g>
                    <g id="text_3">
                        <!-- $\mathdefault{10^{1}}$ -->
                        <g transform="translate(338.39407 314.926437)scale(0.1 -0.1)">
                            <use xlink:href="#DejaVuSans-31" transform="translate(0 0.684375)"/>
                            <use xlink:href="#DejaVuSans-30" transform="translate(63.623047 0.684375)"/>
                            <use xlink:href="#DejaVuSans-31" transform="translate(128.203125 38.965625)scale(0.7)"/>
                        </g>
                    </g>
                </g>
                <g id="xtick_4">
                    <g id="line2d_7">
                        <defs>
                            <path id="mb0e8fd95e9" d="M 0 0
L 0 2 
" style="stroke: #000000; stroke-width: 0.6"/>
                        </defs>
                        <g>
                            <use xlink:href="#mb0e8fd95e9" x="97.306104" y="300.328"
                                 style="stroke: #000000; stroke-width: 0.6"/>
                        </g>
                    </g>
                </g>
                <g id="xtick_5">
                    <g id="line2d_8">
                        <g>
                            <use xlink:href="#mb0e8fd95e9" x="123.205965" y="300.328"
                                 style="stroke: #000000; stroke-width: 0.6"/>
                        </g>
                    </g>
                </g>
                <g id="xtick_6">
                    <g id="line2d_9">
                        <g>
                            <use xlink:href="#mb0e8fd95e9" x="141.582209" y="300.328"
                                 style="stroke: #000000; stroke-width: 0.6"/>
                        </g>
                    </g>
                </g>
                <g id="xtick_7">
                    <g id="line2d_10">
                        <g>
                            <use xlink:href="#mb0e8fd95e9" x="155.83593" y="300.328"
                                 style="stroke: #000000; stroke-width: 0.6"/>
                        </g>
                    </g>
                </g>
                <g id="xtick_8">
                    <g id="line2d_11">
                        <g>
                            <use xlink:href="#mb0e8fd95e9" x="167.482069" y="300.328"
                                 style="stroke: #000000; stroke-width: 0.6"/>
                        </g>
                    </g>
                </g>
                <g id="xtick_9">
                    <g id="line2d_12">
                        <g>
                            <use xlink:href="#mb0e8fd95e9" x="177.328739" y="300.328"
                                 style="stroke: #000000; stroke-width: 0.6"/>
                        </g>
                    </g>
                </g>
                <g id="xtick_10">
                    <g id="line2d_13">
                        <g>
                            <use xlink:href="#mb0e8fd95e9" x="185.858313" y="300.328"
                                 style="stroke: #000000; stroke-width: 0.6"/>
                        </g>
                    </g>
                </g>
                <g id="xtick_11">
                    <g id="line2d_14">
                        <g>
                            <use xlink:href="#mb0e8fd95e9" x="193.38193" y="300.328"
                                 style="stroke: #000000; stroke-width: 0.6"/>
                        </g>
                    </g>
                </g>
                <g id="xtick_12">
                    <g id="line2d_15">
                        <g>
                            <use xlink:href="#mb0e8fd95e9" x="244.388139" y="300.328"
                                 style="stroke: #000000; stroke-width: 0.6"/>
                        </g>
                    </g>
                </g>
                <g id="xtick_13">
                    <g id="line2d_16">
                        <g>
                            <use xlink:href="#mb0e8fd95e9" x="270.288" y="300.328"
                                 style="stroke: #000000; stroke-width: 0.6"/>
                        </g>
                    </g>
                </g>
                <g id="xtick_14">
                    <g id="line2d_17">
                        <g>
                            <use xlink:href="#mb0e8fd95e9" x="288.664243" y="300.328"
                                 style="stroke: #000000; stroke-width: 0.6"/>
                        </g>
                    </g>
                </g>
                <g id="xtick_15">
                    <g id="line2d_18">
                        <g>
                            <use xlink:href="#mb0e8fd95e9" x="302.917965" y="300.328"
                                 style="stroke: #000000; stroke-width: 0.6"/>
                        </g>
                    </g>
                </g>
                <g id="xtick_16">
                    <g id="line2d_19">
                        <g>
                            <use xlink:href="#mb0e8fd95e9" x="314.564104" y="300.328"
                                 style="stroke: #000000; stroke-width: 0.6"/>
                        </g>
                    </g>
                </g>
                <g id="xtick_17">
                    <g id="line2d_20">
                        <g>
                            <use xlink:href="#mb0e8fd95e9" x="324.410774" y="300.328"
                                 style="stroke: #000000; stroke-width: 0.6"/>
                        </g>
                    </g>
                </g>
                <g id="xtick_18">
                    <g id="line2d_21">
                        <g>
                            <use xlink:href="#mb0e8fd95e9" x="332.940348" y="300.328"
                                 style="stroke: #000000; stroke-width: 0.6"/>
                        </g>
                    </g>
                </g>
                <g id="xtick_19">
                    <g id="line2d_22">
                        <g>
                            <use xlink:href="#mb0e8fd95e9" x="340.463965" y="300.328"
                                 style="stroke: #000000; stroke-width: 0.6"/>
                        </g>
                    </g>
                </g>
                <g id="xtick_20">
                    <g id="line2d_23">
                        <g>
                            <use xlink:href="#mb0e8fd95e9" x="391.470174" y="300.328"
                                 style="stroke: #000000; stroke-width: 0.6"/>
                        </g>
                    </g>
                </g>
                <g id="xtick_21">
                    <g id="line2d_24">
                        <g>
                            <use xlink:href="#mb0e8fd95e9" x="417.370034" y="300.328"
                                 style="stroke: #000000; stroke-width: 0.6"/>
                        </g>
                    </g>
                </g>
                <g id="xtick_22">
                    <g id="line2d_25">
                        <g>
                            <use xlink:href="#mb0e8fd95e9" x="435.746278" y="300.328"
                                 style="stroke: #000000; stroke-width: 0.6"/>
                        </g>
                    </g>
                </g>
                <g id="xtick_23">
                    <g id="line2d_26">
                        <g>
                            <use xlink:href="#mb0e8fd95e9" x="450" y="300.328"
                                 style="stroke: #000000; stroke-width: 0.6"/>
                        </g>
                    </g>
                </g>
                <g id="text_4">
                    <!-- Frequency (Hz) -->
                    <g transform="translate(213.810312 328.604562)scale(0.1 -0.1)">
                        <defs>
                            <path id="DejaVuSans-46" d="M 628 4666
L 3309 4666 
L 3309 4134 
L 1259 4134 
L 1259 2759 
L 3109 2759 
L 3109 2228 
L 1259 2228 
L 1259 0 
L 628 0 
L 628 4666 
z
" transform="scale(0.015625)"/>
                            <path id="DejaVuSans-72" d="M 2631 2963
Q 2534 3019 2420 3045 
Q 2306 3072 2169 3072 
Q 1681 3072 1420 2755 
Q 1159 2438 1159 1844 
L 1159 0 
L 581 0 
L 581 3500 
L 1159 3500 
L 1159 2956 
Q 1341 3275 1631 3429 
Q 1922 3584 2338 3584 
Q 2397 3584 2469 3576 
Q 2541 3569 2628 3553 
L 2631 2963 
z
" transform="scale(0.015625)"/>
                            <path id="DejaVuSans-65" d="M 3597 1894
L 3597 1613 
L 953 1613 
Q 991 1019 1311 708 
Q 1631 397 2203 397 
Q 2534 397 2845 478 
Q 3156 559 3463 722 
L 3463 178 
Q 3153 47 2828 -22 
Q 2503 -91 2169 -91 
Q 1331 -91 842 396 
Q 353 884 353 1716 
Q 353 2575 817 3079 
Q 1281 3584 2069 3584 
Q 2775 3584 3186 3129 
Q 3597 2675 3597 1894 
z
M 3022 2063 
Q 3016 2534 2758 2815 
Q 2500 3097 2075 3097 
Q 1594 3097 1305 2825 
Q 1016 2553 972 2059 
L 3022 2063 
z
" transform="scale(0.015625)"/>
                            <path id="DejaVuSans-71" d="M 947 1747
Q 947 1113 1208 752 
Q 1469 391 1925 391 
Q 2381 391 2643 752 
Q 2906 1113 2906 1747 
Q 2906 2381 2643 2742 
Q 2381 3103 1925 3103 
Q 1469 3103 1208 2742 
Q 947 2381 947 1747 
z
M 2906 525 
Q 2725 213 2448 61 
Q 2172 -91 1784 -91 
Q 1150 -91 751 415 
Q 353 922 353 1747 
Q 353 2572 751 3078 
Q 1150 3584 1784 3584 
Q 2172 3584 2448 3432 
Q 2725 3281 2906 2969 
L 2906 3500 
L 3481 3500 
L 3481 -1331 
L 2906 -1331 
L 2906 525 
z
" transform="scale(0.015625)"/>
                            <path id="DejaVuSans-75" d="M 544 1381
L 544 3500 
L 1119 3500 
L 1119 1403 
Q 1119 906 1312 657 
Q 1506 409 1894 409 
Q 2359 409 2629 706 
Q 2900 1003 2900 1516 
L 2900 3500 
L 3475 3500 
L 3475 0 
L 2900 0 
L 2900 538 
Q 2691 219 2414 64 
Q 2138 -91 1772 -91 
Q 1169 -91 856 284 
Q 544 659 544 1381 
z
M 1991 3584 
L 1991 3584 
z
" transform="scale(0.015625)"/>
                            <path id="DejaVuSans-6e" d="M 3513 2113
L 3513 0 
L 2938 0 
L 2938 2094 
Q 2938 2591 2744 2837 
Q 2550 3084 2163 3084 
Q 1697 3084 1428 2787 
Q 1159 2491 1159 1978 
L 1159 0 
L 581 0 
L 581 3500 
L 1159 3500 
L 1159 2956 
Q 1366 3272 1645 3428 
Q 1925 3584 2291 3584 
Q 2894 3584 3203 3211 
Q 3513 2838 3513 2113 
z
" transform="scale(0.015625)"/>
                            <path id="DejaVuSans-63" d="M 3122 3366
L 3122 2828 
Q 2878 2963 2633 3030 
Q 2388 3097 2138 3097 
Q 1578 3097 1268 2742 
Q 959 2388 959 1747 
Q 959 1106 1268 751 
Q 1578 397 2138 397 
Q 2388 397 2633 464 
Q 2878 531 3122 666 
L 3122 134 
Q 2881 22 2623 -34 
Q 2366 -91 2075 -91 
Q 1284 -91 818 406 
Q 353 903 353 1747 
Q 353 2603 823 3093 
Q 1294 3584 2113 3584 
Q 2378 3584 2631 3529 
Q 2884 3475 3122 3366 
z
" transform="scale(0.015625)"/>
                            <path id="DejaVuSans-79" d="M 2059 -325
Q 1816 -950 1584 -1140 
Q 1353 -1331 966 -1331 
L 506 -1331 
L 506 -850 
L 844 -850 
Q 1081 -850 1212 -737 
Q 1344 -625 1503 -206 
L 1606 56 
L 191 3500 
L 800 3500 
L 1894 763 
L 2988 3500 
L 3597 3500 
L 2059 -325 
z
" transform="scale(0.015625)"/>
                            <path id="DejaVuSans-20" transform="scale(0.015625)"/>
                            <path id="DejaVuSans-28" d="M 1984 4856
Q 1566 4138 1362 3434 
Q 1159 2731 1159 2009 
Q 1159 1288 1364 580 
Q 1569 -128 1984 -844 
L 1484 -844 
Q 1016 -109 783 600 
Q 550 1309 550 2009 
Q 550 2706 781 3412 
Q 1013 4119 1484 4856 
L 1984 4856 
z
" transform="scale(0.015625)"/>
                            <path id="DejaVuSans-48" d="M 628 4666
L 1259 4666 
L 1259 2753 
L 3553 2753 
L 3553 4666 
L 4184 4666 
L 4184 0 
L 3553 0 
L 3553 2222 
L 1259 2222 
L 1259 0 
L 628 0 
L 628 4666 
z
" transform="scale(0.015625)"/>
                            <path id="DejaVuSans-7a" d="M 353 3500
L 3084 3500 
L 3084 2975 
L 922 459 
L 3084 459 
L 3084 0 
L 275 0 
L 275 525 
L 2438 3041 
L 353 3041 
L 353 3500 
z
" transform="scale(0.015625)"/>
                            <path id="DejaVuSans-29" d="M 513 4856
L 1013 4856 
Q 1481 4119 1714 3412 
Q 1947 2706 1947 2009 
Q 1947 1309 1714 600 
Q 1481 -109 1013 -844 
L 513 -844 
Q 928 -128 1133 580 
Q 1338 1288 1338 2009 
Q 1338 2731 1133 3434 
Q 928 4138 513 4856 
z
" transform="scale(0.015625)"/>
                        </defs>
                        <use xlink:href="#DejaVuSans-46"/>
                        <use xlink:href="#DejaVuSans-72" x="50.269531"/>
                        <use xlink:href="#DejaVuSans-65" x="89.132812"/>
                        <use xlink:href="#DejaVuSans-71" x="150.65625"/>
                        <use xlink:href="#DejaVuSans-75" x="214.132812"/>
                        <use xlink:href="#DejaVuSans-65" x="277.511719"/>
                        <use xlink:href="#DejaVuSans-6e" x="339.035156"/>
                        <use xlink:href="#DejaVuSans-63" x="402.414062"/>
                        <use xlink:href="#DejaVuSans-79" x="457.394531"/>
                        <use xlink:href="#DejaVuSans-20" x="516.574219"/>
                        <use xlink:href="#DejaVuSans-28" x="548.361328"/>
                        <use xlink:href="#DejaVuSans-48" x="587.375"/>
                        <use xlink:href="#DejaVuSans-7a" x="662.570312"/>
                        <use xlink:href="#DejaVuSans-29" x="715.060547"/>
                    </g>
                </g>
            </g>
            <g id="matplotlib.axis_2">
                <g id="ytick_1">
                    <g id="line2d_27">
                        <path d="M 53.03 300.328
L 450 300.328 
" clip-path="url(#pbc38318f18)" style="fill: none; stroke: #b0b0b0; stroke-width: 0.8; stroke-linecap: square"/>
                    </g>
                    <g id="line2d_28">
                        <defs>
                            <path id="m87a57ab6d2" d="M 0 0
L -3.5 0 
" style="stroke: #000000; stroke-width: 0.8"/>
                        </defs>
                        <g>
                            <use xlink:href="#m87a57ab6d2" x="53.03" y="300.328"
                                 style="stroke: #000000; stroke-width: 0.8"/>
                        </g>
                    </g>
                    <g id="text_5">
                        <!-- −20 -->
                        <g transform="translate(24.925313 304.127219)scale(0.1 -0.1)">
                            <defs>
                                <path id="DejaVuSans-32" d="M 1228 531
L 3431 531 
L 3431 0 
L 469 0 
L 469 531 
Q 828 903 1448 1529 
Q 2069 2156 2228 2338 
Q 2531 2678 2651 2914 
Q 2772 3150 2772 3378 
Q 2772 3750 2511 3984 
Q 2250 4219 1831 4219 
Q 1534 4219 1204 4116 
Q 875 4013 500 3803 
L 500 4441 
Q 881 4594 1212 4672 
Q 1544 4750 1819 4750 
Q 2544 4750 2975 4387 
Q 3406 4025 3406 3419 
Q 3406 3131 3298 2873 
Q 3191 2616 2906 2266 
Q 2828 2175 2409 1742 
Q 1991 1309 1228 531 
z
" transform="scale(0.015625)"/>
                            </defs>
                            <use xlink:href="#DejaVuSans-2212"/>
                            <use xlink:href="#DejaVuSans-32" x="83.789062"/>
                            <use xlink:href="#DejaVuSans-30" x="147.412109"/>
                        </g>
                    </g>
                </g>
                <g id="ytick_2">
                    <g id="line2d_29">
                        <path d="M 53.03 245.3504
L 450 245.3504 
" clip-path="url(#pbc38318f18)" style="fill: none; stroke: #b0b0b0; stroke-width: 0.8; stroke-linecap: square"/>
                    </g>
                    <g id="line2d_30">
                        <g>
                            <use xlink:href="#m87a57ab6d2" x="53.03" y="245.3504"
                                 style="stroke: #000000; stroke-width: 0.8"/>
                        </g>
                    </g>
                    <g id="text_6">
                        <!-- −15 -->
                        <g transform="translate(24.925313 249.149619)scale(0.1 -0.1)">
                            <defs>
                                <path id="DejaVuSans-35" d="M 691 4666
L 3169 4666 
L 3169 4134 
L 1269 4134 
L 1269 2991 
Q 1406 3038 1543 3061 
Q 1681 3084 1819 3084 
Q 2600 3084 3056 2656 
Q 3513 2228 3513 1497 
Q 3513 744 3044 326 
Q 2575 -91 1722 -91 
Q 1428 -91 1123 -41 
Q 819 9 494 109 
L 494 744 
Q 775 591 1075 516 
Q 1375 441 1709 441 
Q 2250 441 2565 725 
Q 2881 1009 2881 1497 
Q 2881 1984 2565 2268 
Q 2250 2553 1709 2553 
Q 1456 2553 1204 2497 
Q 953 2441 691 2322 
L 691 4666 
z
" transform="scale(0.015625)"/>
                            </defs>
                            <use xlink:href="#DejaVuSans-2212"/>
                            <use xlink:href="#DejaVuSans-31" x="83.789062"/>
                            <use xlink:href="#DejaVuSans-35" x="147.412109"/>
                        </g>
                    </g>
                </g>
                <g id="ytick_3">
                    <g id="line2d_31">
                        <path d="M 53.03 190.3728
L 450 190.3728 
" clip-path="url(#pbc38318f18)" style="fill: none; stroke: #b0b0b0; stroke-width: 0.8; stroke-linecap: square"/>
                    </g>
                    <g id="line2d_32">
                        <g>
                            <use xlink:href="#m87a57ab6d2" x="53.03" y="190.3728"
                                 style="stroke: #000000; stroke-width: 0.8"/>
                        </g>
                    </g>
                    <g id="text_7">
                        <!-- −10 -->
                        <g transform="translate(24.925313 194.172019)scale(0.1 -0.1)">
                            <use xlink:href="#DejaVuSans-2212"/>
                            <use xlink:href="#DejaVuSans-31" x="83.789062"/>
                            <use xlink:href="#DejaVuSans-30" x="147.412109"/>
                        </g>
                    </g>
                </g>
                <g id="ytick_4">
                    <g id="line2d_33">
                        <path d="M 53.03 135.3952
L 450 135.3952 
" clip-path="url(#pbc38318f18)" style="fill: none; stroke: #b0b0b0; stroke-width: 0.8; stroke-linecap: square"/>
                    </g>
                    <g id="line2d_34">
                        <g>
                            <use xlink:href="#m87a57ab6d2" x="53.03" y="135.3952"
                                 style="stroke: #000000; stroke-width: 0.8"/>
                        </g>
                    </g>
                    <g id="text_8">
                        <!-- −5 -->
                        <g transform="translate(31.287813 139.194419)scale(0.1 -0.1)">
                            <use xlink:href="#DejaVuSans-2212"/>
                            <use xlink:href="#DejaVuSans-35" x="83.789062"/>
                        </g>
                    </g>
                </g>
                <g id="ytick_5">
                    <g id="line2d_35">
                        <path d="M 53.03 80.4176
L 450 80.4176 
" clip-path="url(#pbc38318f18)" style="fill: none; stroke: #b0b0b0; stroke-width: 0.8; stroke-linecap: square"/>
                    </g>
                    <g id="line2d_36">
                        <g>
                            <use xlink:href="#m87a57ab6d2" x="53.03" y="80.4176"
                                 style="stroke: #000000; stroke-width: 0.8"/>
                        </g>
                    </g>
                    <g id="text_9">
                        <!-- 0 -->
                        <g transform="translate(39.6675 84.216819)scale(0.1 -0.1)">
                            <use xlink:href="#DejaVuSans-30"/>
                        </g>
                    </g>
                </g>
                <g id="ytick_6">
                    <g id="line2d_37">
                        <path d="M 53.03 25.44
L 450 25.44 
" clip-path="url(#pbc38318f18)" style="fill: none; stroke: #b0b0b0; stroke-width: 0.8; stroke-linecap: square"/>
                    </g>
                    <g id="line2d_38">
                        <g>
                            <use xlink:href="#m87a57ab6d2" x="53.03" y="25.44"
                                 style="stroke: #000000; stroke-width: 0.8"/>
                        </g>
                    </g>
                    <g id="text_10">
                        <!-- 5 -->
                        <g transform="translate(39.6675 29.239219)scale(0.1 -0.1)">
                            <use xlink:href="#DejaVuSans-35"/>
                        </g>
                    </g>
                </g>
                <g id="text_11">
                    <!-- Gain (dB) -->
                    <g transform="translate(18.845625 186.475406)rotate(-90)scale(0.1 -0.1)">
                        <defs>
                            <path id="DejaVuSans-47" d="M 3809 666
L 3809 1919 
L 2778 1919 
L 2778 2438 
L 4434 2438 
L 4434 434 
Q 4069 175 3628 42 
Q 3188 -91 2688 -91 
Q 1594 -91 976 548 
Q 359 1188 359 2328 
Q 359 3472 976 4111 
Q 1594 4750 2688 4750 
Q 3144 4750 3555 4637 
Q 3966 4525 4313 4306 
L 4313 3634 
Q 3963 3931 3569 4081 
Q 3175 4231 2741 4231 
Q 1884 4231 1454 3753 
Q 1025 3275 1025 2328 
Q 1025 1384 1454 906 
Q 1884 428 2741 428 
Q 3075 428 3337 486 
Q 3600 544 3809 666 
z
" transform="scale(0.015625)"/>
                            <path id="DejaVuSans-61" d="M 2194 1759
Q 1497 1759 1228 1600 
Q 959 1441 959 1056 
Q 959 750 1161 570 
Q 1363 391 1709 391 
Q 2188 391 2477 730 
Q 2766 1069 2766 1631 
L 2766 1759 
L 2194 1759 
z
M 3341 1997 
L 3341 0 
L 2766 0 
L 2766 531 
Q 2569 213 2275 61 
Q 1981 -91 1556 -91 
Q 1019 -91 701 211 
Q 384 513 384 1019 
Q 384 1609 779 1909 
Q 1175 2209 1959 2209 
L 2766 2209 
L 2766 2266 
Q 2766 2663 2505 2880 
Q 2244 3097 1772 3097 
Q 1472 3097 1187 3025 
Q 903 2953 641 2809 
L 641 3341 
Q 956 3463 1253 3523 
Q 1550 3584 1831 3584 
Q 2591 3584 2966 3190 
Q 3341 2797 3341 1997 
z
" transform="scale(0.015625)"/>
                            <path id="DejaVuSans-69" d="M 603 3500
L 1178 3500 
L 1178 0 
L 603 0 
L 603 3500 
z
M 603 4863 
L 1178 4863 
L 1178 4134 
L 603 4134 
L 603 4863 
z
" transform="scale(0.015625)"/>
                            <path id="DejaVuSans-64" d="M 2906 2969
L 2906 4863 
L 3481 4863 
L 3481 0 
L 2906 0 
L 2906 525 
Q 2725 213 2448 61 
Q 2172 -91 1784 -91 
Q 1150 -91 751 415 
Q 353 922 353 1747 
Q 353 2572 751 3078 
Q 1150 3584 1784 3584 
Q 2172 3584 2448 3432 
Q 2725 3281 2906 2969 
z
M 947 1747 
Q 947 1113 1208 752 
Q 1469 391 1925 391 
Q 2381 391 2643 752 
Q 2906 1113 2906 1747 
Q 2906 2381 2643 2742 
Q 2381 3103 1925 3103 
Q 1469 3103 1208 2742 
Q 947 2381 947 1747 
z
" transform="scale(0.015625)"/>
                            <path id="DejaVuSans-42" d="M 1259 2228
L 1259 519 
L 2272 519 
Q 2781 519 3026 730 
Q 3272 941 3272 1375 
Q 3272 1813 3026 2020 
Q 2781 2228 2272 2228 
L 1259 2228 
z
M 1259 4147 
L 1259 2741 
L 2194 2741 
Q 2656 2741 2882 2914 
Q 3109 3088 3109 3444 
Q 3109 3797 2882 3972 
Q 2656 4147 2194 4147 
L 1259 4147 
z
M 628 4666 
L 2241 4666 
Q 2963 4666 3353 4366 
Q 3744 4066 3744 3513 
Q 3744 3084 3544 2831 
Q 3344 2578 2956 2516 
Q 3422 2416 3680 2098 
Q 3938 1781 3938 1306 
Q 3938 681 3513 340 
Q 3088 0 2303 0 
L 628 0 
L 628 4666 
z
" transform="scale(0.015625)"/>
                        </defs>
                        <use xlink:href="#DejaVuSans-47"/>
                        <use xlink:href="#DejaVuSans-61" x="77.490234"/>
                        <use xlink:href="#DejaVuSans-69" x="138.769531"/>
                        <use xlink:href="#DejaVuSans-6e" x="166.552734"/>
                        <use xlink:href="#DejaVuSans-20" x="229.931641"/>
                        <use xlink:href="#DejaVuSans-28" x="261.71875"/>
                        <use xlink:href="#DejaVuSans-64" x="300.732422"/>
                        <use xlink:href="#DejaVuSans-42" x="364.208984"/>
                        <use xlink:href="#DejaVuSans-29" x="432.8125"/>
                    </g>
                </g>
            </g>
            <g id="line2d_39">
                <path d="M 106.996049 346.6
L 108.283369 338.081384 
L 111.559826 318.93613 
L 114.676391 302.415025 
L 117.647947 287.857353 
L 120.487388 274.830128 
L 123.205965 263.033793 
L 128.318846 242.324194 
L 133.052635 224.560882 
L 137.459687 209.033645 
L 141.582209 195.276416 
L 145.454722 182.965703 
L 150.855988 166.715608 
L 155.83593 152.642993 
L 160.455551 140.360957 
L 164.763492 129.590879 
L 168.799166 120.124474 
L 172.594951 111.801186 
L 176.177773 104.494004 
L 179.570265 98.10014 
L 182.791632 92.534678 
L 185.858313 87.726096 
L 188.784485 83.613019 
L 191.582461 80.141791 
L 194.263005 77.264614 
L 196.835577 74.938092 
L 199.308541 73.122056 
L 200.905547 72.17618 
L 202.463598 71.429468 
L 203.984549 70.871273 
L 205.470125 70.49106 
L 206.921936 70.278334 
L 209.039597 70.250249 
L 211.089299 70.539413 
L 213.07527 71.109153 
L 215.001353 71.92178 
L 216.871055 72.938445 
L 219.281791 74.542071 
L 222.172642 76.807633 
L 231.124777 84.218828 
L 233.060589 85.408445 
L 234.939457 86.258718 
L 236.313207 86.656882 
L 237.658034 86.845819 
L 238.975131 86.829637 
L 240.265617 86.619014 
L 241.530548 86.230445 
L 243.179076 85.472971 
L 244.786127 84.497764 
L 247.123348 82.773972 
L 253.315701 77.979401 
L 255.028321 77.014172 
L 256.366107 76.470102 
L 257.676448 76.144694 
L 258.96045 76.041993 
L 260.219149 76.156564 
L 261.453524 76.474147 
L 262.963687 77.121976 
L 264.729981 78.187733 
L 267.011542 79.886132 
L 270.288 82.334948 
L 271.865288 83.222965 
L 273.150581 83.693219 
L 274.410521 83.886197 
L 275.400881 83.836892 
L 276.617621 83.534683 
L 277.811617 82.999753 
L 279.215562 82.126456 
L 281.711958 80.234646 
L 283.6843 78.828612 
L 284.966155 78.139315 
L 286.22279 77.724245 
L 287.251426 77.61084 
L 288.26376 77.710507 
L 289.2603 78.009326 
L 290.435982 78.591332 
L 291.970636 79.629367 
L 295.474144 82.117247 
L 296.54175 82.578776 
L 297.591805 82.783199 
L 298.453855 82.745165 
L 299.473189 82.461853 
L 300.642211 81.858652 
L 302.275981 80.693526 
L 304.495253 79.110412 
L 305.576629 78.59285 
L 306.489172 78.371863 
L 307.388862 78.374981 
L 308.276056 78.595496 
L 309.295777 79.088045 
L 310.724851 80.076271 
L 312.946881 81.645073 
L 313.89523 82.062079 
L 314.697043 82.212274 
L 315.488915 82.157084 
L 316.400528 81.849657 
L 317.426685 81.248279 
L 320.893725 78.965133 
L 321.73186 78.780456 
L 322.55914 78.835893 
L 323.375842 79.117401 
L 324.410774 79.735033 
L 327.309701 81.663616 
L 328.068214 81.851645 
L 328.817826 81.816516 
L 329.558743 81.568879 
L 330.498894 81.010266 
L 333.139652 79.249572 
L 333.930707 79.058141 
L 334.614935 79.10237 
L 335.388039 79.380833 
L 336.341443 79.981086 
L 338.481729 81.417707 
L 339.209679 81.614099 
L 339.929427 81.568042 
L 340.641155 81.294142 
L 341.60701 80.660115 
L 343.326546 79.493614 
L 344.085488 79.263126 
L 344.752616 79.289326 
L 345.4949 79.566621 
L 346.471381 80.215887 
L 347.987582 81.235356 
L 348.693411 81.44219 
L 349.314334 81.405911 
L 350.005732 81.13189 
L 350.99139 80.456614 
L 352.257796 79.612498 
L 352.991178 79.400175 
L 353.6441 79.462285 
L 354.361825 79.788145 
L 355.633753 80.705457 
L 356.536867 81.212712 
L 357.154704 81.323039 
L 357.766621 81.202485 
L 358.506647 80.795791 
L 360.417496 79.577782 
L 360.999081 79.509258 
L 361.575418 79.65307 
L 362.335866 80.103425 
L 363.89164 81.11899 
L 364.503493 81.219594 
L 365.10954 81.068412 
L 365.829287 80.630547 
L 367.303209 79.682109 
L 367.883385 79.597868 
L 368.458338 79.748236 
L 369.198124 80.208255 
L 370.486347 81.043313 
L 371.038441 81.138106 
L 371.585805 81.005681 
L 372.290436 80.573477 
L 373.571219 79.750505 
L 374.149771 79.67398 
L 374.72313 79.852234 
L 375.496779 80.372577 
L 376.463474 80.980902 
L 377.016524 81.068591 
L 377.564827 80.908456 
L 378.305008 80.415433 
L 379.278761 79.807492 
L 379.808064 79.73326 
L 380.333017 79.892664 
L 381.088966 80.402875 
L 381.975188 80.94551 
L 382.482699 81.009242 
L 382.98621 80.84693 
L 383.75664 80.316496 
L 384.562386 79.840258 
L 385.049829 79.78771 
L 385.577378 79.972799 
L 386.490231 80.618327 
L 387.134373 80.938127 
L 387.60265 80.942513 
L 388.109612 80.720069 
L 389.688953 79.825234 
L 390.179687 79.918529 
L 390.78785 80.297015 
L 391.749026 80.886528 
L 392.224244 80.904982 
L 392.735105 80.676703 
L 394.167122 79.863408 
L 394.62475 79.946606 
L 395.229864 80.325524 
L 396.089795 80.851211 
L 396.5339 80.87235 
L 397.011555 80.662332 
L 398.387642 79.894946 
L 398.816108 79.986258 
L 399.418224 80.377199 
L 400.189101 80.830033 
L 400.640285 80.82743 
L 401.122637 80.581299 
L 402.211668 79.934651 
L 402.648837 79.979942 
L 403.182816 80.297178 
L 404.041124 80.81049 
L 404.465991 80.794257 
L 404.952736 80.528926 
L 405.91524 79.961002 
L 406.327862 80.000107 
L 406.832073 80.297069 
L 407.674007 80.792314 
L 408.075459 80.764019 
L 408.566114 80.48104 
L 409.415796 79.984613 
L 409.806482 80.018155 
L 410.313799 80.319133 
L 411.081986 80.769744 
L 411.49183 80.736273 
L 411.985989 80.437302 
L 412.734442 80.0059 
L 413.133853 80.044597 
L 413.643738 80.360412 
L 414.345226 80.754872 
L 414.734721 80.710664 
L 415.259551 80.376544 
L 415.889155 80.025197 
L 416.269375 80.058612 
L 416.754929 80.3571 
L 417.423243 80.736322 
L 417.794467 80.697564 
L 418.294846 80.381178 
L 418.921351 80.037848 
L 419.309819 80.09186 
L 419.849736 80.450954 
L 420.385127 80.723838 
L 420.764821 80.664761 
L 421.317654 80.291534 
L 421.840931 80.047104 
L 422.212094 80.124868 
L 423.506528 80.674656 
L 423.988257 80.371111 
L 424.561576 80.064728 
L 424.917305 80.12205 
L 425.482383 80.505962 
L 425.949492 80.701817 
L 426.297596 80.612658 
L 427.44443 80.096484 
L 427.874884 80.346276 
L 428.503997 80.687213 
L 428.860728 80.606241 
L 429.984691 80.112835 
L 430.420118 80.376952 
L 430.981772 80.675159 
L 431.324966 80.600291 
L 432.427783 80.128439 
L 432.867809 80.405383 
L 433.387728 80.665966 
L 433.718269 80.583937 
L 434.740322 80.129282 
L 435.144607 80.370553 
L 435.686365 80.655625 
L 436.02513 80.568394 
L 436.991636 80.136699 
L 437.401417 80.382459 
L 437.924446 80.647391 
L 438.251576 80.553592 
L 439.147373 80.138494 
L 439.524786 80.350723 
L 440.086757 80.639235 
L 440.403026 80.539474 
L 441.251044 80.145358 
L 441.616264 80.348664 
L 442.160209 80.630978 
L 442.484367 80.525987 
L 443.269895 80.148019 
L 443.623785 80.333514 
L 444.185962 80.623532 
L 444.500025 80.513087 
L 445.244096 80.154398 
L 445.587245 80.332123 
L 446.14944 80.616109 
L 446.470898 80.489441 
L 447.142409 80.157845 
L 447.475536 80.318587 
L 448.05436 80.608709 
L 448.366396 80.477691 
L 449.002154 80.163793 
L 449.325746 80.317743 
L 449.888117 80.602587 
L 450.015967 80.574244 
L 450.015967 80.574244 
" clip-path="url(#pbc38318f18)" style="fill: none; stroke: #1f77b4; stroke-width: 2; stroke-linecap: square"/>
            </g>
            <g id="line2d_40">
                <path d="M 177.328739 300.328
L 177.328739 25.44 
" clip-path="url(#pbc38318f18)" style="fill: none; stroke-dasharray: 3.7,1.6; stroke-dashoffset: 0; stroke: #008000"/>
            </g>
            <g id="line2d_41">
                <path d="M 123.205965 300.328
L 123.205965 25.44 
" clip-path="url(#pbc38318f18)" style="fill: none; stroke-dasharray: 3.7,1.6; stroke-dashoffset: 0; stroke: #008000"/>
            </g>
            <g id="line2d_42">
                <path d="M 53.03 212.36384
L 450 212.36384 
" clip-path="url(#pbc38318f18)" style="fill: none; stroke-dasharray: 3.7,1.6; stroke-dashoffset: 0; stroke: #00bfbf"/>
            </g>
            <g id="line2d_43">
                <path d="M 53.03 59.015306
L 450 59.015306 
" clip-path="url(#pbc38318f18)" style="fill: none; stroke-dasharray: 3.7,1.6; stroke-dashoffset: 0; stroke: #ff0000"/>
            </g>
            <g id="line2d_44">
                <path d="M 53.03 108.044411
L 450 108.044411 
" clip-path="url(#pbc38318f18)" style="fill: none; stroke-dasharray: 3.7,1.6; stroke-dashoffset: 0; stroke: #ff0000"/>
            </g>
            <g id="patch_3">
                <path d="M 53.03 300.328
L 53.03 25.44 
" style="fill: none; stroke: #000000; stroke-width: 0.8; stroke-linejoin: miter; stroke-linecap: square"/>
            </g>
            <g id="patch_4">
                <path d="M 450 300.328
L 450 25.44 
" style="fill: none; stroke: #000000; stroke-width: 0.8; stroke-linejoin: miter; stroke-linecap: square"/>
            </g>
            <g id="patch_5">
                <path d="M 53.03 300.328
L 450 300.328 
" style="fill: none; stroke: #000000; stroke-width: 0.8; stroke-linejoin: miter; stroke-linecap: square"/>
            </g>
            <g id="patch_6">
                <path d="M 53.03 25.44
L 450 25.44 
" style="fill: none; stroke: #000000; stroke-width: 0.8; stroke-linejoin: miter; stroke-linecap: square"/>
            </g>
            <g id="text_12">
                <!-- Frequency Response -->
                <g transform="translate(189.795625 19.44)scale(0.12 -0.12)">
                    <defs>
                        <path id="DejaVuSans-52" d="M 2841 2188
Q 3044 2119 3236 1894 
Q 3428 1669 3622 1275 
L 4263 0 
L 3584 0 
L 2988 1197 
Q 2756 1666 2539 1819 
Q 2322 1972 1947 1972 
L 1259 1972 
L 1259 0 
L 628 0 
L 628 4666 
L 2053 4666 
Q 2853 4666 3247 4331 
Q 3641 3997 3641 3322 
Q 3641 2881 3436 2590 
Q 3231 2300 2841 2188 
z
M 1259 4147 
L 1259 2491 
L 2053 2491 
Q 2509 2491 2742 2702 
Q 2975 2913 2975 3322 
Q 2975 3731 2742 3939 
Q 2509 4147 2053 4147 
L 1259 4147 
z
" transform="scale(0.015625)"/>
                        <path id="DejaVuSans-73" d="M 2834 3397
L 2834 2853 
Q 2591 2978 2328 3040 
Q 2066 3103 1784 3103 
Q 1356 3103 1142 2972 
Q 928 2841 928 2578 
Q 928 2378 1081 2264 
Q 1234 2150 1697 2047 
L 1894 2003 
Q 2506 1872 2764 1633 
Q 3022 1394 3022 966 
Q 3022 478 2636 193 
Q 2250 -91 1575 -91 
Q 1294 -91 989 -36 
Q 684 19 347 128 
L 347 722 
Q 666 556 975 473 
Q 1284 391 1588 391 
Q 1994 391 2212 530 
Q 2431 669 2431 922 
Q 2431 1156 2273 1281 
Q 2116 1406 1581 1522 
L 1381 1569 
Q 847 1681 609 1914 
Q 372 2147 372 2553 
Q 372 3047 722 3315 
Q 1072 3584 1716 3584 
Q 2034 3584 2315 3537 
Q 2597 3491 2834 3397 
z
" transform="scale(0.015625)"/>
                        <path id="DejaVuSans-70" d="M 1159 525
L 1159 -1331 
L 581 -1331 
L 581 3500 
L 1159 3500 
L 1159 2969 
Q 1341 3281 1617 3432 
Q 1894 3584 2278 3584 
Q 2916 3584 3314 3078 
Q 3713 2572 3713 1747 
Q 3713 922 3314 415 
Q 2916 -91 2278 -91 
Q 1894 -91 1617 61 
Q 1341 213 1159 525 
z
M 3116 1747 
Q 3116 2381 2855 2742 
Q 2594 3103 2138 3103 
Q 1681 3103 1420 2742 
Q 1159 2381 1159 1747 
Q 1159 1113 1420 752 
Q 1681 391 2138 391 
Q 2594 391 2855 752 
Q 3116 1113 3116 1747 
z
" transform="scale(0.015625)"/>
                        <path id="DejaVuSans-6f" d="M 1959 3097
Q 1497 3097 1228 2736 
Q 959 2375 959 1747 
Q 959 1119 1226 758 
Q 1494 397 1959 397 
Q 2419 397 2687 759 
Q 2956 1122 2956 1747 
Q 2956 2369 2687 2733 
Q 2419 3097 1959 3097 
z
M 1959 3584 
Q 2709 3584 3137 3096 
Q 3566 2609 3566 1747 
Q 3566 888 3137 398 
Q 2709 -91 1959 -91 
Q 1206 -91 779 398 
Q 353 888 353 1747 
Q 353 2609 779 3096 
Q 1206 3584 1959 3584 
z
" transform="scale(0.015625)"/>
                    </defs>
                    <use xlink:href="#DejaVuSans-46"/>
                    <use xlink:href="#DejaVuSans-72" x="50.269531"/>
                    <use xlink:href="#DejaVuSans-65" x="89.132812"/>
                    <use xlink:href="#DejaVuSans-71" x="150.65625"/>
                    <use xlink:href="#DejaVuSans-75" x="214.132812"/>
                    <use xlink:href="#DejaVuSans-65" x="277.511719"/>
                    <use xlink:href="#DejaVuSans-6e" x="339.035156"/>
                    <use xlink:href="#DejaVuSans-63" x="402.414062"/>
                    <use xlink:href="#DejaVuSans-79" x="457.394531"/>
                    <use xlink:href="#DejaVuSans-20" x="516.574219"/>
                    <use xlink:href="#DejaVuSans-52" x="548.361328"/>
                    <use xlink:href="#DejaVuSans-65" x="613.34375"/>
                    <use xlink:href="#DejaVuSans-73" x="674.867188"/>
                    <use xlink:href="#DejaVuSans-70" x="726.966797"/>
                    <use xlink:href="#DejaVuSans-6f" x="790.443359"/>
                    <use xlink:href="#DejaVuSans-6e" x="851.625"/>
                    <use xlink:href="#DejaVuSans-73" x="915.003906"/>
                    <use xlink:href="#DejaVuSans-65" x="967.103516"/>
                </g>
            </g>
        </g>
    </g>
    <defs>
        <clipPath id="pbc38318f18">
            <rect x="53.03" y="25.44" width="396.97" height="274.888"/>
        </clipPath>
    </defs>
</svg>
