<?xml version="1.0" encoding="utf-8" standalone="no"?>
<!DOCTYPE svg PUBLIC "-//W3C//DTD SVG 1.1//EN"
        "http://www.w3.org/Graphics/SVG/1.1/DTD/svg11.dtd">
<svg xmlns:xlink="http://www.w3.org/1999/xlink" width="460.8pt" height="345.6pt" viewBox="0 0 460.8 345.6"
     xmlns="http://www.w3.org/2000/svg" version="1.1">
    <metadata>
        <rdf:RDF xmlns:dc="http://purl.org/dc/elements/1.1/" xmlns:cc="http://creativecommons.org/ns#"
                 xmlns:rdf="http://www.w3.org/1999/02/22-rdf-syntax-ns#">
            <cc:Work>
                <dc:type rdf:resource="http://purl.org/dc/dcmitype/StillImage"/>
                <dc:date>2022-01-30T13:05:47.196469</dc:date>
                <dc:format>image/svg+xml</dc:format>
                <dc:creator>
                    <cc:Agent>
                        <dc:title>Matplotlib v3.5.1, https://matplotlib.org/</dc:title>
                    </cc:Agent>
                </dc:creator>
            </cc:Work>
        </rdf:RDF>
    </metadata>
    <defs>
        <style type="text/css">*{stroke-linejoin: round; stroke-linecap: butt}</style>
    </defs>
    <g id="figure_1">
        <g id="patch_1">
            <path d="M 0 345.6
L 460.8 345.6 
L 460.8 0 
L 0 0 
z
" style="fill: #ffffff"/>
        </g>
        <g id="axes_1">
            <g id="patch_2">
                <path d="M 62.57 300.328
L 450 300.328 
L 450 25.44 
L 62.57 25.44 
z
" style="fill: #ffffff"/>
            </g>
            <g id="matplotlib.axis_1">
                <g id="xtick_1">
                    <g id="line2d_1">
                        <path d="M 62.57 300.328
L 62.57 25.44 
" clip-path="url(#p52991a6129)" style="fill: none; stroke: #b0b0b0; stroke-width: 0.8; stroke-linecap: square"/>
                    </g>
                    <g id="line2d_2">
                        <defs>
                            <path id="mba6c2e0a42" d="M 0 0
L 0 3.5 
" style="stroke: #000000; stroke-width: 0.8"/>
                        </defs>
                        <g>
                            <use xlink:href="#mba6c2e0a42" x="62.57" y="300.328"
                                 style="stroke: #000000; stroke-width: 0.8"/>
                        </g>
                    </g>
                    <g id="text_1">
                        <!-- $\mathdefault{10^{1}}$ -->
                        <g transform="translate(53.77 314.926437)scale(0.1 -0.1)">
                            <defs>
                                <path id="DejaVuSans-31" d="M 794 531
L 1825 531 
L 1825 4091 
L 703 3866 
L 703 4441 
L 1819 4666 
L 2450 4666 
L 2450 531 
L 3481 531 
L 3481 0 
L 794 0 
L 794 531 
z
" transform="scale(0.015625)"/>
                                <path id="DejaVuSans-30" d="M 2034 4250
Q 1547 4250 1301 3770 
Q 1056 3291 1056 2328 
Q 1056 1369 1301 889 
Q 1547 409 2034 409 
Q 2525 409 2770 889 
Q 3016 1369 3016 2328 
Q 3016 3291 2770 3770 
Q 2525 4250 2034 4250 
z
M 2034 4750 
Q 2819 4750 3233 4129 
Q 3647 3509 3647 2328 
Q 3647 1150 3233 529 
Q 2819 -91 2034 -91 
Q 1250 -91 836 529 
Q 422 1150 422 2328 
Q 422 3509 836 4129 
Q 1250 4750 2034 4750 
z
" transform="scale(0.015625)"/>
                            </defs>
                            <use xlink:href="#DejaVuSans-31" transform="translate(0 0.684375)"/>
                            <use xlink:href="#DejaVuSans-30" transform="translate(63.623047 0.684375)"/>
                            <use xlink:href="#DejaVuSans-31" transform="translate(128.203125 38.965625)scale(0.7)"/>
                        </g>
                    </g>
                </g>
                <g id="xtick_2">
                    <g id="line2d_3">
                        <path d="M 360.357139 300.328
L 360.357139 25.44 
" clip-path="url(#p52991a6129)" style="fill: none; stroke: #b0b0b0; stroke-width: 0.8; stroke-linecap: square"/>
                    </g>
                    <g id="line2d_4">
                        <g>
                            <use xlink:href="#mba6c2e0a42" x="360.357139" y="300.328"
                                 style="stroke: #000000; stroke-width: 0.8"/>
                        </g>
                    </g>
                    <g id="text_2">
                        <!-- $\mathdefault{10^{2}}$ -->
                        <g transform="translate(351.557139 314.926437)scale(0.1 -0.1)">
                            <defs>
                                <path id="DejaVuSans-32" d="M 1228 531
L 3431 531 
L 3431 0 
L 469 0 
L 469 531 
Q 828 903 1448 1529 
Q 2069 2156 2228 2338 
Q 2531 2678 2651 2914 
Q 2772 3150 2772 3378 
Q 2772 3750 2511 3984 
Q 2250 4219 1831 4219 
Q 1534 4219 1204 4116 
Q 875 4013 500 3803 
L 500 4441 
Q 881 4594 1212 4672 
Q 1544 4750 1819 4750 
Q 2544 4750 2975 4387 
Q 3406 4025 3406 3419 
Q 3406 3131 3298 2873 
Q 3191 2616 2906 2266 
Q 2828 2175 2409 1742 
Q 1991 1309 1228 531 
z
" transform="scale(0.015625)"/>
                            </defs>
                            <use xlink:href="#DejaVuSans-31" transform="translate(0 0.765625)"/>
                            <use xlink:href="#DejaVuSans-30" transform="translate(63.623047 0.765625)"/>
                            <use xlink:href="#DejaVuSans-32" transform="translate(128.203125 39.046875)scale(0.7)"/>
                        </g>
                    </g>
                </g>
                <g id="xtick_3">
                    <g id="line2d_5">
                        <defs>
                            <path id="me2ab96fd34" d="M 0 0
L 0 2 
" style="stroke: #000000; stroke-width: 0.6"/>
                        </defs>
                        <g>
                            <use xlink:href="#me2ab96fd34" x="152.212861" y="300.328"
                                 style="stroke: #000000; stroke-width: 0.6"/>
                        </g>
                    </g>
                </g>
                <g id="xtick_4">
                    <g id="line2d_6">
                        <g>
                            <use xlink:href="#me2ab96fd34" x="204.650573" y="300.328"
                                 style="stroke: #000000; stroke-width: 0.6"/>
                        </g>
                    </g>
                </g>
                <g id="xtick_5">
                    <g id="line2d_7">
                        <g>
                            <use xlink:href="#me2ab96fd34" x="241.855722" y="300.328"
                                 style="stroke: #000000; stroke-width: 0.6"/>
                        </g>
                    </g>
                </g>
                <g id="xtick_6">
                    <g id="line2d_8">
                        <g>
                            <use xlink:href="#me2ab96fd34" x="270.714278" y="300.328"
                                 style="stroke: #000000; stroke-width: 0.6"/>
                        </g>
                    </g>
                </g>
                <g id="xtick_7">
                    <g id="line2d_9">
                        <g>
                            <use xlink:href="#me2ab96fd34" x="294.293434" y="300.328"
                                 style="stroke: #000000; stroke-width: 0.6"/>
                        </g>
                    </g>
                </g>
                <g id="xtick_8">
                    <g id="line2d_10">
                        <g>
                            <use xlink:href="#me2ab96fd34" x="314.229327" y="300.328"
                                 style="stroke: #000000; stroke-width: 0.6"/>
                        </g>
                    </g>
                </g>
                <g id="xtick_9">
                    <g id="line2d_11">
                        <g>
                            <use xlink:href="#me2ab96fd34" x="331.498583" y="300.328"
                                 style="stroke: #000000; stroke-width: 0.6"/>
                        </g>
                    </g>
                </g>
                <g id="xtick_10">
                    <g id="line2d_12">
                        <g>
                            <use xlink:href="#me2ab96fd34" x="346.731147" y="300.328"
                                 style="stroke: #000000; stroke-width: 0.6"/>
                        </g>
                    </g>
                </g>
                <g id="xtick_11">
                    <g id="line2d_13">
                        <g>
                            <use xlink:href="#me2ab96fd34" x="450" y="300.328"
                                 style="stroke: #000000; stroke-width: 0.6"/>
                        </g>
                    </g>
                </g>
                <g id="text_3">
                    <!-- Frequency (Hz) -->
                    <g transform="translate(218.580313 328.604562)scale(0.1 -0.1)">
                        <defs>
                            <path id="DejaVuSans-46" d="M 628 4666
L 3309 4666 
L 3309 4134 
L 1259 4134 
L 1259 2759 
L 3109 2759 
L 3109 2228 
L 1259 2228 
L 1259 0 
L 628 0 
L 628 4666 
z
" transform="scale(0.015625)"/>
                            <path id="DejaVuSans-72" d="M 2631 2963
Q 2534 3019 2420 3045 
Q 2306 3072 2169 3072 
Q 1681 3072 1420 2755 
Q 1159 2438 1159 1844 
L 1159 0 
L 581 0 
L 581 3500 
L 1159 3500 
L 1159 2956 
Q 1341 3275 1631 3429 
Q 1922 3584 2338 3584 
Q 2397 3584 2469 3576 
Q 2541 3569 2628 3553 
L 2631 2963 
z
" transform="scale(0.015625)"/>
                            <path id="DejaVuSans-65" d="M 3597 1894
L 3597 1613 
L 953 1613 
Q 991 1019 1311 708 
Q 1631 397 2203 397 
Q 2534 397 2845 478 
Q 3156 559 3463 722 
L 3463 178 
Q 3153 47 2828 -22 
Q 2503 -91 2169 -91 
Q 1331 -91 842 396 
Q 353 884 353 1716 
Q 353 2575 817 3079 
Q 1281 3584 2069 3584 
Q 2775 3584 3186 3129 
Q 3597 2675 3597 1894 
z
M 3022 2063 
Q 3016 2534 2758 2815 
Q 2500 3097 2075 3097 
Q 1594 3097 1305 2825 
Q 1016 2553 972 2059 
L 3022 2063 
z
" transform="scale(0.015625)"/>
                            <path id="DejaVuSans-71" d="M 947 1747
Q 947 1113 1208 752 
Q 1469 391 1925 391 
Q 2381 391 2643 752 
Q 2906 1113 2906 1747 
Q 2906 2381 2643 2742 
Q 2381 3103 1925 3103 
Q 1469 3103 1208 2742 
Q 947 2381 947 1747 
z
M 2906 525 
Q 2725 213 2448 61 
Q 2172 -91 1784 -91 
Q 1150 -91 751 415 
Q 353 922 353 1747 
Q 353 2572 751 3078 
Q 1150 3584 1784 3584 
Q 2172 3584 2448 3432 
Q 2725 3281 2906 2969 
L 2906 3500 
L 3481 3500 
L 3481 -1331 
L 2906 -1331 
L 2906 525 
z
" transform="scale(0.015625)"/>
                            <path id="DejaVuSans-75" d="M 544 1381
L 544 3500 
L 1119 3500 
L 1119 1403 
Q 1119 906 1312 657 
Q 1506 409 1894 409 
Q 2359 409 2629 706 
Q 2900 1003 2900 1516 
L 2900 3500 
L 3475 3500 
L 3475 0 
L 2900 0 
L 2900 538 
Q 2691 219 2414 64 
Q 2138 -91 1772 -91 
Q 1169 -91 856 284 
Q 544 659 544 1381 
z
M 1991 3584 
L 1991 3584 
z
" transform="scale(0.015625)"/>
                            <path id="DejaVuSans-6e" d="M 3513 2113
L 3513 0 
L 2938 0 
L 2938 2094 
Q 2938 2591 2744 2837 
Q 2550 3084 2163 3084 
Q 1697 3084 1428 2787 
Q 1159 2491 1159 1978 
L 1159 0 
L 581 0 
L 581 3500 
L 1159 3500 
L 1159 2956 
Q 1366 3272 1645 3428 
Q 1925 3584 2291 3584 
Q 2894 3584 3203 3211 
Q 3513 2838 3513 2113 
z
" transform="scale(0.015625)"/>
                            <path id="DejaVuSans-63" d="M 3122 3366
L 3122 2828 
Q 2878 2963 2633 3030 
Q 2388 3097 2138 3097 
Q 1578 3097 1268 2742 
Q 959 2388 959 1747 
Q 959 1106 1268 751 
Q 1578 397 2138 397 
Q 2388 397 2633 464 
Q 2878 531 3122 666 
L 3122 134 
Q 2881 22 2623 -34 
Q 2366 -91 2075 -91 
Q 1284 -91 818 406 
Q 353 903 353 1747 
Q 353 2603 823 3093 
Q 1294 3584 2113 3584 
Q 2378 3584 2631 3529 
Q 2884 3475 3122 3366 
z
" transform="scale(0.015625)"/>
                            <path id="DejaVuSans-79" d="M 2059 -325
Q 1816 -950 1584 -1140 
Q 1353 -1331 966 -1331 
L 506 -1331 
L 506 -850 
L 844 -850 
Q 1081 -850 1212 -737 
Q 1344 -625 1503 -206 
L 1606 56 
L 191 3500 
L 800 3500 
L 1894 763 
L 2988 3500 
L 3597 3500 
L 2059 -325 
z
" transform="scale(0.015625)"/>
                            <path id="DejaVuSans-20" transform="scale(0.015625)"/>
                            <path id="DejaVuSans-28" d="M 1984 4856
Q 1566 4138 1362 3434 
Q 1159 2731 1159 2009 
Q 1159 1288 1364 580 
Q 1569 -128 1984 -844 
L 1484 -844 
Q 1016 -109 783 600 
Q 550 1309 550 2009 
Q 550 2706 781 3412 
Q 1013 4119 1484 4856 
L 1984 4856 
z
" transform="scale(0.015625)"/>
                            <path id="DejaVuSans-48" d="M 628 4666
L 1259 4666 
L 1259 2753 
L 3553 2753 
L 3553 4666 
L 4184 4666 
L 4184 0 
L 3553 0 
L 3553 2222 
L 1259 2222 
L 1259 0 
L 628 0 
L 628 4666 
z
" transform="scale(0.015625)"/>
                            <path id="DejaVuSans-7a" d="M 353 3500
L 3084 3500 
L 3084 2975 
L 922 459 
L 3084 459 
L 3084 0 
L 275 0 
L 275 525 
L 2438 3041 
L 353 3041 
L 353 3500 
z
" transform="scale(0.015625)"/>
                            <path id="DejaVuSans-29" d="M 513 4856
L 1013 4856 
Q 1481 4119 1714 3412 
Q 1947 2706 1947 2009 
Q 1947 1309 1714 600 
Q 1481 -109 1013 -844 
L 513 -844 
Q 928 -128 1133 580 
Q 1338 1288 1338 2009 
Q 1338 2731 1133 3434 
Q 928 4138 513 4856 
z
" transform="scale(0.015625)"/>
                        </defs>
                        <use xlink:href="#DejaVuSans-46"/>
                        <use xlink:href="#DejaVuSans-72" x="50.269531"/>
                        <use xlink:href="#DejaVuSans-65" x="89.132812"/>
                        <use xlink:href="#DejaVuSans-71" x="150.65625"/>
                        <use xlink:href="#DejaVuSans-75" x="214.132812"/>
                        <use xlink:href="#DejaVuSans-65" x="277.511719"/>
                        <use xlink:href="#DejaVuSans-6e" x="339.035156"/>
                        <use xlink:href="#DejaVuSans-63" x="402.414062"/>
                        <use xlink:href="#DejaVuSans-79" x="457.394531"/>
                        <use xlink:href="#DejaVuSans-20" x="516.574219"/>
                        <use xlink:href="#DejaVuSans-28" x="548.361328"/>
                        <use xlink:href="#DejaVuSans-48" x="587.375"/>
                        <use xlink:href="#DejaVuSans-7a" x="662.570312"/>
                        <use xlink:href="#DejaVuSans-29" x="715.060547"/>
                    </g>
                </g>
            </g>
            <g id="matplotlib.axis_2">
                <g id="ytick_1">
                    <g id="line2d_14">
                        <path d="M 62.57 300.328
L 450 300.328 
" clip-path="url(#p52991a6129)" style="fill: none; stroke: #b0b0b0; stroke-width: 0.8; stroke-linecap: square"/>
                    </g>
                    <g id="line2d_15">
                        <defs>
                            <path id="m263e423881" d="M 0 0
L -3.5 0 
" style="stroke: #000000; stroke-width: 0.8"/>
                        </defs>
                        <g>
                            <use xlink:href="#m263e423881" x="62.57" y="300.328"
                                 style="stroke: #000000; stroke-width: 0.8"/>
                        </g>
                    </g>
                    <g id="text_4">
                        <!-- −15.0 -->
                        <g transform="translate(24.924688 304.127219)scale(0.1 -0.1)">
                            <defs>
                                <path id="DejaVuSans-2212" d="M 678 2272
L 4684 2272 
L 4684 1741 
L 678 1741 
L 678 2272 
z
" transform="scale(0.015625)"/>
                                <path id="DejaVuSans-35" d="M 691 4666
L 3169 4666 
L 3169 4134 
L 1269 4134 
L 1269 2991 
Q 1406 3038 1543 3061 
Q 1681 3084 1819 3084 
Q 2600 3084 3056 2656 
Q 3513 2228 3513 1497 
Q 3513 744 3044 326 
Q 2575 -91 1722 -91 
Q 1428 -91 1123 -41 
Q 819 9 494 109 
L 494 744 
Q 775 591 1075 516 
Q 1375 441 1709 441 
Q 2250 441 2565 725 
Q 2881 1009 2881 1497 
Q 2881 1984 2565 2268 
Q 2250 2553 1709 2553 
Q 1456 2553 1204 2497 
Q 953 2441 691 2322 
L 691 4666 
z
" transform="scale(0.015625)"/>
                                <path id="DejaVuSans-2e" d="M 684 794
L 1344 794 
L 1344 0 
L 684 0 
L 684 794 
z
" transform="scale(0.015625)"/>
                            </defs>
                            <use xlink:href="#DejaVuSans-2212"/>
                            <use xlink:href="#DejaVuSans-31" x="83.789062"/>
                            <use xlink:href="#DejaVuSans-35" x="147.412109"/>
                            <use xlink:href="#DejaVuSans-2e" x="211.035156"/>
                            <use xlink:href="#DejaVuSans-30" x="242.822266"/>
                        </g>
                    </g>
                </g>
                <g id="ytick_2">
                    <g id="line2d_16">
                        <path d="M 62.57 265.967
L 450 265.967 
" clip-path="url(#p52991a6129)" style="fill: none; stroke: #b0b0b0; stroke-width: 0.8; stroke-linecap: square"/>
                    </g>
                    <g id="line2d_17">
                        <g>
                            <use xlink:href="#m263e423881" x="62.57" y="265.967"
                                 style="stroke: #000000; stroke-width: 0.8"/>
                        </g>
                    </g>
                    <g id="text_5">
                        <!-- −12.5 -->
                        <g transform="translate(24.924688 269.766219)scale(0.1 -0.1)">
                            <use xlink:href="#DejaVuSans-2212"/>
                            <use xlink:href="#DejaVuSans-31" x="83.789062"/>
                            <use xlink:href="#DejaVuSans-32" x="147.412109"/>
                            <use xlink:href="#DejaVuSans-2e" x="211.035156"/>
                            <use xlink:href="#DejaVuSans-35" x="242.822266"/>
                        </g>
                    </g>
                </g>
                <g id="ytick_3">
                    <g id="line2d_18">
                        <path d="M 62.57 231.606
L 450 231.606 
" clip-path="url(#p52991a6129)" style="fill: none; stroke: #b0b0b0; stroke-width: 0.8; stroke-linecap: square"/>
                    </g>
                    <g id="line2d_19">
                        <g>
                            <use xlink:href="#m263e423881" x="62.57" y="231.606"
                                 style="stroke: #000000; stroke-width: 0.8"/>
                        </g>
                    </g>
                    <g id="text_6">
                        <!-- −10.0 -->
                        <g transform="translate(24.924688 235.405219)scale(0.1 -0.1)">
                            <use xlink:href="#DejaVuSans-2212"/>
                            <use xlink:href="#DejaVuSans-31" x="83.789062"/>
                            <use xlink:href="#DejaVuSans-30" x="147.412109"/>
                            <use xlink:href="#DejaVuSans-2e" x="211.035156"/>
                            <use xlink:href="#DejaVuSans-30" x="242.822266"/>
                        </g>
                    </g>
                </g>
                <g id="ytick_4">
                    <g id="line2d_20">
                        <path d="M 62.57 197.245
L 450 197.245 
" clip-path="url(#p52991a6129)" style="fill: none; stroke: #b0b0b0; stroke-width: 0.8; stroke-linecap: square"/>
                    </g>
                    <g id="line2d_21">
                        <g>
                            <use xlink:href="#m263e423881" x="62.57" y="197.245"
                                 style="stroke: #000000; stroke-width: 0.8"/>
                        </g>
                    </g>
                    <g id="text_7">
                        <!-- −7.5 -->
                        <g transform="translate(31.287188 201.044219)scale(0.1 -0.1)">
                            <defs>
                                <path id="DejaVuSans-37" d="M 525 4666
L 3525 4666 
L 3525 4397 
L 1831 0 
L 1172 0 
L 2766 4134 
L 525 4134 
L 525 4666 
z
" transform="scale(0.015625)"/>
                            </defs>
                            <use xlink:href="#DejaVuSans-2212"/>
                            <use xlink:href="#DejaVuSans-37" x="83.789062"/>
                            <use xlink:href="#DejaVuSans-2e" x="147.412109"/>
                            <use xlink:href="#DejaVuSans-35" x="179.199219"/>
                        </g>
                    </g>
                </g>
                <g id="ytick_5">
                    <g id="line2d_22">
                        <path d="M 62.57 162.884
L 450 162.884 
" clip-path="url(#p52991a6129)" style="fill: none; stroke: #b0b0b0; stroke-width: 0.8; stroke-linecap: square"/>
                    </g>
                    <g id="line2d_23">
                        <g>
                            <use xlink:href="#m263e423881" x="62.57" y="162.884"
                                 style="stroke: #000000; stroke-width: 0.8"/>
                        </g>
                    </g>
                    <g id="text_8">
                        <!-- −5.0 -->
                        <g transform="translate(31.287188 166.683219)scale(0.1 -0.1)">
                            <use xlink:href="#DejaVuSans-2212"/>
                            <use xlink:href="#DejaVuSans-35" x="83.789062"/>
                            <use xlink:href="#DejaVuSans-2e" x="147.412109"/>
                            <use xlink:href="#DejaVuSans-30" x="179.199219"/>
                        </g>
                    </g>
                </g>
                <g id="ytick_6">
                    <g id="line2d_24">
                        <path d="M 62.57 128.523
L 450 128.523 
" clip-path="url(#p52991a6129)" style="fill: none; stroke: #b0b0b0; stroke-width: 0.8; stroke-linecap: square"/>
                    </g>
                    <g id="line2d_25">
                        <g>
                            <use xlink:href="#m263e423881" x="62.57" y="128.523"
                                 style="stroke: #000000; stroke-width: 0.8"/>
                        </g>
                    </g>
                    <g id="text_9">
                        <!-- −2.5 -->
                        <g transform="translate(31.287188 132.322219)scale(0.1 -0.1)">
                            <use xlink:href="#DejaVuSans-2212"/>
                            <use xlink:href="#DejaVuSans-32" x="83.789062"/>
                            <use xlink:href="#DejaVuSans-2e" x="147.412109"/>
                            <use xlink:href="#DejaVuSans-35" x="179.199219"/>
                        </g>
                    </g>
                </g>
                <g id="ytick_7">
                    <g id="line2d_26">
                        <path d="M 62.57 94.162
L 450 94.162 
" clip-path="url(#p52991a6129)" style="fill: none; stroke: #b0b0b0; stroke-width: 0.8; stroke-linecap: square"/>
                    </g>
                    <g id="line2d_27">
                        <g>
                            <use xlink:href="#m263e423881" x="62.57" y="94.162"
                                 style="stroke: #000000; stroke-width: 0.8"/>
                        </g>
                    </g>
                    <g id="text_10">
                        <!-- 0.0 -->
                        <g transform="translate(39.666875 97.961219)scale(0.1 -0.1)">
                            <use xlink:href="#DejaVuSans-30"/>
                            <use xlink:href="#DejaVuSans-2e" x="63.623047"/>
                            <use xlink:href="#DejaVuSans-30" x="95.410156"/>
                        </g>
                    </g>
                </g>
                <g id="ytick_8">
                    <g id="line2d_28">
                        <path d="M 62.57 59.801
L 450 59.801 
" clip-path="url(#p52991a6129)" style="fill: none; stroke: #b0b0b0; stroke-width: 0.8; stroke-linecap: square"/>
                    </g>
                    <g id="line2d_29">
                        <g>
                            <use xlink:href="#m263e423881" x="62.57" y="59.801"
                                 style="stroke: #000000; stroke-width: 0.8"/>
                        </g>
                    </g>
                    <g id="text_11">
                        <!-- 2.5 -->
                        <g transform="translate(39.666875 63.600219)scale(0.1 -0.1)">
                            <use xlink:href="#DejaVuSans-32"/>
                            <use xlink:href="#DejaVuSans-2e" x="63.623047"/>
                            <use xlink:href="#DejaVuSans-35" x="95.410156"/>
                        </g>
                    </g>
                </g>
                <g id="ytick_9">
                    <g id="line2d_30">
                        <path d="M 62.57 25.44
L 450 25.44 
" clip-path="url(#p52991a6129)" style="fill: none; stroke: #b0b0b0; stroke-width: 0.8; stroke-linecap: square"/>
                    </g>
                    <g id="line2d_31">
                        <g>
                            <use xlink:href="#m263e423881" x="62.57" y="25.44"
                                 style="stroke: #000000; stroke-width: 0.8"/>
                        </g>
                    </g>
                    <g id="text_12">
                        <!-- 5.0 -->
                        <g transform="translate(39.666875 29.239219)scale(0.1 -0.1)">
                            <use xlink:href="#DejaVuSans-35"/>
                            <use xlink:href="#DejaVuSans-2e" x="63.623047"/>
                            <use xlink:href="#DejaVuSans-30" x="95.410156"/>
                        </g>
                    </g>
                </g>
                <g id="text_13">
                    <!-- Gain (dB) -->
                    <g transform="translate(18.845 186.475406)rotate(-90)scale(0.1 -0.1)">
                        <defs>
                            <path id="DejaVuSans-47" d="M 3809 666
L 3809 1919 
L 2778 1919 
L 2778 2438 
L 4434 2438 
L 4434 434 
Q 4069 175 3628 42 
Q 3188 -91 2688 -91 
Q 1594 -91 976 548 
Q 359 1188 359 2328 
Q 359 3472 976 4111 
Q 1594 4750 2688 4750 
Q 3144 4750 3555 4637 
Q 3966 4525 4313 4306 
L 4313 3634 
Q 3963 3931 3569 4081 
Q 3175 4231 2741 4231 
Q 1884 4231 1454 3753 
Q 1025 3275 1025 2328 
Q 1025 1384 1454 906 
Q 1884 428 2741 428 
Q 3075 428 3337 486 
Q 3600 544 3809 666 
z
" transform="scale(0.015625)"/>
                            <path id="DejaVuSans-61" d="M 2194 1759
Q 1497 1759 1228 1600 
Q 959 1441 959 1056 
Q 959 750 1161 570 
Q 1363 391 1709 391 
Q 2188 391 2477 730 
Q 2766 1069 2766 1631 
L 2766 1759 
L 2194 1759 
z
M 3341 1997 
L 3341 0 
L 2766 0 
L 2766 531 
Q 2569 213 2275 61 
Q 1981 -91 1556 -91 
Q 1019 -91 701 211 
Q 384 513 384 1019 
Q 384 1609 779 1909 
Q 1175 2209 1959 2209 
L 2766 2209 
L 2766 2266 
Q 2766 2663 2505 2880 
Q 2244 3097 1772 3097 
Q 1472 3097 1187 3025 
Q 903 2953 641 2809 
L 641 3341 
Q 956 3463 1253 3523 
Q 1550 3584 1831 3584 
Q 2591 3584 2966 3190 
Q 3341 2797 3341 1997 
z
" transform="scale(0.015625)"/>
                            <path id="DejaVuSans-69" d="M 603 3500
L 1178 3500 
L 1178 0 
L 603 0 
L 603 3500 
z
M 603 4863 
L 1178 4863 
L 1178 4134 
L 603 4134 
L 603 4863 
z
" transform="scale(0.015625)"/>
                            <path id="DejaVuSans-64" d="M 2906 2969
L 2906 4863 
L 3481 4863 
L 3481 0 
L 2906 0 
L 2906 525 
Q 2725 213 2448 61 
Q 2172 -91 1784 -91 
Q 1150 -91 751 415 
Q 353 922 353 1747 
Q 353 2572 751 3078 
Q 1150 3584 1784 3584 
Q 2172 3584 2448 3432 
Q 2725 3281 2906 2969 
z
M 947 1747 
Q 947 1113 1208 752 
Q 1469 391 1925 391 
Q 2381 391 2643 752 
Q 2906 1113 2906 1747 
Q 2906 2381 2643 2742 
Q 2381 3103 1925 3103 
Q 1469 3103 1208 2742 
Q 947 2381 947 1747 
z
" transform="scale(0.015625)"/>
                            <path id="DejaVuSans-42" d="M 1259 2228
L 1259 519 
L 2272 519 
Q 2781 519 3026 730 
Q 3272 941 3272 1375 
Q 3272 1813 3026 2020 
Q 2781 2228 2272 2228 
L 1259 2228 
z
M 1259 4147 
L 1259 2741 
L 2194 2741 
Q 2656 2741 2882 2914 
Q 3109 3088 3109 3444 
Q 3109 3797 2882 3972 
Q 2656 4147 2194 4147 
L 1259 4147 
z
M 628 4666 
L 2241 4666 
Q 2963 4666 3353 4366 
Q 3744 4066 3744 3513 
Q 3744 3084 3544 2831 
Q 3344 2578 2956 2516 
Q 3422 2416 3680 2098 
Q 3938 1781 3938 1306 
Q 3938 681 3513 340 
Q 3088 0 2303 0 
L 628 0 
L 628 4666 
z
" transform="scale(0.015625)"/>
                        </defs>
                        <use xlink:href="#DejaVuSans-47"/>
                        <use xlink:href="#DejaVuSans-61" x="77.490234"/>
                        <use xlink:href="#DejaVuSans-69" x="138.769531"/>
                        <use xlink:href="#DejaVuSans-6e" x="166.552734"/>
                        <use xlink:href="#DejaVuSans-20" x="229.931641"/>
                        <use xlink:href="#DejaVuSans-28" x="261.71875"/>
                        <use xlink:href="#DejaVuSans-64" x="300.732422"/>
                        <use xlink:href="#DejaVuSans-42" x="364.208984"/>
                        <use xlink:href="#DejaVuSans-29" x="432.8125"/>
                    </g>
                </g>
            </g>
            <g id="line2d_32">
                <path d="M 62.40824 94.183215
L 100.178667 94.097582 
L 129.08556 94.24123 
L 153.739576 94.043229 
L 173.68688 94.3022 
L 192.097843 93.992801 
L 206.73525 94.378586 
L 212.084622 94.088627 
L 217.660797 93.843043 
L 221.312182 93.916748 
L 226.238647 94.273749 
L 230.543976 94.504101 
L 233.638392 94.441161 
L 237.415569 94.119654 
L 241.97691 93.766146 
L 244.654259 93.794524 
L 247.625633 94.063164 
L 253.037924 94.596548 
L 255.352322 94.55461 
L 257.911915 94.272944 
L 262.952643 93.658862 
L 264.996309 93.687674 
L 267.174434 93.951966 
L 272.544185 94.722285 
L 274.31712 94.662633 
L 276.252073 94.364526 
L 280.966465 93.525253 
L 282.539846 93.549418 
L 284.181747 93.804138 
L 289.713785 94.884247 
L 291.074407 94.768717 
L 292.639367 94.400295 
L 296.510605 93.372943 
L 297.749457 93.345769 
L 299.002538 93.546529 
L 300.526332 94.036009 
L 303.34536 94.980625 
L 304.495833 95.096755 
L 305.562098 94.982281 
L 306.742055 94.623293 
L 308.853667 93.682594 
L 310.242494 93.202645 
L 311.2626 93.078806 
L 312.227821 93.187621 
L 313.255717 93.535456 
L 314.690388 94.284822 
L 316.47298 95.170224 
L 317.422757 95.392962 
L 318.276109 95.364874 
L 319.146102 95.103928 
L 320.186837 94.538095 
L 323.044172 92.835512 
L 323.839903 92.694375 
L 324.588141 92.786698 
L 325.374457 93.118269 
L 326.324389 93.778897 
L 328.927055 95.733195 
L 329.646512 95.91692 
L 330.280421 95.855921 
L 330.95183 95.557873 
L 331.740845 94.940515 
L 333.045267 93.572719 
L 334.217996 92.473469 
L 334.928371 92.094837 
L 335.517383 92.020167 
L 336.084224 92.176481 
L 336.687421 92.58594 
L 337.423007 93.37669 
L 338.728967 95.190339 
L 339.73778 96.407346 
L 340.361957 96.838239 
L 340.870416 96.929635 
L 341.339436 96.782749 
L 341.844074 96.375612 
L 342.458191 95.567169 
L 343.346279 93.978259 
L 344.831236 91.329665 
L 345.431364 90.694824 
L 345.884159 90.501074 
L 346.281312 90.563817 
L 346.695217 90.873484 
L 347.179422 91.549325 
L 347.786594 92.827125 
L 348.692039 95.337561 
L 349.942099 98.715785 
L 350.484132 99.59435 
L 350.867428 99.845744 
L 351.162835 99.794196 
L 351.474885 99.490952 
L 351.85526 98.76889 
L 352.33776 97.320353 
L 352.989717 94.579814 
L 355.128249 84.951657 
L 355.531609 84.232112 
L 355.783072 84.136879 
L 356.000612 84.306689 
L 356.267851 84.870606 
L 356.601126 86.182372 
L 356.999926 88.745757 
L 357.463643 93.264537 
L 357.991578 100.705819 
L 358.58294 112.400924 
L 359.220545 129.71734 
L 359.887476 154.242144 
L 360.550984 187.070621 
L 361.195046 230.26001 
L 361.787961 285.732497 
L 362.239191 346.6 
L 362.239191 346.6 
" clip-path="url(#p52991a6129)" style="fill: none; stroke: #1f77b4; stroke-width: 2; stroke-linecap: square"/>
            </g>
            <g id="line2d_33">
                <path d="M 361.643988 300.328
L 361.643988 25.44 
" clip-path="url(#p52991a6129)" style="fill: none; stroke-dasharray: 3.7,1.6; stroke-dashoffset: 0; stroke: #008000"/>
            </g>
            <g id="line2d_34">
                <path d="M 359.057356 300.328
L 359.057356 25.44 
" clip-path="url(#p52991a6129)" style="fill: none; stroke-dasharray: 3.7,1.6; stroke-dashoffset: 0; stroke: #008000"/>
            </g>
            <g id="line2d_35">
                <path d="M 62.57 259.0948
L 450 259.0948 
" clip-path="url(#p52991a6129)" style="fill: none; stroke-dasharray: 3.7,1.6; stroke-dashoffset: 0; stroke: #00bfbf"/>
            </g>
            <g id="line2d_36">
                <path d="M 62.57 67.409132
L 450 67.409132 
" clip-path="url(#p52991a6129)" style="fill: none; stroke-dasharray: 3.7,1.6; stroke-dashoffset: 0; stroke: #ff0000"/>
            </g>
            <g id="line2d_37">
                <path d="M 62.57 128.695514
L 450 128.695514 
" clip-path="url(#p52991a6129)" style="fill: none; stroke-dasharray: 3.7,1.6; stroke-dashoffset: 0; stroke: #ff0000"/>
            </g>
            <g id="patch_3">
                <path d="M 62.57 300.328
L 62.57 25.44 
" style="fill: none; stroke: #000000; stroke-width: 0.8; stroke-linejoin: miter; stroke-linecap: square"/>
            </g>
            <g id="patch_4">
                <path d="M 450 300.328
L 450 25.44 
" style="fill: none; stroke: #000000; stroke-width: 0.8; stroke-linejoin: miter; stroke-linecap: square"/>
            </g>
            <g id="patch_5">
                <path d="M 62.57 300.328
L 450 300.328 
" style="fill: none; stroke: #000000; stroke-width: 0.8; stroke-linejoin: miter; stroke-linecap: square"/>
            </g>
            <g id="patch_6">
                <path d="M 62.57 25.44
L 450 25.44 
" style="fill: none; stroke: #000000; stroke-width: 0.8; stroke-linejoin: miter; stroke-linecap: square"/>
            </g>
            <g id="text_14">
                <!-- Frequency Response -->
                <g transform="translate(194.565625 19.44)scale(0.12 -0.12)">
                    <defs>
                        <path id="DejaVuSans-52" d="M 2841 2188
Q 3044 2119 3236 1894 
Q 3428 1669 3622 1275 
L 4263 0 
L 3584 0 
L 2988 1197 
Q 2756 1666 2539 1819 
Q 2322 1972 1947 1972 
L 1259 1972 
L 1259 0 
L 628 0 
L 628 4666 
L 2053 4666 
Q 2853 4666 3247 4331 
Q 3641 3997 3641 3322 
Q 3641 2881 3436 2590 
Q 3231 2300 2841 2188 
z
M 1259 4147 
L 1259 2491 
L 2053 2491 
Q 2509 2491 2742 2702 
Q 2975 2913 2975 3322 
Q 2975 3731 2742 3939 
Q 2509 4147 2053 4147 
L 1259 4147 
z
" transform="scale(0.015625)"/>
                        <path id="DejaVuSans-73" d="M 2834 3397
L 2834 2853 
Q 2591 2978 2328 3040 
Q 2066 3103 1784 3103 
Q 1356 3103 1142 2972 
Q 928 2841 928 2578 
Q 928 2378 1081 2264 
Q 1234 2150 1697 2047 
L 1894 2003 
Q 2506 1872 2764 1633 
Q 3022 1394 3022 966 
Q 3022 478 2636 193 
Q 2250 -91 1575 -91 
Q 1294 -91 989 -36 
Q 684 19 347 128 
L 347 722 
Q 666 556 975 473 
Q 1284 391 1588 391 
Q 1994 391 2212 530 
Q 2431 669 2431 922 
Q 2431 1156 2273 1281 
Q 2116 1406 1581 1522 
L 1381 1569 
Q 847 1681 609 1914 
Q 372 2147 372 2553 
Q 372 3047 722 3315 
Q 1072 3584 1716 3584 
Q 2034 3584 2315 3537 
Q 2597 3491 2834 3397 
z
" transform="scale(0.015625)"/>
                        <path id="DejaVuSans-70" d="M 1159 525
L 1159 -1331 
L 581 -1331 
L 581 3500 
L 1159 3500 
L 1159 2969 
Q 1341 3281 1617 3432 
Q 1894 3584 2278 3584 
Q 2916 3584 3314 3078 
Q 3713 2572 3713 1747 
Q 3713 922 3314 415 
Q 2916 -91 2278 -91 
Q 1894 -91 1617 61 
Q 1341 213 1159 525 
z
M 3116 1747 
Q 3116 2381 2855 2742 
Q 2594 3103 2138 3103 
Q 1681 3103 1420 2742 
Q 1159 2381 1159 1747 
Q 1159 1113 1420 752 
Q 1681 391 2138 391 
Q 2594 391 2855 752 
Q 3116 1113 3116 1747 
z
" transform="scale(0.015625)"/>
                        <path id="DejaVuSans-6f" d="M 1959 3097
Q 1497 3097 1228 2736 
Q 959 2375 959 1747 
Q 959 1119 1226 758 
Q 1494 397 1959 397 
Q 2419 397 2687 759 
Q 2956 1122 2956 1747 
Q 2956 2369 2687 2733 
Q 2419 3097 1959 3097 
z
M 1959 3584 
Q 2709 3584 3137 3096 
Q 3566 2609 3566 1747 
Q 3566 888 3137 398 
Q 2709 -91 1959 -91 
Q 1206 -91 779 398 
Q 353 888 353 1747 
Q 353 2609 779 3096 
Q 1206 3584 1959 3584 
z
" transform="scale(0.015625)"/>
                    </defs>
                    <use xlink:href="#DejaVuSans-46"/>
                    <use xlink:href="#DejaVuSans-72" x="50.269531"/>
                    <use xlink:href="#DejaVuSans-65" x="89.132812"/>
                    <use xlink:href="#DejaVuSans-71" x="150.65625"/>
                    <use xlink:href="#DejaVuSans-75" x="214.132812"/>
                    <use xlink:href="#DejaVuSans-65" x="277.511719"/>
                    <use xlink:href="#DejaVuSans-6e" x="339.035156"/>
                    <use xlink:href="#DejaVuSans-63" x="402.414062"/>
                    <use xlink:href="#DejaVuSans-79" x="457.394531"/>
                    <use xlink:href="#DejaVuSans-20" x="516.574219"/>
                    <use xlink:href="#DejaVuSans-52" x="548.361328"/>
                    <use xlink:href="#DejaVuSans-65" x="613.34375"/>
                    <use xlink:href="#DejaVuSans-73" x="674.867188"/>
                    <use xlink:href="#DejaVuSans-70" x="726.966797"/>
                    <use xlink:href="#DejaVuSans-6f" x="790.443359"/>
                    <use xlink:href="#DejaVuSans-6e" x="851.625"/>
                    <use xlink:href="#DejaVuSans-73" x="915.003906"/>
                    <use xlink:href="#DejaVuSans-65" x="967.103516"/>
                </g>
            </g>
        </g>
    </g>
    <defs>
        <clipPath id="p52991a6129">
            <rect x="62.57" y="25.44" width="387.43" height="274.888"/>
        </clipPath>
    </defs>
</svg>
