<?xml version="1.0" encoding="utf-8" standalone="no"?>
<!DOCTYPE svg PUBLIC "-//W3C//DTD SVG 1.1//EN"
  "http://www.w3.org/Graphics/SVG/1.1/DTD/svg11.dtd">
<svg xmlns:xlink="http://www.w3.org/1999/xlink" width="720pt" height="1440pt" viewBox="0 0 720 1440" xmlns="http://www.w3.org/2000/svg" version="1.1">
 <metadata>
  <rdf:RDF xmlns:dc="http://purl.org/dc/elements/1.1/" xmlns:cc="http://creativecommons.org/ns#" xmlns:rdf="http://www.w3.org/1999/02/22-rdf-syntax-ns#">
   <cc:Work>
    <dc:type rdf:resource="http://purl.org/dc/dcmitype/StillImage"/>
    <dc:date>2022-01-22T13:29:13.838823</dc:date>
    <dc:format>image/svg+xml</dc:format>
    <dc:creator>
     <cc:Agent>
      <dc:title>Matplotlib v3.5.0, https://matplotlib.org/</dc:title>
     </cc:Agent>
    </dc:creator>
   </cc:Work>
  </rdf:RDF>
 </metadata>
 <defs>
  <style type="text/css">*{stroke-linejoin: round; stroke-linecap: butt}</style>
 </defs>
 <g id="figure_1">
  <g id="patch_1">
   <path d="M 0 1440 
L 720 1440 
L 720 0 
L 0 0 
z
" style="fill: #ffffff"/>
  </g>
  <g id="axes_1">
   <g id="patch_2">
    <path d="M 81.79 1394.728 
L 709.2 1394.728 
L 709.2 25.44 
L 81.79 25.44 
z
" style="fill: #ffffff"/>
   </g>
   <g id="matplotlib.axis_1">
    <g id="xtick_1">
     <g id="line2d_1">
      <defs>
       <path id="m345ca0ab4e" d="M 0 0 
L 0 3.5 
" style="stroke: #000000; stroke-width: 0.8"/>
      </defs>
      <g>
       <use xlink:href="#m345ca0ab4e" x="81.79" y="1394.728" style="stroke: #000000; stroke-width: 0.8"/>
      </g>
     </g>
     <g id="text_1">
      <!-- 0.0 -->
      <g transform="translate(73.838438 1409.326437)scale(0.1 -0.1)">
       <defs>
        <path id="DejaVuSans-30" d="M 2034 4250 
Q 1547 4250 1301 3770 
Q 1056 3291 1056 2328 
Q 1056 1369 1301 889 
Q 1547 409 2034 409 
Q 2525 409 2770 889 
Q 3016 1369 3016 2328 
Q 3016 3291 2770 3770 
Q 2525 4250 2034 4250 
z
M 2034 4750 
Q 2819 4750 3233 4129 
Q 3647 3509 3647 2328 
Q 3647 1150 3233 529 
Q 2819 -91 2034 -91 
Q 1250 -91 836 529 
Q 422 1150 422 2328 
Q 422 3509 836 4129 
Q 1250 4750 2034 4750 
z
" transform="scale(0.015625)"/>
        <path id="DejaVuSans-2e" d="M 684 794 
L 1344 794 
L 1344 0 
L 684 0 
L 684 794 
z
" transform="scale(0.015625)"/>
       </defs>
       <use xlink:href="#DejaVuSans-30"/>
       <use xlink:href="#DejaVuSans-2e" x="63.623047"/>
       <use xlink:href="#DejaVuSans-30" x="95.410156"/>
      </g>
     </g>
    </g>
    <g id="xtick_2">
     <g id="line2d_2">
      <g>
       <use xlink:href="#m345ca0ab4e" x="207.272" y="1394.728" style="stroke: #000000; stroke-width: 0.8"/>
      </g>
     </g>
     <g id="text_2">
      <!-- 0.2 -->
      <g transform="translate(199.320437 1409.326437)scale(0.1 -0.1)">
       <defs>
        <path id="DejaVuSans-32" d="M 1228 531 
L 3431 531 
L 3431 0 
L 469 0 
L 469 531 
Q 828 903 1448 1529 
Q 2069 2156 2228 2338 
Q 2531 2678 2651 2914 
Q 2772 3150 2772 3378 
Q 2772 3750 2511 3984 
Q 2250 4219 1831 4219 
Q 1534 4219 1204 4116 
Q 875 4013 500 3803 
L 500 4441 
Q 881 4594 1212 4672 
Q 1544 4750 1819 4750 
Q 2544 4750 2975 4387 
Q 3406 4025 3406 3419 
Q 3406 3131 3298 2873 
Q 3191 2616 2906 2266 
Q 2828 2175 2409 1742 
Q 1991 1309 1228 531 
z
" transform="scale(0.015625)"/>
       </defs>
       <use xlink:href="#DejaVuSans-30"/>
       <use xlink:href="#DejaVuSans-2e" x="63.623047"/>
       <use xlink:href="#DejaVuSans-32" x="95.410156"/>
      </g>
     </g>
    </g>
    <g id="xtick_3">
     <g id="line2d_3">
      <g>
       <use xlink:href="#m345ca0ab4e" x="332.754" y="1394.728" style="stroke: #000000; stroke-width: 0.8"/>
      </g>
     </g>
     <g id="text_3">
      <!-- 0.4 -->
      <g transform="translate(324.802437 1409.326437)scale(0.1 -0.1)">
       <defs>
        <path id="DejaVuSans-34" d="M 2419 4116 
L 825 1625 
L 2419 1625 
L 2419 4116 
z
M 2253 4666 
L 3047 4666 
L 3047 1625 
L 3713 1625 
L 3713 1100 
L 3047 1100 
L 3047 0 
L 2419 0 
L 2419 1100 
L 313 1100 
L 313 1709 
L 2253 4666 
z
" transform="scale(0.015625)"/>
       </defs>
       <use xlink:href="#DejaVuSans-30"/>
       <use xlink:href="#DejaVuSans-2e" x="63.623047"/>
       <use xlink:href="#DejaVuSans-34" x="95.410156"/>
      </g>
     </g>
    </g>
    <g id="xtick_4">
     <g id="line2d_4">
      <g>
       <use xlink:href="#m345ca0ab4e" x="458.236" y="1394.728" style="stroke: #000000; stroke-width: 0.8"/>
      </g>
     </g>
     <g id="text_4">
      <!-- 0.6 -->
      <g transform="translate(450.284437 1409.326437)scale(0.1 -0.1)">
       <defs>
        <path id="DejaVuSans-36" d="M 2113 2584 
Q 1688 2584 1439 2293 
Q 1191 2003 1191 1497 
Q 1191 994 1439 701 
Q 1688 409 2113 409 
Q 2538 409 2786 701 
Q 3034 994 3034 1497 
Q 3034 2003 2786 2293 
Q 2538 2584 2113 2584 
z
M 3366 4563 
L 3366 3988 
Q 3128 4100 2886 4159 
Q 2644 4219 2406 4219 
Q 1781 4219 1451 3797 
Q 1122 3375 1075 2522 
Q 1259 2794 1537 2939 
Q 1816 3084 2150 3084 
Q 2853 3084 3261 2657 
Q 3669 2231 3669 1497 
Q 3669 778 3244 343 
Q 2819 -91 2113 -91 
Q 1303 -91 875 529 
Q 447 1150 447 2328 
Q 447 3434 972 4092 
Q 1497 4750 2381 4750 
Q 2619 4750 2861 4703 
Q 3103 4656 3366 4563 
z
" transform="scale(0.015625)"/>
       </defs>
       <use xlink:href="#DejaVuSans-30"/>
       <use xlink:href="#DejaVuSans-2e" x="63.623047"/>
       <use xlink:href="#DejaVuSans-36" x="95.410156"/>
      </g>
     </g>
    </g>
    <g id="xtick_5">
     <g id="line2d_5">
      <g>
       <use xlink:href="#m345ca0ab4e" x="583.718" y="1394.728" style="stroke: #000000; stroke-width: 0.8"/>
      </g>
     </g>
     <g id="text_5">
      <!-- 0.8 -->
      <g transform="translate(575.766437 1409.326437)scale(0.1 -0.1)">
       <defs>
        <path id="DejaVuSans-38" d="M 2034 2216 
Q 1584 2216 1326 1975 
Q 1069 1734 1069 1313 
Q 1069 891 1326 650 
Q 1584 409 2034 409 
Q 2484 409 2743 651 
Q 3003 894 3003 1313 
Q 3003 1734 2745 1975 
Q 2488 2216 2034 2216 
z
M 1403 2484 
Q 997 2584 770 2862 
Q 544 3141 544 3541 
Q 544 4100 942 4425 
Q 1341 4750 2034 4750 
Q 2731 4750 3128 4425 
Q 3525 4100 3525 3541 
Q 3525 3141 3298 2862 
Q 3072 2584 2669 2484 
Q 3125 2378 3379 2068 
Q 3634 1759 3634 1313 
Q 3634 634 3220 271 
Q 2806 -91 2034 -91 
Q 1263 -91 848 271 
Q 434 634 434 1313 
Q 434 1759 690 2068 
Q 947 2378 1403 2484 
z
M 1172 3481 
Q 1172 3119 1398 2916 
Q 1625 2713 2034 2713 
Q 2441 2713 2670 2916 
Q 2900 3119 2900 3481 
Q 2900 3844 2670 4047 
Q 2441 4250 2034 4250 
Q 1625 4250 1398 4047 
Q 1172 3844 1172 3481 
z
" transform="scale(0.015625)"/>
       </defs>
       <use xlink:href="#DejaVuSans-30"/>
       <use xlink:href="#DejaVuSans-2e" x="63.623047"/>
       <use xlink:href="#DejaVuSans-38" x="95.410156"/>
      </g>
     </g>
    </g>
    <g id="xtick_6">
     <g id="line2d_6">
      <g>
       <use xlink:href="#m345ca0ab4e" x="709.2" y="1394.728" style="stroke: #000000; stroke-width: 0.8"/>
      </g>
     </g>
     <g id="text_6">
      <!-- 1.0 -->
      <g transform="translate(701.248437 1409.326437)scale(0.1 -0.1)">
       <defs>
        <path id="DejaVuSans-31" d="M 794 531 
L 1825 531 
L 1825 4091 
L 703 3866 
L 703 4441 
L 1819 4666 
L 2450 4666 
L 2450 531 
L 3481 531 
L 3481 0 
L 794 0 
L 794 531 
z
" transform="scale(0.015625)"/>
       </defs>
       <use xlink:href="#DejaVuSans-31"/>
       <use xlink:href="#DejaVuSans-2e" x="63.623047"/>
       <use xlink:href="#DejaVuSans-30" x="95.410156"/>
      </g>
     </g>
    </g>
    <g id="text_7">
     <!-- False Positive Rate -->
     <g transform="translate(349.028594 1423.004563)scale(0.1 -0.1)">
      <defs>
       <path id="DejaVuSans-46" d="M 628 4666 
L 3309 4666 
L 3309 4134 
L 1259 4134 
L 1259 2759 
L 3109 2759 
L 3109 2228 
L 1259 2228 
L 1259 0 
L 628 0 
L 628 4666 
z
" transform="scale(0.015625)"/>
       <path id="DejaVuSans-61" d="M 2194 1759 
Q 1497 1759 1228 1600 
Q 959 1441 959 1056 
Q 959 750 1161 570 
Q 1363 391 1709 391 
Q 2188 391 2477 730 
Q 2766 1069 2766 1631 
L 2766 1759 
L 2194 1759 
z
M 3341 1997 
L 3341 0 
L 2766 0 
L 2766 531 
Q 2569 213 2275 61 
Q 1981 -91 1556 -91 
Q 1019 -91 701 211 
Q 384 513 384 1019 
Q 384 1609 779 1909 
Q 1175 2209 1959 2209 
L 2766 2209 
L 2766 2266 
Q 2766 2663 2505 2880 
Q 2244 3097 1772 3097 
Q 1472 3097 1187 3025 
Q 903 2953 641 2809 
L 641 3341 
Q 956 3463 1253 3523 
Q 1550 3584 1831 3584 
Q 2591 3584 2966 3190 
Q 3341 2797 3341 1997 
z
" transform="scale(0.015625)"/>
       <path id="DejaVuSans-6c" d="M 603 4863 
L 1178 4863 
L 1178 0 
L 603 0 
L 603 4863 
z
" transform="scale(0.015625)"/>
       <path id="DejaVuSans-73" d="M 2834 3397 
L 2834 2853 
Q 2591 2978 2328 3040 
Q 2066 3103 1784 3103 
Q 1356 3103 1142 2972 
Q 928 2841 928 2578 
Q 928 2378 1081 2264 
Q 1234 2150 1697 2047 
L 1894 2003 
Q 2506 1872 2764 1633 
Q 3022 1394 3022 966 
Q 3022 478 2636 193 
Q 2250 -91 1575 -91 
Q 1294 -91 989 -36 
Q 684 19 347 128 
L 347 722 
Q 666 556 975 473 
Q 1284 391 1588 391 
Q 1994 391 2212 530 
Q 2431 669 2431 922 
Q 2431 1156 2273 1281 
Q 2116 1406 1581 1522 
L 1381 1569 
Q 847 1681 609 1914 
Q 372 2147 372 2553 
Q 372 3047 722 3315 
Q 1072 3584 1716 3584 
Q 2034 3584 2315 3537 
Q 2597 3491 2834 3397 
z
" transform="scale(0.015625)"/>
       <path id="DejaVuSans-65" d="M 3597 1894 
L 3597 1613 
L 953 1613 
Q 991 1019 1311 708 
Q 1631 397 2203 397 
Q 2534 397 2845 478 
Q 3156 559 3463 722 
L 3463 178 
Q 3153 47 2828 -22 
Q 2503 -91 2169 -91 
Q 1331 -91 842 396 
Q 353 884 353 1716 
Q 353 2575 817 3079 
Q 1281 3584 2069 3584 
Q 2775 3584 3186 3129 
Q 3597 2675 3597 1894 
z
M 3022 2063 
Q 3016 2534 2758 2815 
Q 2500 3097 2075 3097 
Q 1594 3097 1305 2825 
Q 1016 2553 972 2059 
L 3022 2063 
z
" transform="scale(0.015625)"/>
       <path id="DejaVuSans-20" transform="scale(0.015625)"/>
       <path id="DejaVuSans-50" d="M 1259 4147 
L 1259 2394 
L 2053 2394 
Q 2494 2394 2734 2622 
Q 2975 2850 2975 3272 
Q 2975 3691 2734 3919 
Q 2494 4147 2053 4147 
L 1259 4147 
z
M 628 4666 
L 2053 4666 
Q 2838 4666 3239 4311 
Q 3641 3956 3641 3272 
Q 3641 2581 3239 2228 
Q 2838 1875 2053 1875 
L 1259 1875 
L 1259 0 
L 628 0 
L 628 4666 
z
" transform="scale(0.015625)"/>
       <path id="DejaVuSans-6f" d="M 1959 3097 
Q 1497 3097 1228 2736 
Q 959 2375 959 1747 
Q 959 1119 1226 758 
Q 1494 397 1959 397 
Q 2419 397 2687 759 
Q 2956 1122 2956 1747 
Q 2956 2369 2687 2733 
Q 2419 3097 1959 3097 
z
M 1959 3584 
Q 2709 3584 3137 3096 
Q 3566 2609 3566 1747 
Q 3566 888 3137 398 
Q 2709 -91 1959 -91 
Q 1206 -91 779 398 
Q 353 888 353 1747 
Q 353 2609 779 3096 
Q 1206 3584 1959 3584 
z
" transform="scale(0.015625)"/>
       <path id="DejaVuSans-69" d="M 603 3500 
L 1178 3500 
L 1178 0 
L 603 0 
L 603 3500 
z
M 603 4863 
L 1178 4863 
L 1178 4134 
L 603 4134 
L 603 4863 
z
" transform="scale(0.015625)"/>
       <path id="DejaVuSans-74" d="M 1172 4494 
L 1172 3500 
L 2356 3500 
L 2356 3053 
L 1172 3053 
L 1172 1153 
Q 1172 725 1289 603 
Q 1406 481 1766 481 
L 2356 481 
L 2356 0 
L 1766 0 
Q 1100 0 847 248 
Q 594 497 594 1153 
L 594 3053 
L 172 3053 
L 172 3500 
L 594 3500 
L 594 4494 
L 1172 4494 
z
" transform="scale(0.015625)"/>
       <path id="DejaVuSans-76" d="M 191 3500 
L 800 3500 
L 1894 563 
L 2988 3500 
L 3597 3500 
L 2284 0 
L 1503 0 
L 191 3500 
z
" transform="scale(0.015625)"/>
       <path id="DejaVuSans-52" d="M 2841 2188 
Q 3044 2119 3236 1894 
Q 3428 1669 3622 1275 
L 4263 0 
L 3584 0 
L 2988 1197 
Q 2756 1666 2539 1819 
Q 2322 1972 1947 1972 
L 1259 1972 
L 1259 0 
L 628 0 
L 628 4666 
L 2053 4666 
Q 2853 4666 3247 4331 
Q 3641 3997 3641 3322 
Q 3641 2881 3436 2590 
Q 3231 2300 2841 2188 
z
M 1259 4147 
L 1259 2491 
L 2053 2491 
Q 2509 2491 2742 2702 
Q 2975 2913 2975 3322 
Q 2975 3731 2742 3939 
Q 2509 4147 2053 4147 
L 1259 4147 
z
" transform="scale(0.015625)"/>
      </defs>
      <use xlink:href="#DejaVuSans-46"/>
      <use xlink:href="#DejaVuSans-61" x="48.394531"/>
      <use xlink:href="#DejaVuSans-6c" x="109.673828"/>
      <use xlink:href="#DejaVuSans-73" x="137.457031"/>
      <use xlink:href="#DejaVuSans-65" x="189.556641"/>
      <use xlink:href="#DejaVuSans-20" x="251.080078"/>
      <use xlink:href="#DejaVuSans-50" x="282.867188"/>
      <use xlink:href="#DejaVuSans-6f" x="339.544922"/>
      <use xlink:href="#DejaVuSans-73" x="400.726562"/>
      <use xlink:href="#DejaVuSans-69" x="452.826172"/>
      <use xlink:href="#DejaVuSans-74" x="480.609375"/>
      <use xlink:href="#DejaVuSans-69" x="519.818359"/>
      <use xlink:href="#DejaVuSans-76" x="547.601562"/>
      <use xlink:href="#DejaVuSans-65" x="606.78125"/>
      <use xlink:href="#DejaVuSans-20" x="668.304688"/>
      <use xlink:href="#DejaVuSans-52" x="700.091797"/>
      <use xlink:href="#DejaVuSans-61" x="767.324219"/>
      <use xlink:href="#DejaVuSans-74" x="828.603516"/>
      <use xlink:href="#DejaVuSans-65" x="867.8125"/>
     </g>
    </g>
   </g>
   <g id="matplotlib.axis_2">
    <g id="ytick_1">
     <g id="line2d_7">
      <defs>
       <path id="mf3bdf42971" d="M 0 0 
L -3.5 0 
" style="stroke: #000000; stroke-width: 0.8"/>
      </defs>
      <g>
       <use xlink:href="#mf3bdf42971" x="81.79" y="1394.728" style="stroke: #000000; stroke-width: 0.8"/>
      </g>
     </g>
     <g id="text_8">
      <!-- 0.0 -->
      <g transform="translate(58.886875 1398.527219)scale(0.1 -0.1)">
       <use xlink:href="#DejaVuSans-30"/>
       <use xlink:href="#DejaVuSans-2e" x="63.623047"/>
       <use xlink:href="#DejaVuSans-30" x="95.410156"/>
      </g>
     </g>
    </g>
    <g id="ytick_2">
     <g id="line2d_8">
      <g>
       <use xlink:href="#mf3bdf42971" x="81.79" y="1133.911238" style="stroke: #000000; stroke-width: 0.8"/>
      </g>
     </g>
     <g id="text_9">
      <!-- 0.2 -->
      <g transform="translate(58.886875 1137.710457)scale(0.1 -0.1)">
       <use xlink:href="#DejaVuSans-30"/>
       <use xlink:href="#DejaVuSans-2e" x="63.623047"/>
       <use xlink:href="#DejaVuSans-32" x="95.410156"/>
      </g>
     </g>
    </g>
    <g id="ytick_3">
     <g id="line2d_9">
      <g>
       <use xlink:href="#mf3bdf42971" x="81.79" y="873.094476" style="stroke: #000000; stroke-width: 0.8"/>
      </g>
     </g>
     <g id="text_10">
      <!-- 0.4 -->
      <g transform="translate(58.886875 876.893695)scale(0.1 -0.1)">
       <use xlink:href="#DejaVuSans-30"/>
       <use xlink:href="#DejaVuSans-2e" x="63.623047"/>
       <use xlink:href="#DejaVuSans-34" x="95.410156"/>
      </g>
     </g>
    </g>
    <g id="ytick_4">
     <g id="line2d_10">
      <g>
       <use xlink:href="#mf3bdf42971" x="81.79" y="612.277714" style="stroke: #000000; stroke-width: 0.8"/>
      </g>
     </g>
     <g id="text_11">
      <!-- 0.6 -->
      <g transform="translate(58.886875 616.076933)scale(0.1 -0.1)">
       <use xlink:href="#DejaVuSans-30"/>
       <use xlink:href="#DejaVuSans-2e" x="63.623047"/>
       <use xlink:href="#DejaVuSans-36" x="95.410156"/>
      </g>
     </g>
    </g>
    <g id="ytick_5">
     <g id="line2d_11">
      <g>
       <use xlink:href="#mf3bdf42971" x="81.79" y="351.460952" style="stroke: #000000; stroke-width: 0.8"/>
      </g>
     </g>
     <g id="text_12">
      <!-- 0.8 -->
      <g transform="translate(58.886875 355.260171)scale(0.1 -0.1)">
       <use xlink:href="#DejaVuSans-30"/>
       <use xlink:href="#DejaVuSans-2e" x="63.623047"/>
       <use xlink:href="#DejaVuSans-38" x="95.410156"/>
      </g>
     </g>
    </g>
    <g id="ytick_6">
     <g id="line2d_12">
      <g>
       <use xlink:href="#mf3bdf42971" x="81.79" y="90.64419" style="stroke: #000000; stroke-width: 0.8"/>
      </g>
     </g>
     <g id="text_13">
      <!-- 1.0 -->
      <g transform="translate(58.886875 94.443409)scale(0.1 -0.1)">
       <use xlink:href="#DejaVuSans-31"/>
       <use xlink:href="#DejaVuSans-2e" x="63.623047"/>
       <use xlink:href="#DejaVuSans-30" x="95.410156"/>
      </g>
     </g>
    </g>
    <g id="text_14">
     <!-- True Positive Rate -->
     <g transform="translate(52.807187 754.613687)rotate(-90)scale(0.1 -0.1)">
      <defs>
       <path id="DejaVuSans-54" d="M -19 4666 
L 3928 4666 
L 3928 4134 
L 2272 4134 
L 2272 0 
L 1638 0 
L 1638 4134 
L -19 4134 
L -19 4666 
z
" transform="scale(0.015625)"/>
       <path id="DejaVuSans-72" d="M 2631 2963 
Q 2534 3019 2420 3045 
Q 2306 3072 2169 3072 
Q 1681 3072 1420 2755 
Q 1159 2438 1159 1844 
L 1159 0 
L 581 0 
L 581 3500 
L 1159 3500 
L 1159 2956 
Q 1341 3275 1631 3429 
Q 1922 3584 2338 3584 
Q 2397 3584 2469 3576 
Q 2541 3569 2628 3553 
L 2631 2963 
z
" transform="scale(0.015625)"/>
       <path id="DejaVuSans-75" d="M 544 1381 
L 544 3500 
L 1119 3500 
L 1119 1403 
Q 1119 906 1312 657 
Q 1506 409 1894 409 
Q 2359 409 2629 706 
Q 2900 1003 2900 1516 
L 2900 3500 
L 3475 3500 
L 3475 0 
L 2900 0 
L 2900 538 
Q 2691 219 2414 64 
Q 2138 -91 1772 -91 
Q 1169 -91 856 284 
Q 544 659 544 1381 
z
M 1991 3584 
L 1991 3584 
z
" transform="scale(0.015625)"/>
      </defs>
      <use xlink:href="#DejaVuSans-54"/>
      <use xlink:href="#DejaVuSans-72" x="46.333984"/>
      <use xlink:href="#DejaVuSans-75" x="87.447266"/>
      <use xlink:href="#DejaVuSans-65" x="150.826172"/>
      <use xlink:href="#DejaVuSans-20" x="212.349609"/>
      <use xlink:href="#DejaVuSans-50" x="244.136719"/>
      <use xlink:href="#DejaVuSans-6f" x="300.814453"/>
      <use xlink:href="#DejaVuSans-73" x="361.996094"/>
      <use xlink:href="#DejaVuSans-69" x="414.095703"/>
      <use xlink:href="#DejaVuSans-74" x="441.878906"/>
      <use xlink:href="#DejaVuSans-69" x="481.087891"/>
      <use xlink:href="#DejaVuSans-76" x="508.871094"/>
      <use xlink:href="#DejaVuSans-65" x="568.050781"/>
      <use xlink:href="#DejaVuSans-20" x="629.574219"/>
      <use xlink:href="#DejaVuSans-52" x="661.361328"/>
      <use xlink:href="#DejaVuSans-61" x="728.59375"/>
      <use xlink:href="#DejaVuSans-74" x="789.873047"/>
      <use xlink:href="#DejaVuSans-65" x="829.082031"/>
     </g>
    </g>
   </g>
   <g id="line2d_13">
    <path d="M 81.79 1394.728 
L 81.79 90.64419 
L 85.79901 90.64419 
L 89.808019 90.64419 
L 91.812524 90.64419 
L 101.835048 90.64419 
L 103.839553 90.64419 
L 117.871086 90.64419 
L 709.2 90.64419 
" clip-path="url(#pa1a17d825c)" style="fill: none; stroke: #ff8c00; stroke-width: 2; stroke-linecap: square"/>
   </g>
   <g id="line2d_14">
    <path d="M 81.79 1394.728 
L 81.79 90.64419 
L 85.79901 90.64419 
L 89.808019 90.64419 
L 91.812524 90.64419 
L 709.2 90.64419 
" clip-path="url(#pa1a17d825c)" style="fill: none; stroke: #ff8c00; stroke-width: 2; stroke-linecap: square"/>
   </g>
   <g id="line2d_15">
    <path d="M 81.79 1394.728 
L 81.79 90.64419 
L 83.794505 90.64419 
L 89.808019 90.64419 
L 709.2 90.64419 
" clip-path="url(#pa1a17d825c)" style="fill: none; stroke: #ff8c00; stroke-width: 2; stroke-linecap: square"/>
   </g>
   <g id="line2d_16">
    <path d="M 81.79 1394.728 
L 83.794505 1394.728 
L 87.803514 1394.728 
L 95.821534 1394.728 
L 99.830543 1394.728 
L 105.844058 1394.728 
L 117.871086 1394.728 
L 709.2 90.64419 
" clip-path="url(#pa1a17d825c)" style="fill: none; stroke: #ff8c00; stroke-width: 2; stroke-linecap: square"/>
   </g>
   <g id="line2d_17">
    <path d="M 81.79 1394.728 
L 83.800929 1394.728 
L 85.811859 1394.728 
L 85.811859 742.686095 
L 93.855577 742.686095 
L 95.866506 742.686095 
L 99.888365 742.686095 
L 105.921154 742.686095 
L 709.2 90.64419 
" clip-path="url(#pa1a17d825c)" style="fill: none; stroke: #ff8c00; stroke-width: 2; stroke-linecap: square"/>
   </g>
   <g id="line2d_18">
    <path d="M 81.79 1394.728 
L 83.794505 1394.728 
L 103.839553 1394.728 
L 111.857572 1394.728 
L 121.880096 1394.728 
L 709.2 90.64419 
" clip-path="url(#pa1a17d825c)" style="fill: none; stroke: #ff8c00; stroke-width: 2; stroke-linecap: square"/>
   </g>
   <g id="line2d_19">
    <path d="M 81.79 1394.728 
L 83.794505 1394.728 
L 87.803514 1394.728 
L 95.821534 1394.728 
L 101.835048 1394.728 
L 105.844058 1394.728 
L 111.857572 1394.728 
L 121.880096 1394.728 
L 709.2 90.64419 
" clip-path="url(#pa1a17d825c)" style="fill: none; stroke: #ff8c00; stroke-width: 2; stroke-linecap: square"/>
   </g>
   <g id="line2d_20">
    <path d="M 81.79 1394.728 
L 83.794505 1394.728 
L 709.2 90.64419 
" clip-path="url(#pa1a17d825c)" style="fill: none; stroke: #ff8c00; stroke-width: 2; stroke-linecap: square"/>
   </g>
   <g id="line2d_21">
    <path d="M 81.79 1394.728 
L 83.794505 1394.728 
L 95.821534 1394.728 
L 99.830543 1394.728 
L 121.880096 1394.728 
L 709.2 90.64419 
" clip-path="url(#pa1a17d825c)" style="fill: none; stroke: #ff8c00; stroke-width: 2; stroke-linecap: square"/>
   </g>
   <g id="line2d_22">
    <path d="M 81.79 1394.728 
L 83.807395 1394.728 
L 87.842186 1394.728 
L 91.876977 1394.728 
L 99.946559 1394.728 
L 105.998746 525.338794 
L 110.033537 525.338794 
L 709.2 90.64419 
" clip-path="url(#pa1a17d825c)" style="fill: none; stroke: #ff8c00; stroke-width: 2; stroke-linecap: square"/>
   </g>
   <g id="line2d_23">
    <path d="M 81.79 1394.728 
L 83.807395 1394.728 
L 87.842186 1394.728 
L 89.859582 1394.728 
L 709.2 90.64419 
" clip-path="url(#pa1a17d825c)" style="fill: none; stroke: #ff8c00; stroke-width: 2; stroke-linecap: square"/>
   </g>
   <g id="line2d_24">
    <path d="M 81.79 1394.728 
L 83.794505 1394.728 
L 89.808019 1394.728 
L 95.821534 1394.728 
L 103.839553 1394.728 
L 109.853067 1394.728 
L 709.2 90.64419 
" clip-path="url(#pa1a17d825c)" style="fill: none; stroke: #ff8c00; stroke-width: 2; stroke-linecap: square"/>
   </g>
   <g id="line2d_25">
    <path d="M 81.79 1394.728 
L 83.800929 1394.728 
L 85.811859 1394.728 
L 93.855577 1394.728 
L 709.2 90.64419 
" clip-path="url(#pa1a17d825c)" style="fill: none; stroke: #ff8c00; stroke-width: 2; stroke-linecap: square"/>
   </g>
   <g id="line2d_26">
    <path d="M 81.79 1394.728 
L 85.837806 1394.728 
L 93.933419 1394.728 
L 97.981226 1394.728 
L 104.052935 1394.728 
L 112.148548 1394.728 
L 709.2 90.64419 
" clip-path="url(#pa1a17d825c)" style="fill: none; stroke: #ff8c00; stroke-width: 2; stroke-linecap: square"/>
   </g>
   <g id="line2d_27">
    <path d="M 81.79 1394.728 
L 83.794505 1394.728 
L 85.79901 1394.728 
L 89.808019 1394.728 
L 93.817029 1394.728 
L 117.871086 1394.728 
L 709.2 90.64419 
" clip-path="url(#pa1a17d825c)" style="fill: none; stroke: #ff8c00; stroke-width: 2; stroke-linecap: square"/>
   </g>
   <g id="line2d_28">
    <path d="M 81.79 1394.728 
L 83.807395 1394.728 
L 87.842186 1394.728 
L 91.876977 1394.728 
L 99.946559 1394.728 
L 103.98135 1394.728 
L 105.998746 1394.728 
L 108.016141 960.033397 
L 112.050932 960.033397 
L 120.120514 960.033397 
L 122.13791 960.033397 
L 709.2 90.64419 
" clip-path="url(#pa1a17d825c)" style="fill: none; stroke: #ff8c00; stroke-width: 2; stroke-linecap: square"/>
   </g>
   <g id="line2d_29">
    <path d="M 81.79 1394.728 
L 83.794505 1394.728 
L 91.812524 1394.728 
L 97.826038 1394.728 
L 101.835048 1394.728 
L 103.839553 1394.728 
L 115.866581 1394.728 
L 709.2 90.64419 
" clip-path="url(#pa1a17d825c)" style="fill: none; stroke: #ff8c00; stroke-width: 2; stroke-linecap: square"/>
   </g>
   <g id="line2d_30">
    <path d="M 81.79 1394.728 
L 85.79901 1394.728 
L 101.835048 1394.728 
L 107.848562 1394.728 
L 111.857572 1394.728 
L 119.875591 1394.728 
L 139.920639 1394.728 
L 709.2 90.64419 
" clip-path="url(#pa1a17d825c)" style="fill: none; stroke: #ff8c00; stroke-width: 2; stroke-linecap: square"/>
   </g>
   <g id="line2d_31">
    <path d="M 81.79 1394.728 
L 85.811859 1394.728 
L 89.833718 1394.728 
L 93.855577 1394.728 
L 97.877436 1394.728 
L 105.921154 1394.728 
L 107.932083 1394.728 
L 111.953942 1394.728 
L 122.00859 1394.728 
L 709.2 90.64419 
" clip-path="url(#pa1a17d825c)" style="fill: none; stroke: #ff8c00; stroke-width: 2; stroke-linecap: square"/>
   </g>
   <g id="line2d_32">
    <path d="M 81.79 1394.728 
L 83.794505 1394.728 
L 89.808019 1394.728 
L 101.835048 1394.728 
L 709.2 90.64419 
" clip-path="url(#pa1a17d825c)" style="fill: none; stroke: #ff8c00; stroke-width: 2; stroke-linecap: square"/>
   </g>
   <g id="line2d_33">
    <path d="M 81.79 1394.728 
L 83.794505 1394.728 
L 87.803514 1394.728 
L 97.826038 1394.728 
L 103.839553 1394.728 
L 131.90262 1394.728 
L 709.2 90.64419 
" clip-path="url(#pa1a17d825c)" style="fill: none; stroke: #ff8c00; stroke-width: 2; stroke-linecap: square"/>
   </g>
   <g id="line2d_34">
    <path d="M 81.79 1394.728 
L 85.79901 1394.728 
L 89.808019 1394.728 
L 105.844058 1394.728 
L 109.853067 1394.728 
L 119.875591 1394.728 
L 709.2 90.64419 
" clip-path="url(#pa1a17d825c)" style="fill: none; stroke: #ff8c00; stroke-width: 2; stroke-linecap: square"/>
   </g>
   <g id="line2d_35">
    <path d="M 81.79 1394.728 
L 87.803514 1394.728 
L 91.812524 1394.728 
L 709.2 90.64419 
" clip-path="url(#pa1a17d825c)" style="fill: none; stroke: #ff8c00; stroke-width: 2; stroke-linecap: square"/>
   </g>
   <g id="line2d_36">
    <path d="M 81.79 1394.728 
L 83.807395 1394.728 
L 91.876977 1394.728 
L 95.911768 1394.728 
L 103.98135 1394.728 
L 108.016141 1394.728 
L 112.050932 1394.728 
L 122.13791 1394.728 
L 709.2 90.64419 
" clip-path="url(#pa1a17d825c)" style="fill: none; stroke: #ff8c00; stroke-width: 2; stroke-linecap: square"/>
   </g>
   <g id="line2d_37">
    <path d="M 81.79 1394.728 
L 83.800929 1394.728 
L 85.811859 1394.728 
L 95.866506 1394.728 
L 103.910224 1394.728 
L 709.2 90.64419 
" clip-path="url(#pa1a17d825c)" style="fill: none; stroke: #ff8c00; stroke-width: 2; stroke-linecap: square"/>
   </g>
   <g id="line2d_38">
    <path d="M 81.79 1394.728 
L 83.800929 1394.728 
L 89.833718 1394.728 
L 95.866506 1394.728 
L 709.2 90.64419 
" clip-path="url(#pa1a17d825c)" style="fill: none; stroke: #ff8c00; stroke-width: 2; stroke-linecap: square"/>
   </g>
   <g id="line2d_39">
    <path d="M 81.79 1394.728 
L 83.800929 1394.728 
L 87.822788 1394.728 
L 93.855577 1394.728 
L 105.921154 1394.728 
L 709.2 90.64419 
" clip-path="url(#pa1a17d825c)" style="fill: none; stroke: #ff8c00; stroke-width: 2; stroke-linecap: square"/>
   </g>
   <g id="line2d_40">
    <path d="M 81.79 1394.728 
L 83.794505 1394.728 
L 85.79901 1394.728 
L 93.817029 1394.728 
L 99.830543 1394.728 
L 103.839553 1394.728 
L 127.89361 1394.728 
L 709.2 90.64419 
" clip-path="url(#pa1a17d825c)" style="fill: none; stroke: #ff8c00; stroke-width: 2; stroke-linecap: square"/>
   </g>
   <g id="line2d_41">
    <path d="M 81.79 1394.728 
L 83.794505 1394.728 
L 91.812524 1394.728 
L 99.830543 1394.728 
L 109.853067 1394.728 
L 115.866581 1394.728 
L 129.898115 1394.728 
L 709.2 90.64419 
" clip-path="url(#pa1a17d825c)" style="fill: none; stroke: #ff8c00; stroke-width: 2; stroke-linecap: square"/>
   </g>
   <g id="line2d_42">
    <path d="M 81.79 1394.728 
L 87.822788 1394.728 
L 89.833718 1394.728 
L 709.2 90.64419 
" clip-path="url(#pa1a17d825c)" style="fill: none; stroke: #ff8c00; stroke-width: 2; stroke-linecap: square"/>
   </g>
   <g id="line2d_43">
    <path d="M 81.79 1394.728 
L 83.794505 1394.728 
L 709.2 90.64419 
" clip-path="url(#pa1a17d825c)" style="fill: none; stroke: #ff8c00; stroke-width: 2; stroke-linecap: square"/>
   </g>
   <g id="line2d_44">
    <path d="M 81.79 1394.728 
L 83.800929 1394.728 
L 89.833718 1394.728 
L 91.844647 1394.728 
L 95.866506 1394.728 
L 101.899295 1394.728 
L 101.899295 90.64419 
L 109.943013 90.64419 
L 119.99766 90.64419 
L 709.2 90.64419 
" clip-path="url(#pa1a17d825c)" style="fill: none; stroke: #ff8c00; stroke-width: 2; stroke-linecap: square"/>
   </g>
   <g id="line2d_45">
    <path d="M 81.79 1394.728 
L 83.794505 1394.728 
L 91.812524 1394.728 
L 95.821534 1394.728 
L 105.844058 1394.728 
L 113.862077 1394.728 
L 115.866581 1394.728 
L 123.884601 1394.728 
L 125.889105 1394.728 
L 131.90262 1394.728 
L 709.2 90.64419 
" clip-path="url(#pa1a17d825c)" style="fill: none; stroke: #ff8c00; stroke-width: 2; stroke-linecap: square"/>
   </g>
   <g id="line2d_46">
    <path d="M 81.79 1394.728 
L 85.79901 1394.728 
L 95.821534 1394.728 
L 99.830543 1394.728 
L 101.835048 1394.728 
L 107.848562 1394.728 
L 129.898115 90.64419 
L 709.2 90.64419 
" clip-path="url(#pa1a17d825c)" style="fill: none; stroke: #ff8c00; stroke-width: 2; stroke-linecap: square"/>
   </g>
   <g id="line2d_47">
    <path d="M 81.79 1394.728 
L 83.794505 1394.728 
L 89.808019 1394.728 
L 93.817029 1394.728 
L 117.871086 1394.728 
L 709.2 90.64419 
" clip-path="url(#pa1a17d825c)" style="fill: none; stroke: #ff8c00; stroke-width: 2; stroke-linecap: square"/>
   </g>
   <g id="line2d_48">
    <path d="M 81.79 1394.728 
L 83.800929 1394.728 
L 95.866506 1394.728 
L 107.932083 1394.728 
L 709.2 90.64419 
" clip-path="url(#pa1a17d825c)" style="fill: none; stroke: #ff8c00; stroke-width: 2; stroke-linecap: square"/>
   </g>
   <g id="line2d_49">
    <path d="M 81.79 1394.728 
L 83.794505 1394.728 
L 85.79901 1394.728 
L 89.808019 1394.728 
L 97.826038 1394.728 
L 101.835048 1394.728 
L 107.848562 1394.728 
L 115.866581 1394.728 
L 137.916134 1394.728 
L 147.938658 1394.728 
L 709.2 90.64419 
" clip-path="url(#pa1a17d825c)" style="fill: none; stroke: #ff8c00; stroke-width: 2; stroke-linecap: square"/>
   </g>
   <g id="line2d_50">
    <path d="M 81.79 1394.728 
L 83.800929 1394.728 
L 87.822788 1394.728 
L 89.833718 1394.728 
L 93.855577 1394.728 
L 105.921154 1394.728 
L 709.2 90.64419 
" clip-path="url(#pa1a17d825c)" style="fill: none; stroke: #ff8c00; stroke-width: 2; stroke-linecap: square"/>
   </g>
   <g id="line2d_51">
    <path d="M 81.79 1394.728 
L 83.794505 1394.728 
L 91.812524 1394.728 
L 103.839553 1394.728 
L 709.2 90.64419 
" clip-path="url(#pa1a17d825c)" style="fill: none; stroke: #ff8c00; stroke-width: 2; stroke-linecap: square"/>
   </g>
   <g id="line2d_52">
    <path d="M 81.79 1394.728 
L 85.79901 1394.728 
L 87.803514 1394.728 
L 91.812524 1394.728 
L 99.830543 1394.728 
L 109.853067 1394.728 
L 111.857572 1394.728 
L 117.871086 1394.728 
L 121.880096 1394.728 
L 135.911629 1394.728 
L 709.2 90.64419 
" clip-path="url(#pa1a17d825c)" style="fill: none; stroke: #ff8c00; stroke-width: 2; stroke-linecap: square"/>
   </g>
   <g id="line2d_53">
    <path d="M 81.79 1394.728 
L 83.807395 1394.728 
L 99.946559 1394.728 
L 103.98135 1394.728 
L 110.033537 1394.728 
L 120.120514 1394.728 
L 142.311865 1394.728 
L 709.2 90.64419 
" clip-path="url(#pa1a17d825c)" style="fill: none; stroke: #ff8c00; stroke-width: 2; stroke-linecap: square"/>
   </g>
   <g id="line2d_54">
    <path d="M 81.79 1394.728 
L 83.794505 1394.728 
L 87.803514 1394.728 
L 107.848562 1394.728 
L 115.866581 90.64419 
L 133.907125 90.64419 
L 709.2 90.64419 
" clip-path="url(#pa1a17d825c)" style="fill: none; stroke: #ff8c00; stroke-width: 2; stroke-linecap: square"/>
   </g>
   <g id="line2d_55">
    <path d="M 81.79 1394.728 
L 83.807395 1394.728 
L 95.911768 1394.728 
L 101.963955 1394.728 
L 110.033537 1394.728 
L 709.2 90.64419 
" clip-path="url(#pa1a17d825c)" style="fill: none; stroke: #ff8c00; stroke-width: 2; stroke-linecap: square"/>
   </g>
   <g id="line2d_56">
    <path d="M 81.79 1394.728 
L 83.800929 1394.728 
L 87.822788 1394.728 
L 89.833718 1394.728 
L 709.2 90.64419 
" clip-path="url(#pa1a17d825c)" style="fill: none; stroke: #ff8c00; stroke-width: 2; stroke-linecap: square"/>
   </g>
   <g id="line2d_57">
    <path d="M 81.79 1394.728 
L 83.794505 1394.728 
L 87.803514 1394.728 
L 709.2 90.64419 
" clip-path="url(#pa1a17d825c)" style="fill: none; stroke: #ff8c00; stroke-width: 2; stroke-linecap: square"/>
   </g>
   <g id="line2d_58">
    <path d="M 81.79 1394.728 
L 83.807395 1394.728 
L 103.98135 1394.728 
L 108.016141 1394.728 
L 110.033537 1394.728 
L 709.2 90.64419 
" clip-path="url(#pa1a17d825c)" style="fill: none; stroke: #ff8c00; stroke-width: 2; stroke-linecap: square"/>
   </g>
   <g id="line2d_59">
    <path d="M 81.79 1394.728 
L 83.794505 1394.728 
L 89.808019 1394.728 
L 709.2 90.64419 
" clip-path="url(#pa1a17d825c)" style="fill: none; stroke: #ff8c00; stroke-width: 2; stroke-linecap: square"/>
   </g>
   <g id="line2d_60">
    <path d="M 81.79 1394.728 
L 85.79901 1394.728 
L 89.808019 1394.728 
L 95.821534 1394.728 
L 99.830543 1394.728 
L 101.835048 1394.728 
L 113.862077 1394.728 
L 709.2 90.64419 
" clip-path="url(#pa1a17d825c)" style="fill: none; stroke: #ff8c00; stroke-width: 2; stroke-linecap: square"/>
   </g>
   <g id="line2d_61">
    <path d="M 81.79 1394.728 
L 83.807395 1394.728 
L 87.842186 1394.728 
L 709.2 90.64419 
" clip-path="url(#pa1a17d825c)" style="fill: none; stroke: #ff8c00; stroke-width: 2; stroke-linecap: square"/>
   </g>
   <g id="line2d_62">
    <path d="M 81.79 1394.728 
L 83.794505 1394.728 
L 85.79901 1394.728 
L 89.808019 1394.728 
L 709.2 90.64419 
" clip-path="url(#pa1a17d825c)" style="fill: none; stroke: #ff8c00; stroke-width: 2; stroke-linecap: square"/>
   </g>
   <g id="line2d_63">
    <path d="M 81.79 1394.728 
L 83.800929 1394.728 
L 85.811859 1394.728 
L 89.833718 1394.728 
L 91.844647 1394.728 
L 709.2 90.64419 
" clip-path="url(#pa1a17d825c)" style="fill: none; stroke: #ff8c00; stroke-width: 2; stroke-linecap: square"/>
   </g>
   <g id="line2d_64">
    <path d="M 81.79 1394.728 
L 87.822788 1394.728 
L 95.866506 1394.728 
L 99.888365 1394.728 
L 113.964872 742.686095 
L 709.2 90.64419 
" clip-path="url(#pa1a17d825c)" style="fill: none; stroke: #ff8c00; stroke-width: 2; stroke-linecap: square"/>
   </g>
   <g id="line2d_65">
    <path d="M 81.79 1394.728 
L 83.794505 1394.728 
L 99.830543 1394.728 
L 103.839553 1394.728 
L 105.844058 1394.728 
L 109.853067 1394.728 
L 111.857572 1394.728 
L 115.866581 1394.728 
L 709.2 90.64419 
" clip-path="url(#pa1a17d825c)" style="fill: none; stroke: #ff8c00; stroke-width: 2; stroke-linecap: square"/>
   </g>
   <g id="line2d_66">
    <path d="M 81.79 1394.728 
L 83.794505 1394.728 
L 93.817029 1394.728 
L 101.835048 1394.728 
L 709.2 90.64419 
" clip-path="url(#pa1a17d825c)" style="fill: none; stroke: #ff8c00; stroke-width: 2; stroke-linecap: square"/>
   </g>
   <g id="line2d_67">
    <path d="M 81.79 1394.728 
L 83.800929 1394.728 
L 91.844647 1394.728 
L 99.888365 1394.728 
L 105.921154 1394.728 
L 111.953942 1394.728 
L 124.019519 1394.728 
L 709.2 90.64419 
" clip-path="url(#pa1a17d825c)" style="fill: none; stroke: #ff8c00; stroke-width: 2; stroke-linecap: square"/>
   </g>
   <g id="line2d_68">
    <path d="M 81.79 1394.728 
L 85.811859 1394.728 
L 93.855577 1394.728 
L 101.899295 1394.728 
L 103.910224 1394.728 
L 709.2 90.64419 
" clip-path="url(#pa1a17d825c)" style="fill: none; stroke: #ff8c00; stroke-width: 2; stroke-linecap: square"/>
   </g>
   <g id="line2d_69">
    <path d="M 81.79 1394.728 
L 83.800929 1394.728 
L 87.822788 1394.728 
L 93.855577 1394.728 
L 97.877436 1394.728 
L 103.910224 1394.728 
L 111.953942 1394.728 
L 117.986731 1394.728 
L 132.063237 1394.728 
L 709.2 90.64419 
" clip-path="url(#pa1a17d825c)" style="fill: none; stroke: #ff8c00; stroke-width: 2; stroke-linecap: square"/>
   </g>
   <g id="line2d_70">
    <path d="M 81.79 1394.728 
L 87.803514 1394.728 
L 89.808019 1394.728 
L 93.817029 1394.728 
L 103.839553 1394.728 
L 121.880096 1394.728 
L 709.2 90.64419 
" clip-path="url(#pa1a17d825c)" style="fill: none; stroke: #ff8c00; stroke-width: 2; stroke-linecap: square"/>
   </g>
   <g id="line2d_71">
    <path d="M 81.79 1394.728 
L 83.800929 1394.728 
L 89.833718 1394.728 
L 93.855577 1394.728 
L 709.2 90.64419 
" clip-path="url(#pa1a17d825c)" style="fill: none; stroke: #ff8c00; stroke-width: 2; stroke-linecap: square"/>
   </g>
   <g id="line2d_72">
    <path d="M 81.79 1394.728 
L 83.794505 1394.728 
L 89.808019 1394.728 
L 93.817029 1394.728 
L 99.830543 1394.728 
L 111.857572 1394.728 
L 121.880096 1394.728 
L 709.2 90.64419 
" clip-path="url(#pa1a17d825c)" style="fill: none; stroke: #ff8c00; stroke-width: 2; stroke-linecap: square"/>
   </g>
   <g id="line2d_73">
    <path d="M 81.79 1394.728 
L 83.800929 1394.728 
L 89.833718 1394.728 
L 89.833718 742.686095 
L 95.866506 742.686095 
L 97.877436 742.686095 
L 101.899295 90.64419 
L 109.943013 90.64419 
L 709.2 90.64419 
" clip-path="url(#pa1a17d825c)" style="fill: none; stroke: #ff8c00; stroke-width: 2; stroke-linecap: square"/>
   </g>
   <g id="line2d_74">
    <path d="M 81.79 1394.728 
L 83.794505 1394.728 
L 87.803514 1394.728 
L 89.808019 1394.728 
L 93.817029 1394.728 
L 105.844058 1394.728 
L 129.898115 1394.728 
L 145.934153 1394.728 
L 709.2 90.64419 
" clip-path="url(#pa1a17d825c)" style="fill: none; stroke: #ff8c00; stroke-width: 2; stroke-linecap: square"/>
   </g>
   <g id="line2d_75">
    <path d="M 81.79 1394.728 
L 83.807395 1394.728 
L 89.859582 1394.728 
L 93.894373 1394.728 
L 97.929164 1394.728 
L 103.98135 1394.728 
L 108.016141 960.033397 
L 114.068328 525.338794 
L 709.2 90.64419 
" clip-path="url(#pa1a17d825c)" style="fill: none; stroke: #ff8c00; stroke-width: 2; stroke-linecap: square"/>
   </g>
   <g id="line2d_76">
    <path d="M 81.79 1394.728 
L 83.794505 1394.728 
L 91.812524 1394.728 
L 95.821534 1394.728 
L 103.839553 1394.728 
L 113.862077 1394.728 
L 709.2 90.64419 
" clip-path="url(#pa1a17d825c)" style="fill: none; stroke: #ff8c00; stroke-width: 2; stroke-linecap: square"/>
   </g>
   <g id="line2d_77">
    <path d="M 81.79 1394.728 
L 83.794505 1394.728 
L 101.835048 1394.728 
L 111.857572 1394.728 
L 115.866581 1394.728 
L 117.871086 1394.728 
L 123.884601 1394.728 
L 133.907125 1394.728 
L 709.2 90.64419 
" clip-path="url(#pa1a17d825c)" style="fill: none; stroke: #ff8c00; stroke-width: 2; stroke-linecap: square"/>
   </g>
   <g id="line2d_78">
    <path d="M 81.79 1394.728 
L 83.794505 1394.728 
L 87.803514 1394.728 
L 91.812524 1394.728 
L 97.826038 1394.728 
L 111.857572 1394.728 
L 709.2 90.64419 
" clip-path="url(#pa1a17d825c)" style="fill: none; stroke: #ff8c00; stroke-width: 2; stroke-linecap: square"/>
   </g>
   <g id="line2d_79">
    <path d="M 81.79 1394.728 
L 81.79 90.64419 
L 85.79901 90.64419 
L 89.808019 90.64419 
L 93.817029 90.64419 
L 97.826038 90.64419 
L 99.830543 90.64419 
L 103.839553 90.64419 
L 111.857572 90.64419 
L 115.866581 90.64419 
L 127.89361 90.64419 
L 141.925144 90.64419 
L 709.2 90.64419 
" clip-path="url(#pa1a17d825c)" style="fill: none; stroke: #ff8c00; stroke-width: 2; stroke-linecap: square"/>
   </g>
   <g id="line2d_80">
    <path d="M 81.79 1394.728 
L 85.79901 1394.728 
L 89.808019 1394.728 
L 93.817029 1394.728 
L 99.830543 1394.728 
L 105.844058 1394.728 
L 113.862077 1394.728 
L 709.2 90.64419 
" clip-path="url(#pa1a17d825c)" style="fill: none; stroke: #ff8c00; stroke-width: 2; stroke-linecap: square"/>
   </g>
   <g id="line2d_81">
    <path d="M 81.79 1394.728 
L 85.811859 1394.728 
L 91.844647 1394.728 
L 95.866506 1394.728 
L 709.2 90.64419 
" clip-path="url(#pa1a17d825c)" style="fill: none; stroke: #ff8c00; stroke-width: 2; stroke-linecap: square"/>
   </g>
   <g id="line2d_82">
    <path d="M 81.79 1394.728 
L 83.807395 1394.728 
L 87.842186 1394.728 
L 97.929164 1394.728 
L 101.963955 1394.728 
L 103.98135 1394.728 
L 118.103119 1394.728 
L 709.2 90.64419 
" clip-path="url(#pa1a17d825c)" style="fill: none; stroke: #ff8c00; stroke-width: 2; stroke-linecap: square"/>
   </g>
   <g id="line2d_83">
    <path d="M 81.79 1394.728 
L 83.800929 1394.728 
L 87.822788 1394.728 
L 93.855577 1394.728 
L 709.2 90.64419 
" clip-path="url(#pa1a17d825c)" style="fill: none; stroke: #ff8c00; stroke-width: 2; stroke-linecap: square"/>
   </g>
   <g id="line2d_84">
    <path d="M 81.79 1394.728 
L 85.79901 1394.728 
L 93.817029 1394.728 
L 99.830543 1394.728 
L 107.848562 1394.728 
L 709.2 90.64419 
" clip-path="url(#pa1a17d825c)" style="fill: none; stroke: #ff8c00; stroke-width: 2; stroke-linecap: square"/>
   </g>
   <g id="line2d_85">
    <path d="M 81.79 1394.728 
L 83.800929 1394.728 
L 91.844647 1394.728 
L 95.866506 1394.728 
L 109.943013 1394.728 
L 122.00859 1394.728 
L 709.2 90.64419 
" clip-path="url(#pa1a17d825c)" style="fill: none; stroke: #ff8c00; stroke-width: 2; stroke-linecap: square"/>
   </g>
   <g id="line2d_86">
    <path d="M 81.79 1394.728 
L 83.800929 1394.728 
L 87.822788 1394.728 
L 93.855577 1394.728 
L 97.877436 1394.728 
L 99.888365 1394.728 
L 107.932083 1394.728 
L 115.975801 1394.728 
L 130.052308 1394.728 
L 709.2 90.64419 
" clip-path="url(#pa1a17d825c)" style="fill: none; stroke: #ff8c00; stroke-width: 2; stroke-linecap: square"/>
   </g>
   <g id="line2d_87">
    <path d="M 81.79 1394.728 
L 83.794505 1394.728 
L 87.803514 1394.728 
L 91.812524 1394.728 
L 93.817029 1394.728 
L 97.826038 1394.728 
L 99.830543 1394.728 
L 121.880096 1394.728 
L 709.2 90.64419 
" clip-path="url(#pa1a17d825c)" style="fill: none; stroke: #ff8c00; stroke-width: 2; stroke-linecap: square"/>
   </g>
   <g id="line2d_88">
    <path d="M 81.79 1394.728 
L 83.800929 1394.728 
L 85.811859 1394.728 
L 93.855577 1394.728 
L 99.888365 1394.728 
L 103.910224 1394.728 
L 109.943013 1394.728 
L 709.2 90.64419 
" clip-path="url(#pa1a17d825c)" style="fill: none; stroke: #ff8c00; stroke-width: 2; stroke-linecap: square"/>
   </g>
   <g id="line2d_89">
    <path d="M 81.79 1394.728 
L 83.800929 1394.728 
L 85.811859 1394.728 
L 91.844647 1394.728 
L 93.855577 1394.728 
L 107.932083 1394.728 
L 709.2 90.64419 
" clip-path="url(#pa1a17d825c)" style="fill: none; stroke: #ff8c00; stroke-width: 2; stroke-linecap: square"/>
   </g>
   <g id="line2d_90">
    <path d="M 81.79 1394.728 
L 83.794505 1394.728 
L 87.803514 1394.728 
L 91.812524 1394.728 
L 95.821534 1394.728 
L 107.848562 1394.728 
L 123.884601 1394.728 
L 709.2 90.64419 
" clip-path="url(#pa1a17d825c)" style="fill: none; stroke: #ff8c00; stroke-width: 2; stroke-linecap: square"/>
   </g>
   <g id="line2d_91">
    <path d="M 81.79 1394.728 
L 83.807395 1394.728 
L 85.824791 1394.728 
L 91.876977 1394.728 
L 95.911768 1394.728 
L 97.929164 1394.728 
L 114.068328 1394.728 
L 709.2 90.64419 
" clip-path="url(#pa1a17d825c)" style="fill: none; stroke: #ff8c00; stroke-width: 2; stroke-linecap: square"/>
   </g>
   <g id="line2d_92">
    <path d="M 81.79 1394.728 
L 83.794505 1394.728 
L 89.808019 1394.728 
L 93.817029 1394.728 
L 97.826038 1394.728 
L 105.844058 1394.728 
L 709.2 90.64419 
" clip-path="url(#pa1a17d825c)" style="fill: none; stroke: #ff8c00; stroke-width: 2; stroke-linecap: square"/>
   </g>
   <g id="line2d_93">
    <path d="M 81.79 1394.728 
L 83.800929 1394.728 
L 89.833718 1394.728 
L 91.844647 1394.728 
L 95.866506 1394.728 
L 97.877436 1394.728 
L 101.899295 1394.728 
L 117.986731 1394.728 
L 709.2 90.64419 
" clip-path="url(#pa1a17d825c)" style="fill: none; stroke: #ff8c00; stroke-width: 2; stroke-linecap: square"/>
   </g>
   <g id="line2d_94">
    <path d="M 81.79 1394.728 
L 85.79901 1394.728 
L 91.812524 1394.728 
L 103.839553 1394.728 
L 709.2 90.64419 
" clip-path="url(#pa1a17d825c)" style="fill: none; stroke: #ff8c00; stroke-width: 2; stroke-linecap: square"/>
   </g>
   <g id="line2d_95">
    <path d="M 81.79 1394.728 
L 83.794505 1394.728 
L 85.79901 1394.728 
L 91.812524 1394.728 
L 95.821534 1394.728 
L 105.844058 1394.728 
L 121.880096 1394.728 
L 135.911629 1394.728 
L 709.2 90.64419 
" clip-path="url(#pa1a17d825c)" style="fill: none; stroke: #ff8c00; stroke-width: 2; stroke-linecap: square"/>
   </g>
   <g id="line2d_96">
    <path d="M 81.79 1394.728 
L 83.794505 1394.728 
L 91.812524 1394.728 
L 97.826038 1394.728 
L 105.844058 1394.728 
L 109.853067 1394.728 
L 119.875591 1394.728 
L 151.947668 1394.728 
L 709.2 90.64419 
" clip-path="url(#pa1a17d825c)" style="fill: none; stroke: #ff8c00; stroke-width: 2; stroke-linecap: square"/>
   </g>
   <g id="line2d_97">
    <path d="M 81.79 1394.728 
L 85.811859 1394.728 
L 93.855577 1394.728 
L 97.877436 1394.728 
L 105.921154 1394.728 
L 107.932083 1394.728 
L 132.063237 1394.728 
L 709.2 90.64419 
" clip-path="url(#pa1a17d825c)" style="fill: none; stroke: #ff8c00; stroke-width: 2; stroke-linecap: square"/>
   </g>
   <g id="line2d_98">
    <path d="M 81.79 1394.728 
L 87.822788 1394.728 
L 95.866506 1394.728 
L 99.888365 1394.728 
L 709.2 90.64419 
" clip-path="url(#pa1a17d825c)" style="fill: none; stroke: #ff8c00; stroke-width: 2; stroke-linecap: square"/>
   </g>
   <g id="line2d_99">
    <path d="M 81.79 1394.728 
L 83.800929 1394.728 
L 85.811859 1394.728 
L 93.855577 1394.728 
L 709.2 90.64419 
" clip-path="url(#pa1a17d825c)" style="fill: none; stroke: #ff8c00; stroke-width: 2; stroke-linecap: square"/>
   </g>
   <g id="line2d_100">
    <path d="M 81.79 1394.728 
L 83.800929 1394.728 
L 87.822788 1394.728 
L 89.833718 1394.728 
L 97.877436 1394.728 
L 709.2 90.64419 
" clip-path="url(#pa1a17d825c)" style="fill: none; stroke: #ff8c00; stroke-width: 2; stroke-linecap: square"/>
   </g>
   <g id="line2d_101">
    <path d="M 81.79 1394.728 
L 709.2 90.64419 
" clip-path="url(#pa1a17d825c)" style="fill: none; stroke: #ff8c00; stroke-width: 2; stroke-linecap: square"/>
   </g>
   <g id="line2d_102">
    <path d="M 81.79 1394.728 
L 709.2 90.64419 
" clip-path="url(#pa1a17d825c)" style="fill: none; stroke: #ff8c00; stroke-width: 2; stroke-linecap: square"/>
   </g>
   <g id="line2d_103">
    <path d="M 81.79 1394.728 
L 85.824791 1394.728 
L 709.2 90.64419 
" clip-path="url(#pa1a17d825c)" style="fill: none; stroke: #ff8c00; stroke-width: 2; stroke-linecap: square"/>
   </g>
   <g id="line2d_104">
    <path d="M 81.79 1394.728 
L 85.79901 1394.728 
L 709.2 90.64419 
" clip-path="url(#pa1a17d825c)" style="fill: none; stroke: #ff8c00; stroke-width: 2; stroke-linecap: square"/>
   </g>
   <g id="line2d_105">
    <path d="M 81.79 1394.728 
L 85.811859 1394.728 
L 709.2 90.64419 
" clip-path="url(#pa1a17d825c)" style="fill: none; stroke: #ff8c00; stroke-width: 2; stroke-linecap: square"/>
   </g>
   <g id="line2d_106">
    <path d="M 81.79 1394.728 
L 83.794505 1394.728 
L 709.2 90.64419 
" clip-path="url(#pa1a17d825c)" style="fill: none; stroke: #ff8c00; stroke-width: 2; stroke-linecap: square"/>
   </g>
   <g id="line2d_107">
    <path d="M 81.79 1394.728 
L 85.79901 1394.728 
L 709.2 90.64419 
" clip-path="url(#pa1a17d825c)" style="fill: none; stroke: #ff8c00; stroke-width: 2; stroke-linecap: square"/>
   </g>
   <g id="line2d_108">
    <path d="M 81.79 1394.728 
L 85.811859 1394.728 
L 91.844647 1394.728 
L 709.2 90.64419 
" clip-path="url(#pa1a17d825c)" style="fill: none; stroke: #ff8c00; stroke-width: 2; stroke-linecap: square"/>
   </g>
   <g id="line2d_109">
    <path d="M 81.79 1394.728 
L 83.800929 1394.728 
L 709.2 90.64419 
" clip-path="url(#pa1a17d825c)" style="fill: none; stroke: #ff8c00; stroke-width: 2; stroke-linecap: square"/>
   </g>
   <g id="line2d_110">
    <path d="M 81.79 1394.728 
L 87.803514 1394.728 
L 89.808019 1394.728 
L 709.2 90.64419 
" clip-path="url(#pa1a17d825c)" style="fill: none; stroke: #ff8c00; stroke-width: 2; stroke-linecap: square"/>
   </g>
   <g id="line2d_111">
    <path d="M 81.79 1394.728 
L 83.800929 1394.728 
L 89.833718 1394.728 
L 709.2 90.64419 
" clip-path="url(#pa1a17d825c)" style="fill: none; stroke: #ff8c00; stroke-width: 2; stroke-linecap: square"/>
   </g>
   <g id="line2d_112">
    <path d="M 81.79 1394.728 
L 85.811859 1394.728 
L 95.866506 1394.728 
L 101.899295 1394.728 
L 105.921154 1394.728 
L 130.052308 1394.728 
L 709.2 90.64419 
" clip-path="url(#pa1a17d825c)" style="fill: none; stroke: #ff8c00; stroke-width: 2; stroke-linecap: square"/>
   </g>
   <g id="line2d_113">
    <path d="M 81.79 1394.728 
L 83.794505 1394.728 
L 709.2 90.64419 
" clip-path="url(#pa1a17d825c)" style="fill: none; stroke: #ff8c00; stroke-width: 2; stroke-linecap: square"/>
   </g>
   <g id="line2d_114">
    <path d="M 81.79 1394.728 
L 83.794505 1394.728 
L 709.2 90.64419 
" clip-path="url(#pa1a17d825c)" style="fill: none; stroke: #ff8c00; stroke-width: 2; stroke-linecap: square"/>
   </g>
   <g id="line2d_115">
    <path d="M 81.79 1394.728 
L 87.803514 1394.728 
L 709.2 90.64419 
" clip-path="url(#pa1a17d825c)" style="fill: none; stroke: #ff8c00; stroke-width: 2; stroke-linecap: square"/>
   </g>
   <g id="line2d_116">
    <path d="M 81.79 1394.728 
L 83.794505 1394.728 
L 87.803514 1394.728 
L 89.808019 1394.728 
L 103.839553 1394.728 
L 709.2 90.64419 
" clip-path="url(#pa1a17d825c)" style="fill: none; stroke: #ff8c00; stroke-width: 2; stroke-linecap: square"/>
   </g>
   <g id="line2d_117">
    <path d="M 81.79 1394.728 
L 83.800929 1394.728 
L 89.833718 1394.728 
L 95.866506 1394.728 
L 709.2 90.64419 
" clip-path="url(#pa1a17d825c)" style="fill: none; stroke: #ff8c00; stroke-width: 2; stroke-linecap: square"/>
   </g>
   <g id="line2d_118">
    <path d="M 81.79 1394.728 
L 85.811859 1394.728 
L 709.2 90.64419 
" clip-path="url(#pa1a17d825c)" style="fill: none; stroke: #ff8c00; stroke-width: 2; stroke-linecap: square"/>
   </g>
   <g id="line2d_119">
    <path d="M 81.79 1394.728 
L 85.811859 1394.728 
L 709.2 90.64419 
" clip-path="url(#pa1a17d825c)" style="fill: none; stroke: #ff8c00; stroke-width: 2; stroke-linecap: square"/>
   </g>
   <g id="line2d_120">
    <path d="M 81.79 1394.728 
L 85.824791 1394.728 
L 93.894373 1394.728 
L 97.929164 1394.728 
L 105.998746 1394.728 
L 114.068328 1394.728 
L 124.155305 1394.728 
L 709.2 90.64419 
" clip-path="url(#pa1a17d825c)" style="fill: none; stroke: #ff8c00; stroke-width: 2; stroke-linecap: square"/>
   </g>
   <g id="line2d_121">
    <path d="M 81.79 1394.728 
L 85.811859 1394.728 
L 709.2 90.64419 
" clip-path="url(#pa1a17d825c)" style="fill: none; stroke: #ff8c00; stroke-width: 2; stroke-linecap: square"/>
   </g>
   <g id="line2d_122">
    <path d="M 81.79 1394.728 
L 85.79901 1394.728 
L 709.2 90.64419 
" clip-path="url(#pa1a17d825c)" style="fill: none; stroke: #ff8c00; stroke-width: 2; stroke-linecap: square"/>
   </g>
   <g id="line2d_123">
    <path d="M 81.79 1394.728 
L 709.2 90.64419 
" clip-path="url(#pa1a17d825c)" style="fill: none; stroke: #ff8c00; stroke-width: 2; stroke-linecap: square"/>
   </g>
   <g id="line2d_124">
    <path d="M 81.79 1394.728 
L 87.803514 1394.728 
L 91.812524 1394.728 
L 99.830543 1394.728 
L 113.862077 1394.728 
L 709.2 90.64419 
" clip-path="url(#pa1a17d825c)" style="fill: none; stroke: #ff8c00; stroke-width: 2; stroke-linecap: square"/>
   </g>
   <g id="line2d_125">
    <path d="M 81.79 1394.728 
L 85.811859 1394.728 
L 87.822788 1394.728 
L 91.844647 1394.728 
L 93.855577 1394.728 
L 101.899295 1394.728 
L 103.910224 1394.728 
L 107.932083 1394.728 
L 109.943013 1394.728 
L 113.964872 1394.728 
L 709.2 90.64419 
" clip-path="url(#pa1a17d825c)" style="fill: none; stroke: #ff8c00; stroke-width: 2; stroke-linecap: square"/>
   </g>
   <g id="line2d_126">
    <path d="M 81.79 1394.728 
L 87.803514 1394.728 
L 95.821534 1394.728 
L 97.826038 1394.728 
L 709.2 90.64419 
" clip-path="url(#pa1a17d825c)" style="fill: none; stroke: #ff8c00; stroke-width: 2; stroke-linecap: square"/>
   </g>
   <g id="line2d_127">
    <path d="M 81.79 1394.728 
L 83.800929 1394.728 
L 709.2 90.64419 
" clip-path="url(#pa1a17d825c)" style="fill: none; stroke: #ff8c00; stroke-width: 2; stroke-linecap: square"/>
   </g>
   <g id="line2d_128">
    <path d="M 81.79 1394.728 
L 85.79901 1394.728 
L 89.808019 1394.728 
L 93.817029 1394.728 
L 709.2 90.64419 
" clip-path="url(#pa1a17d825c)" style="fill: none; stroke: #ff8c00; stroke-width: 2; stroke-linecap: square"/>
   </g>
   <g id="line2d_129">
    <path d="M 81.79 1394.728 
L 709.2 90.64419 
" clip-path="url(#pa1a17d825c)" style="fill: none; stroke: #ff8c00; stroke-width: 2; stroke-linecap: square"/>
   </g>
   <g id="line2d_130">
    <path d="M 81.79 1394.728 
L 83.794505 1394.728 
L 709.2 90.64419 
" clip-path="url(#pa1a17d825c)" style="fill: none; stroke: #ff8c00; stroke-width: 2; stroke-linecap: square"/>
   </g>
   <g id="line2d_131">
    <path d="M 81.79 1394.728 
L 83.800929 1394.728 
L 87.822788 1394.728 
L 89.833718 1394.728 
L 95.866506 1394.728 
L 709.2 90.64419 
" clip-path="url(#pa1a17d825c)" style="fill: none; stroke: #ff8c00; stroke-width: 2; stroke-linecap: square"/>
   </g>
   <g id="line2d_132">
    <path d="M 81.79 1394.728 
L 85.79901 1394.728 
L 87.803514 1394.728 
L 91.812524 1394.728 
L 95.821534 1394.728 
L 101.835048 1394.728 
L 105.844058 1394.728 
L 107.848562 1394.728 
L 113.862077 1394.728 
L 709.2 90.64419 
" clip-path="url(#pa1a17d825c)" style="fill: none; stroke: #ff8c00; stroke-width: 2; stroke-linecap: square"/>
   </g>
   <g id="line2d_133">
    <path d="M 81.79 1394.728 
L 85.79901 1394.728 
L 95.821534 1394.728 
L 103.839553 1394.728 
L 709.2 90.64419 
" clip-path="url(#pa1a17d825c)" style="fill: none; stroke: #ff8c00; stroke-width: 2; stroke-linecap: square"/>
   </g>
   <g id="line2d_134">
    <path d="M 81.79 1394.728 
L 83.794505 1394.728 
L 709.2 90.64419 
" clip-path="url(#pa1a17d825c)" style="fill: none; stroke: #ff8c00; stroke-width: 2; stroke-linecap: square"/>
   </g>
   <g id="line2d_135">
    <path d="M 81.79 1394.728 
L 709.2 90.64419 
" clip-path="url(#pa1a17d825c)" style="fill: none; stroke: #ff8c00; stroke-width: 2; stroke-linecap: square"/>
   </g>
   <g id="line2d_136">
    <path d="M 81.79 1394.728 
L 85.811859 1394.728 
L 709.2 90.64419 
" clip-path="url(#pa1a17d825c)" style="fill: none; stroke: #ff8c00; stroke-width: 2; stroke-linecap: square"/>
   </g>
   <g id="line2d_137">
    <path d="M 81.79 1394.728 
L 85.811859 1394.728 
L 709.2 90.64419 
" clip-path="url(#pa1a17d825c)" style="fill: none; stroke: #ff8c00; stroke-width: 2; stroke-linecap: square"/>
   </g>
   <g id="line2d_138">
    <path d="M 81.79 1394.728 
L 83.794505 1394.728 
L 89.808019 1394.728 
L 93.817029 1394.728 
L 709.2 90.64419 
" clip-path="url(#pa1a17d825c)" style="fill: none; stroke: #ff8c00; stroke-width: 2; stroke-linecap: square"/>
   </g>
   <g id="line2d_139">
    <path d="M 81.79 1394.728 
L 83.807395 1394.728 
L 709.2 90.64419 
" clip-path="url(#pa1a17d825c)" style="fill: none; stroke: #ff8c00; stroke-width: 2; stroke-linecap: square"/>
   </g>
   <g id="line2d_140">
    <path d="M 81.79 1394.728 
L 83.800929 1394.728 
L 93.855577 1394.728 
L 101.899295 1394.728 
L 709.2 90.64419 
" clip-path="url(#pa1a17d825c)" style="fill: none; stroke: #ff8c00; stroke-width: 2; stroke-linecap: square"/>
   </g>
   <g id="line2d_141">
    <path d="M 81.79 1394.728 
L 83.794505 1394.728 
L 87.803514 1394.728 
L 89.808019 1394.728 
L 709.2 90.64419 
" clip-path="url(#pa1a17d825c)" style="fill: none; stroke: #ff8c00; stroke-width: 2; stroke-linecap: square"/>
   </g>
   <g id="line2d_142">
    <path d="M 81.79 1394.728 
L 85.79901 1394.728 
L 89.808019 1394.728 
L 91.812524 1394.728 
L 709.2 90.64419 
" clip-path="url(#pa1a17d825c)" style="fill: none; stroke: #ff8c00; stroke-width: 2; stroke-linecap: square"/>
   </g>
   <g id="line2d_143">
    <path d="M 81.79 1394.728 
L 85.811859 1394.728 
L 89.833718 1394.728 
L 709.2 90.64419 
" clip-path="url(#pa1a17d825c)" style="fill: none; stroke: #ff8c00; stroke-width: 2; stroke-linecap: square"/>
   </g>
   <g id="line2d_144">
    <path d="M 81.79 1394.728 
L 85.79901 1394.728 
L 89.808019 1394.728 
L 93.817029 1394.728 
L 95.821534 1394.728 
L 101.835048 1394.728 
L 105.844058 1394.728 
L 117.871086 1394.728 
L 709.2 90.64419 
" clip-path="url(#pa1a17d825c)" style="fill: none; stroke: #ff8c00; stroke-width: 2; stroke-linecap: square"/>
   </g>
   <g id="line2d_145">
    <path d="M 81.79 1394.728 
L 87.822788 1394.728 
L 91.844647 1394.728 
L 93.855577 1394.728 
L 93.855577 742.686095 
L 709.2 90.64419 
" clip-path="url(#pa1a17d825c)" style="fill: none; stroke: #ff8c00; stroke-width: 2; stroke-linecap: square"/>
   </g>
   <g id="line2d_146">
    <path d="M 81.79 1394.728 
L 85.811859 1394.728 
L 709.2 90.64419 
" clip-path="url(#pa1a17d825c)" style="fill: none; stroke: #ff8c00; stroke-width: 2; stroke-linecap: square"/>
   </g>
   <g id="line2d_147">
    <path d="M 81.79 1394.728 
L 83.794505 1394.728 
L 709.2 90.64419 
" clip-path="url(#pa1a17d825c)" style="fill: none; stroke: #ff8c00; stroke-width: 2; stroke-linecap: square"/>
   </g>
   <g id="line2d_148">
    <path d="M 81.79 1394.728 
L 709.2 90.64419 
" clip-path="url(#pa1a17d825c)" style="fill: none; stroke: #ff8c00; stroke-width: 2; stroke-linecap: square"/>
   </g>
   <g id="line2d_149">
    <path d="M 81.79 1394.728 
L 83.807395 1394.728 
L 85.824791 1394.728 
L 91.876977 1394.728 
L 93.894373 1394.728 
L 709.2 90.64419 
" clip-path="url(#pa1a17d825c)" style="fill: none; stroke: #ff8c00; stroke-width: 2; stroke-linecap: square"/>
   </g>
   <g id="line2d_150">
    <path d="M 81.79 1394.728 
L 87.803514 1394.728 
L 709.2 90.64419 
" clip-path="url(#pa1a17d825c)" style="fill: none; stroke: #ff8c00; stroke-width: 2; stroke-linecap: square"/>
   </g>
   <g id="line2d_151">
    <path d="M 81.79 1394.728 
L 83.794505 1394.728 
L 709.2 90.64419 
" clip-path="url(#pa1a17d825c)" style="fill: none; stroke: #ff8c00; stroke-width: 2; stroke-linecap: square"/>
   </g>
   <g id="line2d_152">
    <path d="M 81.79 1394.728 
L 83.794505 1394.728 
L 85.79901 1394.728 
L 89.808019 1394.728 
L 93.817029 1394.728 
L 101.835048 1394.728 
L 103.839553 1394.728 
L 111.857572 1394.728 
L 709.2 90.64419 
" clip-path="url(#pa1a17d825c)" style="fill: none; stroke: #ff8c00; stroke-width: 2; stroke-linecap: square"/>
   </g>
   <g id="line2d_153">
    <path d="M 81.79 1394.728 
L 85.811859 1394.728 
L 91.844647 1394.728 
L 93.855577 1394.728 
L 103.910224 1394.728 
L 709.2 90.64419 
" clip-path="url(#pa1a17d825c)" style="fill: none; stroke: #ff8c00; stroke-width: 2; stroke-linecap: square"/>
   </g>
   <g id="line2d_154">
    <path d="M 81.79 1394.728 
L 83.794505 1394.728 
L 89.808019 1394.728 
L 93.817029 1394.728 
L 101.835048 1394.728 
L 709.2 90.64419 
" clip-path="url(#pa1a17d825c)" style="fill: none; stroke: #ff8c00; stroke-width: 2; stroke-linecap: square"/>
   </g>
   <g id="line2d_155">
    <path d="M 81.79 1394.728 
L 85.824791 1394.728 
L 89.859582 1394.728 
L 93.894373 1394.728 
L 101.963955 1394.728 
L 118.103119 1394.728 
L 709.2 90.64419 
" clip-path="url(#pa1a17d825c)" style="fill: none; stroke: #ff8c00; stroke-width: 2; stroke-linecap: square"/>
   </g>
   <g id="line2d_156">
    <path d="M 81.79 1394.728 
L 83.800929 1394.728 
L 95.866506 1394.728 
L 101.899295 1394.728 
L 109.943013 1394.728 
L 119.99766 1394.728 
L 709.2 90.64419 
" clip-path="url(#pa1a17d825c)" style="fill: none; stroke: #ff8c00; stroke-width: 2; stroke-linecap: square"/>
   </g>
   <g id="line2d_157">
    <path d="M 81.79 1394.728 
L 83.800929 1394.728 
L 709.2 90.64419 
" clip-path="url(#pa1a17d825c)" style="fill: none; stroke: #ff8c00; stroke-width: 2; stroke-linecap: square"/>
   </g>
   <g id="line2d_158">
    <path d="M 81.79 1394.728 
L 709.2 90.64419 
" clip-path="url(#pa1a17d825c)" style="fill: none; stroke: #ff8c00; stroke-width: 2; stroke-linecap: square"/>
   </g>
   <g id="line2d_159">
    <path d="M 81.79 1394.728 
L 83.800929 1394.728 
L 87.822788 1394.728 
L 709.2 90.64419 
" clip-path="url(#pa1a17d825c)" style="fill: none; stroke: #ff8c00; stroke-width: 2; stroke-linecap: square"/>
   </g>
   <g id="line2d_160">
    <path d="M 81.79 1394.728 
L 83.794505 1394.728 
L 85.79901 1394.728 
L 709.2 90.64419 
" clip-path="url(#pa1a17d825c)" style="fill: none; stroke: #ff8c00; stroke-width: 2; stroke-linecap: square"/>
   </g>
   <g id="line2d_161">
    <path d="M 81.79 1394.728 
L 83.800929 1394.728 
L 91.844647 1394.728 
L 103.910224 1394.728 
L 709.2 90.64419 
" clip-path="url(#pa1a17d825c)" style="fill: none; stroke: #ff8c00; stroke-width: 2; stroke-linecap: square"/>
   </g>
   <g id="line2d_162">
    <path d="M 81.79 1394.728 
L 85.811859 1394.728 
L 709.2 90.64419 
" clip-path="url(#pa1a17d825c)" style="fill: none; stroke: #ff8c00; stroke-width: 2; stroke-linecap: square"/>
   </g>
   <g id="line2d_163">
    <path d="M 81.79 1394.728 
L 83.807395 1394.728 
L 91.876977 1394.728 
L 709.2 90.64419 
" clip-path="url(#pa1a17d825c)" style="fill: none; stroke: #ff8c00; stroke-width: 2; stroke-linecap: square"/>
   </g>
   <g id="line2d_164">
    <path d="M 81.79 1394.728 
L 83.794505 1394.728 
L 709.2 90.64419 
" clip-path="url(#pa1a17d825c)" style="fill: none; stroke: #ff8c00; stroke-width: 2; stroke-linecap: square"/>
   </g>
   <g id="line2d_165">
    <path d="M 81.79 1394.728 
L 83.794505 1394.728 
L 85.79901 1394.728 
L 91.812524 1394.728 
L 97.826038 1394.728 
L 101.835048 1394.728 
L 105.844058 90.64419 
L 709.2 90.64419 
" clip-path="url(#pa1a17d825c)" style="fill: none; stroke: #ff8c00; stroke-width: 2; stroke-linecap: square"/>
   </g>
   <g id="line2d_166">
    <path d="M 81.79 1394.728 
L 709.2 90.64419 
" clip-path="url(#pa1a17d825c)" style="fill: none; stroke: #ff8c00; stroke-width: 2; stroke-linecap: square"/>
   </g>
   <g id="line2d_167">
    <path d="M 81.79 1394.728 
L 83.807395 1394.728 
L 85.824791 1394.728 
L 709.2 90.64419 
" clip-path="url(#pa1a17d825c)" style="fill: none; stroke: #ff8c00; stroke-width: 2; stroke-linecap: square"/>
   </g>
   <g id="line2d_168">
    <path d="M 81.79 1394.728 
L 709.2 90.64419 
" clip-path="url(#pa1a17d825c)" style="fill: none; stroke: #ff8c00; stroke-width: 2; stroke-linecap: square"/>
   </g>
   <g id="line2d_169">
    <path d="M 81.79 1394.728 
L 85.811859 1394.728 
L 95.866506 1394.728 
L 709.2 90.64419 
" clip-path="url(#pa1a17d825c)" style="fill: none; stroke: #ff8c00; stroke-width: 2; stroke-linecap: square"/>
   </g>
   <g id="line2d_170">
    <path d="M 81.79 1394.728 
L 85.811859 1394.728 
L 709.2 90.64419 
" clip-path="url(#pa1a17d825c)" style="fill: none; stroke: #ff8c00; stroke-width: 2; stroke-linecap: square"/>
   </g>
   <g id="line2d_171">
    <path d="M 81.79 1394.728 
L 85.811859 1394.728 
L 87.822788 1394.728 
L 91.844647 1394.728 
L 97.877436 1394.728 
L 709.2 90.64419 
" clip-path="url(#pa1a17d825c)" style="fill: none; stroke: #ff8c00; stroke-width: 2; stroke-linecap: square"/>
   </g>
   <g id="line2d_172">
    <path d="M 81.79 1394.728 
L 85.811859 1394.728 
L 709.2 90.64419 
" clip-path="url(#pa1a17d825c)" style="fill: none; stroke: #ff8c00; stroke-width: 2; stroke-linecap: square"/>
   </g>
   <g id="line2d_173">
    <path d="M 81.79 1394.728 
L 83.794505 1394.728 
L 709.2 90.64419 
" clip-path="url(#pa1a17d825c)" style="fill: none; stroke: #ff8c00; stroke-width: 2; stroke-linecap: square"/>
   </g>
   <g id="line2d_174">
    <path d="M 81.79 1394.728 
L 87.803514 1394.728 
L 89.808019 1394.728 
L 95.821534 1394.728 
L 709.2 90.64419 
" clip-path="url(#pa1a17d825c)" style="fill: none; stroke: #ff8c00; stroke-width: 2; stroke-linecap: square"/>
   </g>
   <g id="line2d_175">
    <path d="M 81.79 1394.728 
L 85.79901 1394.728 
L 709.2 90.64419 
" clip-path="url(#pa1a17d825c)" style="fill: none; stroke: #ff8c00; stroke-width: 2; stroke-linecap: square"/>
   </g>
   <g id="line2d_176">
    <path d="M 81.79 1394.728 
L 709.2 90.64419 
" clip-path="url(#pa1a17d825c)" style="fill: none; stroke: #ff8c00; stroke-width: 2; stroke-linecap: square"/>
   </g>
   <g id="line2d_177">
    <path d="M 81.79 1394.728 
L 83.794505 1394.728 
L 97.826038 1394.728 
L 105.844058 1394.728 
L 709.2 90.64419 
" clip-path="url(#pa1a17d825c)" style="fill: none; stroke: #ff8c00; stroke-width: 2; stroke-linecap: square"/>
   </g>
   <g id="line2d_178">
    <path d="M 81.79 1394.728 
L 83.794505 1394.728 
L 89.808019 1394.728 
L 709.2 90.64419 
" clip-path="url(#pa1a17d825c)" style="fill: none; stroke: #ff8c00; stroke-width: 2; stroke-linecap: square"/>
   </g>
   <g id="line2d_179">
    <path d="M 81.79 1394.728 
L 85.811859 1394.728 
L 91.844647 1394.728 
L 709.2 90.64419 
" clip-path="url(#pa1a17d825c)" style="fill: none; stroke: #ff8c00; stroke-width: 2; stroke-linecap: square"/>
   </g>
   <g id="line2d_180">
    <path d="M 81.79 1394.728 
L 83.794505 1394.728 
L 85.79901 1394.728 
L 709.2 90.64419 
" clip-path="url(#pa1a17d825c)" style="fill: none; stroke: #ff8c00; stroke-width: 2; stroke-linecap: square"/>
   </g>
   <g id="line2d_181">
    <path d="M 81.79 1394.728 
L 83.794505 1394.728 
L 85.79901 1394.728 
L 89.808019 1394.728 
L 709.2 90.64419 
" clip-path="url(#pa1a17d825c)" style="fill: none; stroke: #ff8c00; stroke-width: 2; stroke-linecap: square"/>
   </g>
   <g id="line2d_182">
    <path d="M 81.79 1394.728 
L 85.79901 1394.728 
L 93.817029 1394.728 
L 709.2 90.64419 
" clip-path="url(#pa1a17d825c)" style="fill: none; stroke: #ff8c00; stroke-width: 2; stroke-linecap: square"/>
   </g>
   <g id="line2d_183">
    <path d="M 81.79 1394.728 
L 83.794505 1394.728 
L 87.803514 1394.728 
L 709.2 90.64419 
" clip-path="url(#pa1a17d825c)" style="fill: none; stroke: #ff8c00; stroke-width: 2; stroke-linecap: square"/>
   </g>
   <g id="line2d_184">
    <path d="M 81.79 1394.728 
L 85.811859 1394.728 
L 89.833718 1394.728 
L 99.888365 1394.728 
L 709.2 90.64419 
" clip-path="url(#pa1a17d825c)" style="fill: none; stroke: #ff8c00; stroke-width: 2; stroke-linecap: square"/>
   </g>
   <g id="line2d_185">
    <path d="M 81.79 1394.728 
L 87.822788 1394.728 
L 93.855577 1394.728 
L 709.2 90.64419 
" clip-path="url(#pa1a17d825c)" style="fill: none; stroke: #ff8c00; stroke-width: 2; stroke-linecap: square"/>
   </g>
   <g id="line2d_186">
    <path d="M 81.79 1394.728 
L 83.807395 1394.728 
L 95.911768 1394.728 
L 709.2 90.64419 
" clip-path="url(#pa1a17d825c)" style="fill: none; stroke: #ff8c00; stroke-width: 2; stroke-linecap: square"/>
   </g>
   <g id="line2d_187">
    <path d="M 81.79 1394.728 
L 83.794505 1394.728 
L 709.2 90.64419 
" clip-path="url(#pa1a17d825c)" style="fill: none; stroke: #ff8c00; stroke-width: 2; stroke-linecap: square"/>
   </g>
   <g id="line2d_188">
    <path d="M 81.79 1394.728 
L 83.794505 1394.728 
L 87.803514 1394.728 
L 95.821534 1394.728 
L 709.2 90.64419 
" clip-path="url(#pa1a17d825c)" style="fill: none; stroke: #ff8c00; stroke-width: 2; stroke-linecap: square"/>
   </g>
   <g id="line2d_189">
    <path d="M 81.79 1394.728 
L 85.811859 1394.728 
L 89.833718 1394.728 
L 709.2 90.64419 
" clip-path="url(#pa1a17d825c)" style="fill: none; stroke: #ff8c00; stroke-width: 2; stroke-linecap: square"/>
   </g>
   <g id="line2d_190">
    <path d="M 81.79 1394.728 
L 83.794505 1394.728 
L 85.79901 1394.728 
L 709.2 90.64419 
" clip-path="url(#pa1a17d825c)" style="fill: none; stroke: #ff8c00; stroke-width: 2; stroke-linecap: square"/>
   </g>
   <g id="line2d_191">
    <path d="M 81.79 1394.728 
L 87.803514 1394.728 
L 89.808019 1394.728 
L 709.2 90.64419 
" clip-path="url(#pa1a17d825c)" style="fill: none; stroke: #ff8c00; stroke-width: 2; stroke-linecap: square"/>
   </g>
   <g id="line2d_192">
    <path d="M 81.79 1394.728 
L 87.822788 1394.728 
L 89.833718 1394.728 
L 709.2 90.64419 
" clip-path="url(#pa1a17d825c)" style="fill: none; stroke: #ff8c00; stroke-width: 2; stroke-linecap: square"/>
   </g>
   <g id="line2d_193">
    <path d="M 81.79 1394.728 
L 85.79901 1394.728 
L 709.2 90.64419 
" clip-path="url(#pa1a17d825c)" style="fill: none; stroke: #ff8c00; stroke-width: 2; stroke-linecap: square"/>
   </g>
   <g id="line2d_194">
    <path d="M 81.79 1394.728 
L 83.794505 1394.728 
L 85.79901 1394.728 
L 709.2 90.64419 
" clip-path="url(#pa1a17d825c)" style="fill: none; stroke: #ff8c00; stroke-width: 2; stroke-linecap: square"/>
   </g>
   <g id="line2d_195">
    <path d="M 81.79 1394.728 
L 83.794505 1394.728 
L 85.79901 1394.728 
L 709.2 90.64419 
" clip-path="url(#pa1a17d825c)" style="fill: none; stroke: #ff8c00; stroke-width: 2; stroke-linecap: square"/>
   </g>
   <g id="line2d_196">
    <path d="M 81.79 1394.728 
L 85.824791 1394.728 
L 89.859582 1394.728 
L 93.894373 1394.728 
L 709.2 90.64419 
" clip-path="url(#pa1a17d825c)" style="fill: none; stroke: #ff8c00; stroke-width: 2; stroke-linecap: square"/>
   </g>
   <g id="line2d_197">
    <path d="M 81.79 1394.728 
L 85.824791 1394.728 
L 89.859582 1394.728 
L 91.876977 1394.728 
L 709.2 90.64419 
" clip-path="url(#pa1a17d825c)" style="fill: none; stroke: #ff8c00; stroke-width: 2; stroke-linecap: square"/>
   </g>
   <g id="line2d_198">
    <path d="M 81.79 1394.728 
L 85.811859 1394.728 
L 85.811859 742.686095 
L 87.822788 742.686095 
L 91.844647 742.686095 
L 97.877436 742.686095 
L 709.2 90.64419 
" clip-path="url(#pa1a17d825c)" style="fill: none; stroke: #ff8c00; stroke-width: 2; stroke-linecap: square"/>
   </g>
   <g id="line2d_199">
    <path d="M 81.79 1394.728 
L 83.807395 1394.728 
L 85.824791 1394.728 
L 709.2 90.64419 
" clip-path="url(#pa1a17d825c)" style="fill: none; stroke: #ff8c00; stroke-width: 2; stroke-linecap: square"/>
   </g>
   <g id="line2d_200">
    <path d="M 81.79 1394.728 
L 709.2 90.64419 
" clip-path="url(#pa1a17d825c)" style="fill: none; stroke: #ff8c00; stroke-width: 2; stroke-linecap: square"/>
   </g>
   <g id="line2d_201">
    <path d="M 81.79 1394.728 
L 85.79901 1394.728 
L 91.812524 1394.728 
L 709.2 90.64419 
" clip-path="url(#pa1a17d825c)" style="fill: none; stroke: #ff8c00; stroke-width: 2; stroke-linecap: square"/>
   </g>
   <g id="line2d_202">
    <path d="M 81.79 1394.728 
L 709.2 90.64419 
" clip-path="url(#pa1a17d825c)" style="fill: none; stroke: #ff8c00; stroke-width: 2; stroke-linecap: square"/>
   </g>
   <g id="line2d_203">
    <path d="M 81.79 1394.728 
L 85.811859 1394.728 
L 91.844647 1394.728 
L 99.888365 1394.728 
L 709.2 90.64419 
" clip-path="url(#pa1a17d825c)" style="fill: none; stroke: #ff8c00; stroke-width: 2; stroke-linecap: square"/>
   </g>
   <g id="line2d_204">
    <path d="M 81.79 1394.728 
L 87.822788 1394.728 
L 95.866506 1394.728 
L 709.2 90.64419 
" clip-path="url(#pa1a17d825c)" style="fill: none; stroke: #ff8c00; stroke-width: 2; stroke-linecap: square"/>
   </g>
   <g id="line2d_205">
    <path d="M 81.79 1394.728 
L 83.800929 1394.728 
L 89.833718 1394.728 
L 709.2 90.64419 
" clip-path="url(#pa1a17d825c)" style="fill: none; stroke: #ff8c00; stroke-width: 2; stroke-linecap: square"/>
   </g>
   <g id="line2d_206">
    <path d="M 81.79 1394.728 
L 83.794505 1394.728 
L 91.812524 1394.728 
L 103.839553 1394.728 
L 709.2 90.64419 
" clip-path="url(#pa1a17d825c)" style="fill: none; stroke: #ff8c00; stroke-width: 2; stroke-linecap: square"/>
   </g>
   <g id="line2d_207">
    <path d="M 81.79 1367.839674 
L 83.794505 1367.581958 
L 83.800929 1367.580304 
L 83.807395 1367.57843 
L 85.79901 1366.979865 
L 85.811859 1360.252537 
L 85.824791 1360.245861 
L 85.837806 1360.238721 
L 87.803514 1359.160426 
L 87.822788 1359.149019 
L 87.842186 1359.137329 
L 89.808019 1357.931369 
L 89.833718 1354.55261 
L 89.859582 1354.532814 
L 91.812524 1353.016833 
L 91.844647 1352.990848 
L 91.876977 1352.963639 
L 93.817029 1351.288672 
L 93.855577 1347.893087 
L 93.894373 1347.855989 
L 93.933419 1347.817799 
L 95.821534 1345.971101 
L 95.866506 1345.926129 
L 95.911768 1345.877891 
L 97.826038 1343.81679 
L 97.877436 1343.760885 
L 97.929164 1343.65997 
L 97.981226 1343.558404 
L 99.830543 1339.950604 
L 99.888365 1339.8378 
L 99.946559 1339.708449 
L 101.835048 1334.11247 
L 101.899295 1327.090153 
L 101.963955 1326.841306 
L 103.839553 1319.623017 
L 103.910224 1319.347111 
L 103.98135 1319.066272 
L 104.052935 1318.743866 
L 105.844058 1310.676985 
L 105.921154 1310.457311 
L 105.998746 1310.234062 
L 107.848562 1304.226898 
L 107.932083 1303.85925 
L 108.016141 1303.48736 
L 109.853067 1297.740704 
L 109.943013 1297.458308 
L 110.033537 1297.17308 
L 111.857572 1291.378084 
L 111.953942 1291.069744 
L 112.050932 1290.759422 
L 112.148548 1290.447097 
L 113.862077 1284.945325 
L 113.964872 1284.609468 
L 114.068328 1284.294401 
L 115.866581 1279.456662 
L 115.975801 1279.251926 
L 117.871086 1275.699157 
L 117.986731 1275.477119 
L 118.103119 1275.25233 
L 119.875591 1271.788715 
L 119.99766 1271.548785 
L 120.120514 1271.305911 
L 121.880096 1267.82734 
L 122.00859 1267.564492 
L 122.13791 1267.296993 
L 123.884601 1263.650632 
L 124.019519 1263.367429 
L 124.155305 1263.080845 
L 125.889105 1259.401644 
L 127.89361 1255.147996 
L 129.898115 1250.871169 
L 130.052308 1250.5874 
L 131.90262 1247.139227 
L 132.063237 1246.836166 
L 133.907125 1243.314072 
L 135.911629 1239.461754 
L 137.916134 1235.562429 
L 139.920639 1231.663103 
L 141.925144 1227.740108 
L 142.311865 1226.98326 
L 145.934153 1219.851165 
L 147.938658 1215.880479 
L 151.947668 1207.891092 
L 709.2 90.64419 
" clip-path="url(#pa1a17d825c)" style="fill: none; stroke-dasharray: 4,6.6; stroke-dashoffset: 0; stroke: #000080; stroke-width: 4"/>
   </g>
   <g id="line2d_208">
    <path d="M 81.79 1394.728 
L 709.2 90.64419 
" clip-path="url(#pa1a17d825c)" style="fill: none; stroke-dasharray: 7.4,3.2; stroke-dashoffset: 0; stroke: #000000; stroke-width: 2"/>
   </g>
   <g id="patch_3">
    <path d="M 81.79 1394.728 
L 81.79 25.44 
" style="fill: none; stroke: #000000; stroke-width: 0.8; stroke-linejoin: miter; stroke-linecap: square"/>
   </g>
   <g id="patch_4">
    <path d="M 709.2 1394.728 
L 709.2 25.44 
" style="fill: none; stroke: #000000; stroke-width: 0.8; stroke-linejoin: miter; stroke-linecap: square"/>
   </g>
   <g id="patch_5">
    <path d="M 81.79 1394.728 
L 709.2 1394.728 
" style="fill: none; stroke: #000000; stroke-width: 0.8; stroke-linejoin: miter; stroke-linecap: square"/>
   </g>
   <g id="patch_6">
    <path d="M 81.79 25.44 
L 709.2 25.44 
" style="fill: none; stroke: #000000; stroke-width: 0.8; stroke-linejoin: miter; stroke-linecap: square"/>
   </g>
   <g id="text_15">
    <!-- Some extension of Receiver operating characteristic to multiclass -->
    <g transform="translate(198.09875 19.44)scale(0.12 -0.12)">
     <defs>
      <path id="DejaVuSans-53" d="M 3425 4513 
L 3425 3897 
Q 3066 4069 2747 4153 
Q 2428 4238 2131 4238 
Q 1616 4238 1336 4038 
Q 1056 3838 1056 3469 
Q 1056 3159 1242 3001 
Q 1428 2844 1947 2747 
L 2328 2669 
Q 3034 2534 3370 2195 
Q 3706 1856 3706 1288 
Q 3706 609 3251 259 
Q 2797 -91 1919 -91 
Q 1588 -91 1214 -16 
Q 841 59 441 206 
L 441 856 
Q 825 641 1194 531 
Q 1563 422 1919 422 
Q 2459 422 2753 634 
Q 3047 847 3047 1241 
Q 3047 1584 2836 1778 
Q 2625 1972 2144 2069 
L 1759 2144 
Q 1053 2284 737 2584 
Q 422 2884 422 3419 
Q 422 4038 858 4394 
Q 1294 4750 2059 4750 
Q 2388 4750 2728 4690 
Q 3069 4631 3425 4513 
z
" transform="scale(0.015625)"/>
      <path id="DejaVuSans-6d" d="M 3328 2828 
Q 3544 3216 3844 3400 
Q 4144 3584 4550 3584 
Q 5097 3584 5394 3201 
Q 5691 2819 5691 2113 
L 5691 0 
L 5113 0 
L 5113 2094 
Q 5113 2597 4934 2840 
Q 4756 3084 4391 3084 
Q 3944 3084 3684 2787 
Q 3425 2491 3425 1978 
L 3425 0 
L 2847 0 
L 2847 2094 
Q 2847 2600 2669 2842 
Q 2491 3084 2119 3084 
Q 1678 3084 1418 2786 
Q 1159 2488 1159 1978 
L 1159 0 
L 581 0 
L 581 3500 
L 1159 3500 
L 1159 2956 
Q 1356 3278 1631 3431 
Q 1906 3584 2284 3584 
Q 2666 3584 2933 3390 
Q 3200 3197 3328 2828 
z
" transform="scale(0.015625)"/>
      <path id="DejaVuSans-78" d="M 3513 3500 
L 2247 1797 
L 3578 0 
L 2900 0 
L 1881 1375 
L 863 0 
L 184 0 
L 1544 1831 
L 300 3500 
L 978 3500 
L 1906 2253 
L 2834 3500 
L 3513 3500 
z
" transform="scale(0.015625)"/>
      <path id="DejaVuSans-6e" d="M 3513 2113 
L 3513 0 
L 2938 0 
L 2938 2094 
Q 2938 2591 2744 2837 
Q 2550 3084 2163 3084 
Q 1697 3084 1428 2787 
Q 1159 2491 1159 1978 
L 1159 0 
L 581 0 
L 581 3500 
L 1159 3500 
L 1159 2956 
Q 1366 3272 1645 3428 
Q 1925 3584 2291 3584 
Q 2894 3584 3203 3211 
Q 3513 2838 3513 2113 
z
" transform="scale(0.015625)"/>
      <path id="DejaVuSans-66" d="M 2375 4863 
L 2375 4384 
L 1825 4384 
Q 1516 4384 1395 4259 
Q 1275 4134 1275 3809 
L 1275 3500 
L 2222 3500 
L 2222 3053 
L 1275 3053 
L 1275 0 
L 697 0 
L 697 3053 
L 147 3053 
L 147 3500 
L 697 3500 
L 697 3744 
Q 697 4328 969 4595 
Q 1241 4863 1831 4863 
L 2375 4863 
z
" transform="scale(0.015625)"/>
      <path id="DejaVuSans-63" d="M 3122 3366 
L 3122 2828 
Q 2878 2963 2633 3030 
Q 2388 3097 2138 3097 
Q 1578 3097 1268 2742 
Q 959 2388 959 1747 
Q 959 1106 1268 751 
Q 1578 397 2138 397 
Q 2388 397 2633 464 
Q 2878 531 3122 666 
L 3122 134 
Q 2881 22 2623 -34 
Q 2366 -91 2075 -91 
Q 1284 -91 818 406 
Q 353 903 353 1747 
Q 353 2603 823 3093 
Q 1294 3584 2113 3584 
Q 2378 3584 2631 3529 
Q 2884 3475 3122 3366 
z
" transform="scale(0.015625)"/>
      <path id="DejaVuSans-70" d="M 1159 525 
L 1159 -1331 
L 581 -1331 
L 581 3500 
L 1159 3500 
L 1159 2969 
Q 1341 3281 1617 3432 
Q 1894 3584 2278 3584 
Q 2916 3584 3314 3078 
Q 3713 2572 3713 1747 
Q 3713 922 3314 415 
Q 2916 -91 2278 -91 
Q 1894 -91 1617 61 
Q 1341 213 1159 525 
z
M 3116 1747 
Q 3116 2381 2855 2742 
Q 2594 3103 2138 3103 
Q 1681 3103 1420 2742 
Q 1159 2381 1159 1747 
Q 1159 1113 1420 752 
Q 1681 391 2138 391 
Q 2594 391 2855 752 
Q 3116 1113 3116 1747 
z
" transform="scale(0.015625)"/>
      <path id="DejaVuSans-67" d="M 2906 1791 
Q 2906 2416 2648 2759 
Q 2391 3103 1925 3103 
Q 1463 3103 1205 2759 
Q 947 2416 947 1791 
Q 947 1169 1205 825 
Q 1463 481 1925 481 
Q 2391 481 2648 825 
Q 2906 1169 2906 1791 
z
M 3481 434 
Q 3481 -459 3084 -895 
Q 2688 -1331 1869 -1331 
Q 1566 -1331 1297 -1286 
Q 1028 -1241 775 -1147 
L 775 -588 
Q 1028 -725 1275 -790 
Q 1522 -856 1778 -856 
Q 2344 -856 2625 -561 
Q 2906 -266 2906 331 
L 2906 616 
Q 2728 306 2450 153 
Q 2172 0 1784 0 
Q 1141 0 747 490 
Q 353 981 353 1791 
Q 353 2603 747 3093 
Q 1141 3584 1784 3584 
Q 2172 3584 2450 3431 
Q 2728 3278 2906 2969 
L 2906 3500 
L 3481 3500 
L 3481 434 
z
" transform="scale(0.015625)"/>
      <path id="DejaVuSans-68" d="M 3513 2113 
L 3513 0 
L 2938 0 
L 2938 2094 
Q 2938 2591 2744 2837 
Q 2550 3084 2163 3084 
Q 1697 3084 1428 2787 
Q 1159 2491 1159 1978 
L 1159 0 
L 581 0 
L 581 4863 
L 1159 4863 
L 1159 2956 
Q 1366 3272 1645 3428 
Q 1925 3584 2291 3584 
Q 2894 3584 3203 3211 
Q 3513 2838 3513 2113 
z
" transform="scale(0.015625)"/>
     </defs>
     <use xlink:href="#DejaVuSans-53"/>
     <use xlink:href="#DejaVuSans-6f" x="63.476562"/>
     <use xlink:href="#DejaVuSans-6d" x="124.658203"/>
     <use xlink:href="#DejaVuSans-65" x="222.070312"/>
     <use xlink:href="#DejaVuSans-20" x="283.59375"/>
     <use xlink:href="#DejaVuSans-65" x="315.380859"/>
     <use xlink:href="#DejaVuSans-78" x="375.154297"/>
     <use xlink:href="#DejaVuSans-74" x="434.333984"/>
     <use xlink:href="#DejaVuSans-65" x="473.542969"/>
     <use xlink:href="#DejaVuSans-6e" x="535.066406"/>
     <use xlink:href="#DejaVuSans-73" x="598.445312"/>
     <use xlink:href="#DejaVuSans-69" x="650.544922"/>
     <use xlink:href="#DejaVuSans-6f" x="678.328125"/>
     <use xlink:href="#DejaVuSans-6e" x="739.509766"/>
     <use xlink:href="#DejaVuSans-20" x="802.888672"/>
     <use xlink:href="#DejaVuSans-6f" x="834.675781"/>
     <use xlink:href="#DejaVuSans-66" x="895.857422"/>
     <use xlink:href="#DejaVuSans-20" x="931.0625"/>
     <use xlink:href="#DejaVuSans-52" x="962.849609"/>
     <use xlink:href="#DejaVuSans-65" x="1027.832031"/>
     <use xlink:href="#DejaVuSans-63" x="1089.355469"/>
     <use xlink:href="#DejaVuSans-65" x="1144.335938"/>
     <use xlink:href="#DejaVuSans-69" x="1205.859375"/>
     <use xlink:href="#DejaVuSans-76" x="1233.642578"/>
     <use xlink:href="#DejaVuSans-65" x="1292.822266"/>
     <use xlink:href="#DejaVuSans-72" x="1354.345703"/>
     <use xlink:href="#DejaVuSans-20" x="1395.458984"/>
     <use xlink:href="#DejaVuSans-6f" x="1427.246094"/>
     <use xlink:href="#DejaVuSans-70" x="1488.427734"/>
     <use xlink:href="#DejaVuSans-65" x="1551.904297"/>
     <use xlink:href="#DejaVuSans-72" x="1613.427734"/>
     <use xlink:href="#DejaVuSans-61" x="1654.541016"/>
     <use xlink:href="#DejaVuSans-74" x="1715.820312"/>
     <use xlink:href="#DejaVuSans-69" x="1755.029297"/>
     <use xlink:href="#DejaVuSans-6e" x="1782.8125"/>
     <use xlink:href="#DejaVuSans-67" x="1846.191406"/>
     <use xlink:href="#DejaVuSans-20" x="1909.667969"/>
     <use xlink:href="#DejaVuSans-63" x="1941.455078"/>
     <use xlink:href="#DejaVuSans-68" x="1996.435547"/>
     <use xlink:href="#DejaVuSans-61" x="2059.814453"/>
     <use xlink:href="#DejaVuSans-72" x="2121.09375"/>
     <use xlink:href="#DejaVuSans-61" x="2162.207031"/>
     <use xlink:href="#DejaVuSans-63" x="2223.486328"/>
     <use xlink:href="#DejaVuSans-74" x="2278.466797"/>
     <use xlink:href="#DejaVuSans-65" x="2317.675781"/>
     <use xlink:href="#DejaVuSans-72" x="2379.199219"/>
     <use xlink:href="#DejaVuSans-69" x="2420.3125"/>
     <use xlink:href="#DejaVuSans-73" x="2448.095703"/>
     <use xlink:href="#DejaVuSans-74" x="2500.195312"/>
     <use xlink:href="#DejaVuSans-69" x="2539.404297"/>
     <use xlink:href="#DejaVuSans-63" x="2567.1875"/>
     <use xlink:href="#DejaVuSans-20" x="2622.167969"/>
     <use xlink:href="#DejaVuSans-74" x="2653.955078"/>
     <use xlink:href="#DejaVuSans-6f" x="2693.164062"/>
     <use xlink:href="#DejaVuSans-20" x="2754.345703"/>
     <use xlink:href="#DejaVuSans-6d" x="2786.132812"/>
     <use xlink:href="#DejaVuSans-75" x="2883.544922"/>
     <use xlink:href="#DejaVuSans-6c" x="2946.923828"/>
     <use xlink:href="#DejaVuSans-74" x="2974.707031"/>
     <use xlink:href="#DejaVuSans-69" x="3013.916016"/>
     <use xlink:href="#DejaVuSans-63" x="3041.699219"/>
     <use xlink:href="#DejaVuSans-6c" x="3096.679688"/>
     <use xlink:href="#DejaVuSans-61" x="3124.462891"/>
     <use xlink:href="#DejaVuSans-73" x="3185.742188"/>
     <use xlink:href="#DejaVuSans-73" x="3237.841797"/>
    </g>
   </g>
   <g id="legend_1">
    <g id="patch_7">
     <path d="M 467.635937 1389.728 
L 702.2 1389.728 
Q 704.2 1389.728 704.2 1387.728 
L 704.2 1374.049875 
Q 704.2 1372.049875 702.2 1372.049875 
L 467.635937 1372.049875 
Q 465.635937 1372.049875 465.635937 1374.049875 
L 465.635937 1387.728 
Q 465.635937 1389.728 467.635937 1389.728 
z
" style="fill: #ffffff; opacity: 0.8; stroke: #cccccc; stroke-linejoin: miter"/>
    </g>
    <g id="line2d_209">
     <path d="M 469.635937 1380.148312 
L 479.635937 1380.148312 
L 489.635937 1380.148312 
" style="fill: none; stroke-dasharray: 4,6.6; stroke-dashoffset: 0; stroke: #000080; stroke-width: 4"/>
    </g>
    <g id="text_16">
     <!-- macro-average ROC curve (area = 0.52) -->
     <g transform="translate(497.635937 1383.648312)scale(0.1 -0.1)">
      <defs>
       <path id="DejaVuSans-2d" d="M 313 2009 
L 1997 2009 
L 1997 1497 
L 313 1497 
L 313 2009 
z
" transform="scale(0.015625)"/>
       <path id="DejaVuSans-4f" d="M 2522 4238 
Q 1834 4238 1429 3725 
Q 1025 3213 1025 2328 
Q 1025 1447 1429 934 
Q 1834 422 2522 422 
Q 3209 422 3611 934 
Q 4013 1447 4013 2328 
Q 4013 3213 3611 3725 
Q 3209 4238 2522 4238 
z
M 2522 4750 
Q 3503 4750 4090 4092 
Q 4678 3434 4678 2328 
Q 4678 1225 4090 567 
Q 3503 -91 2522 -91 
Q 1538 -91 948 565 
Q 359 1222 359 2328 
Q 359 3434 948 4092 
Q 1538 4750 2522 4750 
z
" transform="scale(0.015625)"/>
       <path id="DejaVuSans-43" d="M 4122 4306 
L 4122 3641 
Q 3803 3938 3442 4084 
Q 3081 4231 2675 4231 
Q 1875 4231 1450 3742 
Q 1025 3253 1025 2328 
Q 1025 1406 1450 917 
Q 1875 428 2675 428 
Q 3081 428 3442 575 
Q 3803 722 4122 1019 
L 4122 359 
Q 3791 134 3420 21 
Q 3050 -91 2638 -91 
Q 1578 -91 968 557 
Q 359 1206 359 2328 
Q 359 3453 968 4101 
Q 1578 4750 2638 4750 
Q 3056 4750 3426 4639 
Q 3797 4528 4122 4306 
z
" transform="scale(0.015625)"/>
       <path id="DejaVuSans-28" d="M 1984 4856 
Q 1566 4138 1362 3434 
Q 1159 2731 1159 2009 
Q 1159 1288 1364 580 
Q 1569 -128 1984 -844 
L 1484 -844 
Q 1016 -109 783 600 
Q 550 1309 550 2009 
Q 550 2706 781 3412 
Q 1013 4119 1484 4856 
L 1984 4856 
z
" transform="scale(0.015625)"/>
       <path id="DejaVuSans-3d" d="M 678 2906 
L 4684 2906 
L 4684 2381 
L 678 2381 
L 678 2906 
z
M 678 1631 
L 4684 1631 
L 4684 1100 
L 678 1100 
L 678 1631 
z
" transform="scale(0.015625)"/>
       <path id="DejaVuSans-35" d="M 691 4666 
L 3169 4666 
L 3169 4134 
L 1269 4134 
L 1269 2991 
Q 1406 3038 1543 3061 
Q 1681 3084 1819 3084 
Q 2600 3084 3056 2656 
Q 3513 2228 3513 1497 
Q 3513 744 3044 326 
Q 2575 -91 1722 -91 
Q 1428 -91 1123 -41 
Q 819 9 494 109 
L 494 744 
Q 775 591 1075 516 
Q 1375 441 1709 441 
Q 2250 441 2565 725 
Q 2881 1009 2881 1497 
Q 2881 1984 2565 2268 
Q 2250 2553 1709 2553 
Q 1456 2553 1204 2497 
Q 953 2441 691 2322 
L 691 4666 
z
" transform="scale(0.015625)"/>
       <path id="DejaVuSans-29" d="M 513 4856 
L 1013 4856 
Q 1481 4119 1714 3412 
Q 1947 2706 1947 2009 
Q 1947 1309 1714 600 
Q 1481 -109 1013 -844 
L 513 -844 
Q 928 -128 1133 580 
Q 1338 1288 1338 2009 
Q 1338 2731 1133 3434 
Q 928 4138 513 4856 
z
" transform="scale(0.015625)"/>
      </defs>
      <use xlink:href="#DejaVuSans-6d"/>
      <use xlink:href="#DejaVuSans-61" x="97.412109"/>
      <use xlink:href="#DejaVuSans-63" x="158.691406"/>
      <use xlink:href="#DejaVuSans-72" x="213.671875"/>
      <use xlink:href="#DejaVuSans-6f" x="252.535156"/>
      <use xlink:href="#DejaVuSans-2d" x="315.591797"/>
      <use xlink:href="#DejaVuSans-61" x="351.675781"/>
      <use xlink:href="#DejaVuSans-76" x="412.955078"/>
      <use xlink:href="#DejaVuSans-65" x="472.134766"/>
      <use xlink:href="#DejaVuSans-72" x="533.658203"/>
      <use xlink:href="#DejaVuSans-61" x="574.771484"/>
      <use xlink:href="#DejaVuSans-67" x="636.050781"/>
      <use xlink:href="#DejaVuSans-65" x="699.527344"/>
      <use xlink:href="#DejaVuSans-20" x="761.050781"/>
      <use xlink:href="#DejaVuSans-52" x="792.837891"/>
      <use xlink:href="#DejaVuSans-4f" x="862.320312"/>
      <use xlink:href="#DejaVuSans-43" x="941.03125"/>
      <use xlink:href="#DejaVuSans-20" x="1010.855469"/>
      <use xlink:href="#DejaVuSans-63" x="1042.642578"/>
      <use xlink:href="#DejaVuSans-75" x="1097.623047"/>
      <use xlink:href="#DejaVuSans-72" x="1161.001953"/>
      <use xlink:href="#DejaVuSans-76" x="1202.115234"/>
      <use xlink:href="#DejaVuSans-65" x="1261.294922"/>
      <use xlink:href="#DejaVuSans-20" x="1322.818359"/>
      <use xlink:href="#DejaVuSans-28" x="1354.605469"/>
      <use xlink:href="#DejaVuSans-61" x="1393.619141"/>
      <use xlink:href="#DejaVuSans-72" x="1454.898438"/>
      <use xlink:href="#DejaVuSans-65" x="1493.761719"/>
      <use xlink:href="#DejaVuSans-61" x="1555.285156"/>
      <use xlink:href="#DejaVuSans-20" x="1616.564453"/>
      <use xlink:href="#DejaVuSans-3d" x="1648.351562"/>
      <use xlink:href="#DejaVuSans-20" x="1732.140625"/>
      <use xlink:href="#DejaVuSans-30" x="1763.927734"/>
      <use xlink:href="#DejaVuSans-2e" x="1827.550781"/>
      <use xlink:href="#DejaVuSans-35" x="1859.337891"/>
      <use xlink:href="#DejaVuSans-32" x="1922.960938"/>
      <use xlink:href="#DejaVuSans-29" x="1986.583984"/>
     </g>
    </g>
   </g>
  </g>
 </g>
 <defs>
  <clipPath id="pa1a17d825c">
   <rect x="81.79" y="25.44" width="627.41" height="1369.288"/>
  </clipPath>
 </defs>
</svg>
