<?xml version="1.0" encoding="utf-8" standalone="no"?>
<!DOCTYPE svg PUBLIC "-//W3C//DTD SVG 1.1//EN"
        "http://www.w3.org/Graphics/SVG/1.1/DTD/svg11.dtd">
<svg xmlns:xlink="http://www.w3.org/1999/xlink" width="460.8pt" height="345.6pt" viewBox="0 0 460.8 345.6"
     xmlns="http://www.w3.org/2000/svg" version="1.1">
    <metadata>
        <rdf:RDF xmlns:dc="http://purl.org/dc/elements/1.1/" xmlns:cc="http://creativecommons.org/ns#"
                 xmlns:rdf="http://www.w3.org/1999/02/22-rdf-syntax-ns#">
            <cc:Work>
                <dc:type rdf:resource="http://purl.org/dc/dcmitype/StillImage"/>
                <dc:date>2022-01-25T14:05:33.841852</dc:date>
                <dc:format>image/svg+xml</dc:format>
                <dc:creator>
                    <cc:Agent>
                        <dc:title>Matplotlib v3.5.1, https://matplotlib.org/</dc:title>
                    </cc:Agent>
                </dc:creator>
            </cc:Work>
        </rdf:RDF>
    </metadata>
    <defs>
        <style type="text/css">*{stroke-linejoin: round; stroke-linecap: butt}</style>
    </defs>
    <g id="figure_1">
        <g id="patch_1">
            <path d="M 0 345.6
L 460.8 345.6 
L 460.8 0 
L 0 0 
z
" style="fill: #ffffff"/>
        </g>
        <g id="axes_1">
            <g id="patch_2">
                <path d="M 48.49 317.72
L 450 317.72 
L 450 10.8 
L 48.49 10.8 
z
" style="fill: #ffffff"/>
            </g>
            <g id="matplotlib.axis_1">
                <g id="xtick_1">
                    <g id="line2d_1">
                        <path d="M 66.740455 317.72
L 66.740455 10.8 
" clip-path="url(#pc0703b35b0)" style="fill: none; stroke: #b0b0b0; stroke-width: 0.8; stroke-linecap: square"/>
                    </g>
                    <g id="line2d_2">
                        <defs>
                            <path id="m2210df1bc4" d="M 0 0
L 0 3.5 
" style="stroke: #000000; stroke-width: 0.8"/>
                        </defs>
                        <g>
                            <use xlink:href="#m2210df1bc4" x="66.740455" y="317.72"
                                 style="stroke: #000000; stroke-width: 0.8"/>
                        </g>
                    </g>
                    <g id="text_1">
                        <!-- 0 -->
                        <g transform="translate(63.559205 332.318437)scale(0.1 -0.1)">
                            <defs>
                                <path id="DejaVuSans-30" d="M 2034 4250
Q 1547 4250 1301 3770 
Q 1056 3291 1056 2328 
Q 1056 1369 1301 889 
Q 1547 409 2034 409 
Q 2525 409 2770 889 
Q 3016 1369 3016 2328 
Q 3016 3291 2770 3770 
Q 2525 4250 2034 4250 
z
M 2034 4750 
Q 2819 4750 3233 4129 
Q 3647 3509 3647 2328 
Q 3647 1150 3233 529 
Q 2819 -91 2034 -91 
Q 1250 -91 836 529 
Q 422 1150 422 2328 
Q 422 3509 836 4129 
Q 1250 4750 2034 4750 
z
" transform="scale(0.015625)"/>
                            </defs>
                            <use xlink:href="#DejaVuSans-30"/>
                        </g>
                    </g>
                </g>
                <g id="xtick_2">
                    <g id="line2d_3">
                        <path d="M 139.815348 317.72
L 139.815348 10.8 
" clip-path="url(#pc0703b35b0)" style="fill: none; stroke: #b0b0b0; stroke-width: 0.8; stroke-linecap: square"/>
                    </g>
                    <g id="line2d_4">
                        <g>
                            <use xlink:href="#m2210df1bc4" x="139.815348" y="317.72"
                                 style="stroke: #000000; stroke-width: 0.8"/>
                        </g>
                    </g>
                    <g id="text_2">
                        <!-- 200 -->
                        <g transform="translate(130.271598 332.318437)scale(0.1 -0.1)">
                            <defs>
                                <path id="DejaVuSans-32" d="M 1228 531
L 3431 531 
L 3431 0 
L 469 0 
L 469 531 
Q 828 903 1448 1529 
Q 2069 2156 2228 2338 
Q 2531 2678 2651 2914 
Q 2772 3150 2772 3378 
Q 2772 3750 2511 3984 
Q 2250 4219 1831 4219 
Q 1534 4219 1204 4116 
Q 875 4013 500 3803 
L 500 4441 
Q 881 4594 1212 4672 
Q 1544 4750 1819 4750 
Q 2544 4750 2975 4387 
Q 3406 4025 3406 3419 
Q 3406 3131 3298 2873 
Q 3191 2616 2906 2266 
Q 2828 2175 2409 1742 
Q 1991 1309 1228 531 
z
" transform="scale(0.015625)"/>
                            </defs>
                            <use xlink:href="#DejaVuSans-32"/>
                            <use xlink:href="#DejaVuSans-30" x="63.623047"/>
                            <use xlink:href="#DejaVuSans-30" x="127.246094"/>
                        </g>
                    </g>
                </g>
                <g id="xtick_3">
                    <g id="line2d_5">
                        <path d="M 212.890241 317.72
L 212.890241 10.8 
" clip-path="url(#pc0703b35b0)" style="fill: none; stroke: #b0b0b0; stroke-width: 0.8; stroke-linecap: square"/>
                    </g>
                    <g id="line2d_6">
                        <g>
                            <use xlink:href="#m2210df1bc4" x="212.890241" y="317.72"
                                 style="stroke: #000000; stroke-width: 0.8"/>
                        </g>
                    </g>
                    <g id="text_3">
                        <!-- 400 -->
                        <g transform="translate(203.346491 332.318437)scale(0.1 -0.1)">
                            <defs>
                                <path id="DejaVuSans-34" d="M 2419 4116
L 825 1625 
L 2419 1625 
L 2419 4116 
z
M 2253 4666 
L 3047 4666 
L 3047 1625 
L 3713 1625 
L 3713 1100 
L 3047 1100 
L 3047 0 
L 2419 0 
L 2419 1100 
L 313 1100 
L 313 1709 
L 2253 4666 
z
" transform="scale(0.015625)"/>
                            </defs>
                            <use xlink:href="#DejaVuSans-34"/>
                            <use xlink:href="#DejaVuSans-30" x="63.623047"/>
                            <use xlink:href="#DejaVuSans-30" x="127.246094"/>
                        </g>
                    </g>
                </g>
                <g id="xtick_4">
                    <g id="line2d_7">
                        <path d="M 285.965134 317.72
L 285.965134 10.8 
" clip-path="url(#pc0703b35b0)" style="fill: none; stroke: #b0b0b0; stroke-width: 0.8; stroke-linecap: square"/>
                    </g>
                    <g id="line2d_8">
                        <g>
                            <use xlink:href="#m2210df1bc4" x="285.965134" y="317.72"
                                 style="stroke: #000000; stroke-width: 0.8"/>
                        </g>
                    </g>
                    <g id="text_4">
                        <!-- 600 -->
                        <g transform="translate(276.421384 332.318437)scale(0.1 -0.1)">
                            <defs>
                                <path id="DejaVuSans-36" d="M 2113 2584
Q 1688 2584 1439 2293 
Q 1191 2003 1191 1497 
Q 1191 994 1439 701 
Q 1688 409 2113 409 
Q 2538 409 2786 701 
Q 3034 994 3034 1497 
Q 3034 2003 2786 2293 
Q 2538 2584 2113 2584 
z
M 3366 4563 
L 3366 3988 
Q 3128 4100 2886 4159 
Q 2644 4219 2406 4219 
Q 1781 4219 1451 3797 
Q 1122 3375 1075 2522 
Q 1259 2794 1537 2939 
Q 1816 3084 2150 3084 
Q 2853 3084 3261 2657 
Q 3669 2231 3669 1497 
Q 3669 778 3244 343 
Q 2819 -91 2113 -91 
Q 1303 -91 875 529 
Q 447 1150 447 2328 
Q 447 3434 972 4092 
Q 1497 4750 2381 4750 
Q 2619 4750 2861 4703 
Q 3103 4656 3366 4563 
z
" transform="scale(0.015625)"/>
                            </defs>
                            <use xlink:href="#DejaVuSans-36"/>
                            <use xlink:href="#DejaVuSans-30" x="63.623047"/>
                            <use xlink:href="#DejaVuSans-30" x="127.246094"/>
                        </g>
                    </g>
                </g>
                <g id="xtick_5">
                    <g id="line2d_9">
                        <path d="M 359.040027 317.72
L 359.040027 10.8 
" clip-path="url(#pc0703b35b0)" style="fill: none; stroke: #b0b0b0; stroke-width: 0.8; stroke-linecap: square"/>
                    </g>
                    <g id="line2d_10">
                        <g>
                            <use xlink:href="#m2210df1bc4" x="359.040027" y="317.72"
                                 style="stroke: #000000; stroke-width: 0.8"/>
                        </g>
                    </g>
                    <g id="text_5">
                        <!-- 800 -->
                        <g transform="translate(349.496277 332.318437)scale(0.1 -0.1)">
                            <defs>
                                <path id="DejaVuSans-38" d="M 2034 2216
Q 1584 2216 1326 1975 
Q 1069 1734 1069 1313 
Q 1069 891 1326 650 
Q 1584 409 2034 409 
Q 2484 409 2743 651 
Q 3003 894 3003 1313 
Q 3003 1734 2745 1975 
Q 2488 2216 2034 2216 
z
M 1403 2484 
Q 997 2584 770 2862 
Q 544 3141 544 3541 
Q 544 4100 942 4425 
Q 1341 4750 2034 4750 
Q 2731 4750 3128 4425 
Q 3525 4100 3525 3541 
Q 3525 3141 3298 2862 
Q 3072 2584 2669 2484 
Q 3125 2378 3379 2068 
Q 3634 1759 3634 1313 
Q 3634 634 3220 271 
Q 2806 -91 2034 -91 
Q 1263 -91 848 271 
Q 434 634 434 1313 
Q 434 1759 690 2068 
Q 947 2378 1403 2484 
z
M 1172 3481 
Q 1172 3119 1398 2916 
Q 1625 2713 2034 2713 
Q 2441 2713 2670 2916 
Q 2900 3119 2900 3481 
Q 2900 3844 2670 4047 
Q 2441 4250 2034 4250 
Q 1625 4250 1398 4047 
Q 1172 3844 1172 3481 
z
" transform="scale(0.015625)"/>
                            </defs>
                            <use xlink:href="#DejaVuSans-38"/>
                            <use xlink:href="#DejaVuSans-30" x="63.623047"/>
                            <use xlink:href="#DejaVuSans-30" x="127.246094"/>
                        </g>
                    </g>
                </g>
                <g id="xtick_6">
                    <g id="line2d_11">
                        <path d="M 432.11492 317.72
L 432.11492 10.8 
" clip-path="url(#pc0703b35b0)" style="fill: none; stroke: #b0b0b0; stroke-width: 0.8; stroke-linecap: square"/>
                    </g>
                    <g id="line2d_12">
                        <g>
                            <use xlink:href="#m2210df1bc4" x="432.11492" y="317.72"
                                 style="stroke: #000000; stroke-width: 0.8"/>
                        </g>
                    </g>
                    <g id="text_6">
                        <!-- 1000 -->
                        <g transform="translate(419.38992 332.318437)scale(0.1 -0.1)">
                            <defs>
                                <path id="DejaVuSans-31" d="M 794 531
L 1825 531 
L 1825 4091 
L 703 3866 
L 703 4441 
L 1819 4666 
L 2450 4666 
L 2450 531 
L 3481 531 
L 3481 0 
L 794 0 
L 794 531 
z
" transform="scale(0.015625)"/>
                            </defs>
                            <use xlink:href="#DejaVuSans-31"/>
                            <use xlink:href="#DejaVuSans-30" x="63.623047"/>
                            <use xlink:href="#DejaVuSans-30" x="127.246094"/>
                            <use xlink:href="#DejaVuSans-30" x="190.869141"/>
                        </g>
                    </g>
                </g>
            </g>
            <g id="matplotlib.axis_2">
                <g id="ytick_1">
                    <g id="line2d_13">
                        <path d="M 48.49 295.209267
L 450 295.209267 
" clip-path="url(#pc0703b35b0)" style="fill: none; stroke: #b0b0b0; stroke-width: 0.8; stroke-linecap: square"/>
                    </g>
                    <g id="line2d_14">
                        <defs>
                            <path id="mf02996f861" d="M 0 0
L -3.5 0 
" style="stroke: #000000; stroke-width: 0.8"/>
                        </defs>
                        <g>
                            <use xlink:href="#mf02996f861" x="48.49" y="295.209267"
                                 style="stroke: #000000; stroke-width: 0.8"/>
                        </g>
                    </g>
                    <g id="text_7">
                        <!-- −0.75 -->
                        <g transform="translate(10.844687 299.008486)scale(0.1 -0.1)">
                            <defs>
                                <path id="DejaVuSans-2212" d="M 678 2272
L 4684 2272 
L 4684 1741 
L 678 1741 
L 678 2272 
z
" transform="scale(0.015625)"/>
                                <path id="DejaVuSans-2e" d="M 684 794
L 1344 794 
L 1344 0 
L 684 0 
L 684 794 
z
" transform="scale(0.015625)"/>
                                <path id="DejaVuSans-37" d="M 525 4666
L 3525 4666 
L 3525 4397 
L 1831 0 
L 1172 0 
L 2766 4134 
L 525 4134 
L 525 4666 
z
" transform="scale(0.015625)"/>
                                <path id="DejaVuSans-35" d="M 691 4666
L 3169 4666 
L 3169 4134 
L 1269 4134 
L 1269 2991 
Q 1406 3038 1543 3061 
Q 1681 3084 1819 3084 
Q 2600 3084 3056 2656 
Q 3513 2228 3513 1497 
Q 3513 744 3044 326 
Q 2575 -91 1722 -91 
Q 1428 -91 1123 -41 
Q 819 9 494 109 
L 494 744 
Q 775 591 1075 516 
Q 1375 441 1709 441 
Q 2250 441 2565 725 
Q 2881 1009 2881 1497 
Q 2881 1984 2565 2268 
Q 2250 2553 1709 2553 
Q 1456 2553 1204 2497 
Q 953 2441 691 2322 
L 691 4666 
z
" transform="scale(0.015625)"/>
                            </defs>
                            <use xlink:href="#DejaVuSans-2212"/>
                            <use xlink:href="#DejaVuSans-30" x="83.789062"/>
                            <use xlink:href="#DejaVuSans-2e" x="147.412109"/>
                            <use xlink:href="#DejaVuSans-37" x="179.199219"/>
                            <use xlink:href="#DejaVuSans-35" x="242.822266"/>
                        </g>
                    </g>
                </g>
                <g id="ytick_2">
                    <g id="line2d_15">
                        <path d="M 48.49 255.691466
L 450 255.691466 
" clip-path="url(#pc0703b35b0)" style="fill: none; stroke: #b0b0b0; stroke-width: 0.8; stroke-linecap: square"/>
                    </g>
                    <g id="line2d_16">
                        <g>
                            <use xlink:href="#mf02996f861" x="48.49" y="255.691466"
                                 style="stroke: #000000; stroke-width: 0.8"/>
                        </g>
                    </g>
                    <g id="text_8">
                        <!-- −0.50 -->
                        <g transform="translate(10.844687 259.490685)scale(0.1 -0.1)">
                            <use xlink:href="#DejaVuSans-2212"/>
                            <use xlink:href="#DejaVuSans-30" x="83.789062"/>
                            <use xlink:href="#DejaVuSans-2e" x="147.412109"/>
                            <use xlink:href="#DejaVuSans-35" x="179.199219"/>
                            <use xlink:href="#DejaVuSans-30" x="242.822266"/>
                        </g>
                    </g>
                </g>
                <g id="ytick_3">
                    <g id="line2d_17">
                        <path d="M 48.49 216.173664
L 450 216.173664 
" clip-path="url(#pc0703b35b0)" style="fill: none; stroke: #b0b0b0; stroke-width: 0.8; stroke-linecap: square"/>
                    </g>
                    <g id="line2d_18">
                        <g>
                            <use xlink:href="#mf02996f861" x="48.49" y="216.173664"
                                 style="stroke: #000000; stroke-width: 0.8"/>
                        </g>
                    </g>
                    <g id="text_9">
                        <!-- −0.25 -->
                        <g transform="translate(10.844687 219.972883)scale(0.1 -0.1)">
                            <use xlink:href="#DejaVuSans-2212"/>
                            <use xlink:href="#DejaVuSans-30" x="83.789062"/>
                            <use xlink:href="#DejaVuSans-2e" x="147.412109"/>
                            <use xlink:href="#DejaVuSans-32" x="179.199219"/>
                            <use xlink:href="#DejaVuSans-35" x="242.822266"/>
                        </g>
                    </g>
                </g>
                <g id="ytick_4">
                    <g id="line2d_19">
                        <path d="M 48.49 176.655863
L 450 176.655863 
" clip-path="url(#pc0703b35b0)" style="fill: none; stroke: #b0b0b0; stroke-width: 0.8; stroke-linecap: square"/>
                    </g>
                    <g id="line2d_20">
                        <g>
                            <use xlink:href="#mf02996f861" x="48.49" y="176.655863"
                                 style="stroke: #000000; stroke-width: 0.8"/>
                        </g>
                    </g>
                    <g id="text_10">
                        <!-- 0.00 -->
                        <g transform="translate(19.224375 180.455082)scale(0.1 -0.1)">
                            <use xlink:href="#DejaVuSans-30"/>
                            <use xlink:href="#DejaVuSans-2e" x="63.623047"/>
                            <use xlink:href="#DejaVuSans-30" x="95.410156"/>
                            <use xlink:href="#DejaVuSans-30" x="159.033203"/>
                        </g>
                    </g>
                </g>
                <g id="ytick_5">
                    <g id="line2d_21">
                        <path d="M 48.49 137.138061
L 450 137.138061 
" clip-path="url(#pc0703b35b0)" style="fill: none; stroke: #b0b0b0; stroke-width: 0.8; stroke-linecap: square"/>
                    </g>
                    <g id="line2d_22">
                        <g>
                            <use xlink:href="#mf02996f861" x="48.49" y="137.138061"
                                 style="stroke: #000000; stroke-width: 0.8"/>
                        </g>
                    </g>
                    <g id="text_11">
                        <!-- 0.25 -->
                        <g transform="translate(19.224375 140.93728)scale(0.1 -0.1)">
                            <use xlink:href="#DejaVuSans-30"/>
                            <use xlink:href="#DejaVuSans-2e" x="63.623047"/>
                            <use xlink:href="#DejaVuSans-32" x="95.410156"/>
                            <use xlink:href="#DejaVuSans-35" x="159.033203"/>
                        </g>
                    </g>
                </g>
                <g id="ytick_6">
                    <g id="line2d_23">
                        <path d="M 48.49 97.62026
L 450 97.62026 
" clip-path="url(#pc0703b35b0)" style="fill: none; stroke: #b0b0b0; stroke-width: 0.8; stroke-linecap: square"/>
                    </g>
                    <g id="line2d_24">
                        <g>
                            <use xlink:href="#mf02996f861" x="48.49" y="97.62026"
                                 style="stroke: #000000; stroke-width: 0.8"/>
                        </g>
                    </g>
                    <g id="text_12">
                        <!-- 0.50 -->
                        <g transform="translate(19.224375 101.419479)scale(0.1 -0.1)">
                            <use xlink:href="#DejaVuSans-30"/>
                            <use xlink:href="#DejaVuSans-2e" x="63.623047"/>
                            <use xlink:href="#DejaVuSans-35" x="95.410156"/>
                            <use xlink:href="#DejaVuSans-30" x="159.033203"/>
                        </g>
                    </g>
                </g>
                <g id="ytick_7">
                    <g id="line2d_25">
                        <path d="M 48.49 58.102458
L 450 58.102458 
" clip-path="url(#pc0703b35b0)" style="fill: none; stroke: #b0b0b0; stroke-width: 0.8; stroke-linecap: square"/>
                    </g>
                    <g id="line2d_26">
                        <g>
                            <use xlink:href="#mf02996f861" x="48.49" y="58.102458"
                                 style="stroke: #000000; stroke-width: 0.8"/>
                        </g>
                    </g>
                    <g id="text_13">
                        <!-- 0.75 -->
                        <g transform="translate(19.224375 61.901677)scale(0.1 -0.1)">
                            <use xlink:href="#DejaVuSans-30"/>
                            <use xlink:href="#DejaVuSans-2e" x="63.623047"/>
                            <use xlink:href="#DejaVuSans-37" x="95.410156"/>
                            <use xlink:href="#DejaVuSans-35" x="159.033203"/>
                        </g>
                    </g>
                </g>
                <g id="ytick_8">
                    <g id="line2d_27">
                        <path d="M 48.49 18.584657
L 450 18.584657 
" clip-path="url(#pc0703b35b0)" style="fill: none; stroke: #b0b0b0; stroke-width: 0.8; stroke-linecap: square"/>
                    </g>
                    <g id="line2d_28">
                        <g>
                            <use xlink:href="#mf02996f861" x="48.49" y="18.584657"
                                 style="stroke: #000000; stroke-width: 0.8"/>
                        </g>
                    </g>
                    <g id="text_14">
                        <!-- 1.00 -->
                        <g transform="translate(19.224375 22.383876)scale(0.1 -0.1)">
                            <use xlink:href="#DejaVuSans-31"/>
                            <use xlink:href="#DejaVuSans-2e" x="63.623047"/>
                            <use xlink:href="#DejaVuSans-30" x="95.410156"/>
                            <use xlink:href="#DejaVuSans-30" x="159.033203"/>
                        </g>
                    </g>
                </g>
            </g>
            <g id="line2d_29">
                <path d="M 66.740455 184.164245
L 67.105829 183.373889 
L 67.471203 183.373889 
L 67.836578 183.215818 
L 68.201952 183.294853 
L 68.567327 183.769067 
L 68.932701 183.690031 
L 69.298076 183.452925 
L 69.66345 184.243281 
L 70.028825 184.164245 
L 70.394199 183.53196 
L 70.759574 184.322316 
L 71.124948 184.480387 
L 71.490323 183.452925 
L 71.855697 182.978711 
L 72.586446 183.690031 
L 72.95182 183.769067 
L 73.317195 184.322316 
L 74.047944 183.690031 
L 74.413318 183.848103 
L 74.778693 184.164245 
L 75.144067 184.006174 
L 75.509442 183.057747 
L 75.874816 182.978711 
L 76.240191 181.55607 
L 76.605565 182.899675 
L 76.97094 185.349779 
L 77.336314 183.215818 
L 77.701689 182.583533 
L 78.067063 184.480387 
L 78.432437 184.954601 
L 78.797812 183.690031 
L 79.163186 184.006174 
L 79.528561 184.954601 
L 80.25931 184.164245 
L 80.624684 184.717494 
L 80.990059 184.638459 
L 81.355433 183.848103 
L 81.720808 183.769067 
L 82.451557 184.401352 
L 82.816931 183.690031 
L 83.182305 183.53196 
L 83.54768 183.848103 
L 83.913054 183.215818 
L 84.643803 185.744957 
L 86.105301 184.085209 
L 86.470676 184.006174 
L 86.83605 184.164245 
L 87.201425 184.085209 
L 87.566799 184.243281 
L 87.932174 184.875566 
L 88.297548 183.136782 
L 88.662922 182.030284 
L 89.028297 182.899675 
L 89.759046 183.452925 
L 90.12442 183.452925 
L 90.489795 182.82064 
L 90.855169 183.136782 
L 91.220544 183.690031 
L 91.585918 185.033637 
L 91.951293 184.559423 
L 92.316667 182.741604 
L 92.682042 182.583533 
L 93.047416 183.690031 
L 93.412791 183.769067 
L 93.778165 182.899675 
L 94.143539 183.610996 
L 94.508914 183.610996 
L 94.874288 183.294853 
L 95.239663 183.610996 
L 95.605037 182.82064 
L 95.970412 181.55607 
L 96.335786 181.397999 
L 96.701161 179.975358 
L 97.066535 180.133429 
L 97.43191 181.635106 
L 97.797284 180.765714 
L 98.162659 182.504497 
L 98.528033 183.057747 
L 98.893407 181.55607 
L 99.258782 180.607643 
L 99.624156 180.84475 
L 100.354905 179.975358 
L 100.72028 180.370536 
L 101.085654 179.026931 
L 101.451029 178.710788 
L 102.181778 177.525254 
L 102.547152 177.525254 
L 102.912527 177.999468 
L 103.277901 177.920432 
L 103.643276 175.470329 
L 104.00865 176.33972 
L 104.374024 178.157539 
L 105.104773 175.786471 
L 105.470148 175.944542 
L 105.835522 175.786471 
L 106.200897 175.865507 
L 106.566271 175.786471 
L 106.931646 175.233222 
L 107.29702 175.075151 
L 108.027769 175.075151 
L 108.393144 174.442866 
L 108.758518 174.759008 
L 109.123893 175.391293 
L 109.489267 174.996115 
L 110.220016 174.996115 
L 110.58539 174.284795 
L 110.950765 174.36383 
L 111.316139 174.759008 
L 111.681514 173.494439 
L 112.046888 173.731545 
L 112.412263 174.442866 
L 112.777637 174.047688 
L 113.143012 172.941189 
L 113.508386 172.308905 
L 113.873761 172.862154 
L 114.239135 173.178296 
L 114.969884 169.779765 
L 115.335258 171.281442 
L 115.700633 171.913727 
L 116.066007 170.570121 
L 116.431382 170.253979 
L 116.796756 168.43616 
L 117.162131 168.910374 
L 117.527505 171.123371 
L 119.354378 166.302199 
L 119.719752 166.855448 
L 120.085126 166.776412 
L 120.450501 167.17159 
L 120.815875 167.092555 
L 121.18125 165.74895 
L 121.546624 166.144128 
L 122.277373 166.223163 
L 122.642748 166.065092 
L 124.104246 164.247273 
L 124.46962 164.48438 
L 124.834995 164.010166 
L 125.200369 162.350419 
L 125.565743 161.481027 
L 125.931118 162.271383 
L 126.296492 164.168238 
L 126.661867 163.931131 
L 127.027241 162.350419 
L 128.123365 163.377881 
L 128.488739 163.298846 
L 128.854114 163.377881 
L 129.219488 163.061739 
L 129.584863 162.350419 
L 129.950237 162.350419 
L 130.680986 160.5326 
L 131.04636 161.560063 
L 131.777109 161.876205 
L 132.142484 162.587525 
L 132.873233 160.927778 
L 133.238607 161.164885 
L 133.603982 161.164885 
L 134.334731 162.034276 
L 135.06548 160.137422 
L 135.430854 161.322956 
L 135.796229 161.639098 
L 136.161603 161.797169 
L 136.526977 162.350419 
L 136.892352 162.350419 
L 137.623101 160.848742 
L 137.988475 161.322956 
L 138.35385 160.611635 
L 138.719224 160.374529 
L 139.084599 162.192347 
L 139.449973 162.50849 
L 139.815348 161.085849 
L 140.180722 160.769707 
L 140.546097 161.401991 
L 140.911471 162.824632 
L 141.276845 162.745597 
L 141.64222 162.192347 
L 142.007594 162.666561 
L 142.372969 163.456917 
L 142.738343 165.037629 
L 143.103718 165.511843 
L 143.469092 165.037629 
L 143.834467 165.511843 
L 144.199841 165.116665 
L 144.565216 164.48438 
L 144.93059 164.721487 
L 145.661339 166.065092 
L 146.026714 165.037629 
L 146.757462 165.432807 
L 147.122837 165.353772 
L 147.488211 166.223163 
L 147.853586 166.46027 
L 148.21896 166.302199 
L 148.584335 166.381234 
L 148.949709 166.618341 
L 149.315084 166.539306 
L 149.680458 167.408697 
L 150.045833 167.645804 
L 150.411207 166.855448 
L 150.776582 167.250626 
L 151.141956 167.961946 
L 151.507331 167.72484 
L 151.872705 167.250626 
L 152.238079 167.566768 
L 152.603454 168.831338 
L 152.968828 168.910374 
L 153.334203 168.515196 
L 153.699577 169.463623 
L 154.064952 169.621694 
L 154.430326 168.752302 
L 155.161075 168.673267 
L 155.52645 168.752302 
L 155.891824 168.357124 
L 156.257199 168.673267 
L 156.622573 170.253979 
L 157.353322 169.542659 
L 157.718696 168.43616 
L 158.084071 169.384587 
L 158.449445 172.546011 
L 158.81482 171.755655 
L 159.180194 170.253979 
L 159.545569 170.491086 
L 160.276318 171.518549 
L 160.641692 171.360477 
L 161.007067 170.570121 
L 161.737816 170.965299 
L 162.10319 171.044335 
L 162.468564 171.439513 
L 162.833939 171.518549 
L 163.199313 171.834691 
L 163.564688 171.597584 
L 163.930062 171.67662 
L 164.660811 171.123371 
L 165.026186 172.071798 
L 165.39156 172.071798 
L 165.756935 173.099261 
L 166.122309 172.38794 
L 166.487684 172.229869 
L 166.853058 173.415403 
L 167.218433 172.466976 
L 167.583807 172.150833 
L 167.949181 171.202406 
L 169.410679 173.178296 
L 169.776054 172.466976 
L 170.141428 172.941189 
L 170.506803 172.941189 
L 170.872177 172.704083 
L 171.237552 173.257332 
L 171.602926 172.941189 
L 171.968301 171.834691 
L 172.69905 173.257332 
L 173.064424 172.783118 
L 174.160547 172.546011 
L 174.525922 172.862154 
L 174.891296 172.941189 
L 175.256671 172.783118 
L 175.622045 172.308905 
L 175.98742 172.941189 
L 176.352794 172.862154 
L 177.083543 170.886264 
L 177.448918 171.044335 
L 177.814292 172.783118 
L 178.545041 172.308905 
L 178.910415 171.597584 
L 179.27579 171.755655 
L 179.641164 172.546011 
L 180.006539 171.597584 
L 180.371913 172.229869 
L 180.737288 172.546011 
L 181.102662 171.67662 
L 181.468037 171.67662 
L 181.833411 172.38794 
L 182.56416 171.755655 
L 182.929535 173.257332 
L 183.294909 172.941189 
L 184.025658 171.913727 
L 184.391032 171.755655 
L 184.756407 171.755655 
L 185.121781 171.281442 
L 185.487156 171.913727 
L 185.85253 171.281442 
L 186.217905 170.886264 
L 186.583279 171.518549 
L 187.314028 174.126723 
L 187.679403 173.573474 
L 188.044777 172.150833 
L 188.410152 172.308905 
L 188.775526 172.308905 
L 189.1409 170.333015 
L 189.506275 169.384587 
L 190.237024 172.38794 
L 190.967773 174.126723 
L 191.698522 171.755655 
L 192.063896 172.466976 
L 192.429271 172.150833 
L 192.794645 171.439513 
L 193.525394 172.071798 
L 193.890768 171.67662 
L 194.256143 171.597584 
L 194.621517 172.308905 
L 194.986892 172.150833 
L 195.352266 171.439513 
L 195.717641 171.281442 
L 196.083015 171.518549 
L 196.813764 171.281442 
L 197.179139 171.518549 
L 197.544513 171.913727 
L 197.909888 172.071798 
L 198.640637 171.123371 
L 199.006011 171.360477 
L 199.371385 171.281442 
L 199.73676 171.360477 
L 200.467509 170.016872 
L 201.198258 172.862154 
L 201.563632 172.308905 
L 202.294381 170.728193 
L 202.659756 170.886264 
L 203.02513 171.281442 
L 203.390505 172.071798 
L 203.755879 172.229869 
L 204.121254 171.202406 
L 204.852002 171.281442 
L 205.217377 171.044335 
L 205.582751 170.333015 
L 205.948126 171.202406 
L 206.3135 171.755655 
L 206.678875 171.67662 
L 207.044249 171.281442 
L 207.409624 170.095908 
L 207.774998 170.965299 
L 208.140373 171.123371 
L 208.505747 170.965299 
L 208.871122 170.649157 
L 209.236496 171.202406 
L 209.601871 171.992762 
L 209.967245 170.333015 
L 210.332619 169.70073 
L 210.697994 171.123371 
L 211.063368 171.044335 
L 211.428743 169.147481 
L 211.794117 169.70073 
L 212.159492 171.123371 
L 212.524866 171.123371 
L 212.890241 170.095908 
L 213.255615 169.779765 
L 213.986364 170.41205 
L 214.351739 170.095908 
L 214.717113 169.384587 
L 215.082487 169.937837 
L 215.447862 169.70073 
L 215.813236 169.305552 
L 216.178611 169.384587 
L 216.90936 168.752302 
L 217.274734 168.752302 
L 217.640109 168.43616 
L 218.005483 168.43616 
L 218.370858 168.910374 
L 218.736232 167.566768 
L 219.101607 167.013519 
L 219.466981 168.357124 
L 219.832356 168.278089 
L 220.19773 167.329662 
L 220.563104 167.250626 
L 220.928479 167.013519 
L 221.293853 166.223163 
L 221.659228 165.986056 
L 222.024602 166.065092 
L 222.389977 165.74895 
L 222.755351 164.879558 
L 223.4861 164.642451 
L 224.582224 163.614988 
L 225.312973 161.401991 
L 225.678347 163.298846 
L 226.043721 163.535953 
L 226.409096 162.429454 
L 227.870594 161.164885 
L 228.235968 161.481027 
L 228.601343 162.666561 
L 228.966717 162.192347 
L 229.332092 161.164885 
L 229.697466 161.797169 
L 230.062841 160.453564 
L 230.428215 160.216457 
L 230.793589 161.876205 
L 231.158964 162.192347 
L 231.524338 161.797169 
L 231.889713 161.006813 
L 232.255087 161.797169 
L 232.620462 162.982703 
L 232.985836 161.481027 
L 233.351211 161.876205 
L 233.716585 163.298846 
L 234.447334 162.350419 
L 234.812709 161.718134 
L 235.178083 161.481027 
L 235.543458 161.006813 
L 235.908832 161.085849 
L 236.274206 162.50849 
L 236.639581 162.666561 
L 237.004955 162.50849 
L 237.37033 163.456917 
L 237.735704 163.456917 
L 238.466453 164.168238 
L 238.831828 163.852095 
L 239.197202 164.010166 
L 239.562577 164.879558 
L 239.927951 165.116665 
L 240.293326 164.721487 
L 240.6587 163.77306 
L 241.024075 162.429454 
L 241.754823 166.46027 
L 242.120198 166.697377 
L 242.850947 165.511843 
L 243.216321 165.669914 
L 243.581696 164.958594 
L 243.94707 164.642451 
L 244.312445 164.958594 
L 244.677819 166.46027 
L 245.408568 166.539306 
L 245.773943 167.408697 
L 246.139317 165.669914 
L 246.504692 165.274736 
L 246.870066 165.907021 
L 247.600815 165.827985 
L 247.966189 165.274736 
L 248.331564 165.274736 
L 248.696938 166.618341 
L 249.062313 167.408697 
L 249.427687 167.408697 
L 249.793062 167.72484 
L 250.523811 169.384587 
L 251.25456 168.040982 
L 251.619934 168.594231 
L 251.985308 169.621694 
L 252.350683 171.202406 
L 252.716057 171.597584 
L 253.081432 170.41205 
L 253.446806 170.253979 
L 253.812181 171.518549 
L 254.177555 171.202406 
L 254.54293 171.123371 
L 254.908304 172.071798 
L 255.273679 171.992762 
L 255.639053 172.229869 
L 256.004428 172.704083 
L 256.735177 172.783118 
L 257.100551 173.178296 
L 257.465925 173.336367 
L 257.8313 172.466976 
L 258.196674 172.704083 
L 258.562049 172.625047 
L 258.927423 171.518549 
L 259.292798 173.810581 
L 259.658172 173.494439 
L 260.023547 171.992762 
L 260.388921 171.913727 
L 260.754296 172.071798 
L 261.11967 174.759008 
L 261.485045 174.205759 
L 261.850419 173.020225 
L 262.215794 173.65251 
L 262.581168 172.625047 
L 262.946542 171.202406 
L 263.311917 172.150833 
L 263.677291 173.415403 
L 264.042666 172.941189 
L 264.40804 172.704083 
L 264.773415 173.65251 
L 265.138789 173.494439 
L 265.504164 172.625047 
L 265.869538 172.308905 
L 266.234913 172.150833 
L 266.600287 173.020225 
L 266.965662 174.838044 
L 267.331036 174.91708 
L 267.696411 173.573474 
L 268.061785 173.099261 
L 268.427159 172.38794 
L 268.792534 172.38794 
L 269.157908 173.336367 
L 269.523283 173.810581 
L 270.254032 172.625047 
L 270.619406 173.099261 
L 270.984781 172.546011 
L 271.350155 172.625047 
L 272.080904 170.491086 
L 272.446279 173.178296 
L 272.811653 173.415403 
L 273.177027 174.047688 
L 273.542402 174.91708 
L 273.907776 173.573474 
L 274.273151 173.415403 
L 274.638525 173.099261 
L 275.0039 173.020225 
L 275.369274 173.731545 
L 276.100023 176.89297 
L 276.465398 178.394646 
L 277.196147 183.057747 
L 277.561521 185.903028 
L 277.926896 187.325669 
L 278.29227 187.799883 
L 278.657644 187.720847 
L 279.023019 187.246634 
L 279.388393 185.112672 
L 280.849891 173.020225 
L 281.58064 162.982703 
L 282.311389 156.185642 
L 283.407513 135.873492 
L 284.138261 115.798448 
L 284.86901 94.695942 
L 285.599759 75.411255 
L 287.061257 37.078988 
L 287.426632 36.130561 
L 287.792006 34.312742 
L 288.157381 33.127208 
L 288.522755 30.835175 
L 288.888129 31.309389 
L 289.618878 43.322801 
L 290.349627 61.500989 
L 290.715002 73.435365 
L 291.445751 116.509769 
L 292.907249 228.582254 
L 293.637998 260.196495 
L 294.003372 266.993557 
L 294.368746 269.048483 
L 294.734121 270.234017 
L 295.099495 273.158334 
L 296.926368 294.893125 
L 297.657117 299.556225 
L 298.022491 298.844905 
L 298.387866 294.576982 
L 299.118615 289.676775 
L 299.483989 286.831493 
L 299.849363 285.566924 
L 300.214738 283.670069 
L 300.945487 275.055189 
L 302.406985 250.633187 
L 302.772359 249.763796 
L 303.503108 245.574909 
L 303.868483 245.337802 
L 304.233857 244.705517 
L 304.599232 244.46841 
L 304.964606 243.203841 
L 305.695355 239.093989 
L 306.060729 237.039063 
L 306.791478 231.111393 
L 307.522227 227.001542 
L 307.887602 223.286869 
L 308.252976 221.548085 
L 308.618351 221.46905 
L 308.983725 219.809302 
L 309.3491 216.094629 
L 309.714474 214.27681 
L 310.810597 218.702804 
L 311.541346 218.465697 
L 311.906721 219.49316 
L 312.272095 219.730266 
L 313.002844 219.018946 
L 313.368219 218.544732 
L 313.733593 217.280163 
L 314.464342 213.407418 
L 314.829717 211.984777 
L 316.291214 203.448932 
L 316.656589 202.658576 
L 317.387338 196.019586 
L 317.752712 195.150194 
L 318.483461 191.672627 
L 319.21421 188.906381 
L 319.579585 189.301559 
L 319.944959 188.195061 
L 320.675708 184.559423 
L 321.406457 184.164245 
L 321.771831 183.057747 
L 322.50258 181.635106 
L 322.867955 181.55607 
L 323.233329 181.872213 
L 323.598704 181.872213 
L 323.964078 181.239928 
L 324.329453 180.84475 
L 325.060202 180.607643 
L 325.79095 179.738251 
L 326.156325 180.212465 
L 326.521699 180.370536 
L 327.252448 180.054394 
L 327.617823 179.264038 
L 327.983197 178.789824 
L 329.079321 180.607643 
L 329.444695 180.607643 
L 329.81007 179.501145 
L 330.540819 179.817287 
L 330.906193 179.659216 
L 331.271567 179.343073 
L 331.636942 179.659216 
L 332.002316 180.133429 
L 332.367691 180.291501 
L 333.09844 180.133429 
L 333.463814 180.765714 
L 334.194563 181.318963 
L 334.925312 181.239928 
L 335.290687 180.607643 
L 335.656061 179.738251 
L 336.021436 180.528607 
L 336.38681 180.765714 
L 336.752184 180.84475 
L 337.117559 180.291501 
L 337.482933 180.370536 
L 337.848308 179.58018 
L 338.213682 178.078504 
L 338.944431 180.212465 
L 339.309806 180.054394 
L 339.67518 178.789824 
L 340.040555 178.157539 
L 340.771304 179.58018 
L 341.136678 179.817287 
L 341.502053 179.896323 
L 341.867427 179.659216 
L 342.598176 177.367183 
L 343.328925 180.133429 
L 343.694299 179.343073 
L 344.059674 180.054394 
L 344.425048 181.55607 
L 344.790423 180.84475 
L 345.155797 179.817287 
L 345.521172 180.923785 
L 345.886546 183.452925 
L 346.251921 184.559423 
L 346.982669 182.109319 
L 347.348044 181.793177 
L 348.078793 180.054394 
L 348.444167 180.686679 
L 348.809542 181.081857 
L 349.905665 179.817287 
L 350.27104 180.607643 
L 351.001789 181.318963 
L 351.367163 181.160892 
L 351.732538 181.160892 
L 352.097912 181.397999 
L 352.463286 181.318963 
L 352.828661 181.55607 
L 353.194035 181.635106 
L 353.55941 181.239928 
L 354.290159 181.160892 
L 354.655533 180.370536 
L 355.020908 181.002821 
L 355.386282 181.239928 
L 355.751657 180.528607 
L 356.117031 180.291501 
L 356.482406 180.449572 
L 356.84778 181.160892 
L 357.213155 180.291501 
L 357.578529 178.86886 
L 357.943903 179.343073 
L 358.309278 181.714141 
L 358.674652 181.635106 
L 359.770776 177.762361 
L 360.13615 178.710788 
L 360.501525 180.054394 
L 360.866899 179.975358 
L 361.597648 180.686679 
L 362.328397 182.188355 
L 362.693771 181.318963 
L 363.059146 180.84475 
L 363.42452 179.026931 
L 363.789895 177.999468 
L 364.155269 180.133429 
L 364.520644 180.212465 
L 364.886018 181.55607 
L 365.251393 182.346426 
L 365.616767 181.081857 
L 367.078265 180.133429 
L 367.44364 180.054394 
L 367.809014 179.422109 
L 368.174388 179.817287 
L 368.539763 180.84475 
L 369.635886 177.999468 
L 370.001261 177.367183 
L 370.366635 177.841397 
L 370.73201 177.999468 
L 371.097384 177.762361 
L 371.462759 177.367183 
L 372.193508 176.023578 
L 372.558882 175.707436 
L 372.924257 176.260685 
L 373.655005 174.996115 
L 374.02038 175.786471 
L 374.385754 175.470329 
L 374.751129 174.205759 
L 375.116503 173.731545 
L 375.481878 174.442866 
L 375.847252 174.838044 
L 376.212627 174.838044 
L 376.943376 171.518549 
L 378.039499 174.126723 
L 378.404874 172.862154 
L 378.770248 172.546011 
L 379.135622 174.284795 
L 379.500997 174.126723 
L 379.866371 173.336367 
L 380.231746 172.862154 
L 380.962495 172.783118 
L 381.327869 171.834691 
L 381.693244 170.174943 
L 382.058618 169.858801 
L 382.423993 170.253979 
L 382.789367 170.174943 
L 383.154742 171.044335 
L 383.520116 171.281442 
L 383.88549 170.728193 
L 384.250865 169.858801 
L 384.616239 169.937837 
L 385.346988 166.223163 
L 385.712363 167.408697 
L 386.077737 167.961946 
L 386.443112 167.645804 
L 386.808486 167.17159 
L 387.173861 167.013519 
L 387.539235 166.539306 
L 387.90461 165.590878 
L 388.269984 165.590878 
L 388.635359 165.907021 
L 389.000733 165.827985 
L 389.366107 165.274736 
L 389.731482 165.274736 
L 390.096856 164.563416 
L 390.462231 164.721487 
L 390.827605 165.353772 
L 391.19298 164.800522 
L 391.558354 165.827985 
L 391.923729 165.274736 
L 392.289103 163.061739 
L 392.654478 162.982703 
L 393.385227 164.247273 
L 393.750601 165.1957 
L 394.115976 165.590878 
L 394.48135 165.116665 
L 395.212099 165.986056 
L 395.577473 165.274736 
L 396.308222 163.456917 
L 396.673597 164.642451 
L 397.038971 164.958594 
L 398.135095 163.21981 
L 399.231218 163.061739 
L 399.596593 162.429454 
L 399.961967 162.982703 
L 400.327341 164.247273 
L 400.692716 163.614988 
L 401.05809 162.666561 
L 401.423465 162.587525 
L 401.788839 162.192347 
L 402.154214 162.034276 
L 402.519588 161.401991 
L 402.884963 161.164885 
L 403.250337 162.824632 
L 403.615712 163.21981 
L 403.981086 162.666561 
L 404.711835 164.721487 
L 405.077209 164.563416 
L 405.442584 163.852095 
L 405.807958 164.089202 
L 406.173333 165.432807 
L 406.538707 166.302199 
L 407.269456 166.539306 
L 408.000205 166.302199 
L 408.36558 166.618341 
L 408.730954 165.907021 
L 409.096329 164.326309 
L 409.461703 163.456917 
L 409.827078 162.903668 
L 410.192452 163.377881 
L 410.557826 165.116665 
L 410.923201 164.563416 
L 411.288575 162.429454 
L 412.019324 165.827985 
L 412.384699 166.065092 
L 412.750073 166.46027 
L 413.115448 166.618341 
L 413.480822 166.144128 
L 413.846197 166.539306 
L 414.211571 165.986056 
L 414.576946 164.958594 
L 414.94232 165.669914 
L 415.307695 166.855448 
L 415.673069 167.487733 
L 416.038443 166.46027 
L 416.769192 167.408697 
L 417.499941 167.961946 
L 417.865316 167.329662 
L 418.23069 167.645804 
L 418.596065 167.408697 
L 418.961439 166.381234 
L 419.326814 166.539306 
L 420.057563 168.831338 
L 421.153686 170.728193 
L 421.51906 170.965299 
L 422.249809 170.333015 
L 422.615184 170.491086 
L 422.980558 170.253979 
L 423.711307 168.515196 
L 424.807431 168.989409 
L 425.53818 170.965299 
L 426.268928 171.992762 
L 426.634303 172.150833 
L 426.999677 172.071798 
L 427.365052 170.965299 
L 427.730426 170.41205 
L 428.095801 171.834691 
L 428.461175 172.308905 
L 428.82655 171.755655 
L 429.191924 172.150833 
L 429.557299 173.257332 
L 430.288048 171.281442 
L 430.653422 171.360477 
L 431.018797 171.202406 
L 431.384171 173.020225 
L 431.749545 173.65251 
L 431.749545 173.65251 
" clip-path="url(#pc0703b35b0)" style="fill: none; stroke: #1f77b4; stroke-width: 1.5; stroke-linecap: square"/>
            </g>
            <g id="line2d_30">
                <path d="M 66.740455 63.132682
L 67.471203 82.543312 
L 68.201952 109.109186 
L 71.855697 257.29966 
L 72.586446 276.581991 
L 73.317195 288.977754 
L 73.682569 292.661778 
L 74.047944 294.898081 
L 74.413318 295.937097 
L 74.778693 296.046218 
L 75.144067 295.469933 
L 75.509442 294.398086 
L 76.240191 291.178179 
L 76.97094 286.63831 
L 77.701689 280.651395 
L 79.163186 265.691976 
L 80.25931 254.923928 
L 81.355433 246.220922 
L 82.451557 239.31539 
L 83.54768 233.688976 
L 85.739927 224.015567 
L 86.83605 220.015434 
L 87.566799 218.255222 
L 88.297548 217.319101 
L 89.028297 217.016175 
L 89.759046 217.064711 
L 90.855169 217.236157 
L 91.220544 217.181203 
L 91.585918 216.997488 
L 91.951293 216.636621 
L 92.316667 216.054471 
L 93.047416 214.120014 
L 93.778165 211.190204 
L 95.605037 201.939759 
L 97.066535 195.304343 
L 98.162659 191.194209 
L 99.258782 188.01093 
L 99.989531 186.49678 
L 100.72028 185.415315 
L 101.451029 184.648673 
L 102.547152 183.865187 
L 104.00865 183.203992 
L 105.470148 182.781935 
L 106.931646 182.614141 
L 109.489267 182.569776 
L 110.58539 182.843139 
L 112.046888 183.246671 
L 116.796756 183.564022 
L 118.258254 183.104255 
L 118.989003 183.132907 
L 119.719752 183.40445 
L 121.18125 184.066162 
L 122.277373 184.198814 
L 124.46962 184.285759 
L 125.565743 184.251612 
L 126.661867 183.936084 
L 127.75799 183.627682 
L 128.854114 183.5992 
L 130.315612 183.635369 
L 131.777109 183.334059 
L 132.873233 183.161188 
L 136.161603 183.104003 
L 137.623101 183.302855 
L 138.719224 183.429421 
L 139.449973 183.314256 
L 140.546097 182.829641 
L 143.103718 181.27873 
L 144.199841 180.303214 
L 145.661339 179.016448 
L 146.392088 178.66429 
L 147.488211 178.478707 
L 148.584335 178.276867 
L 149.680458 177.780762 
L 151.507331 176.573872 
L 154.064952 174.701549 
L 155.161075 174.251191 
L 156.257199 173.819452 
L 156.987947 173.327298 
L 158.084071 172.264853 
L 159.545569 170.900634 
L 165.756935 166.354853 
L 168.314556 163.65916 
L 169.045305 163.338705 
L 171.602926 162.601334 
L 172.69905 162.294181 
L 174.160547 162.237429 
L 175.256671 162.114223 
L 177.448918 161.660765 
L 178.545041 161.754397 
L 180.006539 161.925544 
L 181.102662 161.80488 
L 182.198786 161.6835 
L 182.929535 161.828508 
L 184.025658 162.435887 
L 184.756407 162.834497 
L 185.487156 162.957934 
L 186.217905 162.753169 
L 187.314028 162.27395 
L 188.044777 162.234601 
L 188.775526 162.529733 
L 192.429271 164.906245 
L 193.525394 166.097022 
L 194.621517 167.269441 
L 195.352266 167.785522 
L 197.909888 169.043407 
L 200.102134 170.752252 
L 201.198258 171.163689 
L 202.659756 171.632714 
L 203.390505 172.119601 
L 205.582751 173.912609 
L 206.3135 174.090659 
L 207.044249 174.01811 
L 209.236496 173.600189 
L 210.697994 173.339429 
L 212.159492 173.0322 
L 212.890241 173.086338 
L 213.986364 173.476519 
L 216.178611 174.396695 
L 218.005483 174.853213 
L 219.101607 174.987513 
L 219.832356 174.911688 
L 220.563104 174.624736 
L 223.120726 173.15687 
L 223.851475 173.18661 
L 225.678347 173.525329 
L 227.505219 173.579176 
L 229.697466 174.125432 
L 230.793589 173.994506 
L 233.351211 173.439693 
L 234.08196 172.986143 
L 235.543458 171.911251 
L 236.274206 171.720862 
L 237.004955 171.890528 
L 238.466453 172.767331 
L 239.562577 173.247041 
L 240.293326 173.344682 
L 241.024075 173.242903 
L 241.754823 172.937931 
L 244.312445 171.406272 
L 245.043194 171.298055 
L 246.139317 171.465371 
L 248.331564 172.048723 
L 249.062313 172.057602 
L 249.793062 171.877112 
L 252.350683 170.78941 
L 255.273679 170.420855 
L 257.465925 169.496337 
L 258.196674 169.045222 
L 259.292798 168.0316 
L 261.11967 166.141854 
L 262.581168 165.114576 
L 264.042666 164.022244 
L 265.138789 163.233423 
L 265.869538 162.908418 
L 266.965662 162.691175 
L 269.888657 162.371945 
L 271.350155 162.64544 
L 272.080904 162.527047 
L 273.177027 161.952869 
L 273.907776 161.642855 
L 274.638525 161.643302 
L 275.369274 161.937746 
L 277.561521 163.263705 
L 278.29227 163.99747 
L 280.119142 166.266556 
L 280.849891 166.665061 
L 281.58064 166.647219 
L 283.042138 166.290099 
L 283.772887 166.335094 
L 284.86901 166.669904 
L 286.695883 167.47616 
L 287.792006 168.28229 
L 290.349627 170.534501 
L 291.811125 171.353003 
L 293.272623 171.999024 
L 295.830244 172.832314 
L 297.657117 173.870029 
L 298.387866 174.047856 
L 300.580112 174.328971 
L 301.676236 174.542555 
L 302.772359 174.460027 
L 304.233857 174.267225 
L 304.964606 174.383095 
L 307.522227 175.118849 
L 308.252976 174.928062 
L 308.983725 174.46246 
L 310.079848 173.641895 
L 310.445223 173.504038 
L 310.810597 173.513595 
L 311.175972 173.710826 
L 311.541346 174.123655 
L 312.272095 175.628801 
L 313.002844 177.929335 
L 315.195091 185.743762 
L 315.560465 186.534777 
L 315.92584 187.023368 
L 316.291214 187.157387 
L 316.656589 186.883477 
L 317.021963 186.142715 
L 317.387338 184.866799 
L 317.752712 182.976531 
L 318.483461 176.996031 
L 319.21421 167.538158 
L 319.944959 154.325731 
L 321.041082 128.629232 
L 324.694827 35.546063 
L 325.060202 29.821647 
L 325.425576 26.080904 
L 325.79095 24.750909 
L 326.156325 26.164855 
L 326.521699 30.50931 
L 326.887074 37.792369 
L 327.617823 60.323013 
L 328.713946 107.840049 
L 331.636942 245.682049 
L 332.367691 271.581438 
L 333.09844 289.801733 
L 333.463814 295.817654 
L 333.829189 299.928679 
L 334.194563 302.400916 
L 334.559938 303.567011 
L 334.925312 303.769091 
L 335.290687 303.30422 
L 335.656061 302.384957 
L 336.38681 299.536066 
L 337.117559 295.186761 
L 337.848308 288.927172 
L 338.944431 276.669783 
L 340.405929 260.516982 
L 341.502053 251.109275 
L 342.598176 243.54611 
L 343.694299 237.5782 
L 344.790423 232.981325 
L 346.617295 226.312455 
L 347.348044 224.14245 
L 348.078793 222.679412 
L 348.809542 221.976663 
L 349.540291 221.817549 
L 350.636414 221.831959 
L 351.001789 221.728097 
L 351.367163 221.50131 
L 351.732538 221.112209 
L 352.097912 220.526477 
L 352.828661 218.67532 
L 353.55941 215.913118 
L 354.655533 210.560094 
L 357.213155 197.355461 
L 358.309278 192.794011 
L 359.040027 190.549815 
L 359.770776 188.938266 
L 360.866899 187.211086 
L 362.328397 185.342099 
L 363.059146 184.701611 
L 363.789895 184.357021 
L 364.886018 184.221265 
L 366.712891 184.295949 
L 368.174388 184.651894 
L 369.270512 184.913318 
L 370.366635 184.908484 
L 371.828133 184.564853 
L 372.924257 184.358606 
L 374.02038 184.357149 
L 376.212627 184.433001 
L 378.039499 184.397844 
L 379.135622 184.602091 
L 380.962495 185.253821 
L 382.423993 185.729629 
L 384.250865 186.058429 
L 386.443112 186.202142 
L 387.90461 186.387187 
L 390.096856 186.869506 
L 390.827605 186.78781 
L 391.558354 186.502727 
L 393.750601 185.378118 
L 394.48135 185.299274 
L 395.942848 185.520761 
L 397.038971 185.546538 
L 398.135095 185.274769 
L 399.231218 184.748184 
L 400.327341 183.922655 
L 402.519588 181.990075 
L 403.615712 181.467379 
L 405.807958 180.635339 
L 406.904082 179.932909 
L 409.096329 178.150379 
L 411.65395 175.887303 
L 415.307695 172.163713 
L 417.134567 170.319605 
L 418.23069 169.605263 
L 420.422937 168.525661 
L 422.249809 167.220398 
L 423.711307 165.953736 
L 425.903554 163.839813 
L 426.634303 163.446313 
L 428.461175 162.908371 
L 430.288048 162.389107 
L 431.749545 162.254535 
L 431.749545 162.254535 
" clip-path="url(#pc0703b35b0)" style="fill: none; stroke: #ff7f0e; stroke-width: 1.5; stroke-linecap: square"/>
            </g>
            <g id="patch_3">
                <path d="M 48.49 317.72
L 48.49 10.8 
" style="fill: none; stroke: #000000; stroke-width: 0.8; stroke-linejoin: miter; stroke-linecap: square"/>
            </g>
            <g id="patch_4">
                <path d="M 450 317.72
L 450 10.8 
" style="fill: none; stroke: #000000; stroke-width: 0.8; stroke-linejoin: miter; stroke-linecap: square"/>
            </g>
            <g id="patch_5">
                <path d="M 48.49 317.72
L 450 317.72 
" style="fill: none; stroke: #000000; stroke-width: 0.8; stroke-linejoin: miter; stroke-linecap: square"/>
            </g>
            <g id="patch_6">
                <path d="M 48.49 10.8
L 450 10.8 
" style="fill: none; stroke: #000000; stroke-width: 0.8; stroke-linejoin: miter; stroke-linecap: square"/>
            </g>
            <g id="legend_1">
                <g id="patch_7">
                    <path d="M 345.890625 48.15625
L 443 48.15625 
Q 445 48.15625 445 46.15625 
L 445 17.8 
Q 445 15.8 443 15.8 
L 345.890625 15.8 
Q 343.890625 15.8 343.890625 17.8 
L 343.890625 46.15625 
Q 343.890625 48.15625 345.890625 48.15625 
z
" style="fill: #ffffff; opacity: 0.8; stroke: #cccccc; stroke-linejoin: miter"/>
                </g>
                <g id="line2d_31">
                    <path d="M 347.890625 23.898438
L 357.890625 23.898438 
L 367.890625 23.898438 
" style="fill: none; stroke: #1f77b4; stroke-width: 1.5; stroke-linecap: square"/>
                </g>
                <g id="text_15">
                    <!-- RAW ECG -->
                    <g transform="translate(375.890625 27.398438)scale(0.1 -0.1)">
                        <defs>
                            <path id="DejaVuSans-52" d="M 2841 2188
Q 3044 2119 3236 1894 
Q 3428 1669 3622 1275 
L 4263 0 
L 3584 0 
L 2988 1197 
Q 2756 1666 2539 1819 
Q 2322 1972 1947 1972 
L 1259 1972 
L 1259 0 
L 628 0 
L 628 4666 
L 2053 4666 
Q 2853 4666 3247 4331 
Q 3641 3997 3641 3322 
Q 3641 2881 3436 2590 
Q 3231 2300 2841 2188 
z
M 1259 4147 
L 1259 2491 
L 2053 2491 
Q 2509 2491 2742 2702 
Q 2975 2913 2975 3322 
Q 2975 3731 2742 3939 
Q 2509 4147 2053 4147 
L 1259 4147 
z
" transform="scale(0.015625)"/>
                            <path id="DejaVuSans-41" d="M 2188 4044
L 1331 1722 
L 3047 1722 
L 2188 4044 
z
M 1831 4666 
L 2547 4666 
L 4325 0 
L 3669 0 
L 3244 1197 
L 1141 1197 
L 716 0 
L 50 0 
L 1831 4666 
z
" transform="scale(0.015625)"/>
                            <path id="DejaVuSans-57" d="M 213 4666
L 850 4666 
L 1831 722 
L 2809 4666 
L 3519 4666 
L 4500 722 
L 5478 4666 
L 6119 4666 
L 4947 0 
L 4153 0 
L 3169 4050 
L 2175 0 
L 1381 0 
L 213 4666 
z
" transform="scale(0.015625)"/>
                            <path id="DejaVuSans-20" transform="scale(0.015625)"/>
                            <path id="DejaVuSans-45" d="M 628 4666
L 3578 4666 
L 3578 4134 
L 1259 4134 
L 1259 2753 
L 3481 2753 
L 3481 2222 
L 1259 2222 
L 1259 531 
L 3634 531 
L 3634 0 
L 628 0 
L 628 4666 
z
" transform="scale(0.015625)"/>
                            <path id="DejaVuSans-43" d="M 4122 4306
L 4122 3641 
Q 3803 3938 3442 4084 
Q 3081 4231 2675 4231 
Q 1875 4231 1450 3742 
Q 1025 3253 1025 2328 
Q 1025 1406 1450 917 
Q 1875 428 2675 428 
Q 3081 428 3442 575 
Q 3803 722 4122 1019 
L 4122 359 
Q 3791 134 3420 21 
Q 3050 -91 2638 -91 
Q 1578 -91 968 557 
Q 359 1206 359 2328 
Q 359 3453 968 4101 
Q 1578 4750 2638 4750 
Q 3056 4750 3426 4639 
Q 3797 4528 4122 4306 
z
" transform="scale(0.015625)"/>
                            <path id="DejaVuSans-47" d="M 3809 666
L 3809 1919 
L 2778 1919 
L 2778 2438 
L 4434 2438 
L 4434 434 
Q 4069 175 3628 42 
Q 3188 -91 2688 -91 
Q 1594 -91 976 548 
Q 359 1188 359 2328 
Q 359 3472 976 4111 
Q 1594 4750 2688 4750 
Q 3144 4750 3555 4637 
Q 3966 4525 4313 4306 
L 4313 3634 
Q 3963 3931 3569 4081 
Q 3175 4231 2741 4231 
Q 1884 4231 1454 3753 
Q 1025 3275 1025 2328 
Q 1025 1384 1454 906 
Q 1884 428 2741 428 
Q 3075 428 3337 486 
Q 3600 544 3809 666 
z
" transform="scale(0.015625)"/>
                        </defs>
                        <use xlink:href="#DejaVuSans-52"/>
                        <use xlink:href="#DejaVuSans-41" x="65.482422"/>
                        <use xlink:href="#DejaVuSans-57" x="128.390625"/>
                        <use xlink:href="#DejaVuSans-20" x="227.267578"/>
                        <use xlink:href="#DejaVuSans-45" x="259.054688"/>
                        <use xlink:href="#DejaVuSans-43" x="322.238281"/>
                        <use xlink:href="#DejaVuSans-47" x="392.0625"/>
                    </g>
                </g>
                <g id="line2d_32">
                    <path d="M 347.890625 38.576563
L 357.890625 38.576563 
L 367.890625 38.576563 
" style="fill: none; stroke: #ff7f0e; stroke-width: 1.5; stroke-linecap: square"/>
                </g>
                <g id="text_16">
                    <!-- Cleaned ECG -->
                    <g transform="translate(375.890625 42.076563)scale(0.1 -0.1)">
                        <defs>
                            <path id="DejaVuSans-6c" d="M 603 4863
L 1178 4863 
L 1178 0 
L 603 0 
L 603 4863 
z
" transform="scale(0.015625)"/>
                            <path id="DejaVuSans-65" d="M 3597 1894
L 3597 1613 
L 953 1613 
Q 991 1019 1311 708 
Q 1631 397 2203 397 
Q 2534 397 2845 478 
Q 3156 559 3463 722 
L 3463 178 
Q 3153 47 2828 -22 
Q 2503 -91 2169 -91 
Q 1331 -91 842 396 
Q 353 884 353 1716 
Q 353 2575 817 3079 
Q 1281 3584 2069 3584 
Q 2775 3584 3186 3129 
Q 3597 2675 3597 1894 
z
M 3022 2063 
Q 3016 2534 2758 2815 
Q 2500 3097 2075 3097 
Q 1594 3097 1305 2825 
Q 1016 2553 972 2059 
L 3022 2063 
z
" transform="scale(0.015625)"/>
                            <path id="DejaVuSans-61" d="M 2194 1759
Q 1497 1759 1228 1600 
Q 959 1441 959 1056 
Q 959 750 1161 570 
Q 1363 391 1709 391 
Q 2188 391 2477 730 
Q 2766 1069 2766 1631 
L 2766 1759 
L 2194 1759 
z
M 3341 1997 
L 3341 0 
L 2766 0 
L 2766 531 
Q 2569 213 2275 61 
Q 1981 -91 1556 -91 
Q 1019 -91 701 211 
Q 384 513 384 1019 
Q 384 1609 779 1909 
Q 1175 2209 1959 2209 
L 2766 2209 
L 2766 2266 
Q 2766 2663 2505 2880 
Q 2244 3097 1772 3097 
Q 1472 3097 1187 3025 
Q 903 2953 641 2809 
L 641 3341 
Q 956 3463 1253 3523 
Q 1550 3584 1831 3584 
Q 2591 3584 2966 3190 
Q 3341 2797 3341 1997 
z
" transform="scale(0.015625)"/>
                            <path id="DejaVuSans-6e" d="M 3513 2113
L 3513 0 
L 2938 0 
L 2938 2094 
Q 2938 2591 2744 2837 
Q 2550 3084 2163 3084 
Q 1697 3084 1428 2787 
Q 1159 2491 1159 1978 
L 1159 0 
L 581 0 
L 581 3500 
L 1159 3500 
L 1159 2956 
Q 1366 3272 1645 3428 
Q 1925 3584 2291 3584 
Q 2894 3584 3203 3211 
Q 3513 2838 3513 2113 
z
" transform="scale(0.015625)"/>
                            <path id="DejaVuSans-64" d="M 2906 2969
L 2906 4863 
L 3481 4863 
L 3481 0 
L 2906 0 
L 2906 525 
Q 2725 213 2448 61 
Q 2172 -91 1784 -91 
Q 1150 -91 751 415 
Q 353 922 353 1747 
Q 353 2572 751 3078 
Q 1150 3584 1784 3584 
Q 2172 3584 2448 3432 
Q 2725 3281 2906 2969 
z
M 947 1747 
Q 947 1113 1208 752 
Q 1469 391 1925 391 
Q 2381 391 2643 752 
Q 2906 1113 2906 1747 
Q 2906 2381 2643 2742 
Q 2381 3103 1925 3103 
Q 1469 3103 1208 2742 
Q 947 2381 947 1747 
z
" transform="scale(0.015625)"/>
                        </defs>
                        <use xlink:href="#DejaVuSans-43"/>
                        <use xlink:href="#DejaVuSans-6c" x="69.824219"/>
                        <use xlink:href="#DejaVuSans-65" x="97.607422"/>
                        <use xlink:href="#DejaVuSans-61" x="159.130859"/>
                        <use xlink:href="#DejaVuSans-6e" x="220.410156"/>
                        <use xlink:href="#DejaVuSans-65" x="283.789062"/>
                        <use xlink:href="#DejaVuSans-64" x="345.3125"/>
                        <use xlink:href="#DejaVuSans-20" x="408.789062"/>
                        <use xlink:href="#DejaVuSans-45" x="440.576172"/>
                        <use xlink:href="#DejaVuSans-43" x="503.759766"/>
                        <use xlink:href="#DejaVuSans-47" x="573.583984"/>
                    </g>
                </g>
            </g>
        </g>
    </g>
    <defs>
        <clipPath id="pc0703b35b0">
            <rect x="48.49" y="10.8" width="401.51" height="306.92"/>
        </clipPath>
    </defs>
</svg>
