<?xml version="1.0" encoding="utf-8" standalone="no"?>
<!DOCTYPE svg PUBLIC "-//W3C//DTD SVG 1.1//EN"
        "http://www.w3.org/Graphics/SVG/1.1/DTD/svg11.dtd">
<svg xmlns:xlink="http://www.w3.org/1999/xlink" width="460.8pt" height="345.6pt" viewBox="0 0 460.8 345.6"
     xmlns="http://www.w3.org/2000/svg" version="1.1">
    <metadata>
        <rdf:RDF xmlns:dc="http://purl.org/dc/elements/1.1/" xmlns:cc="http://creativecommons.org/ns#"
                 xmlns:rdf="http://www.w3.org/1999/02/22-rdf-syntax-ns#">
            <cc:Work>
                <dc:type rdf:resource="http://purl.org/dc/dcmitype/StillImage"/>
                <dc:date>2022-01-25T13:41:24.054759</dc:date>
                <dc:format>image/svg+xml</dc:format>
                <dc:creator>
                    <cc:Agent>
                        <dc:title>Matplotlib v3.5.1, https://matplotlib.org/</dc:title>
                    </cc:Agent>
                </dc:creator>
            </cc:Work>
        </rdf:RDF>
    </metadata>
    <defs>
        <style type="text/css">*{stroke-linejoin: round; stroke-linecap: butt}</style>
    </defs>
    <g id="figure_1">
        <g id="patch_1">
            <path d="M 0 345.6
L 460.8 345.6 
L 460.8 0 
L 0 0 
z
" style="fill: #ffffff"/>
        </g>
        <g id="axes_1">
            <g id="patch_2">
                <path d="M 48.49 317.72
L 439.784487 317.72 
L 439.784487 10.8 
L 48.49 10.8 
z
" style="fill: #ffffff"/>
            </g>
            <g id="matplotlib.axis_1">
                <g id="xtick_1">
                    <g id="line2d_1">
                        <path d="M 66.276113 317.72
L 66.276113 10.8 
" clip-path="url(#p7420ca8b41)" style="fill: none; stroke: #b0b0b0; stroke-width: 0.8; stroke-linecap: square"/>
                    </g>
                    <g id="line2d_2">
                        <defs>
                            <path id="m264b0feaf5" d="M 0 0
L 0 3.5 
" style="stroke: #000000; stroke-width: 0.8"/>
                        </defs>
                        <g>
                            <use xlink:href="#m264b0feaf5" x="66.276113" y="317.72"
                                 style="stroke: #000000; stroke-width: 0.8"/>
                        </g>
                    </g>
                    <g id="text_1">
                        <!-- 0 -->
                        <g transform="translate(63.094863 332.318437)scale(0.1 -0.1)">
                            <defs>
                                <path id="DejaVuSans-30" d="M 2034 4250
Q 1547 4250 1301 3770 
Q 1056 3291 1056 2328 
Q 1056 1369 1301 889 
Q 1547 409 2034 409 
Q 2525 409 2770 889 
Q 3016 1369 3016 2328 
Q 3016 3291 2770 3770 
Q 2525 4250 2034 4250 
z
M 2034 4750 
Q 2819 4750 3233 4129 
Q 3647 3509 3647 2328 
Q 3647 1150 3233 529 
Q 2819 -91 2034 -91 
Q 1250 -91 836 529 
Q 422 1150 422 2328 
Q 422 3509 836 4129 
Q 1250 4750 2034 4750 
z
" transform="scale(0.015625)"/>
                            </defs>
                            <use xlink:href="#DejaVuSans-30"/>
                        </g>
                    </g>
                </g>
                <g id="xtick_2">
                    <g id="line2d_3">
                        <path d="M 140.415809 317.72
L 140.415809 10.8 
" clip-path="url(#p7420ca8b41)" style="fill: none; stroke: #b0b0b0; stroke-width: 0.8; stroke-linecap: square"/>
                    </g>
                    <g id="line2d_4">
                        <g>
                            <use xlink:href="#m264b0feaf5" x="140.415809" y="317.72"
                                 style="stroke: #000000; stroke-width: 0.8"/>
                        </g>
                    </g>
                    <g id="text_2">
                        <!-- 500 -->
                        <g transform="translate(130.872059 332.318437)scale(0.1 -0.1)">
                            <defs>
                                <path id="DejaVuSans-35" d="M 691 4666
L 3169 4666 
L 3169 4134 
L 1269 4134 
L 1269 2991 
Q 1406 3038 1543 3061 
Q 1681 3084 1819 3084 
Q 2600 3084 3056 2656 
Q 3513 2228 3513 1497 
Q 3513 744 3044 326 
Q 2575 -91 1722 -91 
Q 1428 -91 1123 -41 
Q 819 9 494 109 
L 494 744 
Q 775 591 1075 516 
Q 1375 441 1709 441 
Q 2250 441 2565 725 
Q 2881 1009 2881 1497 
Q 2881 1984 2565 2268 
Q 2250 2553 1709 2553 
Q 1456 2553 1204 2497 
Q 953 2441 691 2322 
L 691 4666 
z
" transform="scale(0.015625)"/>
                            </defs>
                            <use xlink:href="#DejaVuSans-35"/>
                            <use xlink:href="#DejaVuSans-30" x="63.623047"/>
                            <use xlink:href="#DejaVuSans-30" x="127.246094"/>
                        </g>
                    </g>
                </g>
                <g id="xtick_3">
                    <g id="line2d_5">
                        <path d="M 214.555505 317.72
L 214.555505 10.8 
" clip-path="url(#p7420ca8b41)" style="fill: none; stroke: #b0b0b0; stroke-width: 0.8; stroke-linecap: square"/>
                    </g>
                    <g id="line2d_6">
                        <g>
                            <use xlink:href="#m264b0feaf5" x="214.555505" y="317.72"
                                 style="stroke: #000000; stroke-width: 0.8"/>
                        </g>
                    </g>
                    <g id="text_3">
                        <!-- 1000 -->
                        <g transform="translate(201.830505 332.318437)scale(0.1 -0.1)">
                            <defs>
                                <path id="DejaVuSans-31" d="M 794 531
L 1825 531 
L 1825 4091 
L 703 3866 
L 703 4441 
L 1819 4666 
L 2450 4666 
L 2450 531 
L 3481 531 
L 3481 0 
L 794 0 
L 794 531 
z
" transform="scale(0.015625)"/>
                            </defs>
                            <use xlink:href="#DejaVuSans-31"/>
                            <use xlink:href="#DejaVuSans-30" x="63.623047"/>
                            <use xlink:href="#DejaVuSans-30" x="127.246094"/>
                            <use xlink:href="#DejaVuSans-30" x="190.869141"/>
                        </g>
                    </g>
                </g>
                <g id="xtick_4">
                    <g id="line2d_7">
                        <path d="M 288.695201 317.72
L 288.695201 10.8 
" clip-path="url(#p7420ca8b41)" style="fill: none; stroke: #b0b0b0; stroke-width: 0.8; stroke-linecap: square"/>
                    </g>
                    <g id="line2d_8">
                        <g>
                            <use xlink:href="#m264b0feaf5" x="288.695201" y="317.72"
                                 style="stroke: #000000; stroke-width: 0.8"/>
                        </g>
                    </g>
                    <g id="text_4">
                        <!-- 1500 -->
                        <g transform="translate(275.970201 332.318437)scale(0.1 -0.1)">
                            <use xlink:href="#DejaVuSans-31"/>
                            <use xlink:href="#DejaVuSans-35" x="63.623047"/>
                            <use xlink:href="#DejaVuSans-30" x="127.246094"/>
                            <use xlink:href="#DejaVuSans-30" x="190.869141"/>
                        </g>
                    </g>
                </g>
                <g id="xtick_5">
                    <g id="line2d_9">
                        <path d="M 362.834896 317.72
L 362.834896 10.8 
" clip-path="url(#p7420ca8b41)" style="fill: none; stroke: #b0b0b0; stroke-width: 0.8; stroke-linecap: square"/>
                    </g>
                    <g id="line2d_10">
                        <g>
                            <use xlink:href="#m264b0feaf5" x="362.834896" y="317.72"
                                 style="stroke: #000000; stroke-width: 0.8"/>
                        </g>
                    </g>
                    <g id="text_5">
                        <!-- 2000 -->
                        <g transform="translate(350.109896 332.318437)scale(0.1 -0.1)">
                            <defs>
                                <path id="DejaVuSans-32" d="M 1228 531
L 3431 531 
L 3431 0 
L 469 0 
L 469 531 
Q 828 903 1448 1529 
Q 2069 2156 2228 2338 
Q 2531 2678 2651 2914 
Q 2772 3150 2772 3378 
Q 2772 3750 2511 3984 
Q 2250 4219 1831 4219 
Q 1534 4219 1204 4116 
Q 875 4013 500 3803 
L 500 4441 
Q 881 4594 1212 4672 
Q 1544 4750 1819 4750 
Q 2544 4750 2975 4387 
Q 3406 4025 3406 3419 
Q 3406 3131 3298 2873 
Q 3191 2616 2906 2266 
Q 2828 2175 2409 1742 
Q 1991 1309 1228 531 
z
" transform="scale(0.015625)"/>
                            </defs>
                            <use xlink:href="#DejaVuSans-32"/>
                            <use xlink:href="#DejaVuSans-30" x="63.623047"/>
                            <use xlink:href="#DejaVuSans-30" x="127.246094"/>
                            <use xlink:href="#DejaVuSans-30" x="190.869141"/>
                        </g>
                    </g>
                </g>
                <g id="xtick_6">
                    <g id="line2d_11">
                        <path d="M 436.974592 317.72
L 436.974592 10.8 
" clip-path="url(#p7420ca8b41)" style="fill: none; stroke: #b0b0b0; stroke-width: 0.8; stroke-linecap: square"/>
                    </g>
                    <g id="line2d_12">
                        <g>
                            <use xlink:href="#m264b0feaf5" x="436.974592" y="317.72"
                                 style="stroke: #000000; stroke-width: 0.8"/>
                        </g>
                    </g>
                    <g id="text_6">
                        <!-- 2500 -->
                        <g transform="translate(424.249592 332.318437)scale(0.1 -0.1)">
                            <use xlink:href="#DejaVuSans-32"/>
                            <use xlink:href="#DejaVuSans-35" x="63.623047"/>
                            <use xlink:href="#DejaVuSans-30" x="127.246094"/>
                            <use xlink:href="#DejaVuSans-30" x="190.869141"/>
                        </g>
                    </g>
                </g>
            </g>
            <g id="matplotlib.axis_2">
                <g id="ytick_1">
                    <g id="line2d_13">
                        <path d="M 48.49 295.776404
L 439.784487 295.776404 
" clip-path="url(#p7420ca8b41)" style="fill: none; stroke: #b0b0b0; stroke-width: 0.8; stroke-linecap: square"/>
                    </g>
                    <g id="line2d_14">
                        <defs>
                            <path id="mee7ef57f16" d="M 0 0
L -3.5 0 
" style="stroke: #000000; stroke-width: 0.8"/>
                        </defs>
                        <g>
                            <use xlink:href="#mee7ef57f16" x="48.49" y="295.776404"
                                 style="stroke: #000000; stroke-width: 0.8"/>
                        </g>
                    </g>
                    <g id="text_7">
                        <!-- −0.75 -->
                        <g transform="translate(10.844687 299.575623)scale(0.1 -0.1)">
                            <defs>
                                <path id="DejaVuSans-2212" d="M 678 2272
L 4684 2272 
L 4684 1741 
L 678 1741 
L 678 2272 
z
" transform="scale(0.015625)"/>
                                <path id="DejaVuSans-2e" d="M 684 794
L 1344 794 
L 1344 0 
L 684 0 
L 684 794 
z
" transform="scale(0.015625)"/>
                                <path id="DejaVuSans-37" d="M 525 4666
L 3525 4666 
L 3525 4397 
L 1831 0 
L 1172 0 
L 2766 4134 
L 525 4134 
L 525 4666 
z
" transform="scale(0.015625)"/>
                            </defs>
                            <use xlink:href="#DejaVuSans-2212"/>
                            <use xlink:href="#DejaVuSans-30" x="83.789062"/>
                            <use xlink:href="#DejaVuSans-2e" x="147.412109"/>
                            <use xlink:href="#DejaVuSans-37" x="179.199219"/>
                            <use xlink:href="#DejaVuSans-35" x="242.822266"/>
                        </g>
                    </g>
                </g>
                <g id="ytick_2">
                    <g id="line2d_15">
                        <path d="M 48.49 256.156943
L 439.784487 256.156943 
" clip-path="url(#p7420ca8b41)" style="fill: none; stroke: #b0b0b0; stroke-width: 0.8; stroke-linecap: square"/>
                    </g>
                    <g id="line2d_16">
                        <g>
                            <use xlink:href="#mee7ef57f16" x="48.49" y="256.156943"
                                 style="stroke: #000000; stroke-width: 0.8"/>
                        </g>
                    </g>
                    <g id="text_8">
                        <!-- −0.50 -->
                        <g transform="translate(10.844687 259.956162)scale(0.1 -0.1)">
                            <use xlink:href="#DejaVuSans-2212"/>
                            <use xlink:href="#DejaVuSans-30" x="83.789062"/>
                            <use xlink:href="#DejaVuSans-2e" x="147.412109"/>
                            <use xlink:href="#DejaVuSans-35" x="179.199219"/>
                            <use xlink:href="#DejaVuSans-30" x="242.822266"/>
                        </g>
                    </g>
                </g>
                <g id="ytick_3">
                    <g id="line2d_17">
                        <path d="M 48.49 216.537483
L 439.784487 216.537483 
" clip-path="url(#p7420ca8b41)" style="fill: none; stroke: #b0b0b0; stroke-width: 0.8; stroke-linecap: square"/>
                    </g>
                    <g id="line2d_18">
                        <g>
                            <use xlink:href="#mee7ef57f16" x="48.49" y="216.537483"
                                 style="stroke: #000000; stroke-width: 0.8"/>
                        </g>
                    </g>
                    <g id="text_9">
                        <!-- −0.25 -->
                        <g transform="translate(10.844687 220.336701)scale(0.1 -0.1)">
                            <use xlink:href="#DejaVuSans-2212"/>
                            <use xlink:href="#DejaVuSans-30" x="83.789062"/>
                            <use xlink:href="#DejaVuSans-2e" x="147.412109"/>
                            <use xlink:href="#DejaVuSans-32" x="179.199219"/>
                            <use xlink:href="#DejaVuSans-35" x="242.822266"/>
                        </g>
                    </g>
                </g>
                <g id="ytick_4">
                    <g id="line2d_19">
                        <path d="M 48.49 176.918022
L 439.784487 176.918022 
" clip-path="url(#p7420ca8b41)" style="fill: none; stroke: #b0b0b0; stroke-width: 0.8; stroke-linecap: square"/>
                    </g>
                    <g id="line2d_20">
                        <g>
                            <use xlink:href="#mee7ef57f16" x="48.49" y="176.918022"
                                 style="stroke: #000000; stroke-width: 0.8"/>
                        </g>
                    </g>
                    <g id="text_10">
                        <!-- 0.00 -->
                        <g transform="translate(19.224375 180.717241)scale(0.1 -0.1)">
                            <use xlink:href="#DejaVuSans-30"/>
                            <use xlink:href="#DejaVuSans-2e" x="63.623047"/>
                            <use xlink:href="#DejaVuSans-30" x="95.410156"/>
                            <use xlink:href="#DejaVuSans-30" x="159.033203"/>
                        </g>
                    </g>
                </g>
                <g id="ytick_5">
                    <g id="line2d_21">
                        <path d="M 48.49 137.298562
L 439.784487 137.298562 
" clip-path="url(#p7420ca8b41)" style="fill: none; stroke: #b0b0b0; stroke-width: 0.8; stroke-linecap: square"/>
                    </g>
                    <g id="line2d_22">
                        <g>
                            <use xlink:href="#mee7ef57f16" x="48.49" y="137.298562"
                                 style="stroke: #000000; stroke-width: 0.8"/>
                        </g>
                    </g>
                    <g id="text_11">
                        <!-- 0.25 -->
                        <g transform="translate(19.224375 141.09778)scale(0.1 -0.1)">
                            <use xlink:href="#DejaVuSans-30"/>
                            <use xlink:href="#DejaVuSans-2e" x="63.623047"/>
                            <use xlink:href="#DejaVuSans-32" x="95.410156"/>
                            <use xlink:href="#DejaVuSans-35" x="159.033203"/>
                        </g>
                    </g>
                </g>
                <g id="ytick_6">
                    <g id="line2d_23">
                        <path d="M 48.49 97.679101
L 439.784487 97.679101 
" clip-path="url(#p7420ca8b41)" style="fill: none; stroke: #b0b0b0; stroke-width: 0.8; stroke-linecap: square"/>
                    </g>
                    <g id="line2d_24">
                        <g>
                            <use xlink:href="#mee7ef57f16" x="48.49" y="97.679101"
                                 style="stroke: #000000; stroke-width: 0.8"/>
                        </g>
                    </g>
                    <g id="text_12">
                        <!-- 0.50 -->
                        <g transform="translate(19.224375 101.47832)scale(0.1 -0.1)">
                            <use xlink:href="#DejaVuSans-30"/>
                            <use xlink:href="#DejaVuSans-2e" x="63.623047"/>
                            <use xlink:href="#DejaVuSans-35" x="95.410156"/>
                            <use xlink:href="#DejaVuSans-30" x="159.033203"/>
                        </g>
                    </g>
                </g>
                <g id="ytick_7">
                    <g id="line2d_25">
                        <path d="M 48.49 58.05964
L 439.784487 58.05964 
" clip-path="url(#p7420ca8b41)" style="fill: none; stroke: #b0b0b0; stroke-width: 0.8; stroke-linecap: square"/>
                    </g>
                    <g id="line2d_26">
                        <g>
                            <use xlink:href="#mee7ef57f16" x="48.49" y="58.05964"
                                 style="stroke: #000000; stroke-width: 0.8"/>
                        </g>
                    </g>
                    <g id="text_13">
                        <!-- 0.75 -->
                        <g transform="translate(19.224375 61.858859)scale(0.1 -0.1)">
                            <use xlink:href="#DejaVuSans-30"/>
                            <use xlink:href="#DejaVuSans-2e" x="63.623047"/>
                            <use xlink:href="#DejaVuSans-37" x="95.410156"/>
                            <use xlink:href="#DejaVuSans-35" x="159.033203"/>
                        </g>
                    </g>
                </g>
                <g id="ytick_8">
                    <g id="line2d_27">
                        <path d="M 48.49 18.44018
L 439.784487 18.44018 
" clip-path="url(#p7420ca8b41)" style="fill: none; stroke: #b0b0b0; stroke-width: 0.8; stroke-linecap: square"/>
                    </g>
                    <g id="line2d_28">
                        <g>
                            <use xlink:href="#mee7ef57f16" x="48.49" y="18.44018"
                                 style="stroke: #000000; stroke-width: 0.8"/>
                        </g>
                    </g>
                    <g id="text_14">
                        <!-- 1.00 -->
                        <g transform="translate(19.224375 22.239399)scale(0.1 -0.1)">
                            <use xlink:href="#DejaVuSans-31"/>
                            <use xlink:href="#DejaVuSans-2e" x="63.623047"/>
                            <use xlink:href="#DejaVuSans-30" x="95.410156"/>
                            <use xlink:href="#DejaVuSans-30" x="159.033203"/>
                        </g>
                    </g>
                </g>
            </g>
            <g id="line2d_29">
                <path d="M 66.276113 176.918022
L 193.499831 177.027191 
L 197.948213 177.213359 
L 198.986169 177.24591 
L 200.172404 177.293843 
L 201.358639 177.372228 
L 202.544874 177.398478 
L 203.879389 177.497906 
L 205.065624 177.530305 
L 206.251859 177.639704 
L 207.438094 177.65985 
L 208.772608 177.799988 
L 209.958844 177.844642 
L 211.293358 177.987243 
L 212.331314 178.029209 
L 213.814108 178.215308 
L 214.852064 178.280772 
L 216.186578 178.482625 
L 217.224534 178.530537 
L 218.707328 178.777736 
L 219.745283 178.844815 
L 221.079798 179.100277 
L 222.266033 179.181738 
L 223.600548 179.434215 
L 224.638503 179.49425 
L 226.121297 179.766848 
L 227.159253 179.838232 
L 228.493768 180.100019 
L 229.680003 180.18157 
L 230.866238 180.4316 
L 232.200752 180.521219 
L 233.386987 180.760058 
L 234.573223 180.81954 
L 235.907737 181.094944 
L 237.093972 181.166989 
L 238.280207 181.438324 
L 239.614722 181.526352 
L 240.800957 181.78926 
L 241.987192 181.857027 
L 243.321707 182.150769 
L 244.359662 182.197657 
L 245.842456 182.524519 
L 246.880412 182.583871 
L 248.363206 182.906164 
L 249.252882 182.941676 
L 251.032235 183.288931 
L 251.773632 183.340914 
L 253.256426 183.693688 
L 254.294382 183.755472 
L 255.628896 184.107225 
L 256.815131 184.185124 
L 258.001366 184.525965 
L 259.335881 184.639728 
L 260.522116 184.989531 
L 261.708351 185.071076 
L 263.042866 185.478467 
L 264.229101 185.566986 
L 265.563615 185.964701 
L 266.601571 186.008834 
L 268.232645 186.430638 
L 269.122321 186.495996 
L 270.605115 186.904762 
L 271.643071 186.979057 
L 273.125864 187.354203 
L 274.015541 187.390323 
L 275.646614 187.754111 
L 276.091452 187.740575 
L 278.167364 188.294167 
L 278.908761 188.176751 
L 280.094996 188.57924 
L 280.539834 188.61851 
L 281.132952 188.741336 
L 281.874349 188.749104 
L 282.615746 189.122273 
L 283.505422 188.942573 
L 284.246819 189.333276 
L 284.839936 189.478466 
L 285.581333 190.002926 
L 286.174451 190.062366 
L 286.47101 190.354497 
L 287.064127 191.039568 
L 287.360686 191.023698 
L 287.805524 190.92602 
L 288.398642 191.080098 
L 288.695201 190.869644 
L 289.140039 190.45764 
L 289.436598 190.548023 
L 290.029715 191.041223 
L 290.326274 190.822251 
L 290.771112 190.439092 
L 291.067671 190.536411 
L 291.36423 190.684635 
L 291.660788 190.545672 
L 292.105627 190.207649 
L 292.402185 190.484916 
L 292.847024 191.168285 
L 292.995303 191.146497 
L 293.291862 190.633635 
L 293.58842 190.056934 
L 293.7367 189.992531 
L 293.884979 190.132417 
L 294.478097 191.107705 
L 294.626376 190.942552 
L 295.071214 189.987055 
L 295.219494 190.037193 
L 295.516053 191.10875 
L 295.812611 192.351418 
L 295.960891 192.284713 
L 296.10917 191.386351 
L 296.405729 186.843973 
L 297.147126 172.706572 
L 297.295405 171.991801 
L 297.443685 172.066779 
L 298.036802 174.403802 
L 298.185082 174.381426 
L 298.926479 172.9039 
L 299.223037 173.423177 
L 299.667876 174.230737 
L 299.964434 174.288455 
L 301.00239 173.940374 
L 301.447228 173.407447 
L 301.595508 173.405914 
L 301.892066 173.799507 
L 302.336905 174.605982 
L 302.633463 174.673251 
L 303.078302 174.43705 
L 303.37486 174.627479 
L 303.967978 175.276218 
L 304.264537 175.220333 
L 304.709375 175.122992 
L 305.599051 175.5141 
L 306.043889 175.528334 
L 306.785286 175.910078 
L 307.526683 175.359537 
L 307.823242 175.766217 
L 308.26808 176.533277 
L 308.41636 176.560302 
L 308.712918 176.216734 
L 309.157757 175.606624 
L 309.454315 175.67745 
L 309.899154 175.945772 
L 310.195712 175.710298 
L 311.085389 174.458454 
L 311.678506 173.821297 
L 312.123344 173.409621 
L 312.568183 173.162161 
L 312.864741 172.66646 
L 313.754418 170.427319 
L 314.050977 170.398697 
L 314.495815 170.505202 
L 314.792373 170.320866 
L 315.53377 169.463265 
L 315.978609 168.558414 
L 316.868285 166.345216 
L 317.757961 165.135731 
L 318.2028 164.721734 
L 318.499358 164.047989 
L 319.389035 160.753274 
L 319.537314 160.744271 
L 319.833873 161.358056 
L 320.130432 162.118943 
L 320.278711 162.25985 
L 320.42699 162.154822 
L 320.723549 161.30478 
L 321.168387 159.80634 
L 321.464946 159.532234 
L 321.909784 159.648197 
L 322.206343 159.27548 
L 322.94774 157.558607 
L 323.244299 157.494133 
L 323.837416 157.667579 
L 324.430534 157.371373 
L 325.023652 156.899253 
L 325.616769 156.180795 
L 325.913328 156.208377 
L 326.951284 157.119025 
L 328.137519 157.106345 
L 328.582357 156.878629 
L 328.730636 156.968467 
L 329.027195 157.543381 
L 329.768592 159.620757 
L 330.065151 159.891308 
L 331.399665 160.305142 
L 331.696224 160.703222 
L 332.141062 161.935169 
L 332.5859 163.04396 
L 332.73418 163.136722 
L 333.030739 162.940327 
L 333.475577 162.567324 
L 333.623856 162.646812 
L 333.920415 163.14978 
L 334.513533 164.331974 
L 335.551488 165.600903 
L 335.996327 165.686573 
L 336.292885 165.801335 
L 336.589444 166.237587 
L 337.330841 167.664312 
L 337.6274 167.761411 
L 338.072238 167.814358 
L 338.813635 168.132202 
L 339.406753 168.167423 
L 339.99987 168.478374 
L 340.296429 168.368274 
L 340.741267 168.099184 
L 341.037826 168.313679 
L 341.630943 169.12737 
L 341.779223 169.126212 
L 342.075782 168.786599 
L 342.52062 168.204098 
L 342.817179 168.200304 
L 343.410296 168.42242 
L 343.855134 168.378259 
L 344.151693 168.664146 
L 344.89309 169.820524 
L 345.041369 169.730139 
L 345.337928 169.151693 
L 345.931046 167.852313 
L 346.227605 167.767423 
L 346.524163 168.10217 
L 347.41384 169.673523 
L 347.562119 169.623117 
L 347.858678 169.119557 
L 348.303516 168.169155 
L 348.600075 168.018401 
L 348.896634 168.277966 
L 349.341472 168.719072 
L 350.231148 168.991076 
L 350.527707 168.943468 
L 351.269104 168.405892 
L 351.565663 168.732003 
L 352.010501 169.359694 
L 352.15878 169.357589 
L 352.900177 168.74827 
L 353.196736 169.186672 
L 353.493295 169.62212 
L 353.641574 169.62779 
L 353.938133 169.149024 
L 354.234692 168.590766 
L 354.382971 168.565827 
L 354.53125 168.785204 
L 355.124368 170.497859 
L 355.272647 170.479258 
L 355.569206 169.60341 
L 356.014044 168.095364 
L 356.162324 168.09467 
L 356.458883 168.96203 
L 356.903721 170.60611 
L 357.052 170.767074 
L 357.20028 170.682346 
L 357.645118 169.696797 
L 358.089956 169.011273 
L 358.831353 168.399691 
L 359.127912 168.495775 
L 359.869309 169.297368 
L 360.165867 168.907608 
L 360.758985 167.878965 
L 361.055544 167.904249 
L 361.648661 168.58054 
L 362.093499 169.022622 
L 362.241779 169.05188 
L 362.390058 168.958178 
L 362.686617 168.252574 
L 363.724573 164.188311 
L 364.021132 164.131658 
L 364.31769 164.126342 
L 364.614249 163.873968 
L 365.207367 163.31694 
L 365.503925 163.137546 
L 365.800484 162.67313 
L 366.541881 161.098184 
L 366.690161 161.094141 
L 367.579837 161.657395 
L 367.876396 161.751665 
L 368.172955 162.277144 
L 368.766072 163.610548 
L 368.914351 163.605391 
L 369.21091 163.142454 
L 369.507469 162.621171 
L 369.655748 162.589538 
L 369.804028 162.767857 
L 370.248866 164.143354 
L 370.841984 165.912098 
L 371.583381 167.610071 
L 371.73166 167.722633 
L 371.879939 167.651615 
L 372.176498 167.013318 
L 372.621336 166.016418 
L 372.769616 166.058346 
L 373.066174 166.793278 
L 373.511013 168.27181 
L 373.807571 168.672103 
L 374.10413 168.65249 
L 374.845527 168.196903 
L 375.142086 168.026336 
L 375.290365 168.069863 
L 375.586924 168.6377 
L 376.62488 171.97952 
L 376.921439 172.603269 
L 377.662836 174.757739 
L 377.811115 174.734245 
L 378.404233 173.771546 
L 378.552512 173.948894 
L 378.849071 175.068158 
L 379.145629 176.330886 
L 379.293909 176.619137 
L 379.442188 176.580133 
L 379.738747 175.789442 
L 380.035306 175.014698 
L 380.183585 174.953708 
L 380.480144 175.493793 
L 380.924982 176.404649 
L 381.5181 176.598875 
L 382.259497 177.881645 
L 382.556055 177.258309 
L 382.852614 176.481866 
L 383.000894 176.387128 
L 383.149173 176.567141 
L 383.742291 178.009091 
L 383.89057 177.901525 
L 384.483688 176.651477 
L 384.631967 176.747944 
L 385.076805 177.369963 
L 385.225085 177.175822 
L 385.669923 175.801089 
L 385.818202 176.031853 
L 385.966482 177.11811 
L 386.26304 182.043997 
L 386.856158 193.168873 
L 387.004437 193.671363 
L 387.152717 192.949619 
L 387.449275 188.764513 
L 388.190672 172.672213 
L 388.635511 157.515461 
L 389.228628 127.656921 
L 389.821746 84.639797 
L 390.414863 39.942314 
L 390.711422 28.267481 
L 391.007981 24.750909 
L 391.15626 25.036841 
L 391.30454 26.346968 
L 391.452819 28.907324 
L 391.749378 40.878679 
L 392.045937 68.781022 
L 392.490775 144.730654 
L 393.083892 246.316121 
L 393.380451 269.395113 
L 393.67701 277.640063 
L 393.973569 282.790464 
L 394.863245 303.769091 
L 395.011524 303.147379 
L 395.308083 298.649442 
L 396.19776 280.934902 
L 397.087436 253.772184 
L 397.383995 252.049798 
L 397.680553 252.095553 
L 397.828833 251.467258 
L 398.125392 247.768864 
L 399.163347 230.028708 
L 399.756465 222.202275 
L 399.904744 221.248069 
L 400.053024 221.090185 
L 400.201303 221.71662 
L 400.794421 226.521364 
L 400.9427 226.632699 
L 401.090979 226.015751 
L 401.535818 221.503403 
L 402.425494 210.289362 
L 403.31517 196.433075 
L 404.501405 188.004611 
L 404.797964 186.752971 
L 405.094523 186.313905 
L 405.539361 185.856903 
L 405.83592 185.547397 
L 405.984199 185.543168 
L 406.280758 185.874436 
L 406.577317 186.203166 
L 406.725596 186.141733 
L 407.022155 185.445436 
L 407.466993 184.129905 
L 407.763552 183.962696 
L 408.35667 184.328666 
L 408.801508 184.407421 
L 409.098067 184.914033 
L 409.542905 185.802546 
L 409.691184 185.814525 
L 409.987743 185.311857 
L 410.284302 184.704191 
L 410.432581 184.616092 
L 410.580861 184.738097 
L 411.322257 185.977673 
L 412.063654 185.535524 
L 412.805051 186.313005 
L 413.24989 186.084829 
L 413.398169 186.173094 
L 413.694728 186.796804 
L 414.139566 187.803814 
L 414.287845 187.821381 
L 414.584404 187.328785 
L 415.029242 186.439635 
L 415.325801 186.375926 
L 415.62236 186.485392 
L 415.918919 186.30414 
L 416.512036 185.452821 
L 416.660316 185.483759 
L 416.956874 185.920147 
L 417.401713 186.540825 
L 417.698271 186.377554 
L 418.14311 185.986672 
L 418.291389 186.077209 
L 419.032786 187.078306 
L 419.329345 186.480101 
L 419.922462 184.903772 
L 420.070742 184.897171 
L 420.3673 185.363583 
L 420.812139 186.0786 
L 420.960418 186.085529 
L 421.256977 185.743443 
L 421.998374 184.402836 
L 421.998374 184.402836 
" clip-path="url(#p7420ca8b41)" style="fill: none; stroke: #1f77b4; stroke-width: 1.5; stroke-linecap: square"/>
            </g>
            <g id="line2d_30">
                <path d="M 66.276113 176.918022
L 194.241228 177.024529 
L 209.217447 177.813245 
L 215.74174 178.410812 
L 221.969474 179.183553 
L 246.435574 182.579887 
L 258.742763 184.587259 
L 282.615746 188.936417 
L 284.098539 189.243413 
L 285.136495 189.661474 
L 287.508965 190.949233 
L 288.398642 190.921838 
L 291.809068 190.59303 
L 292.847024 190.597903 
L 293.291862 190.634108 
L 294.033259 190.501676 
L 294.329817 190.797205 
L 295.071214 191.916618 
L 295.219494 191.779842 
L 295.516053 190.795256 
L 295.960891 187.77748 
L 297.740243 173.345556 
L 298.036802 172.353553 
L 298.185082 172.220674 
L 298.333361 172.296988 
L 298.778199 173.200136 
L 299.223037 173.915079 
L 299.519596 173.98953 
L 300.260993 173.889786 
L 301.150669 174.004845 
L 301.892066 173.979831 
L 302.485184 174.26106 
L 303.819699 175.01919 
L 305.005934 175.383033 
L 305.599051 175.541376 
L 306.785286 175.68865 
L 307.674963 175.916304 
L 309.454315 175.971876 
L 310.047433 175.512055 
L 311.975065 173.584557 
L 314.050977 170.72622 
L 315.68205 168.992999 
L 317.906241 164.637679 
L 318.647638 163.081575 
L 319.833873 161.47909 
L 320.278711 161.042775 
L 321.316667 160.340499 
L 322.651181 158.273849 
L 324.727093 156.968121 
L 325.765048 156.579053 
L 326.358166 156.679794 
L 327.396122 156.960426 
L 328.137519 157.133898 
L 328.582357 157.471642 
L 329.323754 158.411895 
L 330.36171 159.719603 
L 332.5859 162.227005 
L 333.772136 163.434857 
L 334.810091 164.48664 
L 336.441165 166.387612 
L 337.923959 167.800955 
L 338.517076 168.116096 
L 339.110194 168.183299 
L 339.851591 168.237183 
L 341.482664 168.600843 
L 342.52062 168.485762 
L 343.113737 168.399502 
L 343.558575 168.564907 
L 344.448252 169.061969 
L 344.89309 168.960671 
L 345.782766 168.659946 
L 347.117281 168.682368 
L 348.006957 168.839534 
L 349.78631 168.606846 
L 351.120824 168.85126 
L 351.713942 168.826579 
L 353.048457 169.06788 
L 353.493295 169.102298 
L 354.53125 169.429173 
L 355.420927 169.209303 
L 356.607162 169.661662 
L 357.645118 169.536841 
L 358.089956 169.406257 
L 359.42447 168.655716 
L 360.610706 168.508674 
L 361.500382 168.65974 
L 361.94522 168.436689 
L 362.390058 167.941479 
L 362.983176 166.832974 
L 364.169411 164.180691 
L 364.762528 163.468367 
L 365.948764 162.217077 
L 366.541881 161.568841 
L 366.83844 161.424401 
L 367.134999 161.461171 
L 367.579837 161.797348 
L 368.469513 162.536447 
L 369.35919 163.145901 
L 369.952307 163.948116 
L 371.583381 166.734699 
L 372.176498 167.044738 
L 373.511013 167.648016 
L 374.25241 168.096364 
L 375.586924 169.206245 
L 376.031762 170.233224 
L 377.069718 172.95031 
L 378.107674 174.663684 
L 378.552512 175.075082 
L 379.442188 175.41228 
L 380.331865 175.954312 
L 382.556055 177.319068 
L 383.742291 177.286692 
L 384.038849 177.029218 
L 384.780246 175.982253 
L 384.928526 176.073014 
L 385.225085 176.920128 
L 385.669923 179.81044 
L 386.707878 187.957094 
L 387.004437 188.892024 
L 387.152717 188.891724 
L 387.300996 188.502711 
L 387.597555 186.276705 
L 387.894114 181.579221 
L 388.338952 168.553447 
L 388.78379 147.790816 
L 389.673466 91.682384 
L 390.563143 36.08998 
L 390.859701 26.367195 
L 391.007981 25.070347 
L 391.15626 26.603927 
L 391.452819 38.616598 
L 391.897657 76.259793 
L 393.973569 291.173489 
L 394.270127 300.118129 
L 394.566686 302.75659 
L 394.714966 302.538209 
L 395.011524 300.438853 
L 395.456363 294.957961 
L 395.901201 286.655764 
L 397.383995 254.611636 
L 398.273671 241.624513 
L 399.459906 227.885603 
L 399.904744 224.959238 
L 400.201303 224.101049 
L 400.646141 223.646407 
L 400.9427 223.243257 
L 401.239259 222.316808 
L 401.535818 220.581879 
L 401.980656 216.163748 
L 404.056567 190.739844 
L 404.501405 188.209806 
L 404.946244 186.853584 
L 405.539361 185.933955 
L 405.984199 185.581017 
L 407.022155 185.040605 
L 407.763552 184.498441 
L 408.20839 184.442216 
L 408.801508 184.592162 
L 410.580861 185.389046 
L 411.767096 185.624037 
L 412.656772 186.145936 
L 413.991287 187.021926 
L 414.436125 187.077692 
L 414.880963 186.944071 
L 415.47408 186.462692 
L 416.067198 186.031525 
L 416.660316 185.926912 
L 417.253433 186.021655 
L 418.439668 186.50514 
L 421.553536 185.06013 
L 421.998374 184.500985 
L 421.998374 184.500985 
" clip-path="url(#p7420ca8b41)" style="fill: none; stroke: #ff7f0e; stroke-width: 1.5; stroke-linecap: square"/>
            </g>
            <g id="patch_3">
                <path d="M 48.49 317.72
L 48.49 10.8 
" style="fill: none; stroke: #000000; stroke-width: 0.8; stroke-linejoin: miter; stroke-linecap: square"/>
            </g>
            <g id="patch_4">
                <path d="M 439.784487 317.72
L 439.784487 10.8 
" style="fill: none; stroke: #000000; stroke-width: 0.8; stroke-linejoin: miter; stroke-linecap: square"/>
            </g>
            <g id="patch_5">
                <path d="M 48.49 317.72
L 439.784487 317.72 
" style="fill: none; stroke: #000000; stroke-width: 0.8; stroke-linejoin: miter; stroke-linecap: square"/>
            </g>
            <g id="patch_6">
                <path d="M 48.49 10.8
L 439.784487 10.8 
" style="fill: none; stroke: #000000; stroke-width: 0.8; stroke-linejoin: miter; stroke-linecap: square"/>
            </g>
            <g id="legend_1">
                <g id="patch_7">
                    <path d="M 55.49 48.15625
L 170.194688 48.15625 
Q 172.194688 48.15625 172.194688 46.15625 
L 172.194688 17.8 
Q 172.194688 15.8 170.194688 15.8 
L 55.49 15.8 
Q 53.49 15.8 53.49 17.8 
L 53.49 46.15625 
Q 53.49 48.15625 55.49 48.15625 
z
" style="fill: #ffffff; opacity: 0.8; stroke: #cccccc; stroke-linejoin: miter"/>
                </g>
                <g id="line2d_31">
                    <path d="M 57.49 23.898438
L 67.49 23.898438 
L 77.49 23.898438 
" style="fill: none; stroke: #1f77b4; stroke-width: 1.5; stroke-linecap: square"/>
                </g>
                <g id="text_15">
                    <!-- raw signal -->
                    <g transform="translate(85.49 27.398438)scale(0.1 -0.1)">
                        <defs>
                            <path id="DejaVuSans-72" d="M 2631 2963
Q 2534 3019 2420 3045 
Q 2306 3072 2169 3072 
Q 1681 3072 1420 2755 
Q 1159 2438 1159 1844 
L 1159 0 
L 581 0 
L 581 3500 
L 1159 3500 
L 1159 2956 
Q 1341 3275 1631 3429 
Q 1922 3584 2338 3584 
Q 2397 3584 2469 3576 
Q 2541 3569 2628 3553 
L 2631 2963 
z
" transform="scale(0.015625)"/>
                            <path id="DejaVuSans-61" d="M 2194 1759
Q 1497 1759 1228 1600 
Q 959 1441 959 1056 
Q 959 750 1161 570 
Q 1363 391 1709 391 
Q 2188 391 2477 730 
Q 2766 1069 2766 1631 
L 2766 1759 
L 2194 1759 
z
M 3341 1997 
L 3341 0 
L 2766 0 
L 2766 531 
Q 2569 213 2275 61 
Q 1981 -91 1556 -91 
Q 1019 -91 701 211 
Q 384 513 384 1019 
Q 384 1609 779 1909 
Q 1175 2209 1959 2209 
L 2766 2209 
L 2766 2266 
Q 2766 2663 2505 2880 
Q 2244 3097 1772 3097 
Q 1472 3097 1187 3025 
Q 903 2953 641 2809 
L 641 3341 
Q 956 3463 1253 3523 
Q 1550 3584 1831 3584 
Q 2591 3584 2966 3190 
Q 3341 2797 3341 1997 
z
" transform="scale(0.015625)"/>
                            <path id="DejaVuSans-77" d="M 269 3500
L 844 3500 
L 1563 769 
L 2278 3500 
L 2956 3500 
L 3675 769 
L 4391 3500 
L 4966 3500 
L 4050 0 
L 3372 0 
L 2619 2869 
L 1863 0 
L 1184 0 
L 269 3500 
z
" transform="scale(0.015625)"/>
                            <path id="DejaVuSans-20" transform="scale(0.015625)"/>
                            <path id="DejaVuSans-73" d="M 2834 3397
L 2834 2853 
Q 2591 2978 2328 3040 
Q 2066 3103 1784 3103 
Q 1356 3103 1142 2972 
Q 928 2841 928 2578 
Q 928 2378 1081 2264 
Q 1234 2150 1697 2047 
L 1894 2003 
Q 2506 1872 2764 1633 
Q 3022 1394 3022 966 
Q 3022 478 2636 193 
Q 2250 -91 1575 -91 
Q 1294 -91 989 -36 
Q 684 19 347 128 
L 347 722 
Q 666 556 975 473 
Q 1284 391 1588 391 
Q 1994 391 2212 530 
Q 2431 669 2431 922 
Q 2431 1156 2273 1281 
Q 2116 1406 1581 1522 
L 1381 1569 
Q 847 1681 609 1914 
Q 372 2147 372 2553 
Q 372 3047 722 3315 
Q 1072 3584 1716 3584 
Q 2034 3584 2315 3537 
Q 2597 3491 2834 3397 
z
" transform="scale(0.015625)"/>
                            <path id="DejaVuSans-69" d="M 603 3500
L 1178 3500 
L 1178 0 
L 603 0 
L 603 3500 
z
M 603 4863 
L 1178 4863 
L 1178 4134 
L 603 4134 
L 603 4863 
z
" transform="scale(0.015625)"/>
                            <path id="DejaVuSans-67" d="M 2906 1791
Q 2906 2416 2648 2759 
Q 2391 3103 1925 3103 
Q 1463 3103 1205 2759 
Q 947 2416 947 1791 
Q 947 1169 1205 825 
Q 1463 481 1925 481 
Q 2391 481 2648 825 
Q 2906 1169 2906 1791 
z
M 3481 434 
Q 3481 -459 3084 -895 
Q 2688 -1331 1869 -1331 
Q 1566 -1331 1297 -1286 
Q 1028 -1241 775 -1147 
L 775 -588 
Q 1028 -725 1275 -790 
Q 1522 -856 1778 -856 
Q 2344 -856 2625 -561 
Q 2906 -266 2906 331 
L 2906 616 
Q 2728 306 2450 153 
Q 2172 0 1784 0 
Q 1141 0 747 490 
Q 353 981 353 1791 
Q 353 2603 747 3093 
Q 1141 3584 1784 3584 
Q 2172 3584 2450 3431 
Q 2728 3278 2906 2969 
L 2906 3500 
L 3481 3500 
L 3481 434 
z
" transform="scale(0.015625)"/>
                            <path id="DejaVuSans-6e" d="M 3513 2113
L 3513 0 
L 2938 0 
L 2938 2094 
Q 2938 2591 2744 2837 
Q 2550 3084 2163 3084 
Q 1697 3084 1428 2787 
Q 1159 2491 1159 1978 
L 1159 0 
L 581 0 
L 581 3500 
L 1159 3500 
L 1159 2956 
Q 1366 3272 1645 3428 
Q 1925 3584 2291 3584 
Q 2894 3584 3203 3211 
Q 3513 2838 3513 2113 
z
" transform="scale(0.015625)"/>
                            <path id="DejaVuSans-6c" d="M 603 4863
L 1178 4863 
L 1178 0 
L 603 0 
L 603 4863 
z
" transform="scale(0.015625)"/>
                        </defs>
                        <use xlink:href="#DejaVuSans-72"/>
                        <use xlink:href="#DejaVuSans-61" x="41.113281"/>
                        <use xlink:href="#DejaVuSans-77" x="102.392578"/>
                        <use xlink:href="#DejaVuSans-20" x="184.179688"/>
                        <use xlink:href="#DejaVuSans-73" x="215.966797"/>
                        <use xlink:href="#DejaVuSans-69" x="268.066406"/>
                        <use xlink:href="#DejaVuSans-67" x="295.849609"/>
                        <use xlink:href="#DejaVuSans-6e" x="359.326172"/>
                        <use xlink:href="#DejaVuSans-61" x="422.705078"/>
                        <use xlink:href="#DejaVuSans-6c" x="483.984375"/>
                    </g>
                </g>
                <g id="line2d_32">
                    <path d="M 57.49 38.576563
L 67.49 38.576563 
L 77.49 38.576563 
" style="fill: none; stroke: #ff7f0e; stroke-width: 1.5; stroke-linecap: square"/>
                </g>
                <g id="text_16">
                    <!-- smoothed signal -->
                    <g transform="translate(85.49 42.076563)scale(0.1 -0.1)">
                        <defs>
                            <path id="DejaVuSans-6d" d="M 3328 2828
Q 3544 3216 3844 3400 
Q 4144 3584 4550 3584 
Q 5097 3584 5394 3201 
Q 5691 2819 5691 2113 
L 5691 0 
L 5113 0 
L 5113 2094 
Q 5113 2597 4934 2840 
Q 4756 3084 4391 3084 
Q 3944 3084 3684 2787 
Q 3425 2491 3425 1978 
L 3425 0 
L 2847 0 
L 2847 2094 
Q 2847 2600 2669 2842 
Q 2491 3084 2119 3084 
Q 1678 3084 1418 2786 
Q 1159 2488 1159 1978 
L 1159 0 
L 581 0 
L 581 3500 
L 1159 3500 
L 1159 2956 
Q 1356 3278 1631 3431 
Q 1906 3584 2284 3584 
Q 2666 3584 2933 3390 
Q 3200 3197 3328 2828 
z
" transform="scale(0.015625)"/>
                            <path id="DejaVuSans-6f" d="M 1959 3097
Q 1497 3097 1228 2736 
Q 959 2375 959 1747 
Q 959 1119 1226 758 
Q 1494 397 1959 397 
Q 2419 397 2687 759 
Q 2956 1122 2956 1747 
Q 2956 2369 2687 2733 
Q 2419 3097 1959 3097 
z
M 1959 3584 
Q 2709 3584 3137 3096 
Q 3566 2609 3566 1747 
Q 3566 888 3137 398 
Q 2709 -91 1959 -91 
Q 1206 -91 779 398 
Q 353 888 353 1747 
Q 353 2609 779 3096 
Q 1206 3584 1959 3584 
z
" transform="scale(0.015625)"/>
                            <path id="DejaVuSans-74" d="M 1172 4494
L 1172 3500 
L 2356 3500 
L 2356 3053 
L 1172 3053 
L 1172 1153 
Q 1172 725 1289 603 
Q 1406 481 1766 481 
L 2356 481 
L 2356 0 
L 1766 0 
Q 1100 0 847 248 
Q 594 497 594 1153 
L 594 3053 
L 172 3053 
L 172 3500 
L 594 3500 
L 594 4494 
L 1172 4494 
z
" transform="scale(0.015625)"/>
                            <path id="DejaVuSans-68" d="M 3513 2113
L 3513 0 
L 2938 0 
L 2938 2094 
Q 2938 2591 2744 2837 
Q 2550 3084 2163 3084 
Q 1697 3084 1428 2787 
Q 1159 2491 1159 1978 
L 1159 0 
L 581 0 
L 581 4863 
L 1159 4863 
L 1159 2956 
Q 1366 3272 1645 3428 
Q 1925 3584 2291 3584 
Q 2894 3584 3203 3211 
Q 3513 2838 3513 2113 
z
" transform="scale(0.015625)"/>
                            <path id="DejaVuSans-65" d="M 3597 1894
L 3597 1613 
L 953 1613 
Q 991 1019 1311 708 
Q 1631 397 2203 397 
Q 2534 397 2845 478 
Q 3156 559 3463 722 
L 3463 178 
Q 3153 47 2828 -22 
Q 2503 -91 2169 -91 
Q 1331 -91 842 396 
Q 353 884 353 1716 
Q 353 2575 817 3079 
Q 1281 3584 2069 3584 
Q 2775 3584 3186 3129 
Q 3597 2675 3597 1894 
z
M 3022 2063 
Q 3016 2534 2758 2815 
Q 2500 3097 2075 3097 
Q 1594 3097 1305 2825 
Q 1016 2553 972 2059 
L 3022 2063 
z
" transform="scale(0.015625)"/>
                            <path id="DejaVuSans-64" d="M 2906 2969
L 2906 4863 
L 3481 4863 
L 3481 0 
L 2906 0 
L 2906 525 
Q 2725 213 2448 61 
Q 2172 -91 1784 -91 
Q 1150 -91 751 415 
Q 353 922 353 1747 
Q 353 2572 751 3078 
Q 1150 3584 1784 3584 
Q 2172 3584 2448 3432 
Q 2725 3281 2906 2969 
z
M 947 1747 
Q 947 1113 1208 752 
Q 1469 391 1925 391 
Q 2381 391 2643 752 
Q 2906 1113 2906 1747 
Q 2906 2381 2643 2742 
Q 2381 3103 1925 3103 
Q 1469 3103 1208 2742 
Q 947 2381 947 1747 
z
" transform="scale(0.015625)"/>
                        </defs>
                        <use xlink:href="#DejaVuSans-73"/>
                        <use xlink:href="#DejaVuSans-6d" x="52.099609"/>
                        <use xlink:href="#DejaVuSans-6f" x="149.511719"/>
                        <use xlink:href="#DejaVuSans-6f" x="210.693359"/>
                        <use xlink:href="#DejaVuSans-74" x="271.875"/>
                        <use xlink:href="#DejaVuSans-68" x="311.083984"/>
                        <use xlink:href="#DejaVuSans-65" x="374.462891"/>
                        <use xlink:href="#DejaVuSans-64" x="435.986328"/>
                        <use xlink:href="#DejaVuSans-20" x="499.462891"/>
                        <use xlink:href="#DejaVuSans-73" x="531.25"/>
                        <use xlink:href="#DejaVuSans-69" x="583.349609"/>
                        <use xlink:href="#DejaVuSans-67" x="611.132812"/>
                        <use xlink:href="#DejaVuSans-6e" x="674.609375"/>
                        <use xlink:href="#DejaVuSans-61" x="737.988281"/>
                        <use xlink:href="#DejaVuSans-6c" x="799.267578"/>
                    </g>
                </g>
            </g>
        </g>
    </g>
    <defs>
        <clipPath id="p7420ca8b41">
            <rect x="48.49" y="10.8" width="391.294487" height="306.92"/>
        </clipPath>
    </defs>
</svg>
