<?xml version="1.0" encoding="utf-8" standalone="no"?>
<!DOCTYPE svg PUBLIC "-//W3C//DTD SVG 1.1//EN"
  "http://www.w3.org/Graphics/SVG/1.1/DTD/svg11.dtd">
<!-- Created with matplotlib (https://matplotlib.org/) -->
<svg height="345.6pt" version="1.1" viewBox="0 0 460.8 345.6" width="460.8pt" xmlns="http://www.w3.org/2000/svg" xmlns:xlink="http://www.w3.org/1999/xlink">
 <metadata>
  <rdf:RDF xmlns:cc="http://creativecommons.org/ns#" xmlns:dc="http://purl.org/dc/elements/1.1/" xmlns:rdf="http://www.w3.org/1999/02/22-rdf-syntax-ns#">
   <cc:Work>
    <dc:type rdf:resource="http://purl.org/dc/dcmitype/StillImage"/>
    <dc:date>2022-02-03T20:38:33.465718</dc:date>
    <dc:format>image/svg+xml</dc:format>
    <dc:creator>
     <cc:Agent>
      <dc:title>Matplotlib v3.3.4, https://matplotlib.org/</dc:title>
     </cc:Agent>
    </dc:creator>
   </cc:Work>
  </rdf:RDF>
 </metadata>
 <defs>
  <style type="text/css">*{stroke-linecap:butt;stroke-linejoin:round;}</style>
 </defs>
 <g id="figure_1">
  <g id="patch_1">
   <path d="M 0 345.6 
L 460.8 345.6 
L 460.8 0 
L 0 0 
z
" style="fill:#ffffff;"/>
  </g>
  <g id="axes_1">
   <g id="patch_2">
    <path d="M 47.81 303.64 
L 442.035 303.64 
L 442.035 25.44 
L 47.81 25.44 
z
" style="fill:#ffffff;"/>
   </g>
   <g id="matplotlib.axis_1">
    <g id="xtick_1">
     <g id="line2d_1">
      <defs>
       <path d="M 0 0 
L 0 3.5 
" id="mf3c9094e9f" style="stroke:#000000;stroke-width:0.8;"/>
      </defs>
      <g>
       <use style="stroke:#000000;stroke-width:0.8;" x="47.81" xlink:href="#mf3c9094e9f" y="303.64"/>
      </g>
     </g>
     <g id="text_1">
      <!-- 0.0 -->
      <g transform="translate(39.858438 318.238437)scale(0.1 -0.1)">
       <defs>
        <path d="M 31.78125 66.40625 
Q 24.171875 66.40625 20.328125 58.90625 
Q 16.5 51.421875 16.5 36.375 
Q 16.5 21.390625 20.328125 13.890625 
Q 24.171875 6.390625 31.78125 6.390625 
Q 39.453125 6.390625 43.28125 13.890625 
Q 47.125 21.390625 47.125 36.375 
Q 47.125 51.421875 43.28125 58.90625 
Q 39.453125 66.40625 31.78125 66.40625 
z
M 31.78125 74.21875 
Q 44.046875 74.21875 50.515625 64.515625 
Q 56.984375 54.828125 56.984375 36.375 
Q 56.984375 17.96875 50.515625 8.265625 
Q 44.046875 -1.421875 31.78125 -1.421875 
Q 19.53125 -1.421875 13.0625 8.265625 
Q 6.59375 17.96875 6.59375 36.375 
Q 6.59375 54.828125 13.0625 64.515625 
Q 19.53125 74.21875 31.78125 74.21875 
z
" id="DejaVuSans-48"/>
        <path d="M 10.6875 12.40625 
L 21 12.40625 
L 21 0 
L 10.6875 0 
z
" id="DejaVuSans-46"/>
       </defs>
       <use xlink:href="#DejaVuSans-48"/>
       <use x="63.623047" xlink:href="#DejaVuSans-46"/>
       <use x="95.410156" xlink:href="#DejaVuSans-48"/>
      </g>
     </g>
    </g>
    <g id="xtick_2">
     <g id="line2d_2">
      <g>
       <use style="stroke:#000000;stroke-width:0.8;" x="126.655" xlink:href="#mf3c9094e9f" y="303.64"/>
      </g>
     </g>
     <g id="text_2">
      <!-- 0.2 -->
      <g transform="translate(118.703438 318.238437)scale(0.1 -0.1)">
       <defs>
        <path d="M 19.1875 8.296875 
L 53.609375 8.296875 
L 53.609375 0 
L 7.328125 0 
L 7.328125 8.296875 
Q 12.9375 14.109375 22.625 23.890625 
Q 32.328125 33.6875 34.8125 36.53125 
Q 39.546875 41.84375 41.421875 45.53125 
Q 43.3125 49.21875 43.3125 52.78125 
Q 43.3125 58.59375 39.234375 62.25 
Q 35.15625 65.921875 28.609375 65.921875 
Q 23.96875 65.921875 18.8125 64.3125 
Q 13.671875 62.703125 7.8125 59.421875 
L 7.8125 69.390625 
Q 13.765625 71.78125 18.9375 73 
Q 24.125 74.21875 28.421875 74.21875 
Q 39.75 74.21875 46.484375 68.546875 
Q 53.21875 62.890625 53.21875 53.421875 
Q 53.21875 48.921875 51.53125 44.890625 
Q 49.859375 40.875 45.40625 35.40625 
Q 44.1875 33.984375 37.640625 27.21875 
Q 31.109375 20.453125 19.1875 8.296875 
z
" id="DejaVuSans-50"/>
       </defs>
       <use xlink:href="#DejaVuSans-48"/>
       <use x="63.623047" xlink:href="#DejaVuSans-46"/>
       <use x="95.410156" xlink:href="#DejaVuSans-50"/>
      </g>
     </g>
    </g>
    <g id="xtick_3">
     <g id="line2d_3">
      <g>
       <use style="stroke:#000000;stroke-width:0.8;" x="205.5" xlink:href="#mf3c9094e9f" y="303.64"/>
      </g>
     </g>
     <g id="text_3">
      <!-- 0.4 -->
      <g transform="translate(197.548438 318.238437)scale(0.1 -0.1)">
       <defs>
        <path d="M 37.796875 64.3125 
L 12.890625 25.390625 
L 37.796875 25.390625 
z
M 35.203125 72.90625 
L 47.609375 72.90625 
L 47.609375 25.390625 
L 58.015625 25.390625 
L 58.015625 17.1875 
L 47.609375 17.1875 
L 47.609375 0 
L 37.796875 0 
L 37.796875 17.1875 
L 4.890625 17.1875 
L 4.890625 26.703125 
z
" id="DejaVuSans-52"/>
       </defs>
       <use xlink:href="#DejaVuSans-48"/>
       <use x="63.623047" xlink:href="#DejaVuSans-46"/>
       <use x="95.410156" xlink:href="#DejaVuSans-52"/>
      </g>
     </g>
    </g>
    <g id="xtick_4">
     <g id="line2d_4">
      <g>
       <use style="stroke:#000000;stroke-width:0.8;" x="284.345" xlink:href="#mf3c9094e9f" y="303.64"/>
      </g>
     </g>
     <g id="text_4">
      <!-- 0.6 -->
      <g transform="translate(276.393438 318.238437)scale(0.1 -0.1)">
       <defs>
        <path d="M 33.015625 40.375 
Q 26.375 40.375 22.484375 35.828125 
Q 18.609375 31.296875 18.609375 23.390625 
Q 18.609375 15.53125 22.484375 10.953125 
Q 26.375 6.390625 33.015625 6.390625 
Q 39.65625 6.390625 43.53125 10.953125 
Q 47.40625 15.53125 47.40625 23.390625 
Q 47.40625 31.296875 43.53125 35.828125 
Q 39.65625 40.375 33.015625 40.375 
z
M 52.59375 71.296875 
L 52.59375 62.3125 
Q 48.875 64.0625 45.09375 64.984375 
Q 41.3125 65.921875 37.59375 65.921875 
Q 27.828125 65.921875 22.671875 59.328125 
Q 17.53125 52.734375 16.796875 39.40625 
Q 19.671875 43.65625 24.015625 45.921875 
Q 28.375 48.1875 33.59375 48.1875 
Q 44.578125 48.1875 50.953125 41.515625 
Q 57.328125 34.859375 57.328125 23.390625 
Q 57.328125 12.15625 50.6875 5.359375 
Q 44.046875 -1.421875 33.015625 -1.421875 
Q 20.359375 -1.421875 13.671875 8.265625 
Q 6.984375 17.96875 6.984375 36.375 
Q 6.984375 53.65625 15.1875 63.9375 
Q 23.390625 74.21875 37.203125 74.21875 
Q 40.921875 74.21875 44.703125 73.484375 
Q 48.484375 72.75 52.59375 71.296875 
z
" id="DejaVuSans-54"/>
       </defs>
       <use xlink:href="#DejaVuSans-48"/>
       <use x="63.623047" xlink:href="#DejaVuSans-46"/>
       <use x="95.410156" xlink:href="#DejaVuSans-54"/>
      </g>
     </g>
    </g>
    <g id="xtick_5">
     <g id="line2d_5">
      <g>
       <use style="stroke:#000000;stroke-width:0.8;" x="363.19" xlink:href="#mf3c9094e9f" y="303.64"/>
      </g>
     </g>
     <g id="text_5">
      <!-- 0.8 -->
      <g transform="translate(355.238437 318.238437)scale(0.1 -0.1)">
       <defs>
        <path d="M 31.78125 34.625 
Q 24.75 34.625 20.71875 30.859375 
Q 16.703125 27.09375 16.703125 20.515625 
Q 16.703125 13.921875 20.71875 10.15625 
Q 24.75 6.390625 31.78125 6.390625 
Q 38.8125 6.390625 42.859375 10.171875 
Q 46.921875 13.96875 46.921875 20.515625 
Q 46.921875 27.09375 42.890625 30.859375 
Q 38.875 34.625 31.78125 34.625 
z
M 21.921875 38.8125 
Q 15.578125 40.375 12.03125 44.71875 
Q 8.5 49.078125 8.5 55.328125 
Q 8.5 64.0625 14.71875 69.140625 
Q 20.953125 74.21875 31.78125 74.21875 
Q 42.671875 74.21875 48.875 69.140625 
Q 55.078125 64.0625 55.078125 55.328125 
Q 55.078125 49.078125 51.53125 44.71875 
Q 48 40.375 41.703125 38.8125 
Q 48.828125 37.15625 52.796875 32.3125 
Q 56.78125 27.484375 56.78125 20.515625 
Q 56.78125 9.90625 50.3125 4.234375 
Q 43.84375 -1.421875 31.78125 -1.421875 
Q 19.734375 -1.421875 13.25 4.234375 
Q 6.78125 9.90625 6.78125 20.515625 
Q 6.78125 27.484375 10.78125 32.3125 
Q 14.796875 37.15625 21.921875 38.8125 
z
M 18.3125 54.390625 
Q 18.3125 48.734375 21.84375 45.5625 
Q 25.390625 42.390625 31.78125 42.390625 
Q 38.140625 42.390625 41.71875 45.5625 
Q 45.3125 48.734375 45.3125 54.390625 
Q 45.3125 60.0625 41.71875 63.234375 
Q 38.140625 66.40625 31.78125 66.40625 
Q 25.390625 66.40625 21.84375 63.234375 
Q 18.3125 60.0625 18.3125 54.390625 
z
" id="DejaVuSans-56"/>
       </defs>
       <use xlink:href="#DejaVuSans-48"/>
       <use x="63.623047" xlink:href="#DejaVuSans-46"/>
       <use x="95.410156" xlink:href="#DejaVuSans-56"/>
      </g>
     </g>
    </g>
    <g id="xtick_6">
     <g id="line2d_6">
      <g>
       <use style="stroke:#000000;stroke-width:0.8;" x="442.035" xlink:href="#mf3c9094e9f" y="303.64"/>
      </g>
     </g>
     <g id="text_6">
      <!-- 1.0 -->
      <g transform="translate(434.083437 318.238437)scale(0.1 -0.1)">
       <defs>
        <path d="M 12.40625 8.296875 
L 28.515625 8.296875 
L 28.515625 63.921875 
L 10.984375 60.40625 
L 10.984375 69.390625 
L 28.421875 72.90625 
L 38.28125 72.90625 
L 38.28125 8.296875 
L 54.390625 8.296875 
L 54.390625 0 
L 12.40625 0 
z
" id="DejaVuSans-49"/>
       </defs>
       <use xlink:href="#DejaVuSans-49"/>
       <use x="63.623047" xlink:href="#DejaVuSans-46"/>
       <use x="95.410156" xlink:href="#DejaVuSans-48"/>
      </g>
     </g>
    </g>
    <g id="text_7">
     <!-- Threshold -->
     <g transform="translate(220.284219 331.916562)scale(0.1 -0.1)">
      <defs>
       <path d="M -0.296875 72.90625 
L 61.375 72.90625 
L 61.375 64.59375 
L 35.5 64.59375 
L 35.5 0 
L 25.59375 0 
L 25.59375 64.59375 
L -0.296875 64.59375 
z
" id="DejaVuSans-84"/>
       <path d="M 54.890625 33.015625 
L 54.890625 0 
L 45.90625 0 
L 45.90625 32.71875 
Q 45.90625 40.484375 42.875 44.328125 
Q 39.84375 48.1875 33.796875 48.1875 
Q 26.515625 48.1875 22.3125 43.546875 
Q 18.109375 38.921875 18.109375 30.90625 
L 18.109375 0 
L 9.078125 0 
L 9.078125 75.984375 
L 18.109375 75.984375 
L 18.109375 46.1875 
Q 21.34375 51.125 25.703125 53.5625 
Q 30.078125 56 35.796875 56 
Q 45.21875 56 50.046875 50.171875 
Q 54.890625 44.34375 54.890625 33.015625 
z
" id="DejaVuSans-104"/>
       <path d="M 41.109375 46.296875 
Q 39.59375 47.171875 37.8125 47.578125 
Q 36.03125 48 33.890625 48 
Q 26.265625 48 22.1875 43.046875 
Q 18.109375 38.09375 18.109375 28.8125 
L 18.109375 0 
L 9.078125 0 
L 9.078125 54.6875 
L 18.109375 54.6875 
L 18.109375 46.1875 
Q 20.953125 51.171875 25.484375 53.578125 
Q 30.03125 56 36.53125 56 
Q 37.453125 56 38.578125 55.875 
Q 39.703125 55.765625 41.0625 55.515625 
z
" id="DejaVuSans-114"/>
       <path d="M 56.203125 29.59375 
L 56.203125 25.203125 
L 14.890625 25.203125 
Q 15.484375 15.921875 20.484375 11.0625 
Q 25.484375 6.203125 34.421875 6.203125 
Q 39.59375 6.203125 44.453125 7.46875 
Q 49.3125 8.734375 54.109375 11.28125 
L 54.109375 2.78125 
Q 49.265625 0.734375 44.1875 -0.34375 
Q 39.109375 -1.421875 33.890625 -1.421875 
Q 20.796875 -1.421875 13.15625 6.1875 
Q 5.515625 13.8125 5.515625 26.8125 
Q 5.515625 40.234375 12.765625 48.109375 
Q 20.015625 56 32.328125 56 
Q 43.359375 56 49.78125 48.890625 
Q 56.203125 41.796875 56.203125 29.59375 
z
M 47.21875 32.234375 
Q 47.125 39.59375 43.09375 43.984375 
Q 39.0625 48.390625 32.421875 48.390625 
Q 24.90625 48.390625 20.390625 44.140625 
Q 15.875 39.890625 15.1875 32.171875 
z
" id="DejaVuSans-101"/>
       <path d="M 44.28125 53.078125 
L 44.28125 44.578125 
Q 40.484375 46.53125 36.375 47.5 
Q 32.28125 48.484375 27.875 48.484375 
Q 21.1875 48.484375 17.84375 46.4375 
Q 14.5 44.390625 14.5 40.28125 
Q 14.5 37.15625 16.890625 35.375 
Q 19.28125 33.59375 26.515625 31.984375 
L 29.59375 31.296875 
Q 39.15625 29.25 43.1875 25.515625 
Q 47.21875 21.78125 47.21875 15.09375 
Q 47.21875 7.46875 41.1875 3.015625 
Q 35.15625 -1.421875 24.609375 -1.421875 
Q 20.21875 -1.421875 15.453125 -0.5625 
Q 10.6875 0.296875 5.421875 2 
L 5.421875 11.28125 
Q 10.40625 8.6875 15.234375 7.390625 
Q 20.0625 6.109375 24.8125 6.109375 
Q 31.15625 6.109375 34.5625 8.28125 
Q 37.984375 10.453125 37.984375 14.40625 
Q 37.984375 18.0625 35.515625 20.015625 
Q 33.0625 21.96875 24.703125 23.78125 
L 21.578125 24.515625 
Q 13.234375 26.265625 9.515625 29.90625 
Q 5.8125 33.546875 5.8125 39.890625 
Q 5.8125 47.609375 11.28125 51.796875 
Q 16.75 56 26.8125 56 
Q 31.78125 56 36.171875 55.265625 
Q 40.578125 54.546875 44.28125 53.078125 
z
" id="DejaVuSans-115"/>
       <path d="M 30.609375 48.390625 
Q 23.390625 48.390625 19.1875 42.75 
Q 14.984375 37.109375 14.984375 27.296875 
Q 14.984375 17.484375 19.15625 11.84375 
Q 23.34375 6.203125 30.609375 6.203125 
Q 37.796875 6.203125 41.984375 11.859375 
Q 46.1875 17.53125 46.1875 27.296875 
Q 46.1875 37.015625 41.984375 42.703125 
Q 37.796875 48.390625 30.609375 48.390625 
z
M 30.609375 56 
Q 42.328125 56 49.015625 48.375 
Q 55.71875 40.765625 55.71875 27.296875 
Q 55.71875 13.875 49.015625 6.21875 
Q 42.328125 -1.421875 30.609375 -1.421875 
Q 18.84375 -1.421875 12.171875 6.21875 
Q 5.515625 13.875 5.515625 27.296875 
Q 5.515625 40.765625 12.171875 48.375 
Q 18.84375 56 30.609375 56 
z
" id="DejaVuSans-111"/>
       <path d="M 9.421875 75.984375 
L 18.40625 75.984375 
L 18.40625 0 
L 9.421875 0 
z
" id="DejaVuSans-108"/>
       <path d="M 45.40625 46.390625 
L 45.40625 75.984375 
L 54.390625 75.984375 
L 54.390625 0 
L 45.40625 0 
L 45.40625 8.203125 
Q 42.578125 3.328125 38.25 0.953125 
Q 33.9375 -1.421875 27.875 -1.421875 
Q 17.96875 -1.421875 11.734375 6.484375 
Q 5.515625 14.40625 5.515625 27.296875 
Q 5.515625 40.1875 11.734375 48.09375 
Q 17.96875 56 27.875 56 
Q 33.9375 56 38.25 53.625 
Q 42.578125 51.265625 45.40625 46.390625 
z
M 14.796875 27.296875 
Q 14.796875 17.390625 18.875 11.75 
Q 22.953125 6.109375 30.078125 6.109375 
Q 37.203125 6.109375 41.296875 11.75 
Q 45.40625 17.390625 45.40625 27.296875 
Q 45.40625 37.203125 41.296875 42.84375 
Q 37.203125 48.484375 30.078125 48.484375 
Q 22.953125 48.484375 18.875 42.84375 
Q 14.796875 37.203125 14.796875 27.296875 
z
" id="DejaVuSans-100"/>
      </defs>
      <use xlink:href="#DejaVuSans-84"/>
      <use x="61.083984" xlink:href="#DejaVuSans-104"/>
      <use x="124.462891" xlink:href="#DejaVuSans-114"/>
      <use x="163.326172" xlink:href="#DejaVuSans-101"/>
      <use x="224.849609" xlink:href="#DejaVuSans-115"/>
      <use x="276.949219" xlink:href="#DejaVuSans-104"/>
      <use x="340.328125" xlink:href="#DejaVuSans-111"/>
      <use x="401.509766" xlink:href="#DejaVuSans-108"/>
      <use x="429.292969" xlink:href="#DejaVuSans-100"/>
     </g>
    </g>
   </g>
   <g id="matplotlib.axis_2">
    <g id="ytick_1">
     <g id="line2d_7">
      <defs>
       <path d="M 0 0 
L -3.5 0 
" id="m14a96fbece" style="stroke:#000000;stroke-width:0.8;"/>
      </defs>
      <g>
       <use style="stroke:#000000;stroke-width:0.8;" x="47.81" xlink:href="#m14a96fbece" y="303.64"/>
      </g>
     </g>
     <g id="text_8">
      <!-- 0.0 -->
      <g transform="translate(24.906875 307.439219)scale(0.1 -0.1)">
       <use xlink:href="#DejaVuSans-48"/>
       <use x="63.623047" xlink:href="#DejaVuSans-46"/>
       <use x="95.410156" xlink:href="#DejaVuSans-48"/>
      </g>
     </g>
    </g>
    <g id="ytick_2">
     <g id="line2d_8">
      <g>
       <use style="stroke:#000000;stroke-width:0.8;" x="47.81" xlink:href="#m14a96fbece" y="250.649524"/>
      </g>
     </g>
     <g id="text_9">
      <!-- 0.2 -->
      <g transform="translate(24.906875 254.448743)scale(0.1 -0.1)">
       <use xlink:href="#DejaVuSans-48"/>
       <use x="63.623047" xlink:href="#DejaVuSans-46"/>
       <use x="95.410156" xlink:href="#DejaVuSans-50"/>
      </g>
     </g>
    </g>
    <g id="ytick_3">
     <g id="line2d_9">
      <g>
       <use style="stroke:#000000;stroke-width:0.8;" x="47.81" xlink:href="#m14a96fbece" y="197.659048"/>
      </g>
     </g>
     <g id="text_10">
      <!-- 0.4 -->
      <g transform="translate(24.906875 201.458266)scale(0.1 -0.1)">
       <use xlink:href="#DejaVuSans-48"/>
       <use x="63.623047" xlink:href="#DejaVuSans-46"/>
       <use x="95.410156" xlink:href="#DejaVuSans-52"/>
      </g>
     </g>
    </g>
    <g id="ytick_4">
     <g id="line2d_10">
      <g>
       <use style="stroke:#000000;stroke-width:0.8;" x="47.81" xlink:href="#m14a96fbece" y="144.668571"/>
      </g>
     </g>
     <g id="text_11">
      <!-- 0.6 -->
      <g transform="translate(24.906875 148.46779)scale(0.1 -0.1)">
       <use xlink:href="#DejaVuSans-48"/>
       <use x="63.623047" xlink:href="#DejaVuSans-46"/>
       <use x="95.410156" xlink:href="#DejaVuSans-54"/>
      </g>
     </g>
    </g>
    <g id="ytick_5">
     <g id="line2d_11">
      <g>
       <use style="stroke:#000000;stroke-width:0.8;" x="47.81" xlink:href="#m14a96fbece" y="91.678095"/>
      </g>
     </g>
     <g id="text_12">
      <!-- 0.8 -->
      <g transform="translate(24.906875 95.477314)scale(0.1 -0.1)">
       <use xlink:href="#DejaVuSans-48"/>
       <use x="63.623047" xlink:href="#DejaVuSans-46"/>
       <use x="95.410156" xlink:href="#DejaVuSans-56"/>
      </g>
     </g>
    </g>
    <g id="ytick_6">
     <g id="line2d_12">
      <g>
       <use style="stroke:#000000;stroke-width:0.8;" x="47.81" xlink:href="#m14a96fbece" y="38.687619"/>
      </g>
     </g>
     <g id="text_13">
      <!-- 1.0 -->
      <g transform="translate(24.906875 42.486838)scale(0.1 -0.1)">
       <use xlink:href="#DejaVuSans-49"/>
       <use x="63.623047" xlink:href="#DejaVuSans-46"/>
       <use x="95.410156" xlink:href="#DejaVuSans-48"/>
      </g>
     </g>
    </g>
    <g id="text_14">
     <!-- Equal Error Rate -->
     <g transform="translate(18.827188 205.32125)rotate(-90)scale(0.1 -0.1)">
      <defs>
       <path d="M 9.8125 72.90625 
L 55.90625 72.90625 
L 55.90625 64.59375 
L 19.671875 64.59375 
L 19.671875 43.015625 
L 54.390625 43.015625 
L 54.390625 34.71875 
L 19.671875 34.71875 
L 19.671875 8.296875 
L 56.78125 8.296875 
L 56.78125 0 
L 9.8125 0 
z
" id="DejaVuSans-69"/>
       <path d="M 14.796875 27.296875 
Q 14.796875 17.390625 18.875 11.75 
Q 22.953125 6.109375 30.078125 6.109375 
Q 37.203125 6.109375 41.296875 11.75 
Q 45.40625 17.390625 45.40625 27.296875 
Q 45.40625 37.203125 41.296875 42.84375 
Q 37.203125 48.484375 30.078125 48.484375 
Q 22.953125 48.484375 18.875 42.84375 
Q 14.796875 37.203125 14.796875 27.296875 
z
M 45.40625 8.203125 
Q 42.578125 3.328125 38.25 0.953125 
Q 33.9375 -1.421875 27.875 -1.421875 
Q 17.96875 -1.421875 11.734375 6.484375 
Q 5.515625 14.40625 5.515625 27.296875 
Q 5.515625 40.1875 11.734375 48.09375 
Q 17.96875 56 27.875 56 
Q 33.9375 56 38.25 53.625 
Q 42.578125 51.265625 45.40625 46.390625 
L 45.40625 54.6875 
L 54.390625 54.6875 
L 54.390625 -20.796875 
L 45.40625 -20.796875 
z
" id="DejaVuSans-113"/>
       <path d="M 8.5 21.578125 
L 8.5 54.6875 
L 17.484375 54.6875 
L 17.484375 21.921875 
Q 17.484375 14.15625 20.5 10.265625 
Q 23.53125 6.390625 29.59375 6.390625 
Q 36.859375 6.390625 41.078125 11.03125 
Q 45.3125 15.671875 45.3125 23.6875 
L 45.3125 54.6875 
L 54.296875 54.6875 
L 54.296875 0 
L 45.3125 0 
L 45.3125 8.40625 
Q 42.046875 3.421875 37.71875 1 
Q 33.40625 -1.421875 27.6875 -1.421875 
Q 18.265625 -1.421875 13.375 4.4375 
Q 8.5 10.296875 8.5 21.578125 
z
M 31.109375 56 
z
" id="DejaVuSans-117"/>
       <path d="M 34.28125 27.484375 
Q 23.390625 27.484375 19.1875 25 
Q 14.984375 22.515625 14.984375 16.5 
Q 14.984375 11.71875 18.140625 8.90625 
Q 21.296875 6.109375 26.703125 6.109375 
Q 34.1875 6.109375 38.703125 11.40625 
Q 43.21875 16.703125 43.21875 25.484375 
L 43.21875 27.484375 
z
M 52.203125 31.203125 
L 52.203125 0 
L 43.21875 0 
L 43.21875 8.296875 
Q 40.140625 3.328125 35.546875 0.953125 
Q 30.953125 -1.421875 24.3125 -1.421875 
Q 15.921875 -1.421875 10.953125 3.296875 
Q 6 8.015625 6 15.921875 
Q 6 25.140625 12.171875 29.828125 
Q 18.359375 34.515625 30.609375 34.515625 
L 43.21875 34.515625 
L 43.21875 35.40625 
Q 43.21875 41.609375 39.140625 45 
Q 35.0625 48.390625 27.6875 48.390625 
Q 23 48.390625 18.546875 47.265625 
Q 14.109375 46.140625 10.015625 43.890625 
L 10.015625 52.203125 
Q 14.9375 54.109375 19.578125 55.046875 
Q 24.21875 56 28.609375 56 
Q 40.484375 56 46.34375 49.84375 
Q 52.203125 43.703125 52.203125 31.203125 
z
" id="DejaVuSans-97"/>
       <path id="DejaVuSans-32"/>
       <path d="M 44.390625 34.1875 
Q 47.5625 33.109375 50.5625 29.59375 
Q 53.5625 26.078125 56.59375 19.921875 
L 66.609375 0 
L 56 0 
L 46.6875 18.703125 
Q 43.0625 26.03125 39.671875 28.421875 
Q 36.28125 30.8125 30.421875 30.8125 
L 19.671875 30.8125 
L 19.671875 0 
L 9.8125 0 
L 9.8125 72.90625 
L 32.078125 72.90625 
Q 44.578125 72.90625 50.734375 67.671875 
Q 56.890625 62.453125 56.890625 51.90625 
Q 56.890625 45.015625 53.6875 40.46875 
Q 50.484375 35.9375 44.390625 34.1875 
z
M 19.671875 64.796875 
L 19.671875 38.921875 
L 32.078125 38.921875 
Q 39.203125 38.921875 42.84375 42.21875 
Q 46.484375 45.515625 46.484375 51.90625 
Q 46.484375 58.296875 42.84375 61.546875 
Q 39.203125 64.796875 32.078125 64.796875 
z
" id="DejaVuSans-82"/>
       <path d="M 18.3125 70.21875 
L 18.3125 54.6875 
L 36.8125 54.6875 
L 36.8125 47.703125 
L 18.3125 47.703125 
L 18.3125 18.015625 
Q 18.3125 11.328125 20.140625 9.421875 
Q 21.96875 7.515625 27.59375 7.515625 
L 36.8125 7.515625 
L 36.8125 0 
L 27.59375 0 
Q 17.1875 0 13.234375 3.875 
Q 9.28125 7.765625 9.28125 18.015625 
L 9.28125 47.703125 
L 2.6875 47.703125 
L 2.6875 54.6875 
L 9.28125 54.6875 
L 9.28125 70.21875 
z
" id="DejaVuSans-116"/>
      </defs>
      <use xlink:href="#DejaVuSans-69"/>
      <use x="63.183594" xlink:href="#DejaVuSans-113"/>
      <use x="126.660156" xlink:href="#DejaVuSans-117"/>
      <use x="190.039062" xlink:href="#DejaVuSans-97"/>
      <use x="251.318359" xlink:href="#DejaVuSans-108"/>
      <use x="279.101562" xlink:href="#DejaVuSans-32"/>
      <use x="310.888672" xlink:href="#DejaVuSans-69"/>
      <use x="374.072266" xlink:href="#DejaVuSans-114"/>
      <use x="413.435547" xlink:href="#DejaVuSans-114"/>
      <use x="452.298828" xlink:href="#DejaVuSans-111"/>
      <use x="513.480469" xlink:href="#DejaVuSans-114"/>
      <use x="554.59375" xlink:href="#DejaVuSans-32"/>
      <use x="586.380859" xlink:href="#DejaVuSans-82"/>
      <use x="653.613281" xlink:href="#DejaVuSans-97"/>
      <use x="714.892578" xlink:href="#DejaVuSans-116"/>
      <use x="754.101562" xlink:href="#DejaVuSans-101"/>
     </g>
    </g>
   </g>
   <g id="line2d_13">
    <path clip-path="url(#pec7de4e78f)" d="M 461.8 303.64 
L 402.6125 303.64 
L 166.0775 302.793507 
L 87.2325 301.10052 
L 47.81 38.687619 
" style="fill:none;stroke:#1f77b4;stroke-linecap:square;stroke-width:1.5;"/>
   </g>
   <g id="line2d_14">
    <path clip-path="url(#pec7de4e78f)" d="M 461.8 303.64 
L 442.035 303.64 
L 87.2325 302.793507 
L 47.81 38.687619 
" style="fill:none;stroke:#ff7f0e;stroke-linecap:square;stroke-width:1.5;"/>
   </g>
   <g id="line2d_15">
    <path clip-path="url(#pec7de4e78f)" d="M 461.8 303.64 
L 442.035 303.64 
L 47.81 38.687619 
" style="fill:none;stroke:#2ca02c;stroke-linecap:square;stroke-width:1.5;"/>
   </g>
   <g id="line2d_16">
    <path clip-path="url(#pec7de4e78f)" d="M 442.035 303.64 
L 47.81 38.687619 
" style="fill:none;stroke:#d62728;stroke-linecap:square;stroke-width:1.5;"/>
   </g>
   <g id="line2d_17">
    <path clip-path="url(#pec7de4e78f)" d="M 461.8 303.64 
L 442.035 303.64 
L 87.2325 301.947014 
L 47.81 38.687619 
" style="fill:none;stroke:#9467bd;stroke-linecap:square;stroke-width:1.5;"/>
   </g>
   <g id="line2d_18">
    <path clip-path="url(#pec7de4e78f)" d="M 461.8 303.64 
L 363.19 303.64 
L 87.2325 301.092381 
L 47.81 38.687619 
" style="fill:none;stroke:#8c564b;stroke-linecap:square;stroke-width:1.5;"/>
   </g>
   <g id="line2d_19">
    <path clip-path="url(#pec7de4e78f)" d="M 461.8 303.64 
L 363.19 303.64 
L 87.2325 301.10052 
L 47.81 38.687619 
" style="fill:none;stroke:#e377c2;stroke-linecap:square;stroke-width:1.5;"/>
   </g>
   <g id="line2d_20">
    <path clip-path="url(#pec7de4e78f)" d="M 461.8 303.64 
L 442.035 303.64 
L 87.2325 302.793507 
L 47.81 38.687619 
" style="fill:none;stroke:#7f7f7f;stroke-linecap:square;stroke-width:1.5;"/>
   </g>
   <g id="line2d_21">
    <path clip-path="url(#pec7de4e78f)" d="M 461.8 303.134182 
L 126.655 300.26481 
L 87.2325 296.889621 
L 47.81 38.687619 
" style="fill:none;stroke:#bcbd22;stroke-linecap:square;stroke-width:1.5;"/>
   </g>
   <g id="line2d_22">
    <path clip-path="url(#pec7de4e78f)" d="M 461.8 303.64 
L 323.7675 303.64 
L 126.655 302.793507 
L 87.2325 299.407534 
L 47.81 38.687619 
" style="fill:none;stroke:#17becf;stroke-linecap:square;stroke-width:1.5;"/>
   </g>
   <g id="line2d_23">
    <path clip-path="url(#pec7de4e78f)" d="M 461.8 303.597925 
L 87.2325 302.796203 
L 47.81 38.687619 
" style="fill:none;stroke:#1f77b4;stroke-linecap:square;stroke-width:1.5;"/>
   </g>
   <g id="line2d_24">
    <path clip-path="url(#pec7de4e78f)" d="M 461.8 303.64 
L 323.7675 303.64 
L 126.655 301.947014 
L 87.2325 296.868054 
L 47.81 38.687619 
" style="fill:none;stroke:#ff7f0e;stroke-linecap:square;stroke-width:1.5;"/>
   </g>
   <g id="line2d_25">
    <path clip-path="url(#pec7de4e78f)" d="M 461.8 303.64 
L 442.035 303.64 
L 126.655 302.788063 
L 47.81 38.687619 
" style="fill:none;stroke:#2ca02c;stroke-linecap:square;stroke-width:1.5;"/>
   </g>
   <g id="line2d_26">
    <path clip-path="url(#pec7de4e78f)" d="M 461.8 303.64 
L 244.9225 303.64 
L 47.81 38.687619 
" style="fill:none;stroke:#d62728;stroke-linecap:square;stroke-width:1.5;"/>
   </g>
   <g id="line2d_27">
    <path clip-path="url(#pec7de4e78f)" d="M 461.8 303.387551 
L 87.2325 298.577216 
L 47.81 38.687619 
" style="fill:none;stroke:#9467bd;stroke-linecap:square;stroke-width:1.5;"/>
   </g>
   <g id="line2d_28">
    <path clip-path="url(#pec7de4e78f)" d="M 461.8 303.64 
L 402.6125 303.64 
L 126.655 302.793507 
L 87.2325 299.407534 
L 47.81 38.687619 
" style="fill:none;stroke:#8c564b;stroke-linecap:square;stroke-width:1.5;"/>
   </g>
   <g id="line2d_29">
    <path clip-path="url(#pec7de4e78f)" d="M 461.8 303.387091 
L 126.655 301.952405 
L 87.2325 298.577216 
L 47.81 38.687619 
" style="fill:none;stroke:#e377c2;stroke-linecap:square;stroke-width:1.5;"/>
   </g>
   <g id="line2d_30">
    <path clip-path="url(#pec7de4e78f)" d="M 461.8 303.64 
L 323.7675 303.64 
L 166.0775 303.64 
L 87.2325 301.092381 
L 47.81 38.687619 
" style="fill:none;stroke:#7f7f7f;stroke-linecap:square;stroke-width:1.5;"/>
   </g>
   <g id="line2d_31">
    <path clip-path="url(#pec7de4e78f)" d="M 461.8 303.513545 
L 126.655 302.796203 
L 87.2325 298.577216 
L 47.81 38.687619 
" style="fill:none;stroke:#bcbd22;stroke-linecap:square;stroke-width:1.5;"/>
   </g>
   <g id="line2d_32">
    <path clip-path="url(#pec7de4e78f)" d="M 442.035 303.64 
L 47.81 38.687619 
" style="fill:none;stroke:#17becf;stroke-linecap:square;stroke-width:1.5;"/>
   </g>
   <g id="line2d_33">
    <path clip-path="url(#pec7de4e78f)" d="M 461.8 303.64 
L 244.9225 303.64 
L 87.2325 302.793507 
L 47.81 38.687619 
" style="fill:none;stroke:#1f77b4;stroke-linecap:square;stroke-width:1.5;"/>
   </g>
   <g id="line2d_34">
    <path clip-path="url(#pec7de4e78f)" d="M 461.8 303.555039 
L 87.2325 301.936126 
L 47.81 38.687619 
" style="fill:none;stroke:#ff7f0e;stroke-linecap:square;stroke-width:1.5;"/>
   </g>
   <g id="line2d_35">
    <path clip-path="url(#pec7de4e78f)" d="M 461.8 303.513141 
L 126.655 302.793507 
L 47.81 38.687619 
" style="fill:none;stroke:#2ca02c;stroke-linecap:square;stroke-width:1.5;"/>
   </g>
   <g id="line2d_36">
    <path clip-path="url(#pec7de4e78f)" d="M 461.8 303.64 
L 323.7675 303.64 
L 87.2325 296.868054 
L 47.81 38.687619 
" style="fill:none;stroke:#d62728;stroke-linecap:square;stroke-width:1.5;"/>
   </g>
   <g id="line2d_37">
    <path clip-path="url(#pec7de4e78f)" d="M 461.8 303.258204 
L 126.655 301.092381 
L 87.2325 298.544762 
L 47.81 38.687619 
" style="fill:none;stroke:#9467bd;stroke-linecap:square;stroke-width:1.5;"/>
   </g>
   <g id="line2d_38">
    <path clip-path="url(#pec7de4e78f)" d="M 461.8 303.64 
L 244.9225 303.64 
L 87.2325 297.714547 
L 47.81 38.687619 
" style="fill:none;stroke:#8c564b;stroke-linecap:square;stroke-width:1.5;"/>
   </g>
   <g id="line2d_39">
    <path clip-path="url(#pec7de4e78f)" d="M 461.8 303.64 
L 363.19 303.64 
L 87.2325 302.793507 
L 47.81 38.687619 
" style="fill:none;stroke:#e377c2;stroke-linecap:square;stroke-width:1.5;"/>
   </g>
   <g id="line2d_40">
    <path clip-path="url(#pec7de4e78f)" d="M 461.8 303.555582 
L 87.2325 301.947014 
L 47.81 38.687619 
" style="fill:none;stroke:#7f7f7f;stroke-linecap:square;stroke-width:1.5;"/>
   </g>
   <g id="line2d_41">
    <path clip-path="url(#pec7de4e78f)" d="M 461.8 303.597791 
L 87.2325 302.793507 
L 47.81 38.687619 
" style="fill:none;stroke:#bcbd22;stroke-linecap:square;stroke-width:1.5;"/>
   </g>
   <g id="line2d_42">
    <path clip-path="url(#pec7de4e78f)" d="M 461.8 303.64 
L 402.6125 303.64 
L 87.2325 301.084189 
L 47.81 38.687619 
" style="fill:none;stroke:#17becf;stroke-linecap:square;stroke-width:1.5;"/>
   </g>
   <g id="line2d_43">
    <path clip-path="url(#pec7de4e78f)" d="M 461.8 303.55585 
L 87.2325 301.952405 
L 47.81 38.687619 
" style="fill:none;stroke:#1f77b4;stroke-linecap:square;stroke-width:1.5;"/>
   </g>
   <g id="line2d_44">
    <path clip-path="url(#pec7de4e78f)" d="M 461.8 303.64 
L 442.035 303.64 
L 87.2325 302.790794 
L 47.81 38.687619 
" style="fill:none;stroke:#ff7f0e;stroke-linecap:square;stroke-width:1.5;"/>
   </g>
   <g id="line2d_45">
    <path clip-path="url(#pec7de4e78f)" d="M 461.8 303.64 
L 363.19 303.64 
L 126.655 300.243175 
L 87.2325 295.147937 
L 47.81 38.687619 
" style="fill:none;stroke:#2ca02c;stroke-linecap:square;stroke-width:1.5;"/>
   </g>
   <g id="line2d_46">
    <path clip-path="url(#pec7de4e78f)" d="M 461.8 303.429166 
L 166.0775 302.796203 
L 87.2325 299.421013 
L 47.81 38.687619 
" style="fill:none;stroke:#d62728;stroke-linecap:square;stroke-width:1.5;"/>
   </g>
   <g id="line2d_47">
    <path clip-path="url(#pec7de4e78f)" d="M 461.8 303.343588 
L 87.2325 297.695556 
L 47.81 38.687619 
" style="fill:none;stroke:#9467bd;stroke-linecap:square;stroke-width:1.5;"/>
   </g>
   <g id="line2d_48">
    <path clip-path="url(#pec7de4e78f)" d="M 461.8 303.64 
L 442.035 303.64 
L 87.2325 301.10052 
L 47.81 38.687619 
" style="fill:none;stroke:#8c564b;stroke-linecap:square;stroke-width:1.5;"/>
   </g>
   <g id="line2d_49">
    <path clip-path="url(#pec7de4e78f)" d="M 461.8 303.64 
L 284.345 303.64 
L 126.655 302.793507 
L 87.2325 293.482081 
L 47.81 38.687619 
" style="fill:none;stroke:#e377c2;stroke-linecap:square;stroke-width:1.5;"/>
   </g>
   <g id="line2d_50">
    <path clip-path="url(#pec7de4e78f)" d="M 461.8 303.513545 
L 126.655 302.796203 
L 87.2325 296.889621 
L 47.81 38.687619 
" style="fill:none;stroke:#7f7f7f;stroke-linecap:square;stroke-width:1.5;"/>
   </g>
   <g id="line2d_51">
    <path clip-path="url(#pec7de4e78f)" d="M 461.8 303.64 
L 323.7675 303.64 
L 87.2325 302.790794 
L 47.81 38.687619 
" style="fill:none;stroke:#bcbd22;stroke-linecap:square;stroke-width:1.5;"/>
   </g>
   <g id="line2d_52">
    <path clip-path="url(#pec7de4e78f)" d="M 461.8 303.471163 
L 87.2325 300.254027 
L 47.81 38.687619 
" style="fill:none;stroke:#17becf;stroke-linecap:square;stroke-width:1.5;"/>
   </g>
   <g id="line2d_53">
    <path clip-path="url(#pec7de4e78f)" d="M 461.8 303.555311 
L 87.2325 301.941587 
L 47.81 38.687619 
" style="fill:none;stroke:#1f77b4;stroke-linecap:square;stroke-width:1.5;"/>
   </g>
   <g id="line2d_54">
    <path clip-path="url(#pec7de4e78f)" d="M 461.8 303.64 
L 323.7675 303.64 
L 87.2325 301.947014 
L 47.81 38.687619 
" style="fill:none;stroke:#ff7f0e;stroke-linecap:square;stroke-width:1.5;"/>
   </g>
   <g id="line2d_55">
    <path clip-path="url(#pec7de4e78f)" d="M 461.8 303.471163 
L 87.2325 300.254027 
L 47.81 38.687619 
" style="fill:none;stroke:#2ca02c;stroke-linecap:square;stroke-width:1.5;"/>
   </g>
   <g id="line2d_56">
    <path clip-path="url(#pec7de4e78f)" d="M 461.8 303.55585 
L 87.2325 301.952405 
L 47.81 38.687619 
" style="fill:none;stroke:#d62728;stroke-linecap:square;stroke-width:1.5;"/>
   </g>
   <g id="line2d_57">
    <path clip-path="url(#pec7de4e78f)" d="M 461.8 303.64 
L 442.035 303.64 
L 87.2325 302.793507 
L 47.81 38.687619 
" style="fill:none;stroke:#9467bd;stroke-linecap:square;stroke-width:1.5;"/>
   </g>
   <g id="line2d_58">
    <path clip-path="url(#pec7de4e78f)" d="M 461.8 303.64 
L 363.19 303.64 
L 126.655 302.790794 
L 87.2325 296.846349 
L 47.81 38.687619 
" style="fill:none;stroke:#8c564b;stroke-linecap:square;stroke-width:1.5;"/>
   </g>
   <g id="line2d_59">
    <path clip-path="url(#pec7de4e78f)" d="M 461.8 303.64 
L 442.035 303.64 
L 87.2325 301.10052 
L 47.81 38.687619 
" style="fill:none;stroke:#e377c2;stroke-linecap:square;stroke-width:1.5;"/>
   </g>
   <g id="line2d_60">
    <path clip-path="url(#pec7de4e78f)" d="M 461.8 303.64 
L 442.035 303.64 
L 47.81 38.687619 
" style="fill:none;stroke:#7f7f7f;stroke-linecap:square;stroke-width:1.5;"/>
   </g>
   <g id="line2d_61">
    <path clip-path="url(#pec7de4e78f)" d="M 461.8 303.597925 
L 87.2325 302.796203 
L 47.81 38.687619 
" style="fill:none;stroke:#bcbd22;stroke-linecap:square;stroke-width:1.5;"/>
   </g>
   <g id="line2d_62">
    <path clip-path="url(#pec7de4e78f)" d="M 461.8 303.64 
L 442.035 303.64 
L 47.81 38.687619 
" style="fill:none;stroke:#17becf;stroke-linecap:square;stroke-width:1.5;"/>
   </g>
   <g id="line2d_63">
    <path clip-path="url(#pec7de4e78f)" d="M 461.8 303.64 
L 442.035 303.64 
L 87.2325 301.947014 
L 47.81 38.687619 
" style="fill:none;stroke:#1f77b4;stroke-linecap:square;stroke-width:1.5;"/>
   </g>
   <g id="line2d_64">
    <path clip-path="url(#pec7de4e78f)" d="M 461.8 303.64 
L 402.6125 303.64 
L 87.2325 301.084189 
L 47.81 38.687619 
" style="fill:none;stroke:#ff7f0e;stroke-linecap:square;stroke-width:1.5;"/>
   </g>
   <g id="line2d_65">
    <path clip-path="url(#pec7de4e78f)" d="M 461.8 303.513141 
L 126.655 302.793507 
L 87.2325 298.561041 
L 47.81 38.687619 
" style="fill:none;stroke:#2ca02c;stroke-linecap:square;stroke-width:1.5;"/>
   </g>
   <g id="line2d_66">
    <path clip-path="url(#pec7de4e78f)" d="M 461.8 303.64 
L 442.035 303.64 
L 87.2325 302.788063 
L 47.81 38.687619 
" style="fill:none;stroke:#d62728;stroke-linecap:square;stroke-width:1.5;"/>
   </g>
   <g id="line2d_67">
    <path clip-path="url(#pec7de4e78f)" d="M 461.8 303.387551 
L 87.2325 298.577216 
L 47.81 38.687619 
" style="fill:none;stroke:#9467bd;stroke-linecap:square;stroke-width:1.5;"/>
   </g>
   <g id="line2d_68">
    <path clip-path="url(#pec7de4e78f)" d="M 461.8 303.64 
L 442.035 303.64 
L 87.2325 301.941587 
L 47.81 38.687619 
" style="fill:none;stroke:#8c564b;stroke-linecap:square;stroke-width:1.5;"/>
   </g>
   <g id="line2d_69">
    <path clip-path="url(#pec7de4e78f)" d="M 461.8 303.386283 
L 126.655 301.947014 
L 87.2325 299.407534 
L 47.81 38.687619 
" style="fill:none;stroke:#e377c2;stroke-linecap:square;stroke-width:1.5;"/>
   </g>
   <g id="line2d_70">
    <path clip-path="url(#pec7de4e78f)" d="M 461.8 303.64 
L 402.6125 303.64 
L 87.2325 302.788063 
L 47.81 38.687619 
" style="fill:none;stroke:#7f7f7f;stroke-linecap:square;stroke-width:1.5;"/>
   </g>
   <g id="line2d_71">
    <path clip-path="url(#pec7de4e78f)" d="M 461.8 303.64 
L 442.035 303.64 
L 87.2325 301.947014 
L 47.81 38.687619 
" style="fill:none;stroke:#bcbd22;stroke-linecap:square;stroke-width:1.5;"/>
   </g>
   <g id="line2d_72">
    <path clip-path="url(#pec7de4e78f)" d="M 461.8 303.64 
L 244.9225 303.64 
L 87.2325 299.407534 
L 47.81 38.687619 
" style="fill:none;stroke:#17becf;stroke-linecap:square;stroke-width:1.5;"/>
   </g>
   <g id="line2d_73">
    <path clip-path="url(#pec7de4e78f)" d="M 461.8 303.64 
L 284.345 303.64 
L 87.2325 300.232252 
L 47.81 38.687619 
" style="fill:none;stroke:#1f77b4;stroke-linecap:square;stroke-width:1.5;"/>
   </g>
   <g id="line2d_74">
    <path clip-path="url(#pec7de4e78f)" d="M 461.8 303.64 
L 244.9225 303.64 
L 87.2325 299.407534 
L 47.81 38.687619 
" style="fill:none;stroke:#ff7f0e;stroke-linecap:square;stroke-width:1.5;"/>
   </g>
   <g id="line2d_75">
    <path clip-path="url(#pec7de4e78f)" d="M 461.8 303.64 
L 323.7675 303.64 
L 87.2325 301.092381 
L 47.81 38.687619 
" style="fill:none;stroke:#2ca02c;stroke-linecap:square;stroke-width:1.5;"/>
   </g>
   <g id="line2d_76">
    <path clip-path="url(#pec7de4e78f)" d="M 461.8 303.64 
L 244.9225 303.64 
L 87.2325 300.243175 
L 47.81 38.687619 
" style="fill:none;stroke:#d62728;stroke-linecap:square;stroke-width:1.5;"/>
   </g>
   <g id="line2d_77">
    <path clip-path="url(#pec7de4e78f)" d="M 461.8 303.64 
L 205.5 303.64 
L 126.655 302.793507 
L 87.2325 296.868054 
L 47.81 38.687619 
" style="fill:none;stroke:#9467bd;stroke-linecap:square;stroke-width:1.5;"/>
   </g>
   <g id="line2d_78">
    <path clip-path="url(#pec7de4e78f)" d="M 461.8 303.513141 
L 126.655 302.793507 
L 87.2325 298.561041 
L 47.81 38.687619 
" style="fill:none;stroke:#8c564b;stroke-linecap:square;stroke-width:1.5;"/>
   </g>
   <g id="line2d_79">
    <path clip-path="url(#pec7de4e78f)" d="M 461.8 303.387091 
L 126.655 301.952405 
L 87.2325 299.421013 
L 47.81 38.687619 
" style="fill:none;stroke:#e377c2;stroke-linecap:square;stroke-width:1.5;"/>
   </g>
   <g id="line2d_80">
    <path clip-path="url(#pec7de4e78f)" d="M 461.8 303.64 
L 205.5 303.64 
L 47.81 38.687619 
" style="fill:none;stroke:#7f7f7f;stroke-linecap:square;stroke-width:1.5;"/>
   </g>
   <g id="line2d_81">
    <path clip-path="url(#pec7de4e78f)" d="M 461.8 303.513545 
L 126.655 302.796203 
L 87.2325 300.26481 
L 47.81 38.687619 
" style="fill:none;stroke:#bcbd22;stroke-linecap:square;stroke-width:1.5;"/>
   </g>
   <g id="line2d_82">
    <path clip-path="url(#pec7de4e78f)" d="M 461.8 303.344786 
L 205.5 302.796203 
L 87.2325 301.108608 
L 47.81 38.687619 
" style="fill:none;stroke:#17becf;stroke-linecap:square;stroke-width:1.5;"/>
   </g>
   <g id="line2d_83">
    <path clip-path="url(#pec7de4e78f)" d="M 461.8 303.512735 
L 126.655 302.790794 
L 87.2325 299.393968 
L 47.81 38.687619 
" style="fill:none;stroke:#1f77b4;stroke-linecap:square;stroke-width:1.5;"/>
   </g>
   <g id="line2d_84">
    <path clip-path="url(#pec7de4e78f)" d="M 461.8 303.64 
L 442.035 303.64 
L 87.2325 301.941587 
L 47.81 38.687619 
" style="fill:none;stroke:#ff7f0e;stroke-linecap:square;stroke-width:1.5;"/>
   </g>
   <g id="line2d_85">
    <path clip-path="url(#pec7de4e78f)" d="M 461.8 303.64 
L 442.035 303.64 
L 87.2325 301.10052 
L 47.81 38.687619 
" style="fill:none;stroke:#2ca02c;stroke-linecap:square;stroke-width:1.5;"/>
   </g>
   <g id="line2d_86">
    <path clip-path="url(#pec7de4e78f)" d="M 461.8 303.64 
L 244.9225 303.64 
L 87.2325 298.544762 
L 47.81 38.687619 
" style="fill:none;stroke:#d62728;stroke-linecap:square;stroke-width:1.5;"/>
   </g>
   <g id="line2d_87">
    <path clip-path="url(#pec7de4e78f)" d="M 461.8 303.64 
L 323.7675 303.64 
L 87.2325 301.10052 
L 47.81 38.687619 
" style="fill:none;stroke:#9467bd;stroke-linecap:square;stroke-width:1.5;"/>
   </g>
   <g id="line2d_88">
    <path clip-path="url(#pec7de4e78f)" d="M 461.8 303.512966 
L 87.2325 301.092381 
L 47.81 38.687619 
" style="fill:none;stroke:#8c564b;stroke-linecap:square;stroke-width:1.5;"/>
   </g>
   <g id="line2d_89">
    <path clip-path="url(#pec7de4e78f)" d="M 461.8 303.513141 
L 126.655 302.793507 
L 87.2325 301.10052 
L 47.81 38.687619 
" style="fill:none;stroke:#e377c2;stroke-linecap:square;stroke-width:1.5;"/>
   </g>
   <g id="line2d_90">
    <path clip-path="url(#pec7de4e78f)" d="M 461.8 303.513545 
L 126.655 302.796203 
L 87.2325 301.108608 
L 47.81 38.687619 
" style="fill:none;stroke:#7f7f7f;stroke-linecap:square;stroke-width:1.5;"/>
   </g>
   <g id="line2d_91">
    <path clip-path="url(#pec7de4e78f)" d="M 461.8 303.470077 
L 87.2325 300.232252 
L 47.81 38.687619 
" style="fill:none;stroke:#bcbd22;stroke-linecap:square;stroke-width:1.5;"/>
   </g>
   <g id="line2d_92">
    <path clip-path="url(#pec7de4e78f)" d="M 461.8 303.64 
L 402.6125 303.64 
L 166.0775 302.793507 
L 87.2325 298.561041 
L 47.81 38.687619 
" style="fill:none;stroke:#17becf;stroke-linecap:square;stroke-width:1.5;"/>
   </g>
   <g id="line2d_93">
    <path clip-path="url(#pec7de4e78f)" d="M 461.8 303.64 
L 323.7675 303.64 
L 87.2325 300.254027 
L 47.81 38.687619 
" style="fill:none;stroke:#1f77b4;stroke-linecap:square;stroke-width:1.5;"/>
   </g>
   <g id="line2d_94">
    <path clip-path="url(#pec7de4e78f)" d="M 442.035 303.64 
L 47.81 38.687619 
" style="fill:none;stroke:#ff7f0e;stroke-linecap:square;stroke-width:1.5;"/>
   </g>
   <g id="line2d_95">
    <path clip-path="url(#pec7de4e78f)" d="M 461.8 303.386745 
L 87.2325 298.561041 
L 47.81 38.687619 
" style="fill:none;stroke:#2ca02c;stroke-linecap:square;stroke-width:1.5;"/>
   </g>
   <g id="line2d_96">
    <path clip-path="url(#pec7de4e78f)" d="M 461.8 303.64 
L 323.7675 303.64 
L 87.2325 298.561041 
L 47.81 38.687619 
" style="fill:none;stroke:#d62728;stroke-linecap:square;stroke-width:1.5;"/>
   </g>
   <g id="line2d_97">
    <path clip-path="url(#pec7de4e78f)" d="M 461.8 303.64 
L 244.9225 303.64 
L 126.655 300.243175 
L 87.2325 295.997143 
L 47.81 38.687619 
" style="fill:none;stroke:#9467bd;stroke-linecap:square;stroke-width:1.5;"/>
   </g>
   <g id="line2d_98">
    <path clip-path="url(#pec7de4e78f)" d="M 461.8 303.64 
L 442.035 303.64 
L 47.81 38.687619 
" style="fill:none;stroke:#8c564b;stroke-linecap:square;stroke-width:1.5;"/>
   </g>
   <g id="line2d_99">
    <path clip-path="url(#pec7de4e78f)" d="M 461.8 303.64 
L 363.19 303.64 
L 87.2325 301.941587 
L 47.81 38.687619 
" style="fill:none;stroke:#e377c2;stroke-linecap:square;stroke-width:1.5;"/>
   </g>
   <g id="line2d_100">
    <path clip-path="url(#pec7de4e78f)" d="M 461.8 303.64 
L 442.035 303.64 
L 87.2325 302.793507 
L 47.81 38.687619 
" style="fill:none;stroke:#7f7f7f;stroke-linecap:square;stroke-width:1.5;"/>
   </g>
   <g id="line2d_101">
    <path clip-path="url(#pec7de4e78f)" d="M 442.035 303.64 
L 47.81 38.687619 
" style="fill:none;stroke:#bcbd22;stroke-linecap:square;stroke-width:1.5;"/>
   </g>
   <g id="line2d_102">
    <path clip-path="url(#pec7de4e78f)" d="M 442.035 303.64 
L 47.81 38.687619 
" style="fill:none;stroke:#17becf;stroke-linecap:square;stroke-width:1.5;"/>
   </g>
   <g id="line2d_103">
    <path clip-path="url(#pec7de4e78f)" d="M 461.8 303.64 
L 402.6125 303.64 
L 126.655 302.790794 
L 47.81 38.687619 
" style="fill:none;stroke:#1f77b4;stroke-linecap:square;stroke-width:1.5;"/>
   </g>
   <g id="line2d_104">
    <path clip-path="url(#pec7de4e78f)" d="M 461.8 303.64 
L 402.6125 303.64 
L 87.2325 302.790794 
L 47.81 38.687619 
" style="fill:none;stroke:#ff7f0e;stroke-linecap:square;stroke-width:1.5;"/>
   </g>
   <g id="line2d_105">
    <path clip-path="url(#pec7de4e78f)" d="M 442.035 303.64 
L 47.81 38.687619 
" style="fill:none;stroke:#2ca02c;stroke-linecap:square;stroke-width:1.5;"/>
   </g>
   <g id="line2d_106">
    <path clip-path="url(#pec7de4e78f)" d="M 461.8 303.64 
L 442.035 303.64 
L 87.2325 301.10052 
L 47.81 38.687619 
" style="fill:none;stroke:#d62728;stroke-linecap:square;stroke-width:1.5;"/>
   </g>
   <g id="line2d_107">
    <path clip-path="url(#pec7de4e78f)" d="M 461.8 303.64 
L 402.6125 303.64 
L 87.2325 301.092381 
L 47.81 38.687619 
" style="fill:none;stroke:#9467bd;stroke-linecap:square;stroke-width:1.5;"/>
   </g>
   <g id="line2d_108">
    <path clip-path="url(#pec7de4e78f)" d="M 461.8 303.64 
L 402.6125 303.64 
L 87.2325 302.790794 
L 47.81 38.687619 
" style="fill:none;stroke:#8c564b;stroke-linecap:square;stroke-width:1.5;"/>
   </g>
   <g id="line2d_109">
    <path clip-path="url(#pec7de4e78f)" d="M 461.8 303.64 
L 442.035 303.64 
L 87.2325 301.10052 
L 47.81 38.687619 
" style="fill:none;stroke:#e377c2;stroke-linecap:square;stroke-width:1.5;"/>
   </g>
   <g id="line2d_110">
    <path clip-path="url(#pec7de4e78f)" d="M 461.8 303.64 
L 442.035 303.64 
L 87.2325 301.084189 
L 47.81 38.687619 
" style="fill:none;stroke:#7f7f7f;stroke-linecap:square;stroke-width:1.5;"/>
   </g>
   <g id="line2d_111">
    <path clip-path="url(#pec7de4e78f)" d="M 461.8 303.64 
L 442.035 303.64 
L 87.2325 301.947014 
L 47.81 38.687619 
" style="fill:none;stroke:#bcbd22;stroke-linecap:square;stroke-width:1.5;"/>
   </g>
   <g id="line2d_112">
    <path clip-path="url(#pec7de4e78f)" d="M 461.8 303.64 
L 442.035 303.64 
L 323.7675 303.64 
L 166.0775 302.790794 
L 87.2325 301.092381 
L 47.81 38.687619 
" style="fill:none;stroke:#17becf;stroke-linecap:square;stroke-width:1.5;"/>
   </g>
   <g id="line2d_113">
    <path clip-path="url(#pec7de4e78f)" d="M 461.8 303.597925 
L 87.2325 302.796203 
L 47.81 38.687619 
" style="fill:none;stroke:#1f77b4;stroke-linecap:square;stroke-width:1.5;"/>
   </g>
   <g id="line2d_114">
    <path clip-path="url(#pec7de4e78f)" d="M 461.8 303.64 
L 442.035 303.64 
L 47.81 38.687619 
" style="fill:none;stroke:#ff7f0e;stroke-linecap:square;stroke-width:1.5;"/>
   </g>
   <g id="line2d_115">
    <path clip-path="url(#pec7de4e78f)" d="M 461.8 303.513776 
L 87.2325 301.108608 
L 47.81 38.687619 
" style="fill:none;stroke:#2ca02c;stroke-linecap:square;stroke-width:1.5;"/>
   </g>
   <g id="line2d_116">
    <path clip-path="url(#pec7de4e78f)" d="M 461.8 303.64 
L 442.035 303.64 
L 87.2325 299.407534 
L 47.81 38.687619 
" style="fill:none;stroke:#d62728;stroke-linecap:square;stroke-width:1.5;"/>
   </g>
   <g id="line2d_117">
    <path clip-path="url(#pec7de4e78f)" d="M 461.8 303.64 
L 442.035 303.64 
L 87.2325 301.947014 
L 47.81 38.687619 
" style="fill:none;stroke:#9467bd;stroke-linecap:square;stroke-width:1.5;"/>
   </g>
   <g id="line2d_118">
    <path clip-path="url(#pec7de4e78f)" d="M 461.8 303.64 
L 442.035 303.64 
L 47.81 38.687619 
" style="fill:none;stroke:#8c564b;stroke-linecap:square;stroke-width:1.5;"/>
   </g>
   <g id="line2d_119">
    <path clip-path="url(#pec7de4e78f)" d="M 461.8 303.64 
L 442.035 303.64 
L 47.81 38.687619 
" style="fill:none;stroke:#e377c2;stroke-linecap:square;stroke-width:1.5;"/>
   </g>
   <g id="line2d_120">
    <path clip-path="url(#pec7de4e78f)" d="M 461.8 303.64 
L 205.5 303.64 
L 47.81 38.687619 
" style="fill:none;stroke:#7f7f7f;stroke-linecap:square;stroke-width:1.5;"/>
   </g>
   <g id="line2d_121">
    <path clip-path="url(#pec7de4e78f)" d="M 461.8 303.64 
L 442.035 303.64 
L 87.2325 302.790794 
L 47.81 38.687619 
" style="fill:none;stroke:#bcbd22;stroke-linecap:square;stroke-width:1.5;"/>
   </g>
   <g id="line2d_122">
    <path clip-path="url(#pec7de4e78f)" d="M 461.8 303.64 
L 442.035 303.64 
L 87.2325 298.544762 
L 47.81 38.687619 
" style="fill:none;stroke:#17becf;stroke-linecap:square;stroke-width:1.5;"/>
   </g>
   <g id="line2d_123">
    <path clip-path="url(#pec7de4e78f)" d="M 461.8 303.597925 
L 87.2325 302.796203 
L 47.81 38.687619 
" style="fill:none;stroke:#1f77b4;stroke-linecap:square;stroke-width:1.5;"/>
   </g>
   <g id="line2d_124">
    <path clip-path="url(#pec7de4e78f)" d="M 461.8 303.64 
L 363.19 303.64 
L 47.81 38.687619 
" style="fill:none;stroke:#ff7f0e;stroke-linecap:square;stroke-width:1.5;"/>
   </g>
   <g id="line2d_125">
    <path clip-path="url(#pec7de4e78f)" d="M 461.8 303.471701 
L 87.2325 300.26481 
L 47.81 38.687619 
" style="fill:none;stroke:#2ca02c;stroke-linecap:square;stroke-width:1.5;"/>
   </g>
   <g id="line2d_126">
    <path clip-path="url(#pec7de4e78f)" d="M 461.8 303.64 
L 363.19 303.64 
L 87.2325 295.972568 
L 47.81 38.687619 
" style="fill:none;stroke:#d62728;stroke-linecap:square;stroke-width:1.5;"/>
   </g>
   <g id="line2d_127">
    <path clip-path="url(#pec7de4e78f)" d="M 461.8 303.64 
L 442.035 303.64 
L 87.2325 298.561041 
L 47.81 38.687619 
" style="fill:none;stroke:#9467bd;stroke-linecap:square;stroke-width:1.5;"/>
   </g>
   <g id="line2d_128">
    <path clip-path="url(#pec7de4e78f)" d="M 461.8 303.64 
L 402.6125 303.64 
L 47.81 38.687619 
" style="fill:none;stroke:#8c564b;stroke-linecap:square;stroke-width:1.5;"/>
   </g>
   <g id="line2d_129">
    <path clip-path="url(#pec7de4e78f)" d="M 461.8 303.597925 
L 87.2325 302.796203 
L 47.81 38.687619 
" style="fill:none;stroke:#e377c2;stroke-linecap:square;stroke-width:1.5;"/>
   </g>
   <g id="line2d_130">
    <path clip-path="url(#pec7de4e78f)" d="M 461.8 303.64 
L 442.035 303.64 
L 47.81 38.687619 
" style="fill:none;stroke:#7f7f7f;stroke-linecap:square;stroke-width:1.5;"/>
   </g>
   <g id="line2d_131">
    <path clip-path="url(#pec7de4e78f)" d="M 461.8 303.64 
L 442.035 303.64 
L 47.81 38.687619 
" style="fill:none;stroke:#bcbd22;stroke-linecap:square;stroke-width:1.5;"/>
   </g>
   <g id="line2d_132">
    <path clip-path="url(#pec7de4e78f)" d="M 461.8 303.64 
L 363.19 303.64 
L 87.2325 301.092381 
L 47.81 38.687619 
" style="fill:none;stroke:#17becf;stroke-linecap:square;stroke-width:1.5;"/>
   </g>
   <g id="line2d_133">
    <path clip-path="url(#pec7de4e78f)" d="M 461.8 303.64 
L 402.6125 303.64 
L 87.2325 302.790794 
L 47.81 38.687619 
" style="fill:none;stroke:#1f77b4;stroke-linecap:square;stroke-width:1.5;"/>
   </g>
   <g id="line2d_134">
    <path clip-path="url(#pec7de4e78f)" d="M 461.8 303.64 
L 402.6125 303.64 
L 47.81 38.687619 
" style="fill:none;stroke:#ff7f0e;stroke-linecap:square;stroke-width:1.5;"/>
   </g>
   <g id="line2d_135">
    <path clip-path="url(#pec7de4e78f)" d="M 461.8 303.55585 
L 87.2325 301.952405 
L 47.81 38.687619 
" style="fill:none;stroke:#2ca02c;stroke-linecap:square;stroke-width:1.5;"/>
   </g>
   <g id="line2d_136">
    <path clip-path="url(#pec7de4e78f)" d="M 461.8 303.64 
L 442.035 303.64 
L 47.81 38.687619 
" style="fill:none;stroke:#d62728;stroke-linecap:square;stroke-width:1.5;"/>
   </g>
   <g id="line2d_137">
    <path clip-path="url(#pec7de4e78f)" d="M 461.8 303.64 
L 402.6125 303.64 
L 47.81 38.687619 
" style="fill:none;stroke:#9467bd;stroke-linecap:square;stroke-width:1.5;"/>
   </g>
   <g id="line2d_138">
    <path clip-path="url(#pec7de4e78f)" d="M 461.8 303.64 
L 442.035 303.64 
L 87.2325 301.947014 
L 47.81 38.687619 
" style="fill:none;stroke:#8c564b;stroke-linecap:square;stroke-width:1.5;"/>
   </g>
   <g id="line2d_139">
    <path clip-path="url(#pec7de4e78f)" d="M 461.8 303.64 
L 442.035 303.64 
L 47.81 38.687619 
" style="fill:none;stroke:#e377c2;stroke-linecap:square;stroke-width:1.5;"/>
   </g>
   <g id="line2d_140">
    <path clip-path="url(#pec7de4e78f)" d="M 461.8 303.64 
L 442.035 303.64 
L 47.81 38.687619 
" style="fill:none;stroke:#7f7f7f;stroke-linecap:square;stroke-width:1.5;"/>
   </g>
   <g id="line2d_141">
    <path clip-path="url(#pec7de4e78f)" d="M 461.8 303.64 
L 442.035 303.64 
L 87.2325 302.793507 
L 47.81 38.687619 
" style="fill:none;stroke:#bcbd22;stroke-linecap:square;stroke-width:1.5;"/>
   </g>
   <g id="line2d_142">
    <path clip-path="url(#pec7de4e78f)" d="M 461.8 303.64 
L 442.035 303.64 
L 87.2325 301.092381 
L 47.81 38.687619 
" style="fill:none;stroke:#17becf;stroke-linecap:square;stroke-width:1.5;"/>
   </g>
   <g id="line2d_143">
    <path clip-path="url(#pec7de4e78f)" d="M 461.8 303.64 
L 442.035 303.64 
L 126.655 302.790794 
L 87.2325 301.092381 
L 47.81 38.687619 
" style="fill:none;stroke:#1f77b4;stroke-linecap:square;stroke-width:1.5;"/>
   </g>
   <g id="line2d_144">
    <path clip-path="url(#pec7de4e78f)" d="M 461.8 303.64 
L 402.6125 303.64 
L 87.2325 297.695556 
L 47.81 38.687619 
" style="fill:none;stroke:#ff7f0e;stroke-linecap:square;stroke-width:1.5;"/>
   </g>
   <g id="line2d_145">
    <path clip-path="url(#pec7de4e78f)" d="M 461.8 303.64 
L 402.6125 303.64 
L 87.2325 301.936126 
L 47.81 38.687619 
" style="fill:none;stroke:#2ca02c;stroke-linecap:square;stroke-width:1.5;"/>
   </g>
   <g id="line2d_146">
    <path clip-path="url(#pec7de4e78f)" d="M 461.8 303.64 
L 402.6125 303.64 
L 47.81 38.687619 
" style="fill:none;stroke:#d62728;stroke-linecap:square;stroke-width:1.5;"/>
   </g>
   <g id="line2d_147">
    <path clip-path="url(#pec7de4e78f)" d="M 461.8 303.64 
L 402.6125 303.64 
L 87.2325 298.561041 
L 47.81 38.687619 
" style="fill:none;stroke:#9467bd;stroke-linecap:square;stroke-width:1.5;"/>
   </g>
   <g id="line2d_148">
    <path clip-path="url(#pec7de4e78f)" d="M 461.8 303.513545 
L 126.655 302.796203 
L 87.2325 301.108608 
L 47.81 38.687619 
" style="fill:none;stroke:#8c564b;stroke-linecap:square;stroke-width:1.5;"/>
   </g>
   <g id="line2d_149">
    <path clip-path="url(#pec7de4e78f)" d="M 461.8 303.55585 
L 87.2325 301.952405 
L 47.81 38.687619 
" style="fill:none;stroke:#e377c2;stroke-linecap:square;stroke-width:1.5;"/>
   </g>
   <g id="line2d_150">
    <path clip-path="url(#pec7de4e78f)" d="M 442.035 303.64 
L 47.81 38.687619 
" style="fill:none;stroke:#7f7f7f;stroke-linecap:square;stroke-width:1.5;"/>
   </g>
   <g id="line2d_151">
    <path clip-path="url(#pec7de4e78f)" d="M 461.8 303.64 
L 442.035 303.64 
L 126.655 302.793507 
L 87.2325 296.868054 
L 47.81 38.687619 
" style="fill:none;stroke:#bcbd22;stroke-linecap:square;stroke-width:1.5;"/>
   </g>
   <g id="line2d_152">
    <path clip-path="url(#pec7de4e78f)" d="M 461.8 303.64 
L 442.035 303.64 
L 47.81 38.687619 
" style="fill:none;stroke:#17becf;stroke-linecap:square;stroke-width:1.5;"/>
   </g>
   <g id="line2d_153">
    <path clip-path="url(#pec7de4e78f)" d="M 461.8 303.64 
L 363.19 303.64 
L 47.81 38.687619 
" style="fill:none;stroke:#1f77b4;stroke-linecap:square;stroke-width:1.5;"/>
   </g>
   <g id="line2d_154">
    <path clip-path="url(#pec7de4e78f)" d="M 461.8 303.64 
L 442.035 303.64 
L 87.2325 300.254027 
L 47.81 38.687619 
" style="fill:none;stroke:#ff7f0e;stroke-linecap:square;stroke-width:1.5;"/>
   </g>
   <g id="line2d_155">
    <path clip-path="url(#pec7de4e78f)" d="M 461.8 303.64 
L 442.035 303.64 
L 87.2325 301.092381 
L 47.81 38.687619 
" style="fill:none;stroke:#2ca02c;stroke-linecap:square;stroke-width:1.5;"/>
   </g>
   <g id="line2d_156">
    <path clip-path="url(#pec7de4e78f)" d="M 461.8 303.64 
L 442.035 303.64 
L 126.655 301.947014 
L 87.2325 298.561041 
L 47.81 38.687619 
" style="fill:none;stroke:#d62728;stroke-linecap:square;stroke-width:1.5;"/>
   </g>
   <g id="line2d_157">
    <path clip-path="url(#pec7de4e78f)" d="M 461.8 303.597925 
L 87.2325 302.796203 
L 47.81 38.687619 
" style="fill:none;stroke:#9467bd;stroke-linecap:square;stroke-width:1.5;"/>
   </g>
   <g id="line2d_158">
    <path clip-path="url(#pec7de4e78f)" d="M 461.8 303.55585 
L 87.2325 301.952405 
L 47.81 38.687619 
" style="fill:none;stroke:#8c564b;stroke-linecap:square;stroke-width:1.5;"/>
   </g>
   <g id="line2d_159">
    <path clip-path="url(#pec7de4e78f)" d="M 461.8 303.64 
L 402.6125 303.64 
L 87.2325 299.407534 
L 47.81 38.687619 
" style="fill:none;stroke:#e377c2;stroke-linecap:square;stroke-width:1.5;"/>
   </g>
   <g id="line2d_160">
    <path clip-path="url(#pec7de4e78f)" d="M 461.8 303.64 
L 442.035 303.64 
L 47.81 38.687619 
" style="fill:none;stroke:#7f7f7f;stroke-linecap:square;stroke-width:1.5;"/>
   </g>
   <g id="line2d_161">
    <path clip-path="url(#pec7de4e78f)" d="M 461.8 303.597925 
L 87.2325 302.796203 
L 47.81 38.687619 
" style="fill:none;stroke:#bcbd22;stroke-linecap:square;stroke-width:1.5;"/>
   </g>
   <g id="line2d_162">
    <path clip-path="url(#pec7de4e78f)" d="M 461.8 303.64 
L 402.6125 303.64 
L 87.2325 301.092381 
L 47.81 38.687619 
" style="fill:none;stroke:#17becf;stroke-linecap:square;stroke-width:1.5;"/>
   </g>
   <g id="line2d_163">
    <path clip-path="url(#pec7de4e78f)" d="M 461.8 303.513545 
L 126.655 302.796203 
L 87.2325 300.26481 
L 47.81 38.687619 
" style="fill:none;stroke:#1f77b4;stroke-linecap:square;stroke-width:1.5;"/>
   </g>
   <g id="line2d_164">
    <path clip-path="url(#pec7de4e78f)" d="M 461.8 303.64 
L 442.035 303.64 
L 87.2325 301.10052 
L 47.81 38.687619 
" style="fill:none;stroke:#ff7f0e;stroke-linecap:square;stroke-width:1.5;"/>
   </g>
   <g id="line2d_165">
    <path clip-path="url(#pec7de4e78f)" d="M 461.8 303.64 
L 442.035 303.64 
L 87.2325 301.10052 
L 47.81 38.687619 
" style="fill:none;stroke:#2ca02c;stroke-linecap:square;stroke-width:1.5;"/>
   </g>
   <g id="line2d_166">
    <path clip-path="url(#pec7de4e78f)" d="M 461.8 303.387551 
L 87.2325 298.577216 
L 47.81 38.687619 
" style="fill:none;stroke:#d62728;stroke-linecap:square;stroke-width:1.5;"/>
   </g>
   <g id="line2d_167">
    <path clip-path="url(#pec7de4e78f)" d="M 461.8 303.64 
L 442.035 303.64 
L 87.2325 302.793507 
L 47.81 38.687619 
" style="fill:none;stroke:#9467bd;stroke-linecap:square;stroke-width:1.5;"/>
   </g>
   <g id="line2d_168">
    <path clip-path="url(#pec7de4e78f)" d="M 461.8 303.55585 
L 87.2325 301.952405 
L 47.81 38.687619 
" style="fill:none;stroke:#8c564b;stroke-linecap:square;stroke-width:1.5;"/>
   </g>
   <g id="line2d_169">
    <path clip-path="url(#pec7de4e78f)" d="M 461.8 303.64 
L 402.6125 303.64 
L 87.2325 301.941587 
L 47.81 38.687619 
" style="fill:none;stroke:#e377c2;stroke-linecap:square;stroke-width:1.5;"/>
   </g>
   <g id="line2d_170">
    <path clip-path="url(#pec7de4e78f)" d="M 461.8 303.64 
L 363.19 303.64 
L 47.81 38.687619 
" style="fill:none;stroke:#7f7f7f;stroke-linecap:square;stroke-width:1.5;"/>
   </g>
   <g id="line2d_171">
    <path clip-path="url(#pec7de4e78f)" d="M 461.8 303.471701 
L 87.2325 300.26481 
L 47.81 38.687619 
" style="fill:none;stroke:#bcbd22;stroke-linecap:square;stroke-width:1.5;"/>
   </g>
   <g id="line2d_172">
    <path clip-path="url(#pec7de4e78f)" d="M 461.8 303.64 
L 402.6125 303.64 
L 87.2325 300.243175 
L 47.81 38.687619 
" style="fill:none;stroke:#17becf;stroke-linecap:square;stroke-width:1.5;"/>
   </g>
   <g id="line2d_173">
    <path clip-path="url(#pec7de4e78f)" d="M 461.8 303.64 
L 442.035 303.64 
L 87.2325 301.947014 
L 47.81 38.687619 
" style="fill:none;stroke:#1f77b4;stroke-linecap:square;stroke-width:1.5;"/>
   </g>
   <g id="line2d_174">
    <path clip-path="url(#pec7de4e78f)" d="M 461.8 303.64 
L 402.6125 303.64 
L 87.2325 300.232252 
L 47.81 38.687619 
" style="fill:none;stroke:#ff7f0e;stroke-linecap:square;stroke-width:1.5;"/>
   </g>
   <g id="line2d_175">
    <path clip-path="url(#pec7de4e78f)" d="M 461.8 303.64 
L 402.6125 303.64 
L 47.81 38.687619 
" style="fill:none;stroke:#2ca02c;stroke-linecap:square;stroke-width:1.5;"/>
   </g>
   <g id="line2d_176">
    <path clip-path="url(#pec7de4e78f)" d="M 461.8 303.597925 
L 87.2325 302.796203 
L 47.81 38.687619 
" style="fill:none;stroke:#d62728;stroke-linecap:square;stroke-width:1.5;"/>
   </g>
   <g id="line2d_177">
    <path clip-path="url(#pec7de4e78f)" d="M 461.8 303.64 
L 166.0775 303.64 
L 87.2325 301.947014 
L 47.81 38.687619 
" style="fill:none;stroke:#9467bd;stroke-linecap:square;stroke-width:1.5;"/>
   </g>
   <g id="line2d_178">
    <path clip-path="url(#pec7de4e78f)" d="M 461.8 303.64 
L 442.035 303.64 
L 87.2325 301.947014 
L 47.81 38.687619 
" style="fill:none;stroke:#8c564b;stroke-linecap:square;stroke-width:1.5;"/>
   </g>
   <g id="line2d_179">
    <path clip-path="url(#pec7de4e78f)" d="M 461.8 303.64 
L 402.6125 303.64 
L 87.2325 301.092381 
L 47.81 38.687619 
" style="fill:none;stroke:#e377c2;stroke-linecap:square;stroke-width:1.5;"/>
   </g>
   <g id="line2d_180">
    <path clip-path="url(#pec7de4e78f)" d="M 461.8 303.64 
L 402.6125 303.64 
L 87.2325 302.793507 
L 47.81 38.687619 
" style="fill:none;stroke:#7f7f7f;stroke-linecap:square;stroke-width:1.5;"/>
   </g>
   <g id="line2d_181">
    <path clip-path="url(#pec7de4e78f)" d="M 461.8 303.64 
L 442.035 303.64 
L 47.81 38.687619 
" style="fill:none;stroke:#bcbd22;stroke-linecap:square;stroke-width:1.5;"/>
   </g>
   <g id="line2d_182">
    <path clip-path="url(#pec7de4e78f)" d="M 461.8 303.64 
L 323.7675 303.64 
L 87.2325 299.393968 
L 47.81 38.687619 
" style="fill:none;stroke:#17becf;stroke-linecap:square;stroke-width:1.5;"/>
   </g>
   <g id="line2d_183">
    <path clip-path="url(#pec7de4e78f)" d="M 461.8 303.64 
L 442.035 303.64 
L 126.655 302.793507 
L 47.81 38.687619 
" style="fill:none;stroke:#1f77b4;stroke-linecap:square;stroke-width:1.5;"/>
   </g>
   <g id="line2d_184">
    <path clip-path="url(#pec7de4e78f)" d="M 461.8 303.64 
L 402.6125 303.64 
L 47.81 38.687619 
" style="fill:none;stroke:#ff7f0e;stroke-linecap:square;stroke-width:1.5;"/>
   </g>
   <g id="line2d_185">
    <path clip-path="url(#pec7de4e78f)" d="M 461.8 303.64 
L 363.19 303.64 
L 87.2325 301.084189 
L 47.81 38.687619 
" style="fill:none;stroke:#2ca02c;stroke-linecap:square;stroke-width:1.5;"/>
   </g>
   <g id="line2d_186">
    <path clip-path="url(#pec7de4e78f)" d="M 461.8 303.64 
L 442.035 303.64 
L 87.2325 301.10052 
L 47.81 38.687619 
" style="fill:none;stroke:#d62728;stroke-linecap:square;stroke-width:1.5;"/>
   </g>
   <g id="line2d_187">
    <path clip-path="url(#pec7de4e78f)" d="M 461.8 303.64 
L 442.035 303.64 
L 87.2325 302.793507 
L 47.81 38.687619 
" style="fill:none;stroke:#9467bd;stroke-linecap:square;stroke-width:1.5;"/>
   </g>
   <g id="line2d_188">
    <path clip-path="url(#pec7de4e78f)" d="M 461.8 303.64 
L 442.035 303.64 
L 47.81 38.687619 
" style="fill:none;stroke:#8c564b;stroke-linecap:square;stroke-width:1.5;"/>
   </g>
   <g id="line2d_189">
    <path clip-path="url(#pec7de4e78f)" d="M 461.8 303.64 
L 363.19 303.64 
L 87.2325 302.790794 
L 47.81 38.687619 
" style="fill:none;stroke:#e377c2;stroke-linecap:square;stroke-width:1.5;"/>
   </g>
   <g id="line2d_190">
    <path clip-path="url(#pec7de4e78f)" d="M 461.8 303.64 
L 442.035 303.64 
L 87.2325 300.254027 
L 47.81 38.687619 
" style="fill:none;stroke:#7f7f7f;stroke-linecap:square;stroke-width:1.5;"/>
   </g>
   <g id="line2d_191">
    <path clip-path="url(#pec7de4e78f)" d="M 461.8 303.513776 
L 87.2325 301.108608 
L 47.81 38.687619 
" style="fill:none;stroke:#bcbd22;stroke-linecap:square;stroke-width:1.5;"/>
   </g>
   <g id="line2d_192">
    <path clip-path="url(#pec7de4e78f)" d="M 461.8 303.64 
L 442.035 303.64 
L 47.81 38.687619 
" style="fill:none;stroke:#17becf;stroke-linecap:square;stroke-width:1.5;"/>
   </g>
   <g id="line2d_193">
    <path clip-path="url(#pec7de4e78f)" d="M 461.8 303.64 
L 442.035 303.64 
L 47.81 38.687619 
" style="fill:none;stroke:#1f77b4;stroke-linecap:square;stroke-width:1.5;"/>
   </g>
   <g id="line2d_194">
    <path clip-path="url(#pec7de4e78f)" d="M 461.8 303.55585 
L 87.2325 301.952405 
L 47.81 38.687619 
" style="fill:none;stroke:#ff7f0e;stroke-linecap:square;stroke-width:1.5;"/>
   </g>
   <g id="line2d_195">
    <path clip-path="url(#pec7de4e78f)" d="M 461.8 303.513545 
L 126.655 302.796203 
L 87.2325 300.26481 
L 47.81 38.687619 
" style="fill:none;stroke:#2ca02c;stroke-linecap:square;stroke-width:1.5;"/>
   </g>
   <g id="line2d_196">
    <path clip-path="url(#pec7de4e78f)" d="M 461.8 303.64 
L 402.6125 303.64 
L 87.2325 299.393968 
L 47.81 38.687619 
" style="fill:none;stroke:#d62728;stroke-linecap:square;stroke-width:1.5;"/>
   </g>
   <g id="line2d_197">
    <path clip-path="url(#pec7de4e78f)" d="M 461.8 303.64 
L 402.6125 303.64 
L 47.81 38.687619 
" style="fill:none;stroke:#9467bd;stroke-linecap:square;stroke-width:1.5;"/>
   </g>
   <g id="line2d_198">
    <path clip-path="url(#pec7de4e78f)" d="M 461.8 303.64 
L 442.035 303.64 
L 284.345 303.64 
L 87.2325 301.941587 
L 47.81 38.687619 
" style="fill:none;stroke:#8c564b;stroke-linecap:square;stroke-width:1.5;"/>
   </g>
   <g id="line2d_199">
    <path clip-path="url(#pec7de4e78f)" d="M 461.8 303.64 
L 442.035 303.64 
L 87.2325 301.947014 
L 47.81 38.687619 
" style="fill:none;stroke:#e377c2;stroke-linecap:square;stroke-width:1.5;"/>
   </g>
   <g id="line2d_200">
    <path clip-path="url(#pec7de4e78f)" d="M 442.035 303.64 
L 47.81 38.687619 
" style="fill:none;stroke:#7f7f7f;stroke-linecap:square;stroke-width:1.5;"/>
   </g>
   <g id="line2d_201">
    <path clip-path="url(#pec7de4e78f)" d="M 461.8 303.64 
L 442.035 303.64 
L 87.2325 300.243175 
L 47.81 38.687619 
" style="fill:none;stroke:#bcbd22;stroke-linecap:square;stroke-width:1.5;"/>
   </g>
   <g id="line2d_202">
    <path clip-path="url(#pec7de4e78f)" d="M 461.8 303.597925 
L 87.2325 302.796203 
L 47.81 38.687619 
" style="fill:none;stroke:#17becf;stroke-linecap:square;stroke-width:1.5;"/>
   </g>
   <g id="line2d_203">
    <path clip-path="url(#pec7de4e78f)" d="M 461.8 303.64 
L 402.6125 303.64 
L 87.2325 299.393968 
L 47.81 38.687619 
" style="fill:none;stroke:#1f77b4;stroke-linecap:square;stroke-width:1.5;"/>
   </g>
   <g id="line2d_204">
    <path clip-path="url(#pec7de4e78f)" d="M 461.8 303.64 
L 402.6125 303.64 
L 87.2325 302.788063 
L 47.81 38.687619 
" style="fill:none;stroke:#ff7f0e;stroke-linecap:square;stroke-width:1.5;"/>
   </g>
   <g id="line2d_205">
    <path clip-path="url(#pec7de4e78f)" d="M 461.8 303.64 
L 442.035 303.64 
L 87.2325 299.407534 
L 47.81 38.687619 
" style="fill:none;stroke:#2ca02c;stroke-linecap:square;stroke-width:1.5;"/>
   </g>
   <g id="line2d_206">
    <path clip-path="url(#pec7de4e78f)" d="M 461.8 302.878849 
L 126.655 298.561041 
L 87.2325 290.942602 
L 47.81 38.687619 
" style="fill:none;stroke:#d62728;stroke-linecap:square;stroke-width:1.5;"/>
   </g>
   <g id="line2d_207">
    <path clip-path="url(#pec7de4e78f)" d="M 461.8 303.64 
L 402.6125 303.64 
L 47.81 38.687619 
" style="fill:none;stroke:#9467bd;stroke-linecap:square;stroke-width:1.5;"/>
   </g>
   <g id="line2d_208">
    <path clip-path="url(#pec7de4e78f)" d="M 461.8 303.64 
L 363.19 303.64 
L 87.2325 301.084189 
L 47.81 38.687619 
" style="fill:none;stroke:#8c564b;stroke-linecap:square;stroke-width:1.5;"/>
   </g>
   <g id="line2d_209">
    <path clip-path="url(#pec7de4e78f)" d="M 461.8 303.64 
L 323.7675 303.64 
L 87.2325 301.10052 
L 47.81 38.687619 
" style="fill:none;stroke:#e377c2;stroke-linecap:square;stroke-width:1.5;"/>
   </g>
   <g id="line2d_210">
    <path clip-path="url(#pec7de4e78f)" d="M 461.8 303.64 
L 402.6125 303.64 
L 87.2325 301.941587 
L 47.81 38.687619 
" style="fill:none;stroke:#7f7f7f;stroke-linecap:square;stroke-width:1.5;"/>
   </g>
   <g id="line2d_211">
    <path clip-path="url(#pec7de4e78f)" d="M 461.8 303.64 
L 402.6125 303.64 
L 47.81 38.687619 
" style="fill:none;stroke:#bcbd22;stroke-linecap:square;stroke-width:1.5;"/>
   </g>
   <g id="line2d_212">
    <path clip-path="url(#pec7de4e78f)" d="M 461.8 303.64 
L 402.6125 303.64 
L 47.81 38.687619 
" style="fill:none;stroke:#17becf;stroke-linecap:square;stroke-width:1.5;"/>
   </g>
   <g id="line2d_213">
    <path clip-path="url(#pec7de4e78f)" d="M 461.8 303.344786 
L 205.5 302.796203 
L 47.81 38.687619 
" style="fill:none;stroke:#1f77b4;stroke-linecap:square;stroke-width:1.5;"/>
   </g>
   <g id="line2d_214">
    <path clip-path="url(#pec7de4e78f)" d="M 461.8 303.64 
L 402.6125 303.64 
L 126.655 302.790794 
L 87.2325 301.092381 
L 47.81 38.687619 
" style="fill:none;stroke:#ff7f0e;stroke-linecap:square;stroke-width:1.5;"/>
   </g>
   <g id="line2d_215">
    <path clip-path="url(#pec7de4e78f)" d="M 461.8 303.64 
L 442.035 303.64 
L 47.81 38.687619 
" style="fill:none;stroke:#2ca02c;stroke-linecap:square;stroke-width:1.5;"/>
   </g>
   <g id="line2d_216">
    <path clip-path="url(#pec7de4e78f)" d="M 461.8 303.64 
L 442.035 303.64 
L 87.2325 301.947014 
L 47.81 38.687619 
" style="fill:none;stroke:#d62728;stroke-linecap:square;stroke-width:1.5;"/>
   </g>
   <g id="line2d_217">
    <path clip-path="url(#pec7de4e78f)" d="M 461.8 303.471701 
L 87.2325 300.26481 
L 47.81 38.687619 
" style="fill:none;stroke:#9467bd;stroke-linecap:square;stroke-width:1.5;"/>
   </g>
   <g id="line2d_218">
    <path clip-path="url(#pec7de4e78f)" d="M 461.8 303.259424 
L 126.655 301.10052 
L 87.2325 297.714547 
L 47.81 38.687619 
" style="fill:none;stroke:#8c564b;stroke-linecap:square;stroke-width:1.5;"/>
   </g>
   <g id="line2d_219">
    <path clip-path="url(#pec7de4e78f)" d="M 461.8 303.64 
L 442.035 303.64 
L 47.81 38.687619 
" style="fill:none;stroke:#e377c2;stroke-linecap:square;stroke-width:1.5;"/>
   </g>
   <g id="line2d_220">
    <path clip-path="url(#pec7de4e78f)" d="M 461.8 303.55585 
L 87.2325 301.952405 
L 47.81 38.687619 
" style="fill:none;stroke:#7f7f7f;stroke-linecap:square;stroke-width:1.5;"/>
   </g>
   <g id="line2d_221">
    <path clip-path="url(#pec7de4e78f)" d="M 442.035 303.64 
L 47.81 38.687619 
" style="fill:none;stroke:#bcbd22;stroke-linecap:square;stroke-width:1.5;"/>
   </g>
   <g id="line2d_222">
    <path clip-path="url(#pec7de4e78f)" d="M 461.8 303.64 
L 402.6125 303.64 
L 47.81 38.687619 
" style="fill:none;stroke:#17becf;stroke-linecap:square;stroke-width:1.5;"/>
   </g>
   <g id="line2d_223">
    <path clip-path="url(#pec7de4e78f)" d="M 461.8 303.513545 
L 126.655 302.796203 
L 87.2325 301.108608 
L 47.81 38.687619 
" style="fill:none;stroke:#1f77b4;stroke-linecap:square;stroke-width:1.5;"/>
   </g>
   <g id="line2d_224">
    <path clip-path="url(#pec7de4e78f)" d="M 461.8 303.64 
L 363.19 303.64 
L 87.2325 302.793507 
L 47.81 38.687619 
" style="fill:none;stroke:#ff7f0e;stroke-linecap:square;stroke-width:1.5;"/>
   </g>
   <g id="line2d_225">
    <path clip-path="url(#pec7de4e78f)" d="M 461.8 303.64 
L 402.6125 303.64 
L 47.81 38.687619 
" style="fill:none;stroke:#2ca02c;stroke-linecap:square;stroke-width:1.5;"/>
   </g>
   <g id="line2d_226">
    <path clip-path="url(#pec7de4e78f)" d="M 461.8 303.64 
L 442.035 303.64 
L 87.2325 302.793507 
L 47.81 38.687619 
" style="fill:none;stroke:#d62728;stroke-linecap:square;stroke-width:1.5;"/>
   </g>
   <g id="line2d_227">
    <path clip-path="url(#pec7de4e78f)" d="M 461.8 303.64 
L 442.035 303.64 
L 87.2325 301.10052 
L 47.81 38.687619 
" style="fill:none;stroke:#9467bd;stroke-linecap:square;stroke-width:1.5;"/>
   </g>
   <g id="line2d_228">
    <path clip-path="url(#pec7de4e78f)" d="M 461.8 303.64 
L 442.035 303.64 
L 87.2325 301.947014 
L 47.81 38.687619 
" style="fill:none;stroke:#8c564b;stroke-linecap:square;stroke-width:1.5;"/>
   </g>
   <g id="line2d_229">
    <path clip-path="url(#pec7de4e78f)" d="M 461.8 303.64 
L 442.035 303.64 
L 87.2325 301.947014 
L 47.81 38.687619 
" style="fill:none;stroke:#e377c2;stroke-linecap:square;stroke-width:1.5;"/>
   </g>
   <g id="line2d_230">
    <path clip-path="url(#pec7de4e78f)" d="M 442.035 303.64 
L 47.81 38.687619 
" style="fill:none;stroke:#7f7f7f;stroke-linecap:square;stroke-width:1.5;"/>
   </g>
   <g id="line2d_231">
    <path clip-path="url(#pec7de4e78f)" d="M 461.8 303.64 
L 442.035 303.64 
L 47.81 38.687619 
" style="fill:none;stroke:#bcbd22;stroke-linecap:square;stroke-width:1.5;"/>
   </g>
   <g id="line2d_232">
    <path clip-path="url(#pec7de4e78f)" d="M 461.8 303.64 
L 402.6125 303.64 
L 47.81 38.687619 
" style="fill:none;stroke:#17becf;stroke-linecap:square;stroke-width:1.5;"/>
   </g>
   <g id="line2d_233">
    <path clip-path="url(#pec7de4e78f)" d="M 461.8 303.429626 
L 87.2325 299.421013 
L 47.81 38.687619 
" style="fill:none;stroke:#1f77b4;stroke-linecap:square;stroke-width:1.5;"/>
   </g>
   <g id="line2d_234">
    <path clip-path="url(#pec7de4e78f)" d="M 442.035 303.64 
L 47.81 38.687619 
" style="fill:none;stroke:#ff7f0e;stroke-linecap:square;stroke-width:1.5;"/>
   </g>
   <g id="line2d_235">
    <path clip-path="url(#pec7de4e78f)" d="M 461.8 303.64 
L 323.7675 303.64 
L 47.81 38.687619 
" style="fill:none;stroke:#2ca02c;stroke-linecap:square;stroke-width:1.5;"/>
   </g>
   <g id="line2d_236">
    <path clip-path="url(#pec7de4e78f)" d="M 461.8 303.64 
L 442.035 303.64 
L 87.2325 302.793507 
L 47.81 38.687619 
" style="fill:none;stroke:#d62728;stroke-linecap:square;stroke-width:1.5;"/>
   </g>
   <g id="line2d_237">
    <path clip-path="url(#pec7de4e78f)" d="M 461.8 303.64 
L 442.035 303.64 
L 87.2325 299.407534 
L 47.81 38.687619 
" style="fill:none;stroke:#9467bd;stroke-linecap:square;stroke-width:1.5;"/>
   </g>
   <g id="line2d_238">
    <path clip-path="url(#pec7de4e78f)" d="M 461.8 303.64 
L 402.6125 303.64 
L 87.2325 302.790794 
L 47.81 38.687619 
" style="fill:none;stroke:#8c564b;stroke-linecap:square;stroke-width:1.5;"/>
   </g>
   <g id="line2d_239">
    <path clip-path="url(#pec7de4e78f)" d="M 461.8 303.64 
L 442.035 303.64 
L 87.2325 301.10052 
L 47.81 38.687619 
" style="fill:none;stroke:#e377c2;stroke-linecap:square;stroke-width:1.5;"/>
   </g>
   <g id="line2d_240">
    <path clip-path="url(#pec7de4e78f)" d="M 461.8 303.64 
L 442.035 303.64 
L 87.2325 302.793507 
L 47.81 38.687619 
" style="fill:none;stroke:#7f7f7f;stroke-linecap:square;stroke-width:1.5;"/>
   </g>
   <g id="line2d_241">
    <path clip-path="url(#pec7de4e78f)" d="M 461.8 303.64 
L 402.6125 303.64 
L 126.655 298.544762 
L 87.2325 296.846349 
L 47.81 38.687619 
" style="fill:none;stroke:#bcbd22;stroke-linecap:square;stroke-width:1.5;"/>
   </g>
   <g id="line2d_242">
    <path clip-path="url(#pec7de4e78f)" d="M 461.8 303.597925 
L 87.2325 302.796203 
L 47.81 38.687619 
" style="fill:none;stroke:#17becf;stroke-linecap:square;stroke-width:1.5;"/>
   </g>
   <g id="line2d_243">
    <path clip-path="url(#pec7de4e78f)" d="M 461.8 303.64 
L 442.035 303.64 
L 47.81 38.687619 
" style="fill:none;stroke:#1f77b4;stroke-linecap:square;stroke-width:1.5;"/>
   </g>
   <g id="line2d_244">
    <path clip-path="url(#pec7de4e78f)" d="M 461.8 303.64 
L 442.035 303.64 
L 87.2325 302.793507 
L 47.81 38.687619 
" style="fill:none;stroke:#ff7f0e;stroke-linecap:square;stroke-width:1.5;"/>
   </g>
   <g id="line2d_245">
    <path clip-path="url(#pec7de4e78f)" d="M 461.8 303.64 
L 402.6125 303.64 
L 166.0775 302.793507 
L 87.2325 297.714547 
L 47.81 38.687619 
" style="fill:none;stroke:#2ca02c;stroke-linecap:square;stroke-width:1.5;"/>
   </g>
   <g id="line2d_246">
    <path clip-path="url(#pec7de4e78f)" d="M 461.8 303.64 
L 402.6125 303.64 
L 87.2325 301.084189 
L 47.81 38.687619 
" style="fill:none;stroke:#d62728;stroke-linecap:square;stroke-width:1.5;"/>
   </g>
   <g id="line2d_247">
    <path clip-path="url(#pec7de4e78f)" d="M 461.8 303.64 
L 363.19 303.64 
L 87.2325 302.788063 
L 47.81 38.687619 
" style="fill:none;stroke:#9467bd;stroke-linecap:square;stroke-width:1.5;"/>
   </g>
   <g id="line2d_248">
    <path clip-path="url(#pec7de4e78f)" d="M 461.8 303.64 
L 244.9225 303.64 
L 87.2325 299.393968 
L 47.81 38.687619 
" style="fill:none;stroke:#8c564b;stroke-linecap:square;stroke-width:1.5;"/>
   </g>
   <g id="line2d_249">
    <path clip-path="url(#pec7de4e78f)" d="M 461.8 303.64 
L 323.7675 303.64 
L 87.2325 301.936126 
L 47.81 38.687619 
" style="fill:none;stroke:#e377c2;stroke-linecap:square;stroke-width:1.5;"/>
   </g>
   <g id="line2d_250">
    <path clip-path="url(#pec7de4e78f)" d="M 461.8 303.64 
L 402.6125 303.64 
L 87.2325 301.947014 
L 47.81 38.687619 
" style="fill:none;stroke:#7f7f7f;stroke-linecap:square;stroke-width:1.5;"/>
   </g>
   <g id="line2d_251">
    <path clip-path="url(#pec7de4e78f)" d="M 442.035 303.64 
L 47.81 38.687619 
" style="fill:none;stroke:#bcbd22;stroke-linecap:square;stroke-width:1.5;"/>
   </g>
   <g id="line2d_252">
    <path clip-path="url(#pec7de4e78f)" d="M 461.8 303.64 
L 442.035 303.64 
L 126.655 301.947014 
L 47.81 38.687619 
" style="fill:none;stroke:#17becf;stroke-linecap:square;stroke-width:1.5;"/>
   </g>
   <g id="line2d_253">
    <path clip-path="url(#pec7de4e78f)" d="M 461.8 303.55585 
L 87.2325 301.952405 
L 47.81 38.687619 
" style="fill:none;stroke:#1f77b4;stroke-linecap:square;stroke-width:1.5;"/>
   </g>
   <g id="line2d_254">
    <path clip-path="url(#pec7de4e78f)" d="M 461.8 303.513545 
L 126.655 302.796203 
L 87.2325 293.514431 
L 47.81 38.687619 
" style="fill:none;stroke:#ff7f0e;stroke-linecap:square;stroke-width:1.5;"/>
   </g>
   <g id="line2d_255">
    <path clip-path="url(#pec7de4e78f)" d="M 461.8 303.64 
L 402.6125 303.64 
L 87.2325 301.941587 
L 47.81 38.687619 
" style="fill:none;stroke:#2ca02c;stroke-linecap:square;stroke-width:1.5;"/>
   </g>
   <g id="line2d_256">
    <path clip-path="url(#pec7de4e78f)" d="M 461.8 303.260636 
L 126.655 301.108608 
L 87.2325 298.577216 
L 47.81 38.687619 
" style="fill:none;stroke:#d62728;stroke-linecap:square;stroke-width:1.5;"/>
   </g>
   <g id="line2d_257">
    <path clip-path="url(#pec7de4e78f)" d="M 461.8 303.55585 
L 87.2325 301.952405 
L 47.81 38.687619 
" style="fill:none;stroke:#9467bd;stroke-linecap:square;stroke-width:1.5;"/>
   </g>
   <g id="line2d_258">
    <path clip-path="url(#pec7de4e78f)" d="M 442.035 303.64 
L 47.81 38.687619 
" style="fill:none;stroke:#8c564b;stroke-linecap:square;stroke-width:1.5;"/>
   </g>
   <g id="line2d_259">
    <path clip-path="url(#pec7de4e78f)" d="M 461.8 303.64 
L 442.035 303.64 
L 87.2325 302.790794 
L 47.81 38.687619 
" style="fill:none;stroke:#e377c2;stroke-linecap:square;stroke-width:1.5;"/>
   </g>
   <g id="line2d_260">
    <path clip-path="url(#pec7de4e78f)" d="M 461.8 303.64 
L 442.035 303.64 
L 126.655 302.790794 
L 87.2325 298.544762 
L 47.81 38.687619 
" style="fill:none;stroke:#7f7f7f;stroke-linecap:square;stroke-width:1.5;"/>
   </g>
   <g id="line2d_261">
    <path clip-path="url(#pec7de4e78f)" d="M 461.8 303.64 
L 402.6125 303.64 
L 87.2325 298.544762 
L 47.81 38.687619 
" style="fill:none;stroke:#bcbd22;stroke-linecap:square;stroke-width:1.5;"/>
   </g>
   <g id="line2d_262">
    <path clip-path="url(#pec7de4e78f)" d="M 461.8 303.64 
L 363.19 303.64 
L 87.2325 301.947014 
L 47.81 38.687619 
" style="fill:none;stroke:#17becf;stroke-linecap:square;stroke-width:1.5;"/>
   </g>
   <g id="line2d_263">
    <path clip-path="url(#pec7de4e78f)" d="M 442.035 303.64 
L 47.81 38.687619 
" style="fill:none;stroke:#1f77b4;stroke-linecap:square;stroke-width:1.5;"/>
   </g>
   <g id="patch_3">
    <path d="M 47.81 303.64 
L 47.81 25.44 
" style="fill:none;stroke:#000000;stroke-linecap:square;stroke-linejoin:miter;stroke-width:0.8;"/>
   </g>
   <g id="patch_4">
    <path d="M 442.035 303.64 
L 442.035 25.44 
" style="fill:none;stroke:#000000;stroke-linecap:square;stroke-linejoin:miter;stroke-width:0.8;"/>
   </g>
   <g id="patch_5">
    <path d="M 47.81 303.64 
L 442.035 303.64 
" style="fill:none;stroke:#000000;stroke-linecap:square;stroke-linejoin:miter;stroke-width:0.8;"/>
   </g>
   <g id="patch_6">
    <path d="M 47.81 25.44 
L 442.035 25.44 
" style="fill:none;stroke:#000000;stroke-linecap:square;stroke-linejoin:miter;stroke-width:0.8;"/>
   </g>
   <g id="text_15">
    <!-- False Acceptance Rate -->
    <g transform="translate(177.368125 19.44)scale(0.12 -0.12)">
     <defs>
      <path d="M 9.8125 72.90625 
L 51.703125 72.90625 
L 51.703125 64.59375 
L 19.671875 64.59375 
L 19.671875 43.109375 
L 48.578125 43.109375 
L 48.578125 34.8125 
L 19.671875 34.8125 
L 19.671875 0 
L 9.8125 0 
z
" id="DejaVuSans-70"/>
      <path d="M 34.1875 63.1875 
L 20.796875 26.90625 
L 47.609375 26.90625 
z
M 28.609375 72.90625 
L 39.796875 72.90625 
L 67.578125 0 
L 57.328125 0 
L 50.6875 18.703125 
L 17.828125 18.703125 
L 11.1875 0 
L 0.78125 0 
z
" id="DejaVuSans-65"/>
      <path d="M 48.78125 52.59375 
L 48.78125 44.1875 
Q 44.96875 46.296875 41.140625 47.34375 
Q 37.3125 48.390625 33.40625 48.390625 
Q 24.65625 48.390625 19.8125 42.84375 
Q 14.984375 37.3125 14.984375 27.296875 
Q 14.984375 17.28125 19.8125 11.734375 
Q 24.65625 6.203125 33.40625 6.203125 
Q 37.3125 6.203125 41.140625 7.25 
Q 44.96875 8.296875 48.78125 10.40625 
L 48.78125 2.09375 
Q 45.015625 0.34375 40.984375 -0.53125 
Q 36.96875 -1.421875 32.421875 -1.421875 
Q 20.0625 -1.421875 12.78125 6.34375 
Q 5.515625 14.109375 5.515625 27.296875 
Q 5.515625 40.671875 12.859375 48.328125 
Q 20.21875 56 33.015625 56 
Q 37.15625 56 41.109375 55.140625 
Q 45.0625 54.296875 48.78125 52.59375 
z
" id="DejaVuSans-99"/>
      <path d="M 18.109375 8.203125 
L 18.109375 -20.796875 
L 9.078125 -20.796875 
L 9.078125 54.6875 
L 18.109375 54.6875 
L 18.109375 46.390625 
Q 20.953125 51.265625 25.265625 53.625 
Q 29.59375 56 35.59375 56 
Q 45.5625 56 51.78125 48.09375 
Q 58.015625 40.1875 58.015625 27.296875 
Q 58.015625 14.40625 51.78125 6.484375 
Q 45.5625 -1.421875 35.59375 -1.421875 
Q 29.59375 -1.421875 25.265625 0.953125 
Q 20.953125 3.328125 18.109375 8.203125 
z
M 48.6875 27.296875 
Q 48.6875 37.203125 44.609375 42.84375 
Q 40.53125 48.484375 33.40625 48.484375 
Q 26.265625 48.484375 22.1875 42.84375 
Q 18.109375 37.203125 18.109375 27.296875 
Q 18.109375 17.390625 22.1875 11.75 
Q 26.265625 6.109375 33.40625 6.109375 
Q 40.53125 6.109375 44.609375 11.75 
Q 48.6875 17.390625 48.6875 27.296875 
z
" id="DejaVuSans-112"/>
      <path d="M 54.890625 33.015625 
L 54.890625 0 
L 45.90625 0 
L 45.90625 32.71875 
Q 45.90625 40.484375 42.875 44.328125 
Q 39.84375 48.1875 33.796875 48.1875 
Q 26.515625 48.1875 22.3125 43.546875 
Q 18.109375 38.921875 18.109375 30.90625 
L 18.109375 0 
L 9.078125 0 
L 9.078125 54.6875 
L 18.109375 54.6875 
L 18.109375 46.1875 
Q 21.34375 51.125 25.703125 53.5625 
Q 30.078125 56 35.796875 56 
Q 45.21875 56 50.046875 50.171875 
Q 54.890625 44.34375 54.890625 33.015625 
z
" id="DejaVuSans-110"/>
     </defs>
     <use xlink:href="#DejaVuSans-70"/>
     <use x="48.394531" xlink:href="#DejaVuSans-97"/>
     <use x="109.673828" xlink:href="#DejaVuSans-108"/>
     <use x="137.457031" xlink:href="#DejaVuSans-115"/>
     <use x="189.556641" xlink:href="#DejaVuSans-101"/>
     <use x="251.080078" xlink:href="#DejaVuSans-32"/>
     <use x="282.867188" xlink:href="#DejaVuSans-65"/>
     <use x="349.525391" xlink:href="#DejaVuSans-99"/>
     <use x="404.505859" xlink:href="#DejaVuSans-99"/>
     <use x="459.486328" xlink:href="#DejaVuSans-101"/>
     <use x="521.009766" xlink:href="#DejaVuSans-112"/>
     <use x="584.486328" xlink:href="#DejaVuSans-116"/>
     <use x="623.695312" xlink:href="#DejaVuSans-97"/>
     <use x="684.974609" xlink:href="#DejaVuSans-110"/>
     <use x="748.353516" xlink:href="#DejaVuSans-99"/>
     <use x="803.333984" xlink:href="#DejaVuSans-101"/>
     <use x="864.857422" xlink:href="#DejaVuSans-32"/>
     <use x="896.644531" xlink:href="#DejaVuSans-82"/>
     <use x="963.876953" xlink:href="#DejaVuSans-97"/>
     <use x="1025.15625" xlink:href="#DejaVuSans-116"/>
     <use x="1064.365234" xlink:href="#DejaVuSans-101"/>
    </g>
   </g>
  </g>
 </g>
 <defs>
  <clipPath id="pec7de4e78f">
   <rect height="278.2" width="394.225" x="47.81" y="25.44"/>
  </clipPath>
 </defs>
</svg>
